<?xml version="1.0" encoding="utf-8" standalone="no"?>
<!DOCTYPE svg PUBLIC "-//W3C//DTD SVG 1.1//EN"
  "http://www.w3.org/Graphics/SVG/1.1/DTD/svg11.dtd">
<svg xmlns:xlink="http://www.w3.org/1999/xlink" width="864pt" height="504pt" viewBox="0 0 864 504" xmlns="http://www.w3.org/2000/svg" version="1.1">
 <metadata>
  <rdf:RDF xmlns:dc="http://purl.org/dc/elements/1.1/" xmlns:cc="http://creativecommons.org/ns#" xmlns:rdf="http://www.w3.org/1999/02/22-rdf-syntax-ns#">
   <cc:Work>
    <dc:type rdf:resource="http://purl.org/dc/dcmitype/StillImage"/>
    <dc:date>2023-09-21T14:49:16.952190</dc:date>
    <dc:format>image/svg+xml</dc:format>
    <dc:creator>
     <cc:Agent>
      <dc:title>Matplotlib v3.7.2, https://matplotlib.org/</dc:title>
     </cc:Agent>
    </dc:creator>
   </cc:Work>
  </rdf:RDF>
 </metadata>
 <defs>
  <style type="text/css">*{stroke-linejoin: round; stroke-linecap: butt}</style>
 </defs>
 <g id="figure_1">
  <g id="patch_1">
   <path d="M 0 504 
L 864 504 
L 864 0 
L 0 0 
z
"/>
  </g>
  <g id="axes_1">
   <g id="matplotlib.axis_1">
    <g id="xtick_1">
     <g id="line2d_1">
      <path d="M 120.714143 448.56 
L 120.714143 60.48 
" clip-path="url(#p475600e927)" style="fill: none; stroke: #444444; stroke-width: 0.8; stroke-linecap: square"/>
     </g>
     <g id="line2d_2">
      <defs>
       <path id="mf829a78528" d="M 0 0 
L 0 3.5 
" style="stroke: #ffffff; stroke-width: 0.8"/>
      </defs>
      <g>
       <use xlink:href="#mf829a78528" x="120.714143" y="448.56" style="fill: #ffffff; stroke: #ffffff; stroke-width: 0.8"/>
      </g>
     </g>
     <g id="text_1">
      <!-- Sep 04 -->
      <g style="fill: #ffffff" transform="translate(109.854768 461.0875) scale(0.08 -0.08)">
       <defs>
        <path id="GillSans-53" d="M 1563 1831 
L 1088 2119 
Q 641 2391 452 2655 
Q 263 2919 263 3263 
Q 263 3778 620 4100 
Q 978 4422 1550 4422 
Q 2097 4422 2553 4116 
L 2553 3406 
Q 2081 3859 1538 3859 
Q 1231 3859 1034 3717 
Q 838 3575 838 3353 
Q 838 3156 981 2984 
Q 1125 2813 1447 2625 
L 1925 2344 
Q 2725 1869 2725 1131 
Q 2725 606 2373 278 
Q 2022 -50 1459 -50 
Q 813 -50 281 347 
L 281 1141 
Q 788 500 1453 500 
Q 1747 500 1942 664 
Q 2138 828 2138 1075 
Q 2138 1475 1563 1831 
z
" transform="scale(0.015625)"/>
        <path id="GillSans-65" d="M 2853 1388 
L 831 1388 
Q 853 975 1108 731 
Q 1363 488 1766 488 
Q 2328 488 2803 838 
L 2803 281 
Q 2541 106 2283 31 
Q 2025 -44 1678 -44 
Q 1203 -44 909 153 
Q 616 350 439 683 
Q 263 1016 263 1453 
Q 263 2109 634 2520 
Q 1006 2931 1600 2931 
Q 2172 2931 2512 2531 
Q 2853 2131 2853 1459 
L 2853 1388 
z
M 844 1728 
L 2291 1728 
Q 2269 2069 2087 2253 
Q 1906 2438 1600 2438 
Q 1294 2438 1098 2253 
Q 903 2069 844 1728 
z
" transform="scale(0.015625)"/>
        <path id="GillSans-70" d="M 366 -1466 
L 366 2875 
L 1363 2875 
Q 2128 2875 2554 2494 
Q 2981 2113 2981 1428 
Q 2981 781 2579 365 
Q 2178 -50 1556 -50 
Q 1281 -50 947 72 
L 947 -1466 
L 366 -1466 
z
M 1350 2344 
L 947 2344 
L 947 575 
Q 1209 441 1497 441 
Q 1897 441 2151 719 
Q 2406 997 2406 1434 
Q 2406 1716 2286 1931 
Q 2166 2147 1958 2245 
Q 1750 2344 1350 2344 
z
" transform="scale(0.015625)"/>
        <path id="GillSans-20" transform="scale(0.015625)"/>
        <path id="GillSans-30" d="M 1625 4422 
Q 2225 4422 2617 3792 
Q 3009 3163 3009 2194 
Q 3009 1200 2617 578 
Q 2225 -44 1600 -44 
Q 966 -44 581 565 
Q 197 1175 197 2181 
Q 197 3175 594 3798 
Q 991 4422 1625 4422 
z
M 1631 3828 
L 1600 3828 
Q 1241 3828 1030 3386 
Q 819 2944 819 2188 
Q 819 1413 1025 972 
Q 1231 531 1594 531 
Q 1956 531 2165 972 
Q 2375 1413 2375 2169 
Q 2375 2928 2173 3378 
Q 1972 3828 1631 3828 
z
" transform="scale(0.015625)"/>
        <path id="GillSans-34" d="M 2272 4422 
L 2528 4422 
L 2528 1972 
L 3016 1972 
L 3016 1441 
L 2528 1441 
L 2528 0 
L 1919 0 
L 1919 1441 
L 72 1441 
L 72 1709 
L 2272 4422 
z
M 1919 1972 
L 1919 3238 
L 909 1972 
L 1919 1972 
z
" transform="scale(0.015625)"/>
       </defs>
       <use xlink:href="#GillSans-53"/>
       <use xlink:href="#GillSans-65" x="45.800781"/>
       <use xlink:href="#GillSans-70" x="93.701172"/>
       <use xlink:href="#GillSans-20" x="143.701172"/>
       <use xlink:href="#GillSans-30" x="171.484375"/>
       <use xlink:href="#GillSans-34" x="221.484375"/>
      </g>
     </g>
    </g>
    <g id="xtick_2">
     <g id="line2d_3">
      <path d="M 156.275475 448.56 
L 156.275475 60.48 
" clip-path="url(#p475600e927)" style="fill: none; stroke: #444444; stroke-width: 0.8; stroke-linecap: square"/>
     </g>
     <g id="line2d_4">
      <g>
       <use xlink:href="#mf829a78528" x="156.275475" y="448.56" style="fill: #ffffff; stroke: #ffffff; stroke-width: 0.8"/>
      </g>
     </g>
     <g id="text_2">
      <!-- Sep 05 -->
      <g style="fill: #ffffff" transform="translate(145.4161 461.0875) scale(0.08 -0.08)">
       <defs>
        <path id="GillSans-35" d="M 647 4366 
L 2584 4366 
L 2584 3809 
L 1216 3809 
L 1216 2706 
Q 1281 2713 1350 2713 
Q 1984 2713 2393 2327 
Q 2803 1941 2803 1344 
Q 2803 728 2398 342 
Q 1994 -44 1350 -44 
Q 819 -44 319 213 
L 319 856 
Q 791 550 1241 550 
Q 1634 550 1901 779 
Q 2169 1009 2169 1344 
Q 2169 1691 1878 1923 
Q 1588 2156 1153 2156 
Q 781 2156 647 2094 
L 647 4366 
z
" transform="scale(0.015625)"/>
       </defs>
       <use xlink:href="#GillSans-53"/>
       <use xlink:href="#GillSans-65" x="45.800781"/>
       <use xlink:href="#GillSans-70" x="93.701172"/>
       <use xlink:href="#GillSans-20" x="143.701172"/>
       <use xlink:href="#GillSans-30" x="171.484375"/>
       <use xlink:href="#GillSans-35" x="221.484375"/>
      </g>
     </g>
    </g>
    <g id="xtick_3">
     <g id="line2d_5">
      <path d="M 191.836807 448.56 
L 191.836807 60.48 
" clip-path="url(#p475600e927)" style="fill: none; stroke: #444444; stroke-width: 0.8; stroke-linecap: square"/>
     </g>
     <g id="line2d_6">
      <g>
       <use xlink:href="#mf829a78528" x="191.836807" y="448.56" style="fill: #ffffff; stroke: #ffffff; stroke-width: 0.8"/>
      </g>
     </g>
     <g id="text_3">
      <!-- Sep 06 -->
      <g style="fill: #ffffff" transform="translate(180.977432 461.0875) scale(0.08 -0.08)">
       <defs>
        <path id="GillSans-36" d="M 1966 4378 
L 2028 4422 
L 2406 3944 
Q 1906 3622 1576 3240 
Q 1247 2859 1069 2344 
Q 1416 2522 1759 2522 
Q 2275 2522 2628 2156 
Q 2981 1791 2981 1259 
Q 2981 713 2597 331 
Q 2213 -50 1663 -50 
Q 1047 -50 667 383 
Q 288 816 288 1516 
Q 288 2041 483 2561 
Q 678 3081 1045 3536 
Q 1413 3991 1966 4378 
z
M 934 1697 
Q 909 1550 909 1369 
Q 909 1000 1123 762 
Q 1338 525 1672 525 
Q 1972 525 2167 728 
Q 2363 931 2363 1241 
Q 2363 1556 2155 1751 
Q 1947 1947 1606 1947 
Q 1431 1947 1289 1894 
Q 1147 1841 934 1697 
z
" transform="scale(0.015625)"/>
       </defs>
       <use xlink:href="#GillSans-53"/>
       <use xlink:href="#GillSans-65" x="45.800781"/>
       <use xlink:href="#GillSans-70" x="93.701172"/>
       <use xlink:href="#GillSans-20" x="143.701172"/>
       <use xlink:href="#GillSans-30" x="171.484375"/>
       <use xlink:href="#GillSans-36" x="221.484375"/>
      </g>
     </g>
    </g>
    <g id="xtick_4">
     <g id="line2d_7">
      <path d="M 227.398139 448.56 
L 227.398139 60.48 
" clip-path="url(#p475600e927)" style="fill: none; stroke: #444444; stroke-width: 0.8; stroke-linecap: square"/>
     </g>
     <g id="line2d_8">
      <g>
       <use xlink:href="#mf829a78528" x="227.398139" y="448.56" style="fill: #ffffff; stroke: #ffffff; stroke-width: 0.8"/>
      </g>
     </g>
     <g id="text_4">
      <!-- Sep 07 -->
      <g style="fill: #ffffff" transform="translate(216.538764 461.0875) scale(0.08 -0.08)">
       <defs>
        <path id="GillSans-37" d="M 313 4366 
L 3138 4366 
L 1159 -50 
L 603 184 
L 2203 3769 
L 313 3769 
L 313 4366 
z
" transform="scale(0.015625)"/>
       </defs>
       <use xlink:href="#GillSans-53"/>
       <use xlink:href="#GillSans-65" x="45.800781"/>
       <use xlink:href="#GillSans-70" x="93.701172"/>
       <use xlink:href="#GillSans-20" x="143.701172"/>
       <use xlink:href="#GillSans-30" x="171.484375"/>
       <use xlink:href="#GillSans-37" x="221.484375"/>
      </g>
     </g>
    </g>
    <g id="xtick_5">
     <g id="line2d_9">
      <path d="M 262.959471 448.56 
L 262.959471 60.48 
" clip-path="url(#p475600e927)" style="fill: none; stroke: #444444; stroke-width: 0.8; stroke-linecap: square"/>
     </g>
     <g id="line2d_10">
      <g>
       <use xlink:href="#mf829a78528" x="262.959471" y="448.56" style="fill: #ffffff; stroke: #ffffff; stroke-width: 0.8"/>
      </g>
     </g>
     <g id="text_5">
      <!-- Sep 08 -->
      <g style="fill: #ffffff" transform="translate(252.100096 461.0875) scale(0.08 -0.08)">
       <defs>
        <path id="GillSans-38" d="M 306 3194 
Q 306 3706 690 4064 
Q 1075 4422 1631 4422 
Q 2178 4422 2554 4067 
Q 2931 3713 2931 3194 
Q 2931 2609 2388 2228 
Q 2994 1878 2994 1197 
Q 2994 656 2600 303 
Q 2206 -50 1606 -50 
Q 1013 -50 609 311 
Q 206 672 206 1203 
Q 206 1869 825 2228 
Q 547 2453 426 2676 
Q 306 2900 306 3194 
z
M 2309 3175 
Q 2309 3459 2114 3643 
Q 1919 3828 1619 3828 
Q 1316 3828 1122 3647 
Q 928 3466 928 3181 
Q 928 2909 1133 2715 
Q 1338 2522 1625 2522 
Q 1909 2522 2109 2714 
Q 2309 2906 2309 3175 
z
M 2363 1172 
L 2363 1234 
Q 2363 1534 2148 1723 
Q 1934 1913 1594 1913 
Q 1259 1913 1048 1722 
Q 838 1531 838 1228 
Q 838 925 1053 734 
Q 1269 544 1613 544 
Q 1941 544 2152 719 
Q 2363 894 2363 1172 
z
" transform="scale(0.015625)"/>
       </defs>
       <use xlink:href="#GillSans-53"/>
       <use xlink:href="#GillSans-65" x="45.800781"/>
       <use xlink:href="#GillSans-70" x="93.701172"/>
       <use xlink:href="#GillSans-20" x="143.701172"/>
       <use xlink:href="#GillSans-30" x="171.484375"/>
       <use xlink:href="#GillSans-38" x="221.484375"/>
      </g>
     </g>
    </g>
    <g id="xtick_6">
     <g id="line2d_11">
      <path d="M 298.520803 448.56 
L 298.520803 60.48 
" clip-path="url(#p475600e927)" style="fill: none; stroke: #444444; stroke-width: 0.8; stroke-linecap: square"/>
     </g>
     <g id="line2d_12">
      <g>
       <use xlink:href="#mf829a78528" x="298.520803" y="448.56" style="fill: #ffffff; stroke: #ffffff; stroke-width: 0.8"/>
      </g>
     </g>
     <g id="text_6">
      <!-- Sep 09 -->
      <g style="fill: #ffffff" transform="translate(287.661428 461.0875) scale(0.08 -0.08)">
       <defs>
        <path id="GillSans-39" d="M 1197 -50 
L 813 403 
Q 1297 709 1659 1145 
Q 2022 1581 2144 2041 
Q 1847 1856 1447 1856 
Q 947 1856 589 2228 
Q 231 2600 231 3122 
Q 231 3666 612 4044 
Q 994 4422 1544 4422 
Q 2163 4422 2556 3975 
Q 2950 3528 2950 2828 
Q 2950 2034 2456 1223 
Q 1963 413 1197 -50 
z
M 2266 2663 
Q 2303 2913 2303 2988 
Q 2303 3366 2092 3606 
Q 1881 3847 1550 3847 
Q 1247 3847 1048 3642 
Q 850 3438 850 3128 
Q 850 2844 1065 2637 
Q 1281 2431 1581 2431 
Q 1931 2431 2266 2663 
z
" transform="scale(0.015625)"/>
       </defs>
       <use xlink:href="#GillSans-53"/>
       <use xlink:href="#GillSans-65" x="45.800781"/>
       <use xlink:href="#GillSans-70" x="93.701172"/>
       <use xlink:href="#GillSans-20" x="143.701172"/>
       <use xlink:href="#GillSans-30" x="171.484375"/>
       <use xlink:href="#GillSans-39" x="221.484375"/>
      </g>
     </g>
    </g>
    <g id="xtick_7">
     <g id="line2d_13">
      <path d="M 334.082135 448.56 
L 334.082135 60.48 
" clip-path="url(#p475600e927)" style="fill: none; stroke: #444444; stroke-width: 0.8; stroke-linecap: square"/>
     </g>
     <g id="line2d_14">
      <g>
       <use xlink:href="#mf829a78528" x="334.082135" y="448.56" style="fill: #ffffff; stroke: #ffffff; stroke-width: 0.8"/>
      </g>
     </g>
     <g id="text_7">
      <!-- Sep 10 -->
      <g style="fill: #ffffff" transform="translate(323.22276 461.0875) scale(0.08 -0.08)">
       <defs>
        <path id="GillSans-31" d="M 1294 4366 
L 1919 4366 
L 1919 0 
L 1294 0 
L 1294 4366 
z
" transform="scale(0.015625)"/>
       </defs>
       <use xlink:href="#GillSans-53"/>
       <use xlink:href="#GillSans-65" x="45.800781"/>
       <use xlink:href="#GillSans-70" x="93.701172"/>
       <use xlink:href="#GillSans-20" x="143.701172"/>
       <use xlink:href="#GillSans-31" x="171.484375"/>
       <use xlink:href="#GillSans-30" x="221.484375"/>
      </g>
     </g>
    </g>
    <g id="xtick_8">
     <g id="line2d_15">
      <path d="M 369.643467 448.56 
L 369.643467 60.48 
" clip-path="url(#p475600e927)" style="fill: none; stroke: #444444; stroke-width: 0.8; stroke-linecap: square"/>
     </g>
     <g id="line2d_16">
      <g>
       <use xlink:href="#mf829a78528" x="369.643467" y="448.56" style="fill: #ffffff; stroke: #ffffff; stroke-width: 0.8"/>
      </g>
     </g>
     <g id="text_8">
      <!-- Sep 11 -->
      <g style="fill: #ffffff" transform="translate(358.784092 461.0875) scale(0.08 -0.08)">
       <use xlink:href="#GillSans-53"/>
       <use xlink:href="#GillSans-65" x="45.800781"/>
       <use xlink:href="#GillSans-70" x="93.701172"/>
       <use xlink:href="#GillSans-20" x="143.701172"/>
       <use xlink:href="#GillSans-31" x="171.484375"/>
       <use xlink:href="#GillSans-31" x="221.484375"/>
      </g>
     </g>
    </g>
    <g id="xtick_9">
     <g id="line2d_17">
      <path d="M 405.204799 448.56 
L 405.204799 60.48 
" clip-path="url(#p475600e927)" style="fill: none; stroke: #444444; stroke-width: 0.8; stroke-linecap: square"/>
     </g>
     <g id="line2d_18">
      <g>
       <use xlink:href="#mf829a78528" x="405.204799" y="448.56" style="fill: #ffffff; stroke: #ffffff; stroke-width: 0.8"/>
      </g>
     </g>
     <g id="text_9">
      <!-- Sep 12 -->
      <g style="fill: #ffffff" transform="translate(394.345424 461.0875) scale(0.08 -0.08)">
       <defs>
        <path id="GillSans-32" d="M 1319 603 
L 2981 603 
L 2981 0 
L 219 0 
L 219 44 
L 481 353 
Q 1097 1116 1461 1647 
Q 1825 2178 1936 2450 
Q 2047 2722 2047 2988 
Q 2047 3356 1837 3579 
Q 1628 3803 1281 3803 
Q 1019 3803 764 3648 
Q 509 3494 306 3213 
L 306 4006 
Q 816 4422 1356 4422 
Q 1928 4422 2298 4040 
Q 2669 3659 2669 3072 
Q 2669 2809 2576 2511 
Q 2484 2213 2250 1823 
Q 2016 1434 1453 763 
L 1319 603 
z
" transform="scale(0.015625)"/>
       </defs>
       <use xlink:href="#GillSans-53"/>
       <use xlink:href="#GillSans-65" x="45.800781"/>
       <use xlink:href="#GillSans-70" x="93.701172"/>
       <use xlink:href="#GillSans-20" x="143.701172"/>
       <use xlink:href="#GillSans-31" x="171.484375"/>
       <use xlink:href="#GillSans-32" x="221.484375"/>
      </g>
     </g>
    </g>
    <g id="xtick_10">
     <g id="line2d_19">
      <path d="M 440.766131 448.56 
L 440.766131 60.48 
" clip-path="url(#p475600e927)" style="fill: none; stroke: #444444; stroke-width: 0.8; stroke-linecap: square"/>
     </g>
     <g id="line2d_20">
      <g>
       <use xlink:href="#mf829a78528" x="440.766131" y="448.56" style="fill: #ffffff; stroke: #ffffff; stroke-width: 0.8"/>
      </g>
     </g>
     <g id="text_10">
      <!-- Sep 13 -->
      <g style="fill: #ffffff" transform="translate(429.906756 461.095) scale(0.08 -0.08)">
       <defs>
        <path id="GillSans-33" d="M 1153 2541 
L 1191 2541 
Q 1600 2541 1814 2709 
Q 2028 2878 2028 3200 
Q 2028 3491 1820 3672 
Q 1613 3853 1275 3853 
Q 934 3853 519 3641 
L 519 4238 
Q 900 4428 1350 4428 
Q 1953 4428 2301 4112 
Q 2650 3797 2650 3250 
Q 2650 2919 2515 2692 
Q 2381 2466 2088 2303 
Q 2344 2203 2462 2058 
Q 2581 1913 2647 1706 
Q 2713 1500 2713 1269 
Q 2713 697 2331 323 
Q 1950 -50 1369 -50 
Q 872 -50 409 191 
L 409 872 
Q 903 563 1369 563 
Q 1684 563 1876 750 
Q 2069 938 2069 1247 
Q 2069 1506 1909 1700 
Q 1816 1809 1702 1861 
Q 1588 1913 1209 1959 
L 1153 1966 
L 1153 2541 
z
" transform="scale(0.015625)"/>
       </defs>
       <use xlink:href="#GillSans-53"/>
       <use xlink:href="#GillSans-65" x="45.800781"/>
       <use xlink:href="#GillSans-70" x="93.701172"/>
       <use xlink:href="#GillSans-20" x="143.701172"/>
       <use xlink:href="#GillSans-31" x="171.484375"/>
       <use xlink:href="#GillSans-33" x="221.484375"/>
      </g>
     </g>
    </g>
    <g id="xtick_11">
     <g id="line2d_21">
      <path d="M 476.327462 448.56 
L 476.327462 60.48 
" clip-path="url(#p475600e927)" style="fill: none; stroke: #444444; stroke-width: 0.8; stroke-linecap: square"/>
     </g>
     <g id="line2d_22">
      <g>
       <use xlink:href="#mf829a78528" x="476.327462" y="448.56" style="fill: #ffffff; stroke: #ffffff; stroke-width: 0.8"/>
      </g>
     </g>
     <g id="text_11">
      <!-- Sep 14 -->
      <g style="fill: #ffffff" transform="translate(465.468087 461.0875) scale(0.08 -0.08)">
       <use xlink:href="#GillSans-53"/>
       <use xlink:href="#GillSans-65" x="45.800781"/>
       <use xlink:href="#GillSans-70" x="93.701172"/>
       <use xlink:href="#GillSans-20" x="143.701172"/>
       <use xlink:href="#GillSans-31" x="171.484375"/>
       <use xlink:href="#GillSans-34" x="221.484375"/>
      </g>
     </g>
    </g>
    <g id="xtick_12">
     <g id="line2d_23">
      <path d="M 511.888794 448.56 
L 511.888794 60.48 
" clip-path="url(#p475600e927)" style="fill: none; stroke: #444444; stroke-width: 0.8; stroke-linecap: square"/>
     </g>
     <g id="line2d_24">
      <g>
       <use xlink:href="#mf829a78528" x="511.888794" y="448.56" style="fill: #ffffff; stroke: #ffffff; stroke-width: 0.8"/>
      </g>
     </g>
     <g id="text_12">
      <!-- Sep 15 -->
      <g style="fill: #ffffff" transform="translate(501.029419 461.0875) scale(0.08 -0.08)">
       <use xlink:href="#GillSans-53"/>
       <use xlink:href="#GillSans-65" x="45.800781"/>
       <use xlink:href="#GillSans-70" x="93.701172"/>
       <use xlink:href="#GillSans-20" x="143.701172"/>
       <use xlink:href="#GillSans-31" x="171.484375"/>
       <use xlink:href="#GillSans-35" x="221.484375"/>
      </g>
     </g>
    </g>
    <g id="xtick_13">
     <g id="line2d_25">
      <path d="M 547.450126 448.56 
L 547.450126 60.48 
" clip-path="url(#p475600e927)" style="fill: none; stroke: #444444; stroke-width: 0.8; stroke-linecap: square"/>
     </g>
     <g id="line2d_26">
      <g>
       <use xlink:href="#mf829a78528" x="547.450126" y="448.56" style="fill: #ffffff; stroke: #ffffff; stroke-width: 0.8"/>
      </g>
     </g>
     <g id="text_13">
      <!-- Sep 16 -->
      <g style="fill: #ffffff" transform="translate(536.590751 461.0875) scale(0.08 -0.08)">
       <use xlink:href="#GillSans-53"/>
       <use xlink:href="#GillSans-65" x="45.800781"/>
       <use xlink:href="#GillSans-70" x="93.701172"/>
       <use xlink:href="#GillSans-20" x="143.701172"/>
       <use xlink:href="#GillSans-31" x="171.484375"/>
       <use xlink:href="#GillSans-36" x="221.484375"/>
      </g>
     </g>
    </g>
    <g id="xtick_14">
     <g id="line2d_27">
      <path d="M 583.011458 448.56 
L 583.011458 60.48 
" clip-path="url(#p475600e927)" style="fill: none; stroke: #444444; stroke-width: 0.8; stroke-linecap: square"/>
     </g>
     <g id="line2d_28">
      <g>
       <use xlink:href="#mf829a78528" x="583.011458" y="448.56" style="fill: #ffffff; stroke: #ffffff; stroke-width: 0.8"/>
      </g>
     </g>
     <g id="text_14">
      <!-- Sep 17 -->
      <g style="fill: #ffffff" transform="translate(572.152083 461.0875) scale(0.08 -0.08)">
       <use xlink:href="#GillSans-53"/>
       <use xlink:href="#GillSans-65" x="45.800781"/>
       <use xlink:href="#GillSans-70" x="93.701172"/>
       <use xlink:href="#GillSans-20" x="143.701172"/>
       <use xlink:href="#GillSans-31" x="171.484375"/>
       <use xlink:href="#GillSans-37" x="221.484375"/>
      </g>
     </g>
    </g>
    <g id="xtick_15">
     <g id="line2d_29">
      <path d="M 618.57279 448.56 
L 618.57279 60.48 
" clip-path="url(#p475600e927)" style="fill: none; stroke: #444444; stroke-width: 0.8; stroke-linecap: square"/>
     </g>
     <g id="line2d_30">
      <g>
       <use xlink:href="#mf829a78528" x="618.57279" y="448.56" style="fill: #ffffff; stroke: #ffffff; stroke-width: 0.8"/>
      </g>
     </g>
     <g id="text_15">
      <!-- Sep 18 -->
      <g style="fill: #ffffff" transform="translate(607.713415 461.0875) scale(0.08 -0.08)">
       <use xlink:href="#GillSans-53"/>
       <use xlink:href="#GillSans-65" x="45.800781"/>
       <use xlink:href="#GillSans-70" x="93.701172"/>
       <use xlink:href="#GillSans-20" x="143.701172"/>
       <use xlink:href="#GillSans-31" x="171.484375"/>
       <use xlink:href="#GillSans-38" x="221.484375"/>
      </g>
     </g>
    </g>
    <g id="xtick_16">
     <g id="line2d_31">
      <path d="M 654.134122 448.56 
L 654.134122 60.48 
" clip-path="url(#p475600e927)" style="fill: none; stroke: #444444; stroke-width: 0.8; stroke-linecap: square"/>
     </g>
     <g id="line2d_32">
      <g>
       <use xlink:href="#mf829a78528" x="654.134122" y="448.56" style="fill: #ffffff; stroke: #ffffff; stroke-width: 0.8"/>
      </g>
     </g>
     <g id="text_16">
      <!-- Sep 19 -->
      <g style="fill: #ffffff" transform="translate(643.274747 461.0875) scale(0.08 -0.08)">
       <use xlink:href="#GillSans-53"/>
       <use xlink:href="#GillSans-65" x="45.800781"/>
       <use xlink:href="#GillSans-70" x="93.701172"/>
       <use xlink:href="#GillSans-20" x="143.701172"/>
       <use xlink:href="#GillSans-31" x="171.484375"/>
       <use xlink:href="#GillSans-39" x="221.484375"/>
      </g>
     </g>
    </g>
    <g id="xtick_17">
     <g id="line2d_33">
      <path d="M 689.695454 448.56 
L 689.695454 60.48 
" clip-path="url(#p475600e927)" style="fill: none; stroke: #444444; stroke-width: 0.8; stroke-linecap: square"/>
     </g>
     <g id="line2d_34">
      <g>
       <use xlink:href="#mf829a78528" x="689.695454" y="448.56" style="fill: #ffffff; stroke: #ffffff; stroke-width: 0.8"/>
      </g>
     </g>
     <g id="text_17">
      <!-- Sep 20 -->
      <g style="fill: #ffffff" transform="translate(678.836079 461.0875) scale(0.08 -0.08)">
       <use xlink:href="#GillSans-53"/>
       <use xlink:href="#GillSans-65" x="45.800781"/>
       <use xlink:href="#GillSans-70" x="93.701172"/>
       <use xlink:href="#GillSans-20" x="143.701172"/>
       <use xlink:href="#GillSans-32" x="171.484375"/>
       <use xlink:href="#GillSans-30" x="221.484375"/>
      </g>
     </g>
    </g>
    <g id="xtick_18">
     <g id="line2d_35">
      <path d="M 725.256786 448.56 
L 725.256786 60.48 
" clip-path="url(#p475600e927)" style="fill: none; stroke: #444444; stroke-width: 0.8; stroke-linecap: square"/>
     </g>
     <g id="line2d_36">
      <g>
       <use xlink:href="#mf829a78528" x="725.256786" y="448.56" style="fill: #ffffff; stroke: #ffffff; stroke-width: 0.8"/>
      </g>
     </g>
     <g id="text_18">
      <!-- Sep 21 -->
      <g style="fill: #ffffff" transform="translate(714.397411 461.0875) scale(0.08 -0.08)">
       <use xlink:href="#GillSans-53"/>
       <use xlink:href="#GillSans-65" x="45.800781"/>
       <use xlink:href="#GillSans-70" x="93.701172"/>
       <use xlink:href="#GillSans-20" x="143.701172"/>
       <use xlink:href="#GillSans-32" x="171.484375"/>
       <use xlink:href="#GillSans-31" x="221.484375"/>
      </g>
     </g>
    </g>
    <g id="xtick_19">
     <g id="line2d_37">
      <path d="M 760.818118 448.56 
L 760.818118 60.48 
" clip-path="url(#p475600e927)" style="fill: none; stroke: #444444; stroke-width: 0.8; stroke-linecap: square"/>
     </g>
     <g id="line2d_38">
      <g>
       <use xlink:href="#mf829a78528" x="760.818118" y="448.56" style="fill: #ffffff; stroke: #ffffff; stroke-width: 0.8"/>
      </g>
     </g>
     <g id="text_19">
      <!-- Sep 22 -->
      <g style="fill: #ffffff" transform="translate(749.958743 461.0875) scale(0.08 -0.08)">
       <use xlink:href="#GillSans-53"/>
       <use xlink:href="#GillSans-65" x="45.800781"/>
       <use xlink:href="#GillSans-70" x="93.701172"/>
       <use xlink:href="#GillSans-20" x="143.701172"/>
       <use xlink:href="#GillSans-32" x="171.484375"/>
       <use xlink:href="#GillSans-32" x="221.484375"/>
      </g>
     </g>
    </g>
    <g id="text_20">
     <!-- Time -->
     <g style="fill: #ffffff" transform="translate(428.287031 476.478125) scale(0.14 -0.14)">
      <defs>
       <path id="GillSans-54" d="M 109 4372 
L 3756 4372 
L 3756 3816 
L 2234 3816 
L 2234 0 
L 1606 0 
L 1606 3816 
L 109 3816 
L 109 4372 
z
" transform="scale(0.015625)"/>
       <path id="GillSans-69" d="M 697 4084 
Q 838 4084 938 3987 
Q 1038 3891 1038 3750 
Q 1038 3613 938 3513 
Q 838 3413 697 3413 
Q 566 3413 466 3514 
Q 366 3616 366 3750 
Q 366 3881 466 3982 
Q 566 4084 697 4084 
z
M 416 2875 
L 984 2875 
L 984 0 
L 416 0 
L 416 2875 
z
" transform="scale(0.015625)"/>
       <path id="GillSans-6d" d="M 2759 2088 
L 2759 0 
L 2188 0 
L 2188 1600 
Q 2188 2078 2059 2267 
Q 1931 2456 1613 2456 
Q 1434 2456 1286 2375 
Q 1138 2294 947 2088 
L 947 0 
L 378 0 
L 378 2875 
L 947 2875 
L 947 2497 
Q 1381 2931 1797 2931 
Q 2344 2931 2644 2413 
Q 3100 2938 3597 2938 
Q 4016 2938 4286 2631 
Q 4556 2325 4556 1697 
L 4556 0 
L 3988 0 
L 3988 1703 
Q 3988 2063 3841 2253 
Q 3694 2444 3419 2444 
Q 3066 2444 2759 2088 
z
" transform="scale(0.015625)"/>
      </defs>
      <use xlink:href="#GillSans-54"/>
      <use xlink:href="#GillSans-69" x="60.400391"/>
      <use xlink:href="#GillSans-6d" x="82.324219"/>
      <use xlink:href="#GillSans-65" x="159.423828"/>
     </g>
    </g>
   </g>
   <g id="matplotlib.axis_2">
    <g id="ytick_1">
     <g id="line2d_39">
      <path d="M 108 425.372118 
L 777.6 425.372118 
" clip-path="url(#p475600e927)" style="fill: none; stroke: #444444; stroke-width: 0.8; stroke-linecap: square"/>
     </g>
     <g id="line2d_40">
      <defs>
       <path id="m0ac8816a3a" d="M 0 0 
L -3.5 0 
" style="stroke: #ffffff; stroke-width: 0.8"/>
      </defs>
      <g>
       <use xlink:href="#m0ac8816a3a" x="108" y="425.372118" style="fill: #ffffff; stroke: #ffffff; stroke-width: 0.8"/>
      </g>
     </g>
     <g id="text_21">
      <!-- 30 -->
      <g style="fill: #ffffff" transform="translate(93 428.100868) scale(0.08 -0.08)">
       <use xlink:href="#GillSans-33"/>
       <use xlink:href="#GillSans-30" x="50"/>
      </g>
     </g>
    </g>
    <g id="ytick_2">
     <g id="line2d_41">
      <path d="M 108 368.761078 
L 777.6 368.761078 
" clip-path="url(#p475600e927)" style="fill: none; stroke: #444444; stroke-width: 0.8; stroke-linecap: square"/>
     </g>
     <g id="line2d_42">
      <g>
       <use xlink:href="#m0ac8816a3a" x="108" y="368.761078" style="fill: #ffffff; stroke: #ffffff; stroke-width: 0.8"/>
      </g>
     </g>
     <g id="text_22">
      <!-- 40 -->
      <g style="fill: #ffffff" transform="translate(93 371.489828) scale(0.08 -0.08)">
       <use xlink:href="#GillSans-34"/>
       <use xlink:href="#GillSans-30" x="50"/>
      </g>
     </g>
    </g>
    <g id="ytick_3">
     <g id="line2d_43">
      <path d="M 108 312.150039 
L 777.6 312.150039 
" clip-path="url(#p475600e927)" style="fill: none; stroke: #444444; stroke-width: 0.8; stroke-linecap: square"/>
     </g>
     <g id="line2d_44">
      <g>
       <use xlink:href="#m0ac8816a3a" x="108" y="312.150039" style="fill: #ffffff; stroke: #ffffff; stroke-width: 0.8"/>
      </g>
     </g>
     <g id="text_23">
      <!-- 50 -->
      <g style="fill: #ffffff" transform="translate(93 314.878789) scale(0.08 -0.08)">
       <use xlink:href="#GillSans-35"/>
       <use xlink:href="#GillSans-30" x="50"/>
      </g>
     </g>
    </g>
    <g id="ytick_4">
     <g id="line2d_45">
      <path d="M 108 255.538999 
L 777.6 255.538999 
" clip-path="url(#p475600e927)" style="fill: none; stroke: #444444; stroke-width: 0.8; stroke-linecap: square"/>
     </g>
     <g id="line2d_46">
      <g>
       <use xlink:href="#m0ac8816a3a" x="108" y="255.538999" style="fill: #ffffff; stroke: #ffffff; stroke-width: 0.8"/>
      </g>
     </g>
     <g id="text_24">
      <!-- 60 -->
      <g style="fill: #ffffff" transform="translate(93 258.267749) scale(0.08 -0.08)">
       <use xlink:href="#GillSans-36"/>
       <use xlink:href="#GillSans-30" x="50"/>
      </g>
     </g>
    </g>
    <g id="ytick_5">
     <g id="line2d_47">
      <path d="M 108 198.927959 
L 777.6 198.927959 
" clip-path="url(#p475600e927)" style="fill: none; stroke: #444444; stroke-width: 0.8; stroke-linecap: square"/>
     </g>
     <g id="line2d_48">
      <g>
       <use xlink:href="#m0ac8816a3a" x="108" y="198.927959" style="fill: #ffffff; stroke: #ffffff; stroke-width: 0.8"/>
      </g>
     </g>
     <g id="text_25">
      <!-- 70 -->
      <g style="fill: #ffffff" transform="translate(93 201.656709) scale(0.08 -0.08)">
       <use xlink:href="#GillSans-37"/>
       <use xlink:href="#GillSans-30" x="50"/>
      </g>
     </g>
    </g>
    <g id="ytick_6">
     <g id="line2d_49">
      <path d="M 108 142.316919 
L 777.6 142.316919 
" clip-path="url(#p475600e927)" style="fill: none; stroke: #444444; stroke-width: 0.8; stroke-linecap: square"/>
     </g>
     <g id="line2d_50">
      <g>
       <use xlink:href="#m0ac8816a3a" x="108" y="142.316919" style="fill: #ffffff; stroke: #ffffff; stroke-width: 0.8"/>
      </g>
     </g>
     <g id="text_26">
      <!-- 80 -->
      <g style="fill: #ffffff" transform="translate(93 145.045669) scale(0.08 -0.08)">
       <use xlink:href="#GillSans-38"/>
       <use xlink:href="#GillSans-30" x="50"/>
      </g>
     </g>
    </g>
    <g id="ytick_7">
     <g id="line2d_51">
      <path d="M 108 85.705879 
L 777.6 85.705879 
" clip-path="url(#p475600e927)" style="fill: none; stroke: #444444; stroke-width: 0.8; stroke-linecap: square"/>
     </g>
     <g id="line2d_52">
      <g>
       <use xlink:href="#m0ac8816a3a" x="108" y="85.705879" style="fill: #ffffff; stroke: #ffffff; stroke-width: 0.8"/>
      </g>
     </g>
     <g id="text_27">
      <!-- 90 -->
      <g style="fill: #ffffff" transform="translate(93 88.434629) scale(0.08 -0.08)">
       <use xlink:href="#GillSans-39"/>
       <use xlink:href="#GillSans-30" x="50"/>
      </g>
     </g>
    </g>
    <g id="text_28">
     <!-- Coverage % -->
     <g style="fill: #ffffff" transform="translate(87.1675 273.955) rotate(-90) scale(0.08 -0.08)">
      <defs>
       <path id="GillSans-43" d="M 4244 1013 
L 4244 325 
Q 3556 -50 2656 -50 
Q 1925 -50 1415 244 
Q 906 538 609 1053 
Q 313 1569 313 2169 
Q 313 3122 992 3772 
Q 1672 4422 2669 4422 
Q 3356 4422 4197 4063 
L 4197 3391 
Q 3431 3828 2700 3828 
Q 1950 3828 1454 3354 
Q 959 2881 959 2169 
Q 959 1450 1446 987 
Q 1934 525 2694 525 
Q 3488 525 4244 1013 
z
" transform="scale(0.015625)"/>
       <path id="GillSans-6f" d="M 1778 2881 
Q 2434 2881 2868 2457 
Q 3303 2034 3303 1394 
Q 3303 772 2862 361 
Q 2422 -50 1753 -50 
Q 1106 -50 672 367 
Q 238 784 238 1409 
Q 238 2041 677 2461 
Q 1116 2881 1778 2881 
z
M 1747 2369 
Q 1338 2369 1075 2100 
Q 813 1831 813 1416 
Q 813 1003 1081 742 
Q 1350 481 1772 481 
Q 2191 481 2458 745 
Q 2725 1009 2725 1422 
Q 2725 1831 2447 2100 
Q 2169 2369 1747 2369 
z
" transform="scale(0.015625)"/>
       <path id="GillSans-76" d="M 2163 2875 
L 2778 2875 
L 1509 -50 
L 1319 -50 
L 19 2875 
L 641 2875 
L 1416 1106 
L 2163 2875 
z
" transform="scale(0.015625)"/>
       <path id="GillSans-72" d="M 1013 2875 
L 1013 2216 
L 1044 2266 
Q 1456 2931 1869 2931 
Q 2191 2931 2541 2606 
L 2241 2106 
Q 1944 2388 1691 2388 
Q 1416 2388 1214 2125 
Q 1013 1863 1013 1503 
L 1013 0 
L 441 0 
L 441 2875 
L 1013 2875 
z
" transform="scale(0.015625)"/>
       <path id="GillSans-61" d="M 2209 1728 
L 2209 506 
Q 2209 359 2309 359 
Q 2413 359 2631 513 
L 2631 166 
Q 2438 41 2320 -4 
Q 2203 -50 2075 -50 
Q 1709 -50 1644 238 
Q 1281 -44 872 -44 
Q 572 -44 372 154 
Q 172 353 172 653 
Q 172 925 367 1139 
Q 563 1353 922 1478 
L 1650 1728 
L 1650 1881 
Q 1650 2400 1131 2400 
Q 666 2400 225 1919 
L 225 2541 
Q 556 2931 1178 2931 
Q 1644 2931 1925 2688 
Q 2019 2609 2094 2479 
Q 2169 2350 2189 2220 
Q 2209 2091 2209 1728 
z
M 1650 569 
L 1650 1422 
L 1269 1275 
Q 978 1159 858 1042 
Q 738 925 738 750 
Q 738 572 852 459 
Q 966 347 1147 347 
Q 1419 347 1650 569 
z
" transform="scale(0.015625)"/>
       <path id="GillSans-67" d="M 256 1881 
Q 256 2341 592 2608 
Q 928 2875 1509 2875 
L 2694 2875 
L 2694 2431 
L 2113 2431 
Q 2281 2259 2347 2118 
Q 2413 1978 2413 1797 
Q 2413 1572 2284 1355 
Q 2156 1138 1954 1022 
Q 1753 906 1294 838 
Q 972 791 972 616 
Q 972 516 1092 452 
Q 1213 388 1528 319 
Q 2056 203 2207 137 
Q 2359 72 2481 -50 
Q 2688 -256 2688 -569 
Q 2688 -978 2323 -1222 
Q 1959 -1466 1350 -1466 
Q 734 -1466 367 -1220 
Q 0 -975 0 -563 
Q 0 22 722 191 
Q 434 375 434 556 
Q 434 694 557 806 
Q 681 919 891 972 
Q 256 1253 256 1881 
z
M 1325 2381 
Q 1094 2381 931 2225 
Q 769 2069 769 1850 
Q 769 1628 928 1483 
Q 1088 1338 1331 1338 
Q 1572 1338 1733 1486 
Q 1894 1634 1894 1856 
Q 1894 2081 1731 2231 
Q 1569 2381 1325 2381 
z
M 1191 -134 
Q 903 -134 720 -256 
Q 538 -378 538 -569 
Q 538 -1013 1338 -1013 
Q 1716 -1013 1923 -902 
Q 2131 -791 2131 -588 
Q 2131 -388 1868 -261 
Q 1606 -134 1191 -134 
z
" transform="scale(0.015625)"/>
       <path id="GillSans-25" d="M 3347 4428 
L 3825 4428 
L 953 -50 
L 472 -50 
L 3347 4428 
z
M 3191 1900 
Q 3591 1900 3878 1614 
Q 4166 1328 4166 928 
Q 4166 528 3880 248 
Q 3594 -31 3191 -31 
Q 2784 -31 2498 248 
Q 2213 528 2213 928 
Q 2213 1331 2500 1615 
Q 2788 1900 3191 1900 
z
M 3184 1428 
Q 2978 1428 2833 1281 
Q 2688 1134 2688 928 
Q 2688 719 2833 570 
Q 2978 422 3184 422 
Q 3397 422 3544 569 
Q 3691 716 3691 928 
Q 3691 1138 3544 1283 
Q 3397 1428 3184 1428 
z
M 1131 4416 
Q 1534 4416 1818 4128 
Q 2103 3841 2103 3438 
Q 2103 3038 1817 2750 
Q 1531 2463 1131 2463 
Q 731 2463 445 2750 
Q 159 3038 159 3438 
Q 159 3841 443 4128 
Q 728 4416 1131 4416 
z
M 1125 3944 
Q 916 3944 767 3795 
Q 619 3647 619 3438 
Q 619 3231 769 3084 
Q 919 2938 1125 2938 
Q 1334 2938 1482 3084 
Q 1631 3231 1631 3438 
Q 1631 3650 1484 3797 
Q 1338 3944 1125 3944 
z
" transform="scale(0.015625)"/>
      </defs>
      <use xlink:href="#GillSans-43"/>
      <use xlink:href="#GillSans-6f" x="70.800781"/>
      <use xlink:href="#GillSans-76" x="125.976562"/>
      <use xlink:href="#GillSans-65" x="169.775391"/>
      <use xlink:href="#GillSans-72" x="217.675781"/>
      <use xlink:href="#GillSans-61" x="257.275391"/>
      <use xlink:href="#GillSans-67" x="299.951172"/>
      <use xlink:href="#GillSans-65" x="342.626953"/>
      <use xlink:href="#GillSans-20" x="390.527344"/>
      <use xlink:href="#GillSans-25" x="418.310547"/>
     </g>
    </g>
   </g>
   <g id="line2d_53">
    <path d="M 138.436364 413.540411 
L 140.519006 413.540411 
L 144.894203 414.502798 
L 166.20466 414.502798 
L 168.16218 413.993299 
L 181.822835 413.936688 
L 194.229377 411.615635 
L 195.32297 411.615635 
L 195.774072 410.087137 
L 196.077002 410.087137 
L 196.594782 408.558639 
L 199.876385 408.558639 
L 205.326241 407.766085 
L 207.518367 407.766085 
L 208.94329 407.030141 
L 212.879731 405.501643 
L 213.724725 405.501643 
L 215.310167 400.802927 
L 217.065185 400.802927 
L 217.968624 401.085982 
L 232.673482 390.273273 
L 234.120219 390.273273 
L 237.370129 385.970834 
L 237.690757 385.970834 
L 263.751369 386.989833 
L 286.184231 386.989833 
L 286.683489 384.66878 
L 287.567583 383.083671 
L 288.424101 381.838228 
L 288.797001 379.234121 
L 289.35594 382.744005 
L 289.999666 382.744005 
L 301.375588 383.02706 
L 302.010259 383.310116 
L 308.623267 383.310116 
L 309.55634 376.686624 
L 325.312809 376.686624 
L 332.304891 373.629628 
L 337.076448 376.686624 
L 356.887897 376.686624 
L 357.304425 377.309345 
L 357.551379 377.309345 
L 358.07739 377.592401 
L 359.443456 377.592401 
L 378.01602 379.517176 
L 379.436827 379.517176 
L 380.449337 377.309345 
L 382.418793 373.573017 
L 383.740407 373.120128 
L 385.968341 371.59163 
L 388.241138 372.214352 
L 396.095912 373.063517 
L 426.681127 373.063517 
L 428.765004 373.629628 
L 429.505865 373.969294 
L 430.187869 373.176739 
L 430.906504 373.176739 
L 452.424403 266.691374 
L 455.09068 266.691374 
L 459.50333 245.745289 
L 461.269461 245.745289 
L 461.94241 245.009345 
L 462.743775 245.462234 
L 463.142605 240.36724 
L 465.610084 235.725135 
L 466.180958 236.461078 
L 466.724256 235.725135 
L 467.293073 235.725135 
L 479.812802 234.762747 
L 483.110457 234.762747 
L 487.74372 234.026804 
L 489.250138 230.856585 
L 492.889412 226.271091 
L 499.70163 226.271091 
L 515.917844 224.289705 
L 518.010365 223.836816 
L 518.902279 223.836816 
L 521.578846 204.532452 
L 524.324559 201.588678 
L 525.924408 200.852734 
L 528.801006 197.003184 
L 536.79819 189.021027 
L 553.034984 177.076098 
L 557.032753 172.547214 
L 558.095065 167.96172 
L 568.476999 161.338228 
L 569.977242 149.280077 
L 570.928837 144.751194 
L 571.508355 141.411142 
L 572.099398 130.032323 
L 590.566183 129.239769 
L 595.714756 130.032323 
L 596.605847 129.013325 
L 600.655476 129.013325 
L 604.223957 125.956329 
L 607.879695 126.748883 
L 620.338097 122.050167 
L 621.465029 114.690732 
L 624.897686 113.954788 
L 631.005262 113.954788 
L 634.850331 113.162234 
L 636.706188 109.425905 
L 637.915438 108.689961 
L 638.725035 106.42552 
L 639.712026 105.689576 
L 642.622787 103.311913 
L 642.994041 102.575969 
L 697.266643 102.575969 
L 697.520182 101.104082 
L 698.383285 101.104082 
L 744.279629 99.858639 
L 747.163636 96.858254 
L 747.163636 96.858254 
" clip-path="url(#p475600e927)" style="fill: none; stroke: #106a77; stroke-width: 2; stroke-linecap: square"/>
   </g>
   <g id="line2d_54">
    <path d="M 138.436364 430.467112 
L 140.519006 430.467112 
L 145.511587 430.92 
L 166.20466 430.92 
L 168.16218 430.636945 
L 181.822835 427.749782 
L 194.229377 425.372118 
L 195.32297 425.372118 
L 195.774072 424.636175 
L 196.077002 424.636175 
L 196.594782 422.088678 
L 197.292426 421.862234 
L 199.876385 421.862234 
L 205.326241 420.277125 
L 207.518367 420.277125 
L 208.94329 418.125905 
L 213.724725 416.484185 
L 215.310167 413.257356 
L 217.065185 413.257356 
L 217.968624 413.540411 
L 232.673482 399.840539 
L 234.120219 399.33104 
L 237.370129 395.990988 
L 237.690757 396.160822 
L 263.751369 396.61371 
L 286.184231 396.61371 
L 286.683489 393.952991 
L 288.424101 392.650937 
L 288.797001 388.518331 
L 289.35594 390.895995 
L 289.999666 390.895995 
L 301.375588 387.216277 
L 302.010259 387.38611 
L 308.623267 387.38611 
L 309.55634 384.046059 
L 325.312809 384.046059 
L 332.304891 379.913453 
L 337.076448 384.046059 
L 356.467252 384.046059 
L 356.887897 383.876226 
L 357.304425 384.10267 
L 357.551379 384.10267 
L 358.07739 383.763004 
L 359.443456 383.763004 
L 379.436827 384.66878 
L 380.449337 383.53656 
L 381.982096 381.555173 
L 382.418793 380.762619 
L 383.740407 380.479564 
L 385.968341 379.517176 
L 388.241138 379.573787 
L 396.095912 379.403954 
L 426.681127 379.403954 
L 428.765004 379.970064 
L 429.505865 379.913453 
L 430.187869 378.66801 
L 430.906504 378.66801 
L 452.424403 266.578151 
L 455.09068 266.578151 
L 459.50333 243.141181 
L 461.269461 243.197792 
L 461.94241 242.122182 
L 462.743775 242.348626 
L 463.142605 239.574685 
L 465.610084 236.234634 
L 466.180958 236.347856 
L 466.724256 236.234634 
L 467.293073 236.234634 
L 479.812802 233.913582 
L 483.110457 233.913582 
L 487.74372 231.932195 
L 489.250138 229.780976 
L 492.889412 220.609987 
L 493.897806 220.609987 
L 499.70163 221.232709 
L 515.917844 218.741823 
L 518.902279 218.685212 
L 521.578846 207.929114 
L 524.324559 204.645674 
L 525.924408 204.362619 
L 528.801006 202.494454 
L 536.79819 190.549525 
L 553.034984 181.888036 
L 557.032753 173.000103 
L 558.095065 165.75389 
L 568.476999 157.941566 
L 569.977242 144.185083 
L 570.928837 141.637587 
L 571.508355 138.807035 
L 572.099398 122.333222 
L 590.566183 121.993556 
L 595.714756 122.333222 
L 596.605847 122.050167 
L 598.162067 122.050167 
L 600.655476 119.729114 
L 604.223957 108.463517 
L 607.879695 108.859795 
L 620.338097 104.500745 
L 621.465029 99.235918 
L 624.897686 98.330141 
L 631.005262 98.386752 
L 634.850331 97.990475 
L 636.706188 91.083928 
L 637.915438 90.744262 
L 638.725035 88.819487 
L 639.712026 87.460822 
L 642.622787 83.724493 
L 642.994041 81.573273 
L 677.362998 81.573273 
L 697.266643 81.799718 
L 697.520182 80.441053 
L 698.383285 80.441053 
L 744.279629 79.988164 
L 747.163636 78.12 
L 747.163636 78.12 
" clip-path="url(#p475600e927)" style="fill: none; stroke: #50486c; stroke-width: 2; stroke-linecap: square"/>
   </g>
   <g id="text_29">
    <g id="patch_2">
     <path d="M 757.512 88.64083 
L 792.252 88.64083 
Q 797.052 88.64083 797.052 83.84083 
L 797.052 72.90583 
Q 797.052 68.10583 792.252 68.10583 
L 757.512 68.10583 
Q 752.712 68.10583 752.712 72.90583 
L 752.712 83.84083 
Q 752.712 88.64083 757.512 88.64083 
z
" style="fill: #106a77; stroke: #106a77; stroke-linejoin: miter"/>
    </g>
    <!-- 88.03% -->
    <g style="fill: #ffffff" transform="translate(757.512 81.09208) scale(0.12 -0.12)">
     <defs>
      <path id="GillSans-2e" d="M 697 697 
Q 856 697 968 587 
Q 1081 478 1081 319 
Q 1081 163 970 56 
Q 859 -50 697 -50 
Q 538 -50 428 56 
Q 319 163 319 319 
Q 319 478 428 587 
Q 538 697 697 697 
z
" transform="scale(0.015625)"/>
     </defs>
     <use xlink:href="#GillSans-38"/>
     <use xlink:href="#GillSans-38" x="50"/>
     <use xlink:href="#GillSans-2e" x="100"/>
     <use xlink:href="#GillSans-30" x="121.923828"/>
     <use xlink:href="#GillSans-33" x="171.923828"/>
     <use xlink:href="#GillSans-25" x="221.923828"/>
    </g>
   </g>
   <g id="text_30">
    <g id="patch_3">
     <path d="M 757.512 42.07123 
L 792.252 42.07123 
Q 797.052 42.07123 797.052 37.27123 
L 797.052 26.33623 
Q 797.052 21.53623 792.252 21.53623 
L 757.512 21.53623 
Q 752.712 21.53623 752.712 26.33623 
L 752.712 37.27123 
Q 752.712 42.07123 757.512 42.07123 
z
" style="fill: #50486c; stroke: #50486c; stroke-linejoin: miter"/>
    </g>
    <!-- 91.34% -->
    <g style="fill: #ffffff" transform="translate(757.512 34.52248) scale(0.12 -0.12)">
     <use xlink:href="#GillSans-39"/>
     <use xlink:href="#GillSans-31" x="50"/>
     <use xlink:href="#GillSans-2e" x="100"/>
     <use xlink:href="#GillSans-33" x="121.923828"/>
     <use xlink:href="#GillSans-34" x="171.923828"/>
     <use xlink:href="#GillSans-25" x="221.923828"/>
    </g>
   </g>
   <g id="text_31">
    <!-- CutBox.app coverage progress -->
    <g style="fill: #ffffff" transform="translate(280.151719 54.48) scale(0.26 -0.26)">
     <defs>
      <path id="GillSans-75" d="M 2234 0 
L 2234 366 
Q 2053 169 1820 59 
Q 1588 -50 1356 -50 
Q 1084 -50 854 86 
Q 625 222 508 455 
Q 391 688 391 1228 
L 391 2875 
L 959 2875 
L 959 1234 
Q 959 781 1089 601 
Q 1219 422 1544 422 
Q 1950 422 2234 819 
L 2234 2875 
L 2803 2875 
L 2803 0 
L 2234 0 
z
" transform="scale(0.015625)"/>
      <path id="GillSans-74" d="M 0 2419 
L 1069 3469 
L 1069 2875 
L 1978 2875 
L 1978 2363 
L 1069 2363 
L 1069 953 
Q 1069 459 1478 459 
Q 1784 459 2125 666 
L 2125 134 
Q 1797 -50 1409 -50 
Q 1019 -50 759 178 
Q 678 247 625 333 
Q 572 419 536 558 
Q 500 697 500 1088 
L 500 2363 
L 0 2363 
L 0 2419 
z
" transform="scale(0.015625)"/>
      <path id="GillSans-42" d="M 1959 0 
L 481 0 
L 481 4366 
L 1625 4366 
Q 2166 4366 2469 4220 
Q 2772 4075 2931 3820 
Q 3091 3566 3091 3231 
Q 3091 2588 2425 2309 
Q 2903 2219 3186 1916 
Q 3469 1613 3469 1191 
Q 3469 856 3297 593 
Q 3125 331 2792 165 
Q 2459 0 1959 0 
z
M 1644 3809 
L 1106 3809 
L 1106 2497 
L 1522 2497 
Q 2022 2497 2233 2687 
Q 2444 2878 2444 3181 
Q 2444 3809 1644 3809 
z
M 1691 1941 
L 1106 1941 
L 1106 556 
L 1722 556 
Q 2234 556 2417 636 
Q 2600 716 2711 884 
Q 2822 1053 2822 1247 
Q 2822 1447 2705 1612 
Q 2588 1778 2372 1859 
Q 2156 1941 1691 1941 
z
" transform="scale(0.015625)"/>
      <path id="GillSans-78" d="M 2388 2875 
L 3116 2875 
L 1931 1459 
L 3200 0 
L 2472 0 
L 1569 1031 
L 716 0 
L 0 0 
L 1209 1459 
L 0 2875 
L 716 2875 
L 1569 1888 
L 2388 2875 
z
" transform="scale(0.015625)"/>
      <path id="GillSans-63" d="M 2559 672 
L 2559 109 
Q 2131 -50 1722 -50 
Q 1047 -50 645 350 
Q 244 750 244 1422 
Q 244 2100 634 2515 
Q 1025 2931 1663 2931 
Q 1884 2931 2061 2889 
Q 2238 2847 2497 2731 
L 2497 2125 
Q 2066 2400 1697 2400 
Q 1313 2400 1066 2129 
Q 819 1859 819 1441 
Q 819 1000 1086 740 
Q 1353 481 1806 481 
Q 2134 481 2559 672 
z
" transform="scale(0.015625)"/>
      <path id="GillSans-73" d="M 263 206 
L 263 819 
Q 503 650 754 545 
Q 1006 441 1178 441 
Q 1356 441 1484 528 
Q 1613 616 1613 738 
Q 1613 863 1530 945 
Q 1447 1028 1172 1184 
Q 622 1491 451 1708 
Q 281 1925 281 2181 
Q 281 2513 539 2722 
Q 797 2931 1203 2931 
Q 1625 2931 2069 2694 
L 2069 2131 
Q 1563 2438 1241 2438 
Q 1075 2438 973 2367 
Q 872 2297 872 2181 
Q 872 2081 964 1990 
Q 1056 1900 1288 1772 
L 1491 1656 
Q 2209 1250 2209 756 
Q 2209 403 1932 176 
Q 1656 -50 1222 -50 
Q 966 -50 766 4 
Q 566 59 263 206 
z
" transform="scale(0.015625)"/>
     </defs>
     <use xlink:href="#GillSans-43"/>
     <use xlink:href="#GillSans-75" x="70.800781"/>
     <use xlink:href="#GillSans-74" x="120.800781"/>
     <use xlink:href="#GillSans-42" x="154.101562"/>
     <use xlink:href="#GillSans-6f" x="210.400391"/>
     <use xlink:href="#GillSans-78" x="265.576172"/>
     <use xlink:href="#GillSans-2e" x="315.576172"/>
     <use xlink:href="#GillSans-61" x="337.5"/>
     <use xlink:href="#GillSans-70" x="380.175781"/>
     <use xlink:href="#GillSans-70" x="430.175781"/>
     <use xlink:href="#GillSans-20" x="480.175781"/>
     <use xlink:href="#GillSans-63" x="507.958984"/>
     <use xlink:href="#GillSans-6f" x="551.757812"/>
     <use xlink:href="#GillSans-76" x="606.933594"/>
     <use xlink:href="#GillSans-65" x="650.732422"/>
     <use xlink:href="#GillSans-72" x="698.632812"/>
     <use xlink:href="#GillSans-61" x="738.232422"/>
     <use xlink:href="#GillSans-67" x="780.908203"/>
     <use xlink:href="#GillSans-65" x="823.583984"/>
     <use xlink:href="#GillSans-20" x="871.484375"/>
     <use xlink:href="#GillSans-70" x="899.267578"/>
     <use xlink:href="#GillSans-72" x="949.267578"/>
     <use xlink:href="#GillSans-6f" x="988.867188"/>
     <use xlink:href="#GillSans-67" x="1044.042969"/>
     <use xlink:href="#GillSans-72" x="1086.71875"/>
     <use xlink:href="#GillSans-65" x="1126.318359"/>
     <use xlink:href="#GillSans-73" x="1174.21875"/>
     <use xlink:href="#GillSans-73" x="1212.695312"/>
    </g>
   </g>
   <g id="legend_1">
    <g id="line2d_55">
     <path d="M 115.2 70.48 
L 123.2 70.48 
L 131.2 70.48 
" style="fill: none; stroke: #106a77; stroke-width: 2; stroke-linecap: square"/>
    </g>
    <g id="text_32">
     <!-- Function -->
     <g style="fill: #ffffff" transform="translate(137.6 73.28) scale(0.08 -0.08)">
      <defs>
       <path id="GillSans-46" d="M 488 4366 
L 2816 4366 
L 2816 3809 
L 1113 3809 
L 1113 2591 
L 2816 2591 
L 2816 2034 
L 1113 2034 
L 1113 0 
L 488 0 
L 488 4366 
z
" transform="scale(0.015625)"/>
       <path id="GillSans-6e" d="M 972 2875 
L 972 2509 
Q 1353 2931 1838 2931 
Q 2106 2931 2337 2792 
Q 2569 2653 2689 2411 
Q 2809 2169 2809 1644 
L 2809 0 
L 2241 0 
L 2241 1638 
Q 2241 2078 2106 2267 
Q 1972 2456 1656 2456 
Q 1253 2456 972 2053 
L 972 0 
L 391 0 
L 391 2875 
L 972 2875 
z
" transform="scale(0.015625)"/>
      </defs>
      <use xlink:href="#GillSans-46"/>
      <use xlink:href="#GillSans-75" x="46.923828"/>
      <use xlink:href="#GillSans-6e" x="96.923828"/>
      <use xlink:href="#GillSans-63" x="146.923828"/>
      <use xlink:href="#GillSans-74" x="190.722656"/>
      <use xlink:href="#GillSans-69" x="224.023438"/>
      <use xlink:href="#GillSans-6f" x="245.947266"/>
      <use xlink:href="#GillSans-6e" x="301.123047"/>
     </g>
    </g>
    <g id="line2d_56">
     <path d="M 115.2 81.9125 
L 123.2 81.9125 
L 131.2 81.9125 
" style="fill: none; stroke: #50486c; stroke-width: 2; stroke-linecap: square"/>
    </g>
    <g id="text_33">
     <!-- Line -->
     <g style="fill: #ffffff" transform="translate(137.6 84.7125) scale(0.08 -0.08)">
      <defs>
       <path id="GillSans-4c" d="M 481 4366 
L 1106 4366 
L 1106 569 
L 3072 569 
L 3072 0 
L 481 0 
L 481 4366 
z
" transform="scale(0.015625)"/>
      </defs>
      <use xlink:href="#GillSans-4c"/>
      <use xlink:href="#GillSans-69" x="49.023438"/>
      <use xlink:href="#GillSans-6e" x="70.947266"/>
      <use xlink:href="#GillSans-65" x="120.947266"/>
     </g>
    </g>
   </g>
  </g>
 </g>
 <defs>
  <clipPath id="p475600e927">
   <rect x="108" y="60.48" width="669.6" height="388.08"/>
  </clipPath>
 </defs>
</svg>
