<?xml version="1.0" encoding="utf-8" standalone="no"?>
<!DOCTYPE svg PUBLIC "-//W3C//DTD SVG 1.1//EN"
  "http://www.w3.org/Graphics/SVG/1.1/DTD/svg11.dtd">
<svg xmlns:xlink="http://www.w3.org/1999/xlink" width="864pt" height="504pt" viewBox="0 0 864 504" xmlns="http://www.w3.org/2000/svg" version="1.1">
 <metadata>
  <rdf:RDF xmlns:dc="http://purl.org/dc/elements/1.1/" xmlns:cc="http://creativecommons.org/ns#" xmlns:rdf="http://www.w3.org/1999/02/22-rdf-syntax-ns#">
   <cc:Work>
    <dc:type rdf:resource="http://purl.org/dc/dcmitype/StillImage"/>
    <dc:date>2023-09-16T15:12:30.438988</dc:date>
    <dc:format>image/svg+xml</dc:format>
    <dc:creator>
     <cc:Agent>
      <dc:title>Matplotlib v3.7.2, https://matplotlib.org/</dc:title>
     </cc:Agent>
    </dc:creator>
   </cc:Work>
  </rdf:RDF>
 </metadata>
 <defs>
  <style type="text/css">*{stroke-linejoin: round; stroke-linecap: butt}</style>
 </defs>
 <g id="figure_1">
  <g id="patch_1">
   <path d="M 0 504 
L 864 504 
L 864 0 
L 0 0 
z
"/>
  </g>
  <g id="axes_1">
   <g id="matplotlib.axis_1">
    <g id="xtick_1">
     <g id="line2d_1">
      <path d="M 113.437576 448.56 
L 113.437576 60.48 
" clip-path="url(#pbb3db115d2)" style="fill: none; stroke: #444444; stroke-width: 0.8; stroke-linecap: square"/>
     </g>
     <g id="line2d_2">
      <defs>
       <path id="mcd6122d60b" d="M 0 0 
L 0 3.5 
" style="stroke: #ffffff; stroke-width: 0.8"/>
      </defs>
      <g>
       <use xlink:href="#mcd6122d60b" x="113.437576" y="448.56" style="fill: #ffffff; stroke: #ffffff; stroke-width: 0.8"/>
      </g>
     </g>
     <g id="text_1">
      <!-- 2023-09-04 -->
      <g style="fill: #ffffff" transform="translate(94.851326 461.0175) scale(0.08 -0.08)">
       <defs>
        <path id="GillSans-32" d="M 1319 603 
L 2981 603 
L 2981 0 
L 219 0 
L 219 44 
L 481 353 
Q 1097 1116 1461 1647 
Q 1825 2178 1936 2450 
Q 2047 2722 2047 2988 
Q 2047 3356 1837 3579 
Q 1628 3803 1281 3803 
Q 1019 3803 764 3648 
Q 509 3494 306 3213 
L 306 4006 
Q 816 4422 1356 4422 
Q 1928 4422 2298 4040 
Q 2669 3659 2669 3072 
Q 2669 2809 2576 2511 
Q 2484 2213 2250 1823 
Q 2016 1434 1453 763 
L 1319 603 
z
" transform="scale(0.015625)"/>
        <path id="GillSans-30" d="M 1625 4422 
Q 2225 4422 2617 3792 
Q 3009 3163 3009 2194 
Q 3009 1200 2617 578 
Q 2225 -44 1600 -44 
Q 966 -44 581 565 
Q 197 1175 197 2181 
Q 197 3175 594 3798 
Q 991 4422 1625 4422 
z
M 1631 3828 
L 1600 3828 
Q 1241 3828 1030 3386 
Q 819 2944 819 2188 
Q 819 1413 1025 972 
Q 1231 531 1594 531 
Q 1956 531 2165 972 
Q 2375 1413 2375 2169 
Q 2375 2928 2173 3378 
Q 1972 3828 1631 3828 
z
" transform="scale(0.015625)"/>
        <path id="GillSans-33" d="M 1153 2541 
L 1191 2541 
Q 1600 2541 1814 2709 
Q 2028 2878 2028 3200 
Q 2028 3491 1820 3672 
Q 1613 3853 1275 3853 
Q 934 3853 519 3641 
L 519 4238 
Q 900 4428 1350 4428 
Q 1953 4428 2301 4112 
Q 2650 3797 2650 3250 
Q 2650 2919 2515 2692 
Q 2381 2466 2088 2303 
Q 2344 2203 2462 2058 
Q 2581 1913 2647 1706 
Q 2713 1500 2713 1269 
Q 2713 697 2331 323 
Q 1950 -50 1369 -50 
Q 872 -50 409 191 
L 409 872 
Q 903 563 1369 563 
Q 1684 563 1876 750 
Q 2069 938 2069 1247 
Q 2069 1506 1909 1700 
Q 1816 1809 1702 1861 
Q 1588 1913 1209 1959 
L 1153 1966 
L 1153 2541 
z
" transform="scale(0.015625)"/>
        <path id="GillSans-2d" d="M 256 1722 
L 1813 1722 
L 1813 1113 
L 256 1113 
L 256 1722 
z
" transform="scale(0.015625)"/>
        <path id="GillSans-39" d="M 1197 -50 
L 813 403 
Q 1297 709 1659 1145 
Q 2022 1581 2144 2041 
Q 1847 1856 1447 1856 
Q 947 1856 589 2228 
Q 231 2600 231 3122 
Q 231 3666 612 4044 
Q 994 4422 1544 4422 
Q 2163 4422 2556 3975 
Q 2950 3528 2950 2828 
Q 2950 2034 2456 1223 
Q 1963 413 1197 -50 
z
M 2266 2663 
Q 2303 2913 2303 2988 
Q 2303 3366 2092 3606 
Q 1881 3847 1550 3847 
Q 1247 3847 1048 3642 
Q 850 3438 850 3128 
Q 850 2844 1065 2637 
Q 1281 2431 1581 2431 
Q 1931 2431 2266 2663 
z
" transform="scale(0.015625)"/>
        <path id="GillSans-34" d="M 2272 4422 
L 2528 4422 
L 2528 1972 
L 3016 1972 
L 3016 1441 
L 2528 1441 
L 2528 0 
L 1919 0 
L 1919 1441 
L 72 1441 
L 72 1709 
L 2272 4422 
z
M 1919 1972 
L 1919 3238 
L 909 1972 
L 1919 1972 
z
" transform="scale(0.015625)"/>
       </defs>
       <use xlink:href="#GillSans-32"/>
       <use xlink:href="#GillSans-30" x="50"/>
       <use xlink:href="#GillSans-32" x="100"/>
       <use xlink:href="#GillSans-33" x="150"/>
       <use xlink:href="#GillSans-2d" x="200"/>
       <use xlink:href="#GillSans-30" x="232.324219"/>
       <use xlink:href="#GillSans-39" x="282.324219"/>
       <use xlink:href="#GillSans-2d" x="332.324219"/>
       <use xlink:href="#GillSans-30" x="364.648438"/>
       <use xlink:href="#GillSans-34" x="414.648438"/>
      </g>
     </g>
    </g>
    <g id="xtick_2">
     <g id="line2d_3">
      <path d="M 163.600037 448.56 
L 163.600037 60.48 
" clip-path="url(#pbb3db115d2)" style="fill: none; stroke: #444444; stroke-width: 0.8; stroke-linecap: square"/>
     </g>
     <g id="line2d_4">
      <g>
       <use xlink:href="#mcd6122d60b" x="163.600037" y="448.56" style="fill: #ffffff; stroke: #ffffff; stroke-width: 0.8"/>
      </g>
     </g>
     <g id="text_2">
      <!-- 2023-09-05 -->
      <g style="fill: #ffffff" transform="translate(145.013787 461.0175) scale(0.08 -0.08)">
       <defs>
        <path id="GillSans-35" d="M 647 4366 
L 2584 4366 
L 2584 3809 
L 1216 3809 
L 1216 2706 
Q 1281 2713 1350 2713 
Q 1984 2713 2393 2327 
Q 2803 1941 2803 1344 
Q 2803 728 2398 342 
Q 1994 -44 1350 -44 
Q 819 -44 319 213 
L 319 856 
Q 791 550 1241 550 
Q 1634 550 1901 779 
Q 2169 1009 2169 1344 
Q 2169 1691 1878 1923 
Q 1588 2156 1153 2156 
Q 781 2156 647 2094 
L 647 4366 
z
" transform="scale(0.015625)"/>
       </defs>
       <use xlink:href="#GillSans-32"/>
       <use xlink:href="#GillSans-30" x="50"/>
       <use xlink:href="#GillSans-32" x="100"/>
       <use xlink:href="#GillSans-33" x="150"/>
       <use xlink:href="#GillSans-2d" x="200"/>
       <use xlink:href="#GillSans-30" x="232.324219"/>
       <use xlink:href="#GillSans-39" x="282.324219"/>
       <use xlink:href="#GillSans-2d" x="332.324219"/>
       <use xlink:href="#GillSans-30" x="364.648438"/>
       <use xlink:href="#GillSans-35" x="414.648438"/>
      </g>
     </g>
    </g>
    <g id="xtick_3">
     <g id="line2d_5">
      <path d="M 213.762498 448.56 
L 213.762498 60.48 
" clip-path="url(#pbb3db115d2)" style="fill: none; stroke: #444444; stroke-width: 0.8; stroke-linecap: square"/>
     </g>
     <g id="line2d_6">
      <g>
       <use xlink:href="#mcd6122d60b" x="213.762498" y="448.56" style="fill: #ffffff; stroke: #ffffff; stroke-width: 0.8"/>
      </g>
     </g>
     <g id="text_3">
      <!-- 2023-09-06 -->
      <g style="fill: #ffffff" transform="translate(195.176248 461.0175) scale(0.08 -0.08)">
       <defs>
        <path id="GillSans-36" d="M 1966 4378 
L 2028 4422 
L 2406 3944 
Q 1906 3622 1576 3240 
Q 1247 2859 1069 2344 
Q 1416 2522 1759 2522 
Q 2275 2522 2628 2156 
Q 2981 1791 2981 1259 
Q 2981 713 2597 331 
Q 2213 -50 1663 -50 
Q 1047 -50 667 383 
Q 288 816 288 1516 
Q 288 2041 483 2561 
Q 678 3081 1045 3536 
Q 1413 3991 1966 4378 
z
M 934 1697 
Q 909 1550 909 1369 
Q 909 1000 1123 762 
Q 1338 525 1672 525 
Q 1972 525 2167 728 
Q 2363 931 2363 1241 
Q 2363 1556 2155 1751 
Q 1947 1947 1606 1947 
Q 1431 1947 1289 1894 
Q 1147 1841 934 1697 
z
" transform="scale(0.015625)"/>
       </defs>
       <use xlink:href="#GillSans-32"/>
       <use xlink:href="#GillSans-30" x="50"/>
       <use xlink:href="#GillSans-32" x="100"/>
       <use xlink:href="#GillSans-33" x="150"/>
       <use xlink:href="#GillSans-2d" x="200"/>
       <use xlink:href="#GillSans-30" x="232.324219"/>
       <use xlink:href="#GillSans-39" x="282.324219"/>
       <use xlink:href="#GillSans-2d" x="332.324219"/>
       <use xlink:href="#GillSans-30" x="364.648438"/>
       <use xlink:href="#GillSans-36" x="414.648438"/>
      </g>
     </g>
    </g>
    <g id="xtick_4">
     <g id="line2d_7">
      <path d="M 263.92496 448.56 
L 263.92496 60.48 
" clip-path="url(#pbb3db115d2)" style="fill: none; stroke: #444444; stroke-width: 0.8; stroke-linecap: square"/>
     </g>
     <g id="line2d_8">
      <g>
       <use xlink:href="#mcd6122d60b" x="263.92496" y="448.56" style="fill: #ffffff; stroke: #ffffff; stroke-width: 0.8"/>
      </g>
     </g>
     <g id="text_4">
      <!-- 2023-09-07 -->
      <g style="fill: #ffffff" transform="translate(245.33871 461.0175) scale(0.08 -0.08)">
       <defs>
        <path id="GillSans-37" d="M 313 4366 
L 3138 4366 
L 1159 -50 
L 603 184 
L 2203 3769 
L 313 3769 
L 313 4366 
z
" transform="scale(0.015625)"/>
       </defs>
       <use xlink:href="#GillSans-32"/>
       <use xlink:href="#GillSans-30" x="50"/>
       <use xlink:href="#GillSans-32" x="100"/>
       <use xlink:href="#GillSans-33" x="150"/>
       <use xlink:href="#GillSans-2d" x="200"/>
       <use xlink:href="#GillSans-30" x="232.324219"/>
       <use xlink:href="#GillSans-39" x="282.324219"/>
       <use xlink:href="#GillSans-2d" x="332.324219"/>
       <use xlink:href="#GillSans-30" x="364.648438"/>
       <use xlink:href="#GillSans-37" x="414.648438"/>
      </g>
     </g>
    </g>
    <g id="xtick_5">
     <g id="line2d_9">
      <path d="M 314.087421 448.56 
L 314.087421 60.48 
" clip-path="url(#pbb3db115d2)" style="fill: none; stroke: #444444; stroke-width: 0.8; stroke-linecap: square"/>
     </g>
     <g id="line2d_10">
      <g>
       <use xlink:href="#mcd6122d60b" x="314.087421" y="448.56" style="fill: #ffffff; stroke: #ffffff; stroke-width: 0.8"/>
      </g>
     </g>
     <g id="text_5">
      <!-- 2023-09-08 -->
      <g style="fill: #ffffff" transform="translate(295.501171 461.0175) scale(0.08 -0.08)">
       <defs>
        <path id="GillSans-38" d="M 306 3194 
Q 306 3706 690 4064 
Q 1075 4422 1631 4422 
Q 2178 4422 2554 4067 
Q 2931 3713 2931 3194 
Q 2931 2609 2388 2228 
Q 2994 1878 2994 1197 
Q 2994 656 2600 303 
Q 2206 -50 1606 -50 
Q 1013 -50 609 311 
Q 206 672 206 1203 
Q 206 1869 825 2228 
Q 547 2453 426 2676 
Q 306 2900 306 3194 
z
M 2309 3175 
Q 2309 3459 2114 3643 
Q 1919 3828 1619 3828 
Q 1316 3828 1122 3647 
Q 928 3466 928 3181 
Q 928 2909 1133 2715 
Q 1338 2522 1625 2522 
Q 1909 2522 2109 2714 
Q 2309 2906 2309 3175 
z
M 2363 1172 
L 2363 1234 
Q 2363 1534 2148 1723 
Q 1934 1913 1594 1913 
Q 1259 1913 1048 1722 
Q 838 1531 838 1228 
Q 838 925 1053 734 
Q 1269 544 1613 544 
Q 1941 544 2152 719 
Q 2363 894 2363 1172 
z
" transform="scale(0.015625)"/>
       </defs>
       <use xlink:href="#GillSans-32"/>
       <use xlink:href="#GillSans-30" x="50"/>
       <use xlink:href="#GillSans-32" x="100"/>
       <use xlink:href="#GillSans-33" x="150"/>
       <use xlink:href="#GillSans-2d" x="200"/>
       <use xlink:href="#GillSans-30" x="232.324219"/>
       <use xlink:href="#GillSans-39" x="282.324219"/>
       <use xlink:href="#GillSans-2d" x="332.324219"/>
       <use xlink:href="#GillSans-30" x="364.648438"/>
       <use xlink:href="#GillSans-38" x="414.648438"/>
      </g>
     </g>
    </g>
    <g id="xtick_6">
     <g id="line2d_11">
      <path d="M 364.249882 448.56 
L 364.249882 60.48 
" clip-path="url(#pbb3db115d2)" style="fill: none; stroke: #444444; stroke-width: 0.8; stroke-linecap: square"/>
     </g>
     <g id="line2d_12">
      <g>
       <use xlink:href="#mcd6122d60b" x="364.249882" y="448.56" style="fill: #ffffff; stroke: #ffffff; stroke-width: 0.8"/>
      </g>
     </g>
     <g id="text_6">
      <!-- 2023-09-09 -->
      <g style="fill: #ffffff" transform="translate(345.663632 461.0175) scale(0.08 -0.08)">
       <use xlink:href="#GillSans-32"/>
       <use xlink:href="#GillSans-30" x="50"/>
       <use xlink:href="#GillSans-32" x="100"/>
       <use xlink:href="#GillSans-33" x="150"/>
       <use xlink:href="#GillSans-2d" x="200"/>
       <use xlink:href="#GillSans-30" x="232.324219"/>
       <use xlink:href="#GillSans-39" x="282.324219"/>
       <use xlink:href="#GillSans-2d" x="332.324219"/>
       <use xlink:href="#GillSans-30" x="364.648438"/>
       <use xlink:href="#GillSans-39" x="414.648438"/>
      </g>
     </g>
    </g>
    <g id="xtick_7">
     <g id="line2d_13">
      <path d="M 414.412343 448.56 
L 414.412343 60.48 
" clip-path="url(#pbb3db115d2)" style="fill: none; stroke: #444444; stroke-width: 0.8; stroke-linecap: square"/>
     </g>
     <g id="line2d_14">
      <g>
       <use xlink:href="#mcd6122d60b" x="414.412343" y="448.56" style="fill: #ffffff; stroke: #ffffff; stroke-width: 0.8"/>
      </g>
     </g>
     <g id="text_7">
      <!-- 2023-09-10 -->
      <g style="fill: #ffffff" transform="translate(395.826093 461.0175) scale(0.08 -0.08)">
       <defs>
        <path id="GillSans-31" d="M 1294 4366 
L 1919 4366 
L 1919 0 
L 1294 0 
L 1294 4366 
z
" transform="scale(0.015625)"/>
       </defs>
       <use xlink:href="#GillSans-32"/>
       <use xlink:href="#GillSans-30" x="50"/>
       <use xlink:href="#GillSans-32" x="100"/>
       <use xlink:href="#GillSans-33" x="150"/>
       <use xlink:href="#GillSans-2d" x="200"/>
       <use xlink:href="#GillSans-30" x="232.324219"/>
       <use xlink:href="#GillSans-39" x="282.324219"/>
       <use xlink:href="#GillSans-2d" x="332.324219"/>
       <use xlink:href="#GillSans-31" x="364.648438"/>
       <use xlink:href="#GillSans-30" x="414.648438"/>
      </g>
     </g>
    </g>
    <g id="xtick_8">
     <g id="line2d_15">
      <path d="M 464.574804 448.56 
L 464.574804 60.48 
" clip-path="url(#pbb3db115d2)" style="fill: none; stroke: #444444; stroke-width: 0.8; stroke-linecap: square"/>
     </g>
     <g id="line2d_16">
      <g>
       <use xlink:href="#mcd6122d60b" x="464.574804" y="448.56" style="fill: #ffffff; stroke: #ffffff; stroke-width: 0.8"/>
      </g>
     </g>
     <g id="text_8">
      <!-- 2023-09-11 -->
      <g style="fill: #ffffff" transform="translate(445.988554 461.0175) scale(0.08 -0.08)">
       <use xlink:href="#GillSans-32"/>
       <use xlink:href="#GillSans-30" x="50"/>
       <use xlink:href="#GillSans-32" x="100"/>
       <use xlink:href="#GillSans-33" x="150"/>
       <use xlink:href="#GillSans-2d" x="200"/>
       <use xlink:href="#GillSans-30" x="232.324219"/>
       <use xlink:href="#GillSans-39" x="282.324219"/>
       <use xlink:href="#GillSans-2d" x="332.324219"/>
       <use xlink:href="#GillSans-31" x="364.648438"/>
       <use xlink:href="#GillSans-31" x="414.648438"/>
      </g>
     </g>
    </g>
    <g id="xtick_9">
     <g id="line2d_17">
      <path d="M 514.737266 448.56 
L 514.737266 60.48 
" clip-path="url(#pbb3db115d2)" style="fill: none; stroke: #444444; stroke-width: 0.8; stroke-linecap: square"/>
     </g>
     <g id="line2d_18">
      <g>
       <use xlink:href="#mcd6122d60b" x="514.737266" y="448.56" style="fill: #ffffff; stroke: #ffffff; stroke-width: 0.8"/>
      </g>
     </g>
     <g id="text_9">
      <!-- 2023-09-12 -->
      <g style="fill: #ffffff" transform="translate(496.151016 461.0175) scale(0.08 -0.08)">
       <use xlink:href="#GillSans-32"/>
       <use xlink:href="#GillSans-30" x="50"/>
       <use xlink:href="#GillSans-32" x="100"/>
       <use xlink:href="#GillSans-33" x="150"/>
       <use xlink:href="#GillSans-2d" x="200"/>
       <use xlink:href="#GillSans-30" x="232.324219"/>
       <use xlink:href="#GillSans-39" x="282.324219"/>
       <use xlink:href="#GillSans-2d" x="332.324219"/>
       <use xlink:href="#GillSans-31" x="364.648438"/>
       <use xlink:href="#GillSans-32" x="414.648438"/>
      </g>
     </g>
    </g>
    <g id="xtick_10">
     <g id="line2d_19">
      <path d="M 564.899727 448.56 
L 564.899727 60.48 
" clip-path="url(#pbb3db115d2)" style="fill: none; stroke: #444444; stroke-width: 0.8; stroke-linecap: square"/>
     </g>
     <g id="line2d_20">
      <g>
       <use xlink:href="#mcd6122d60b" x="564.899727" y="448.56" style="fill: #ffffff; stroke: #ffffff; stroke-width: 0.8"/>
      </g>
     </g>
     <g id="text_10">
      <!-- 2023-09-13 -->
      <g style="fill: #ffffff" transform="translate(546.313477 461.0175) scale(0.08 -0.08)">
       <use xlink:href="#GillSans-32"/>
       <use xlink:href="#GillSans-30" x="50"/>
       <use xlink:href="#GillSans-32" x="100"/>
       <use xlink:href="#GillSans-33" x="150"/>
       <use xlink:href="#GillSans-2d" x="200"/>
       <use xlink:href="#GillSans-30" x="232.324219"/>
       <use xlink:href="#GillSans-39" x="282.324219"/>
       <use xlink:href="#GillSans-2d" x="332.324219"/>
       <use xlink:href="#GillSans-31" x="364.648438"/>
       <use xlink:href="#GillSans-33" x="414.648438"/>
      </g>
     </g>
    </g>
    <g id="xtick_11">
     <g id="line2d_21">
      <path d="M 615.062188 448.56 
L 615.062188 60.48 
" clip-path="url(#pbb3db115d2)" style="fill: none; stroke: #444444; stroke-width: 0.8; stroke-linecap: square"/>
     </g>
     <g id="line2d_22">
      <g>
       <use xlink:href="#mcd6122d60b" x="615.062188" y="448.56" style="fill: #ffffff; stroke: #ffffff; stroke-width: 0.8"/>
      </g>
     </g>
     <g id="text_11">
      <!-- 2023-09-14 -->
      <g style="fill: #ffffff" transform="translate(596.475938 461.0175) scale(0.08 -0.08)">
       <use xlink:href="#GillSans-32"/>
       <use xlink:href="#GillSans-30" x="50"/>
       <use xlink:href="#GillSans-32" x="100"/>
       <use xlink:href="#GillSans-33" x="150"/>
       <use xlink:href="#GillSans-2d" x="200"/>
       <use xlink:href="#GillSans-30" x="232.324219"/>
       <use xlink:href="#GillSans-39" x="282.324219"/>
       <use xlink:href="#GillSans-2d" x="332.324219"/>
       <use xlink:href="#GillSans-31" x="364.648438"/>
       <use xlink:href="#GillSans-34" x="414.648438"/>
      </g>
     </g>
    </g>
    <g id="xtick_12">
     <g id="line2d_23">
      <path d="M 665.224649 448.56 
L 665.224649 60.48 
" clip-path="url(#pbb3db115d2)" style="fill: none; stroke: #444444; stroke-width: 0.8; stroke-linecap: square"/>
     </g>
     <g id="line2d_24">
      <g>
       <use xlink:href="#mcd6122d60b" x="665.224649" y="448.56" style="fill: #ffffff; stroke: #ffffff; stroke-width: 0.8"/>
      </g>
     </g>
     <g id="text_12">
      <!-- 2023-09-15 -->
      <g style="fill: #ffffff" transform="translate(646.638399 461.0175) scale(0.08 -0.08)">
       <use xlink:href="#GillSans-32"/>
       <use xlink:href="#GillSans-30" x="50"/>
       <use xlink:href="#GillSans-32" x="100"/>
       <use xlink:href="#GillSans-33" x="150"/>
       <use xlink:href="#GillSans-2d" x="200"/>
       <use xlink:href="#GillSans-30" x="232.324219"/>
       <use xlink:href="#GillSans-39" x="282.324219"/>
       <use xlink:href="#GillSans-2d" x="332.324219"/>
       <use xlink:href="#GillSans-31" x="364.648438"/>
       <use xlink:href="#GillSans-35" x="414.648438"/>
      </g>
     </g>
    </g>
    <g id="xtick_13">
     <g id="line2d_25">
      <path d="M 715.387111 448.56 
L 715.387111 60.48 
" clip-path="url(#pbb3db115d2)" style="fill: none; stroke: #444444; stroke-width: 0.8; stroke-linecap: square"/>
     </g>
     <g id="line2d_26">
      <g>
       <use xlink:href="#mcd6122d60b" x="715.387111" y="448.56" style="fill: #ffffff; stroke: #ffffff; stroke-width: 0.8"/>
      </g>
     </g>
     <g id="text_13">
      <!-- 2023-09-16 -->
      <g style="fill: #ffffff" transform="translate(696.800861 461.0175) scale(0.08 -0.08)">
       <use xlink:href="#GillSans-32"/>
       <use xlink:href="#GillSans-30" x="50"/>
       <use xlink:href="#GillSans-32" x="100"/>
       <use xlink:href="#GillSans-33" x="150"/>
       <use xlink:href="#GillSans-2d" x="200"/>
       <use xlink:href="#GillSans-30" x="232.324219"/>
       <use xlink:href="#GillSans-39" x="282.324219"/>
       <use xlink:href="#GillSans-2d" x="332.324219"/>
       <use xlink:href="#GillSans-31" x="364.648438"/>
       <use xlink:href="#GillSans-36" x="414.648438"/>
      </g>
     </g>
    </g>
    <g id="xtick_14">
     <g id="line2d_27">
      <path d="M 765.549572 448.56 
L 765.549572 60.48 
" clip-path="url(#pbb3db115d2)" style="fill: none; stroke: #444444; stroke-width: 0.8; stroke-linecap: square"/>
     </g>
     <g id="line2d_28">
      <g>
       <use xlink:href="#mcd6122d60b" x="765.549572" y="448.56" style="fill: #ffffff; stroke: #ffffff; stroke-width: 0.8"/>
      </g>
     </g>
     <g id="text_14">
      <!-- 2023-09-17 -->
      <g style="fill: #ffffff" transform="translate(746.963322 461.0175) scale(0.08 -0.08)">
       <use xlink:href="#GillSans-32"/>
       <use xlink:href="#GillSans-30" x="50"/>
       <use xlink:href="#GillSans-32" x="100"/>
       <use xlink:href="#GillSans-33" x="150"/>
       <use xlink:href="#GillSans-2d" x="200"/>
       <use xlink:href="#GillSans-30" x="232.324219"/>
       <use xlink:href="#GillSans-39" x="282.324219"/>
       <use xlink:href="#GillSans-2d" x="332.324219"/>
       <use xlink:href="#GillSans-31" x="364.648438"/>
       <use xlink:href="#GillSans-37" x="414.648438"/>
      </g>
     </g>
    </g>
    <g id="text_15">
     <!-- Time -->
     <g style="fill: #ffffff" transform="translate(428.287031 476.400625) scale(0.14 -0.14)">
      <defs>
       <path id="GillSans-54" d="M 109 4372 
L 3756 4372 
L 3756 3816 
L 2234 3816 
L 2234 0 
L 1606 0 
L 1606 3816 
L 109 3816 
L 109 4372 
z
" transform="scale(0.015625)"/>
       <path id="GillSans-69" d="M 697 4084 
Q 838 4084 938 3987 
Q 1038 3891 1038 3750 
Q 1038 3613 938 3513 
Q 838 3413 697 3413 
Q 566 3413 466 3514 
Q 366 3616 366 3750 
Q 366 3881 466 3982 
Q 566 4084 697 4084 
z
M 416 2875 
L 984 2875 
L 984 0 
L 416 0 
L 416 2875 
z
" transform="scale(0.015625)"/>
       <path id="GillSans-6d" d="M 2759 2088 
L 2759 0 
L 2188 0 
L 2188 1600 
Q 2188 2078 2059 2267 
Q 1931 2456 1613 2456 
Q 1434 2456 1286 2375 
Q 1138 2294 947 2088 
L 947 0 
L 378 0 
L 378 2875 
L 947 2875 
L 947 2497 
Q 1381 2931 1797 2931 
Q 2344 2931 2644 2413 
Q 3100 2938 3597 2938 
Q 4016 2938 4286 2631 
Q 4556 2325 4556 1697 
L 4556 0 
L 3988 0 
L 3988 1703 
Q 3988 2063 3841 2253 
Q 3694 2444 3419 2444 
Q 3066 2444 2759 2088 
z
" transform="scale(0.015625)"/>
       <path id="GillSans-65" d="M 2853 1388 
L 831 1388 
Q 853 975 1108 731 
Q 1363 488 1766 488 
Q 2328 488 2803 838 
L 2803 281 
Q 2541 106 2283 31 
Q 2025 -44 1678 -44 
Q 1203 -44 909 153 
Q 616 350 439 683 
Q 263 1016 263 1453 
Q 263 2109 634 2520 
Q 1006 2931 1600 2931 
Q 2172 2931 2512 2531 
Q 2853 2131 2853 1459 
L 2853 1388 
z
M 844 1728 
L 2291 1728 
Q 2269 2069 2087 2253 
Q 1906 2438 1600 2438 
Q 1294 2438 1098 2253 
Q 903 2069 844 1728 
z
" transform="scale(0.015625)"/>
      </defs>
      <use xlink:href="#GillSans-54"/>
      <use xlink:href="#GillSans-69" x="60.400391"/>
      <use xlink:href="#GillSans-6d" x="82.324219"/>
      <use xlink:href="#GillSans-65" x="159.423828"/>
     </g>
    </g>
   </g>
   <g id="matplotlib.axis_2">
    <g id="ytick_1">
     <g id="line2d_29">
      <path d="M 108 424.09386 
L 777.6 424.09386 
" clip-path="url(#pbb3db115d2)" style="fill: none; stroke: #444444; stroke-width: 0.8; stroke-linecap: square"/>
     </g>
     <g id="line2d_30">
      <defs>
       <path id="mc0f18c2330" d="M 0 0 
L -3.5 0 
" style="stroke: #ffffff; stroke-width: 0.8"/>
      </defs>
      <g>
       <use xlink:href="#mc0f18c2330" x="108" y="424.09386" style="fill: #ffffff; stroke: #ffffff; stroke-width: 0.8"/>
      </g>
     </g>
     <g id="text_16">
      <!-- 30 -->
      <g style="fill: #ffffff" transform="translate(93 426.82261) scale(0.08 -0.08)">
       <use xlink:href="#GillSans-33"/>
       <use xlink:href="#GillSans-30" x="50"/>
      </g>
     </g>
    </g>
    <g id="ytick_2">
     <g id="line2d_31">
      <path d="M 108 354.439368 
L 777.6 354.439368 
" clip-path="url(#pbb3db115d2)" style="fill: none; stroke: #444444; stroke-width: 0.8; stroke-linecap: square"/>
     </g>
     <g id="line2d_32">
      <g>
       <use xlink:href="#mc0f18c2330" x="108" y="354.439368" style="fill: #ffffff; stroke: #ffffff; stroke-width: 0.8"/>
      </g>
     </g>
     <g id="text_17">
      <!-- 40 -->
      <g style="fill: #ffffff" transform="translate(93 357.168118) scale(0.08 -0.08)">
       <use xlink:href="#GillSans-34"/>
       <use xlink:href="#GillSans-30" x="50"/>
      </g>
     </g>
    </g>
    <g id="ytick_3">
     <g id="line2d_33">
      <path d="M 108 284.784877 
L 777.6 284.784877 
" clip-path="url(#pbb3db115d2)" style="fill: none; stroke: #444444; stroke-width: 0.8; stroke-linecap: square"/>
     </g>
     <g id="line2d_34">
      <g>
       <use xlink:href="#mc0f18c2330" x="108" y="284.784877" style="fill: #ffffff; stroke: #ffffff; stroke-width: 0.8"/>
      </g>
     </g>
     <g id="text_18">
      <!-- 50 -->
      <g style="fill: #ffffff" transform="translate(93 287.513627) scale(0.08 -0.08)">
       <use xlink:href="#GillSans-35"/>
       <use xlink:href="#GillSans-30" x="50"/>
      </g>
     </g>
    </g>
    <g id="ytick_4">
     <g id="line2d_35">
      <path d="M 108 215.130385 
L 777.6 215.130385 
" clip-path="url(#pbb3db115d2)" style="fill: none; stroke: #444444; stroke-width: 0.8; stroke-linecap: square"/>
     </g>
     <g id="line2d_36">
      <g>
       <use xlink:href="#mc0f18c2330" x="108" y="215.130385" style="fill: #ffffff; stroke: #ffffff; stroke-width: 0.8"/>
      </g>
     </g>
     <g id="text_19">
      <!-- 60 -->
      <g style="fill: #ffffff" transform="translate(93 217.859135) scale(0.08 -0.08)">
       <use xlink:href="#GillSans-36"/>
       <use xlink:href="#GillSans-30" x="50"/>
      </g>
     </g>
    </g>
    <g id="ytick_5">
     <g id="line2d_37">
      <path d="M 108 145.475893 
L 777.6 145.475893 
" clip-path="url(#pbb3db115d2)" style="fill: none; stroke: #444444; stroke-width: 0.8; stroke-linecap: square"/>
     </g>
     <g id="line2d_38">
      <g>
       <use xlink:href="#mc0f18c2330" x="108" y="145.475893" style="fill: #ffffff; stroke: #ffffff; stroke-width: 0.8"/>
      </g>
     </g>
     <g id="text_20">
      <!-- 70 -->
      <g style="fill: #ffffff" transform="translate(93 148.204643) scale(0.08 -0.08)">
       <use xlink:href="#GillSans-37"/>
       <use xlink:href="#GillSans-30" x="50"/>
      </g>
     </g>
    </g>
    <g id="ytick_6">
     <g id="line2d_39">
      <path d="M 108 75.821402 
L 777.6 75.821402 
" clip-path="url(#pbb3db115d2)" style="fill: none; stroke: #444444; stroke-width: 0.8; stroke-linecap: square"/>
     </g>
     <g id="line2d_40">
      <g>
       <use xlink:href="#mc0f18c2330" x="108" y="75.821402" style="fill: #ffffff; stroke: #ffffff; stroke-width: 0.8"/>
      </g>
     </g>
     <g id="text_21">
      <!-- 80 -->
      <g style="fill: #ffffff" transform="translate(93 78.550152) scale(0.08 -0.08)">
       <use xlink:href="#GillSans-38"/>
       <use xlink:href="#GillSans-30" x="50"/>
      </g>
     </g>
    </g>
    <g id="text_22">
     <!-- Coverage % -->
     <g style="fill: #ffffff" transform="translate(87.1675 273.955) rotate(-90) scale(0.08 -0.08)">
      <defs>
       <path id="GillSans-43" d="M 4244 1013 
L 4244 325 
Q 3556 -50 2656 -50 
Q 1925 -50 1415 244 
Q 906 538 609 1053 
Q 313 1569 313 2169 
Q 313 3122 992 3772 
Q 1672 4422 2669 4422 
Q 3356 4422 4197 4063 
L 4197 3391 
Q 3431 3828 2700 3828 
Q 1950 3828 1454 3354 
Q 959 2881 959 2169 
Q 959 1450 1446 987 
Q 1934 525 2694 525 
Q 3488 525 4244 1013 
z
" transform="scale(0.015625)"/>
       <path id="GillSans-6f" d="M 1778 2881 
Q 2434 2881 2868 2457 
Q 3303 2034 3303 1394 
Q 3303 772 2862 361 
Q 2422 -50 1753 -50 
Q 1106 -50 672 367 
Q 238 784 238 1409 
Q 238 2041 677 2461 
Q 1116 2881 1778 2881 
z
M 1747 2369 
Q 1338 2369 1075 2100 
Q 813 1831 813 1416 
Q 813 1003 1081 742 
Q 1350 481 1772 481 
Q 2191 481 2458 745 
Q 2725 1009 2725 1422 
Q 2725 1831 2447 2100 
Q 2169 2369 1747 2369 
z
" transform="scale(0.015625)"/>
       <path id="GillSans-76" d="M 2163 2875 
L 2778 2875 
L 1509 -50 
L 1319 -50 
L 19 2875 
L 641 2875 
L 1416 1106 
L 2163 2875 
z
" transform="scale(0.015625)"/>
       <path id="GillSans-72" d="M 1013 2875 
L 1013 2216 
L 1044 2266 
Q 1456 2931 1869 2931 
Q 2191 2931 2541 2606 
L 2241 2106 
Q 1944 2388 1691 2388 
Q 1416 2388 1214 2125 
Q 1013 1863 1013 1503 
L 1013 0 
L 441 0 
L 441 2875 
L 1013 2875 
z
" transform="scale(0.015625)"/>
       <path id="GillSans-61" d="M 2209 1728 
L 2209 506 
Q 2209 359 2309 359 
Q 2413 359 2631 513 
L 2631 166 
Q 2438 41 2320 -4 
Q 2203 -50 2075 -50 
Q 1709 -50 1644 238 
Q 1281 -44 872 -44 
Q 572 -44 372 154 
Q 172 353 172 653 
Q 172 925 367 1139 
Q 563 1353 922 1478 
L 1650 1728 
L 1650 1881 
Q 1650 2400 1131 2400 
Q 666 2400 225 1919 
L 225 2541 
Q 556 2931 1178 2931 
Q 1644 2931 1925 2688 
Q 2019 2609 2094 2479 
Q 2169 2350 2189 2220 
Q 2209 2091 2209 1728 
z
M 1650 569 
L 1650 1422 
L 1269 1275 
Q 978 1159 858 1042 
Q 738 925 738 750 
Q 738 572 852 459 
Q 966 347 1147 347 
Q 1419 347 1650 569 
z
" transform="scale(0.015625)"/>
       <path id="GillSans-67" d="M 256 1881 
Q 256 2341 592 2608 
Q 928 2875 1509 2875 
L 2694 2875 
L 2694 2431 
L 2113 2431 
Q 2281 2259 2347 2118 
Q 2413 1978 2413 1797 
Q 2413 1572 2284 1355 
Q 2156 1138 1954 1022 
Q 1753 906 1294 838 
Q 972 791 972 616 
Q 972 516 1092 452 
Q 1213 388 1528 319 
Q 2056 203 2207 137 
Q 2359 72 2481 -50 
Q 2688 -256 2688 -569 
Q 2688 -978 2323 -1222 
Q 1959 -1466 1350 -1466 
Q 734 -1466 367 -1220 
Q 0 -975 0 -563 
Q 0 22 722 191 
Q 434 375 434 556 
Q 434 694 557 806 
Q 681 919 891 972 
Q 256 1253 256 1881 
z
M 1325 2381 
Q 1094 2381 931 2225 
Q 769 2069 769 1850 
Q 769 1628 928 1483 
Q 1088 1338 1331 1338 
Q 1572 1338 1733 1486 
Q 1894 1634 1894 1856 
Q 1894 2081 1731 2231 
Q 1569 2381 1325 2381 
z
M 1191 -134 
Q 903 -134 720 -256 
Q 538 -378 538 -569 
Q 538 -1013 1338 -1013 
Q 1716 -1013 1923 -902 
Q 2131 -791 2131 -588 
Q 2131 -388 1868 -261 
Q 1606 -134 1191 -134 
z
" transform="scale(0.015625)"/>
       <path id="GillSans-20" transform="scale(0.015625)"/>
       <path id="GillSans-25" d="M 3347 4428 
L 3825 4428 
L 953 -50 
L 472 -50 
L 3347 4428 
z
M 3191 1900 
Q 3591 1900 3878 1614 
Q 4166 1328 4166 928 
Q 4166 528 3880 248 
Q 3594 -31 3191 -31 
Q 2784 -31 2498 248 
Q 2213 528 2213 928 
Q 2213 1331 2500 1615 
Q 2788 1900 3191 1900 
z
M 3184 1428 
Q 2978 1428 2833 1281 
Q 2688 1134 2688 928 
Q 2688 719 2833 570 
Q 2978 422 3184 422 
Q 3397 422 3544 569 
Q 3691 716 3691 928 
Q 3691 1138 3544 1283 
Q 3397 1428 3184 1428 
z
M 1131 4416 
Q 1534 4416 1818 4128 
Q 2103 3841 2103 3438 
Q 2103 3038 1817 2750 
Q 1531 2463 1131 2463 
Q 731 2463 445 2750 
Q 159 3038 159 3438 
Q 159 3841 443 4128 
Q 728 4416 1131 4416 
z
M 1125 3944 
Q 916 3944 767 3795 
Q 619 3647 619 3438 
Q 619 3231 769 3084 
Q 919 2938 1125 2938 
Q 1334 2938 1482 3084 
Q 1631 3231 1631 3438 
Q 1631 3650 1484 3797 
Q 1338 3944 1125 3944 
z
" transform="scale(0.015625)"/>
      </defs>
      <use xlink:href="#GillSans-43"/>
      <use xlink:href="#GillSans-6f" x="70.800781"/>
      <use xlink:href="#GillSans-76" x="125.976562"/>
      <use xlink:href="#GillSans-65" x="169.775391"/>
      <use xlink:href="#GillSans-72" x="217.675781"/>
      <use xlink:href="#GillSans-61" x="257.275391"/>
      <use xlink:href="#GillSans-67" x="299.951172"/>
      <use xlink:href="#GillSans-65" x="342.626953"/>
      <use xlink:href="#GillSans-20" x="390.527344"/>
      <use xlink:href="#GillSans-25" x="418.310547"/>
     </g>
    </g>
   </g>
   <g id="line2d_41">
    <path d="M 138.436364 409.536071 
L 141.374119 409.536071 
L 147.545727 410.720197 
L 148.416603 410.720197 
L 149.149881 410.720197 
L 177.606047 410.720197 
L 180.367304 410.093307 
L 199.636889 410.023653 
L 216.735669 407.167818 
L 217.137433 407.167818 
L 218.680045 407.167818 
L 219.316365 405.287147 
L 219.743675 405.287147 
L 220.47405 403.406476 
L 221.45814 403.406476 
L 225.103046 403.406476 
L 232.79056 402.431313 
L 235.88275 402.431313 
L 237.892732 401.525805 
L 243.445438 399.645133 
L 243.922678 399.645133 
L 244.637377 399.645133 
L 246.538209 394.838973 
L 246.873787 393.86381 
L 249.349397 393.86381 
L 250.623779 394.212083 
L 271.366305 380.908075 
L 273.407058 380.908075 
L 277.99135 375.614334 
L 278.443625 375.614334 
L 315.204465 376.868115 
L 346.848037 376.868115 
L 347.552285 374.01228 
L 348.79938 372.061955 
L 350.007575 370.529556 
L 350.533584 367.325449 
L 351.322017 371.644028 
L 352.230051 371.644028 
L 368.276813 371.9923 
L 369.172074 372.340573 
L 378.500317 372.340573 
L 379.816501 364.190997 
L 402.04242 364.190997 
L 411.905381 360.429654 
L 418.636092 364.190997 
L 419.225966 364.190997 
L 423.217481 364.190997 
L 426.901287 364.190997 
L 429.435536 364.190997 
L 435.02656 364.190997 
L 436.234175 364.190997 
L 437.033639 364.190997 
L 437.612482 364.190997 
L 439.960944 364.190997 
L 442.57183 364.190997 
L 445.353409 364.190997 
L 445.988568 364.190997 
L 446.581924 364.190997 
L 447.169475 364.957196 
L 447.517826 364.957196 
L 448.259812 365.305469 
L 450.186771 365.305469 
L 476.385045 367.673722 
L 478.389221 367.673722 
L 479.817458 364.957196 
L 481.979553 361.265508 
L 482.595553 360.36 
L 484.459808 359.802764 
L 487.602509 357.922093 
L 490.808494 358.688292 
L 500.737062 359.73311 
L 501.288036 359.73311 
L 501.88836 359.73311 
L 519.63217 359.73311 
L 520.413055 359.73311 
L 545.03156 359.73311 
L 547.971057 360.429654 
L 549.016109 360.847581 
L 549.978136 359.872419 
L 550.991836 359.872419 
L 581.34477 228.85232 
L 582.59709 228.85232 
L 585.105793 228.85232 
L 591.330235 203.080158 
L 593.821521 203.080158 
L 594.770776 202.17465 
L 595.901173 202.731885 
L 596.463759 196.462981 
L 599.94436 190.751313 
L 600.74963 191.656821 
L 601.516001 190.751313 
L 602.318368 190.751313 
L 619.265036 189.567187 
L 619.978574 189.567187 
L 622.944778 189.567187 
L 623.834232 189.567187 
L 624.630213 189.567187 
L 631.165848 188.661678 
L 633.290785 184.761027 
L 638.424309 179.119013 
L 639.84674 179.119013 
L 647.28228 179.119013 
L 648.033556 179.119013 
L 670.907987 176.681106 
L 673.859676 176.12387 
L 675.117801 176.12387 
L 678.893339 152.371688 
L 682.766416 148.749654 
L 685.023146 147.844146 
L 689.080848 143.107641 
L 700.361596 133.286357 
L 723.265055 118.58926 
L 728.904268 113.0169 
L 730.402756 107.374886 
L 745.047408 99.225311 
L 747.163636 84.388904 
" clip-path="url(#pbb3db115d2)" style="fill: none; stroke: #8b5000; stroke-width: 2; stroke-linecap: square"/>
   </g>
   <g id="line2d_42">
    <path d="M 138.436364 430.362764 
L 141.374119 430.362764 
L 147.545727 430.92 
L 148.416603 430.92 
L 149.149881 430.92 
L 177.606047 430.92 
L 180.367304 430.571728 
L 199.636889 427.019348 
L 216.735669 424.09386 
L 217.137433 424.09386 
L 218.680045 424.09386 
L 219.316365 423.188351 
L 219.743675 423.188351 
L 220.47405 420.053899 
L 221.45814 419.775281 
L 225.103046 419.775281 
L 232.79056 417.824956 
L 235.88275 417.824956 
L 237.892732 415.178085 
L 243.445438 413.506377 
L 243.922678 413.506377 
L 244.637377 413.158105 
L 246.538209 409.745035 
L 246.873787 409.187799 
L 249.349397 409.187799 
L 250.623779 409.536071 
L 271.366305 392.679684 
L 273.407058 392.052794 
L 277.99135 387.943179 
L 278.443625 388.152142 
L 315.204465 388.709378 
L 346.848037 388.709378 
L 347.552285 385.435617 
L 348.79938 384.669418 
L 350.007575 383.833564 
L 350.533584 378.748786 
L 351.322017 381.674274 
L 352.230051 381.674274 
L 368.276813 377.146732 
L 369.172074 377.355696 
L 378.500317 377.355696 
L 379.816501 373.246081 
L 402.04242 373.246081 
L 411.905381 368.161303 
L 418.636092 373.246081 
L 419.225966 373.246081 
L 423.217481 373.246081 
L 426.901287 373.246081 
L 429.435536 373.246081 
L 435.02656 373.246081 
L 436.234175 373.246081 
L 437.033639 373.246081 
L 437.612482 373.246081 
L 439.960944 373.246081 
L 442.57183 373.246081 
L 445.353409 373.246081 
L 445.988568 373.246081 
L 446.581924 373.037117 
L 447.169475 373.315735 
L 447.517826 373.315735 
L 448.259812 372.897808 
L 450.186771 372.897808 
L 476.385045 374.01228 
L 478.389221 374.01228 
L 479.817458 372.619191 
L 481.979553 370.181283 
L 482.595553 369.20612 
L 484.459808 368.857848 
L 487.602509 367.673722 
L 490.808494 367.743376 
L 500.737062 367.534413 
L 501.288036 367.534413 
L 501.88836 367.534413 
L 519.63217 367.534413 
L 520.413055 367.534413 
L 545.03156 367.534413 
L 547.971057 368.230958 
L 549.016109 368.161303 
L 549.978136 366.628904 
L 550.991836 366.628904 
L 581.34477 228.713011 
L 582.59709 228.713011 
L 585.105793 228.713011 
L 591.330235 199.876051 
L 593.821521 199.945706 
L 594.770776 198.62227 
L 595.901173 198.900888 
L 596.463759 195.487818 
L 599.94436 191.378203 
L 600.74963 191.517512 
L 601.516001 191.378203 
L 602.318368 191.378203 
L 619.265036 188.522369 
L 619.978574 188.522369 
L 622.944778 188.522369 
L 623.834232 188.522369 
L 624.630213 188.522369 
L 631.165848 186.084462 
L 633.290785 183.437591 
L 638.424309 172.153564 
L 639.84674 172.153564 
L 647.28228 172.919763 
L 648.033556 172.919763 
L 670.907987 169.854965 
L 673.859676 169.785311 
L 675.117801 169.785311 
L 678.893339 156.550958 
L 682.766416 152.510997 
L 685.023146 152.162725 
L 689.080848 149.864126 
L 700.361596 135.167029 
L 723.265055 124.509891 
L 728.904268 113.574136 
L 730.402756 104.658361 
L 745.047408 95.046041 
L 747.163636 78.12 
" clip-path="url(#pbb3db115d2)" style="fill: none; stroke: #106a77; stroke-width: 2; stroke-linecap: square"/>
   </g>
   <g id="line2d_43">
    <path d="M 138.436364 416.849793 
L 141.374119 416.849793 
L 147.545727 417.407029 
L 148.416603 417.407029 
L 149.149881 417.407029 
L 177.606047 417.407029 
L 180.367304 417.128411 
L 199.636889 415.317394 
L 216.735669 411.625706 
L 217.137433 411.625706 
L 218.680045 411.625706 
L 219.316365 410.720197 
L 219.743675 410.720197 
L 220.47405 406.123001 
L 221.45814 405.147838 
L 225.103046 405.147838 
L 232.79056 403.824403 
L 235.88275 403.824403 
L 237.892732 401.943731 
L 243.445438 399.645133 
L 243.922678 399.645133 
L 244.637377 398.739625 
L 246.538209 394.142428 
L 246.873787 393.306575 
L 249.349397 393.306575 
L 250.623779 393.933465 
L 271.366305 375.962606 
L 273.407058 375.057098 
L 277.99135 368.788193 
L 278.443625 369.763356 
L 315.204465 370.181283 
L 346.848037 370.181283 
L 347.552285 368.300612 
L 348.79938 367.395104 
L 350.007575 366.071668 
L 350.533584 360.917236 
L 351.322017 366.628904 
L 352.230051 365.723396 
L 368.276813 365.932359 
L 369.172074 366.141323 
L 378.500317 366.141323 
L 379.816501 362.310326 
L 402.04242 362.310326 
L 411.905381 358.688292 
L 418.636092 362.310326 
L 419.225966 362.310326 
L 423.217481 362.310326 
L 426.901287 362.310326 
L 429.435536 362.310326 
L 435.02656 362.310326 
L 436.234175 362.310326 
L 437.033639 362.310326 
L 437.612482 362.310326 
L 439.960944 362.310326 
L 442.57183 362.310326 
L 445.353409 362.310326 
L 445.988568 362.310326 
L 446.581924 362.310326 
L 447.169475 362.658598 
L 447.517826 362.658598 
L 448.259812 362.867562 
L 450.186771 362.867562 
L 476.385045 364.051688 
L 478.389221 364.051688 
L 479.817458 362.728253 
L 481.979553 361.404817 
L 482.595553 360.917236 
L 484.459808 360.638618 
L 487.602509 359.802764 
L 490.808494 360.151037 
L 500.737062 360.98689 
L 501.288036 360.98689 
L 501.88836 360.98689 
L 519.63217 360.98689 
L 520.413055 360.98689 
L 545.03156 360.98689 
L 547.971057 362.031708 
L 549.016109 362.240671 
L 549.978136 360.917236 
L 550.991836 360.917236 
L 581.34477 274.058085 
L 582.59709 274.058085 
L 585.105793 274.058085 
L 591.330235 252.604501 
L 593.821521 252.604501 
L 594.770776 252.674156 
L 595.901173 252.883119 
L 596.463759 249.818322 
L 599.94436 246.196288 
L 600.74963 246.614215 
L 601.516001 246.196288 
L 602.318368 246.196288 
L 619.265036 242.5046 
L 619.978574 242.5046 
L 622.944778 242.5046 
L 623.834232 242.5046 
L 624.630213 242.5046 
L 631.165848 238.046713 
L 633.290785 235.67846 
L 638.424309 227.737848 
L 639.84674 227.737848 
L 647.28228 231.011609 
L 648.033556 231.011609 
L 670.907987 225.508904 
L 673.859676 225.230286 
L 675.117801 225.230286 
L 678.893339 214.364186 
L 682.766416 209.697335 
L 685.023146 208.722172 
L 689.080848 205.727029 
L 700.361596 183.507246 
L 723.265055 171.039092 
L 728.904268 160.103337 
L 730.402756 151.535834 
L 745.047408 140.46077 
L 747.163636 129.525015 
" clip-path="url(#pbb3db115d2)" style="fill: none; stroke: #50486c; stroke-width: 2; stroke-linecap: square"/>
   </g>
   <g id="text_23">
    <g id="patch_2">
     <path d="M 757.512 114.59835 
L 792.252 114.59835 
Q 797.052 114.59835 797.052 109.79835 
L 797.052 98.86335 
Q 797.052 94.06335 792.252 94.06335 
L 757.512 94.06335 
Q 752.712 94.06335 752.712 98.86335 
L 752.712 109.79835 
Q 752.712 114.59835 757.512 114.59835 
z
" style="fill: #8b5000; stroke: #8b5000; stroke-linejoin: miter"/>
    </g>
    <!-- 78.77% -->
    <g style="fill: #ffffff" transform="translate(757.512 107.0496) scale(0.12 -0.12)">
     <defs>
      <path id="GillSans-2e" d="M 697 697 
Q 856 697 968 587 
Q 1081 478 1081 319 
Q 1081 163 970 56 
Q 859 -50 697 -50 
Q 538 -50 428 56 
Q 319 163 319 319 
Q 319 478 428 587 
Q 538 697 697 697 
z
" transform="scale(0.015625)"/>
     </defs>
     <use xlink:href="#GillSans-37"/>
     <use xlink:href="#GillSans-38" x="50"/>
     <use xlink:href="#GillSans-2e" x="100"/>
     <use xlink:href="#GillSans-37" x="121.923828"/>
     <use xlink:href="#GillSans-37" x="171.923828"/>
     <use xlink:href="#GillSans-25" x="221.923828"/>
    </g>
   </g>
   <g id="text_24">
    <g id="patch_3">
     <path d="M 757.512 68.02875 
L 792.252 68.02875 
Q 797.052 68.02875 797.052 63.22875 
L 797.052 52.29375 
Q 797.052 47.49375 792.252 47.49375 
L 757.512 47.49375 
Q 752.712 47.49375 752.712 52.29375 
L 752.712 63.22875 
Q 752.712 68.02875 757.512 68.02875 
z
" style="fill: #106a77; stroke: #106a77; stroke-linejoin: miter"/>
    </g>
    <!-- 79.67% -->
    <g style="fill: #ffffff" transform="translate(757.512 60.48) scale(0.12 -0.12)">
     <use xlink:href="#GillSans-37"/>
     <use xlink:href="#GillSans-39" x="50"/>
     <use xlink:href="#GillSans-2e" x="100"/>
     <use xlink:href="#GillSans-36" x="121.923828"/>
     <use xlink:href="#GillSans-37" x="171.923828"/>
     <use xlink:href="#GillSans-25" x="221.923828"/>
    </g>
   </g>
   <g id="text_25">
    <g id="patch_4">
     <path d="M 757.512 161.16795 
L 792.252 161.16795 
Q 797.052 161.16795 797.052 156.36795 
L 797.052 145.43295 
Q 797.052 140.63295 792.252 140.63295 
L 757.512 140.63295 
Q 752.712 140.63295 752.712 145.43295 
L 752.712 156.36795 
Q 752.712 161.16795 757.512 161.16795 
z
" style="fill: #50486c; stroke: #50486c; stroke-linejoin: miter"/>
    </g>
    <!-- 72.29% -->
    <g style="fill: #ffffff" transform="translate(757.512 153.6192) scale(0.12 -0.12)">
     <use xlink:href="#GillSans-37"/>
     <use xlink:href="#GillSans-32" x="50"/>
     <use xlink:href="#GillSans-2e" x="100"/>
     <use xlink:href="#GillSans-32" x="121.923828"/>
     <use xlink:href="#GillSans-39" x="171.923828"/>
     <use xlink:href="#GillSans-25" x="221.923828"/>
    </g>
   </g>
   <g id="text_26">
    <!-- CutBox.app coverage progress -->
    <g style="fill: #ffffff" transform="translate(280.151719 54.48) scale(0.26 -0.26)">
     <defs>
      <path id="GillSans-75" d="M 2234 0 
L 2234 366 
Q 2053 169 1820 59 
Q 1588 -50 1356 -50 
Q 1084 -50 854 86 
Q 625 222 508 455 
Q 391 688 391 1228 
L 391 2875 
L 959 2875 
L 959 1234 
Q 959 781 1089 601 
Q 1219 422 1544 422 
Q 1950 422 2234 819 
L 2234 2875 
L 2803 2875 
L 2803 0 
L 2234 0 
z
" transform="scale(0.015625)"/>
      <path id="GillSans-74" d="M 0 2419 
L 1069 3469 
L 1069 2875 
L 1978 2875 
L 1978 2363 
L 1069 2363 
L 1069 953 
Q 1069 459 1478 459 
Q 1784 459 2125 666 
L 2125 134 
Q 1797 -50 1409 -50 
Q 1019 -50 759 178 
Q 678 247 625 333 
Q 572 419 536 558 
Q 500 697 500 1088 
L 500 2363 
L 0 2363 
L 0 2419 
z
" transform="scale(0.015625)"/>
      <path id="GillSans-42" d="M 1959 0 
L 481 0 
L 481 4366 
L 1625 4366 
Q 2166 4366 2469 4220 
Q 2772 4075 2931 3820 
Q 3091 3566 3091 3231 
Q 3091 2588 2425 2309 
Q 2903 2219 3186 1916 
Q 3469 1613 3469 1191 
Q 3469 856 3297 593 
Q 3125 331 2792 165 
Q 2459 0 1959 0 
z
M 1644 3809 
L 1106 3809 
L 1106 2497 
L 1522 2497 
Q 2022 2497 2233 2687 
Q 2444 2878 2444 3181 
Q 2444 3809 1644 3809 
z
M 1691 1941 
L 1106 1941 
L 1106 556 
L 1722 556 
Q 2234 556 2417 636 
Q 2600 716 2711 884 
Q 2822 1053 2822 1247 
Q 2822 1447 2705 1612 
Q 2588 1778 2372 1859 
Q 2156 1941 1691 1941 
z
" transform="scale(0.015625)"/>
      <path id="GillSans-78" d="M 2388 2875 
L 3116 2875 
L 1931 1459 
L 3200 0 
L 2472 0 
L 1569 1031 
L 716 0 
L 0 0 
L 1209 1459 
L 0 2875 
L 716 2875 
L 1569 1888 
L 2388 2875 
z
" transform="scale(0.015625)"/>
      <path id="GillSans-70" d="M 366 -1466 
L 366 2875 
L 1363 2875 
Q 2128 2875 2554 2494 
Q 2981 2113 2981 1428 
Q 2981 781 2579 365 
Q 2178 -50 1556 -50 
Q 1281 -50 947 72 
L 947 -1466 
L 366 -1466 
z
M 1350 2344 
L 947 2344 
L 947 575 
Q 1209 441 1497 441 
Q 1897 441 2151 719 
Q 2406 997 2406 1434 
Q 2406 1716 2286 1931 
Q 2166 2147 1958 2245 
Q 1750 2344 1350 2344 
z
" transform="scale(0.015625)"/>
      <path id="GillSans-63" d="M 2559 672 
L 2559 109 
Q 2131 -50 1722 -50 
Q 1047 -50 645 350 
Q 244 750 244 1422 
Q 244 2100 634 2515 
Q 1025 2931 1663 2931 
Q 1884 2931 2061 2889 
Q 2238 2847 2497 2731 
L 2497 2125 
Q 2066 2400 1697 2400 
Q 1313 2400 1066 2129 
Q 819 1859 819 1441 
Q 819 1000 1086 740 
Q 1353 481 1806 481 
Q 2134 481 2559 672 
z
" transform="scale(0.015625)"/>
      <path id="GillSans-73" d="M 263 206 
L 263 819 
Q 503 650 754 545 
Q 1006 441 1178 441 
Q 1356 441 1484 528 
Q 1613 616 1613 738 
Q 1613 863 1530 945 
Q 1447 1028 1172 1184 
Q 622 1491 451 1708 
Q 281 1925 281 2181 
Q 281 2513 539 2722 
Q 797 2931 1203 2931 
Q 1625 2931 2069 2694 
L 2069 2131 
Q 1563 2438 1241 2438 
Q 1075 2438 973 2367 
Q 872 2297 872 2181 
Q 872 2081 964 1990 
Q 1056 1900 1288 1772 
L 1491 1656 
Q 2209 1250 2209 756 
Q 2209 403 1932 176 
Q 1656 -50 1222 -50 
Q 966 -50 766 4 
Q 566 59 263 206 
z
" transform="scale(0.015625)"/>
     </defs>
     <use xlink:href="#GillSans-43"/>
     <use xlink:href="#GillSans-75" x="70.800781"/>
     <use xlink:href="#GillSans-74" x="120.800781"/>
     <use xlink:href="#GillSans-42" x="154.101562"/>
     <use xlink:href="#GillSans-6f" x="210.400391"/>
     <use xlink:href="#GillSans-78" x="265.576172"/>
     <use xlink:href="#GillSans-2e" x="315.576172"/>
     <use xlink:href="#GillSans-61" x="337.5"/>
     <use xlink:href="#GillSans-70" x="380.175781"/>
     <use xlink:href="#GillSans-70" x="430.175781"/>
     <use xlink:href="#GillSans-20" x="480.175781"/>
     <use xlink:href="#GillSans-63" x="507.958984"/>
     <use xlink:href="#GillSans-6f" x="551.757812"/>
     <use xlink:href="#GillSans-76" x="606.933594"/>
     <use xlink:href="#GillSans-65" x="650.732422"/>
     <use xlink:href="#GillSans-72" x="698.632812"/>
     <use xlink:href="#GillSans-61" x="738.232422"/>
     <use xlink:href="#GillSans-67" x="780.908203"/>
     <use xlink:href="#GillSans-65" x="823.583984"/>
     <use xlink:href="#GillSans-20" x="871.484375"/>
     <use xlink:href="#GillSans-70" x="899.267578"/>
     <use xlink:href="#GillSans-72" x="949.267578"/>
     <use xlink:href="#GillSans-6f" x="988.867188"/>
     <use xlink:href="#GillSans-67" x="1044.042969"/>
     <use xlink:href="#GillSans-72" x="1086.71875"/>
     <use xlink:href="#GillSans-65" x="1126.318359"/>
     <use xlink:href="#GillSans-73" x="1174.21875"/>
     <use xlink:href="#GillSans-73" x="1212.695312"/>
    </g>
   </g>
   <g id="legend_1">
    <g id="line2d_44">
     <path d="M 115.2 70.48 
L 123.2 70.48 
L 131.2 70.48 
" style="fill: none; stroke: #8b5000; stroke-width: 2; stroke-linecap: square"/>
    </g>
    <g id="text_27">
     <!-- Function -->
     <g style="fill: #ffffff" transform="translate(137.6 73.28) scale(0.08 -0.08)">
      <defs>
       <path id="GillSans-46" d="M 488 4366 
L 2816 4366 
L 2816 3809 
L 1113 3809 
L 1113 2591 
L 2816 2591 
L 2816 2034 
L 1113 2034 
L 1113 0 
L 488 0 
L 488 4366 
z
" transform="scale(0.015625)"/>
       <path id="GillSans-6e" d="M 972 2875 
L 972 2509 
Q 1353 2931 1838 2931 
Q 2106 2931 2337 2792 
Q 2569 2653 2689 2411 
Q 2809 2169 2809 1644 
L 2809 0 
L 2241 0 
L 2241 1638 
Q 2241 2078 2106 2267 
Q 1972 2456 1656 2456 
Q 1253 2456 972 2053 
L 972 0 
L 391 0 
L 391 2875 
L 972 2875 
z
" transform="scale(0.015625)"/>
      </defs>
      <use xlink:href="#GillSans-46"/>
      <use xlink:href="#GillSans-75" x="46.923828"/>
      <use xlink:href="#GillSans-6e" x="96.923828"/>
      <use xlink:href="#GillSans-63" x="146.923828"/>
      <use xlink:href="#GillSans-74" x="190.722656"/>
      <use xlink:href="#GillSans-69" x="224.023438"/>
      <use xlink:href="#GillSans-6f" x="245.947266"/>
      <use xlink:href="#GillSans-6e" x="301.123047"/>
     </g>
    </g>
    <g id="line2d_45">
     <path d="M 115.2 81.9125 
L 123.2 81.9125 
L 131.2 81.9125 
" style="fill: none; stroke: #106a77; stroke-width: 2; stroke-linecap: square"/>
    </g>
    <g id="text_28">
     <!-- Line -->
     <g style="fill: #ffffff" transform="translate(137.6 84.7125) scale(0.08 -0.08)">
      <defs>
       <path id="GillSans-4c" d="M 481 4366 
L 1106 4366 
L 1106 569 
L 3072 569 
L 3072 0 
L 481 0 
L 481 4366 
z
" transform="scale(0.015625)"/>
      </defs>
      <use xlink:href="#GillSans-4c"/>
      <use xlink:href="#GillSans-69" x="49.023438"/>
      <use xlink:href="#GillSans-6e" x="70.947266"/>
      <use xlink:href="#GillSans-65" x="120.947266"/>
     </g>
    </g>
    <g id="line2d_46">
     <path d="M 115.2 93.345 
L 123.2 93.345 
L 131.2 93.345 
" style="fill: none; stroke: #50486c; stroke-width: 2; stroke-linecap: square"/>
    </g>
    <g id="text_29">
     <!-- Region -->
     <g style="fill: #ffffff" transform="translate(137.6 96.145) scale(0.08 -0.08)">
      <defs>
       <path id="GillSans-52" d="M 500 0 
L 500 4366 
L 1594 4366 
Q 2256 4366 2645 4037 
Q 3034 3709 3034 3150 
Q 3034 2769 2843 2491 
Q 2653 2213 2297 2075 
Q 2506 1938 2706 1700 
Q 2906 1463 3269 872 
Q 3497 500 3634 313 
L 3866 0 
L 3122 0 
L 2931 288 
Q 2922 303 2894 341 
L 2772 513 
L 2578 831 
L 2369 1172 
Q 2175 1441 2014 1600 
Q 1853 1759 1723 1829 
Q 1594 1900 1288 1900 
L 1125 1900 
L 1125 0 
L 500 0 
z
M 1313 3834 
L 1125 3834 
L 1125 2456 
L 1363 2456 
Q 1838 2456 2014 2537 
Q 2191 2619 2289 2783 
Q 2388 2947 2388 3156 
Q 2388 3363 2278 3530 
Q 2169 3697 1970 3765 
Q 1772 3834 1313 3834 
z
" transform="scale(0.015625)"/>
      </defs>
      <use xlink:href="#GillSans-52"/>
      <use xlink:href="#GillSans-65" x="60.400391"/>
      <use xlink:href="#GillSans-67" x="108.300781"/>
      <use xlink:href="#GillSans-69" x="150.976562"/>
      <use xlink:href="#GillSans-6f" x="172.900391"/>
      <use xlink:href="#GillSans-6e" x="228.076172"/>
     </g>
    </g>
   </g>
  </g>
 </g>
 <defs>
  <clipPath id="pbb3db115d2">
   <rect x="108" y="60.48" width="669.6" height="388.08"/>
  </clipPath>
 </defs>
</svg>
