<?xml version="1.0" encoding="utf-8" standalone="no"?>
<!DOCTYPE svg PUBLIC "-//W3C//DTD SVG 1.1//EN"
  "http://www.w3.org/Graphics/SVG/1.1/DTD/svg11.dtd">
<svg xmlns:xlink="http://www.w3.org/1999/xlink" width="864pt" height="504pt" viewBox="0 0 864 504" xmlns="http://www.w3.org/2000/svg" version="1.1">
 <metadata>
  <rdf:RDF xmlns:dc="http://purl.org/dc/elements/1.1/" xmlns:cc="http://creativecommons.org/ns#" xmlns:rdf="http://www.w3.org/1999/02/22-rdf-syntax-ns#">
   <cc:Work>
    <dc:type rdf:resource="http://purl.org/dc/dcmitype/StillImage"/>
    <dc:date>2023-09-17T08:34:52.661195</dc:date>
    <dc:format>image/svg+xml</dc:format>
    <dc:creator>
     <cc:Agent>
      <dc:title>Matplotlib v3.7.2, https://matplotlib.org/</dc:title>
     </cc:Agent>
    </dc:creator>
   </cc:Work>
  </rdf:RDF>
 </metadata>
 <defs>
  <style type="text/css">*{stroke-linejoin: round; stroke-linecap: butt}</style>
 </defs>
 <g id="figure_1">
  <g id="patch_1">
   <path d="M 0 504 
L 864 504 
L 864 0 
L 0 0 
z
"/>
  </g>
  <g id="axes_1">
   <g id="matplotlib.axis_1">
    <g id="xtick_1">
     <g id="line2d_1">
      <path d="M 116.648182 448.56 
L 116.648182 60.48 
" clip-path="url(#p1b23f8d6a4)" style="fill: none; stroke: #444444; stroke-width: 0.8; stroke-linecap: square"/>
     </g>
     <g id="line2d_2">
      <defs>
       <path id="m07c9ca783a" d="M 0 0 
L 0 3.5 
" style="stroke: #ffffff; stroke-width: 0.8"/>
      </defs>
      <g>
       <use xlink:href="#m07c9ca783a" x="116.648182" y="448.56" style="fill: #ffffff; stroke: #ffffff; stroke-width: 0.8"/>
      </g>
     </g>
     <g id="text_1">
      <!-- 2023-09-04 -->
      <g style="fill: #ffffff" transform="translate(98.061932 461.0175) scale(0.08 -0.08)">
       <defs>
        <path id="GillSans-32" d="M 1319 603 
L 2981 603 
L 2981 0 
L 219 0 
L 219 44 
L 481 353 
Q 1097 1116 1461 1647 
Q 1825 2178 1936 2450 
Q 2047 2722 2047 2988 
Q 2047 3356 1837 3579 
Q 1628 3803 1281 3803 
Q 1019 3803 764 3648 
Q 509 3494 306 3213 
L 306 4006 
Q 816 4422 1356 4422 
Q 1928 4422 2298 4040 
Q 2669 3659 2669 3072 
Q 2669 2809 2576 2511 
Q 2484 2213 2250 1823 
Q 2016 1434 1453 763 
L 1319 603 
z
" transform="scale(0.015625)"/>
        <path id="GillSans-30" d="M 1625 4422 
Q 2225 4422 2617 3792 
Q 3009 3163 3009 2194 
Q 3009 1200 2617 578 
Q 2225 -44 1600 -44 
Q 966 -44 581 565 
Q 197 1175 197 2181 
Q 197 3175 594 3798 
Q 991 4422 1625 4422 
z
M 1631 3828 
L 1600 3828 
Q 1241 3828 1030 3386 
Q 819 2944 819 2188 
Q 819 1413 1025 972 
Q 1231 531 1594 531 
Q 1956 531 2165 972 
Q 2375 1413 2375 2169 
Q 2375 2928 2173 3378 
Q 1972 3828 1631 3828 
z
" transform="scale(0.015625)"/>
        <path id="GillSans-33" d="M 1153 2541 
L 1191 2541 
Q 1600 2541 1814 2709 
Q 2028 2878 2028 3200 
Q 2028 3491 1820 3672 
Q 1613 3853 1275 3853 
Q 934 3853 519 3641 
L 519 4238 
Q 900 4428 1350 4428 
Q 1953 4428 2301 4112 
Q 2650 3797 2650 3250 
Q 2650 2919 2515 2692 
Q 2381 2466 2088 2303 
Q 2344 2203 2462 2058 
Q 2581 1913 2647 1706 
Q 2713 1500 2713 1269 
Q 2713 697 2331 323 
Q 1950 -50 1369 -50 
Q 872 -50 409 191 
L 409 872 
Q 903 563 1369 563 
Q 1684 563 1876 750 
Q 2069 938 2069 1247 
Q 2069 1506 1909 1700 
Q 1816 1809 1702 1861 
Q 1588 1913 1209 1959 
L 1153 1966 
L 1153 2541 
z
" transform="scale(0.015625)"/>
        <path id="GillSans-2d" d="M 256 1722 
L 1813 1722 
L 1813 1113 
L 256 1113 
L 256 1722 
z
" transform="scale(0.015625)"/>
        <path id="GillSans-39" d="M 1197 -50 
L 813 403 
Q 1297 709 1659 1145 
Q 2022 1581 2144 2041 
Q 1847 1856 1447 1856 
Q 947 1856 589 2228 
Q 231 2600 231 3122 
Q 231 3666 612 4044 
Q 994 4422 1544 4422 
Q 2163 4422 2556 3975 
Q 2950 3528 2950 2828 
Q 2950 2034 2456 1223 
Q 1963 413 1197 -50 
z
M 2266 2663 
Q 2303 2913 2303 2988 
Q 2303 3366 2092 3606 
Q 1881 3847 1550 3847 
Q 1247 3847 1048 3642 
Q 850 3438 850 3128 
Q 850 2844 1065 2637 
Q 1281 2431 1581 2431 
Q 1931 2431 2266 2663 
z
" transform="scale(0.015625)"/>
        <path id="GillSans-34" d="M 2272 4422 
L 2528 4422 
L 2528 1972 
L 3016 1972 
L 3016 1441 
L 2528 1441 
L 2528 0 
L 1919 0 
L 1919 1441 
L 72 1441 
L 72 1709 
L 2272 4422 
z
M 1919 1972 
L 1919 3238 
L 909 1972 
L 1919 1972 
z
" transform="scale(0.015625)"/>
       </defs>
       <use xlink:href="#GillSans-32"/>
       <use xlink:href="#GillSans-30" x="50"/>
       <use xlink:href="#GillSans-32" x="100"/>
       <use xlink:href="#GillSans-33" x="150"/>
       <use xlink:href="#GillSans-2d" x="200"/>
       <use xlink:href="#GillSans-30" x="232.324219"/>
       <use xlink:href="#GillSans-39" x="282.324219"/>
       <use xlink:href="#GillSans-2d" x="332.324219"/>
       <use xlink:href="#GillSans-30" x="364.648438"/>
       <use xlink:href="#GillSans-34" x="414.648438"/>
      </g>
     </g>
    </g>
    <g id="xtick_2">
     <g id="line2d_3">
      <path d="M 163.852267 448.56 
L 163.852267 60.48 
" clip-path="url(#p1b23f8d6a4)" style="fill: none; stroke: #444444; stroke-width: 0.8; stroke-linecap: square"/>
     </g>
     <g id="line2d_4">
      <g>
       <use xlink:href="#m07c9ca783a" x="163.852267" y="448.56" style="fill: #ffffff; stroke: #ffffff; stroke-width: 0.8"/>
      </g>
     </g>
     <g id="text_2">
      <!-- 2023-09-05 -->
      <g style="fill: #ffffff" transform="translate(145.266017 461.0175) scale(0.08 -0.08)">
       <defs>
        <path id="GillSans-35" d="M 647 4366 
L 2584 4366 
L 2584 3809 
L 1216 3809 
L 1216 2706 
Q 1281 2713 1350 2713 
Q 1984 2713 2393 2327 
Q 2803 1941 2803 1344 
Q 2803 728 2398 342 
Q 1994 -44 1350 -44 
Q 819 -44 319 213 
L 319 856 
Q 791 550 1241 550 
Q 1634 550 1901 779 
Q 2169 1009 2169 1344 
Q 2169 1691 1878 1923 
Q 1588 2156 1153 2156 
Q 781 2156 647 2094 
L 647 4366 
z
" transform="scale(0.015625)"/>
       </defs>
       <use xlink:href="#GillSans-32"/>
       <use xlink:href="#GillSans-30" x="50"/>
       <use xlink:href="#GillSans-32" x="100"/>
       <use xlink:href="#GillSans-33" x="150"/>
       <use xlink:href="#GillSans-2d" x="200"/>
       <use xlink:href="#GillSans-30" x="232.324219"/>
       <use xlink:href="#GillSans-39" x="282.324219"/>
       <use xlink:href="#GillSans-2d" x="332.324219"/>
       <use xlink:href="#GillSans-30" x="364.648438"/>
       <use xlink:href="#GillSans-35" x="414.648438"/>
      </g>
     </g>
    </g>
    <g id="xtick_3">
     <g id="line2d_5">
      <path d="M 211.056352 448.56 
L 211.056352 60.48 
" clip-path="url(#p1b23f8d6a4)" style="fill: none; stroke: #444444; stroke-width: 0.8; stroke-linecap: square"/>
     </g>
     <g id="line2d_6">
      <g>
       <use xlink:href="#m07c9ca783a" x="211.056352" y="448.56" style="fill: #ffffff; stroke: #ffffff; stroke-width: 0.8"/>
      </g>
     </g>
     <g id="text_3">
      <!-- 2023-09-06 -->
      <g style="fill: #ffffff" transform="translate(192.470102 461.0175) scale(0.08 -0.08)">
       <defs>
        <path id="GillSans-36" d="M 1966 4378 
L 2028 4422 
L 2406 3944 
Q 1906 3622 1576 3240 
Q 1247 2859 1069 2344 
Q 1416 2522 1759 2522 
Q 2275 2522 2628 2156 
Q 2981 1791 2981 1259 
Q 2981 713 2597 331 
Q 2213 -50 1663 -50 
Q 1047 -50 667 383 
Q 288 816 288 1516 
Q 288 2041 483 2561 
Q 678 3081 1045 3536 
Q 1413 3991 1966 4378 
z
M 934 1697 
Q 909 1550 909 1369 
Q 909 1000 1123 762 
Q 1338 525 1672 525 
Q 1972 525 2167 728 
Q 2363 931 2363 1241 
Q 2363 1556 2155 1751 
Q 1947 1947 1606 1947 
Q 1431 1947 1289 1894 
Q 1147 1841 934 1697 
z
" transform="scale(0.015625)"/>
       </defs>
       <use xlink:href="#GillSans-32"/>
       <use xlink:href="#GillSans-30" x="50"/>
       <use xlink:href="#GillSans-32" x="100"/>
       <use xlink:href="#GillSans-33" x="150"/>
       <use xlink:href="#GillSans-2d" x="200"/>
       <use xlink:href="#GillSans-30" x="232.324219"/>
       <use xlink:href="#GillSans-39" x="282.324219"/>
       <use xlink:href="#GillSans-2d" x="332.324219"/>
       <use xlink:href="#GillSans-30" x="364.648438"/>
       <use xlink:href="#GillSans-36" x="414.648438"/>
      </g>
     </g>
    </g>
    <g id="xtick_4">
     <g id="line2d_7">
      <path d="M 258.260437 448.56 
L 258.260437 60.48 
" clip-path="url(#p1b23f8d6a4)" style="fill: none; stroke: #444444; stroke-width: 0.8; stroke-linecap: square"/>
     </g>
     <g id="line2d_8">
      <g>
       <use xlink:href="#m07c9ca783a" x="258.260437" y="448.56" style="fill: #ffffff; stroke: #ffffff; stroke-width: 0.8"/>
      </g>
     </g>
     <g id="text_4">
      <!-- 2023-09-07 -->
      <g style="fill: #ffffff" transform="translate(239.674187 461.0175) scale(0.08 -0.08)">
       <defs>
        <path id="GillSans-37" d="M 313 4366 
L 3138 4366 
L 1159 -50 
L 603 184 
L 2203 3769 
L 313 3769 
L 313 4366 
z
" transform="scale(0.015625)"/>
       </defs>
       <use xlink:href="#GillSans-32"/>
       <use xlink:href="#GillSans-30" x="50"/>
       <use xlink:href="#GillSans-32" x="100"/>
       <use xlink:href="#GillSans-33" x="150"/>
       <use xlink:href="#GillSans-2d" x="200"/>
       <use xlink:href="#GillSans-30" x="232.324219"/>
       <use xlink:href="#GillSans-39" x="282.324219"/>
       <use xlink:href="#GillSans-2d" x="332.324219"/>
       <use xlink:href="#GillSans-30" x="364.648438"/>
       <use xlink:href="#GillSans-37" x="414.648438"/>
      </g>
     </g>
    </g>
    <g id="xtick_5">
     <g id="line2d_9">
      <path d="M 305.464522 448.56 
L 305.464522 60.48 
" clip-path="url(#p1b23f8d6a4)" style="fill: none; stroke: #444444; stroke-width: 0.8; stroke-linecap: square"/>
     </g>
     <g id="line2d_10">
      <g>
       <use xlink:href="#m07c9ca783a" x="305.464522" y="448.56" style="fill: #ffffff; stroke: #ffffff; stroke-width: 0.8"/>
      </g>
     </g>
     <g id="text_5">
      <!-- 2023-09-08 -->
      <g style="fill: #ffffff" transform="translate(286.878272 461.0175) scale(0.08 -0.08)">
       <defs>
        <path id="GillSans-38" d="M 306 3194 
Q 306 3706 690 4064 
Q 1075 4422 1631 4422 
Q 2178 4422 2554 4067 
Q 2931 3713 2931 3194 
Q 2931 2609 2388 2228 
Q 2994 1878 2994 1197 
Q 2994 656 2600 303 
Q 2206 -50 1606 -50 
Q 1013 -50 609 311 
Q 206 672 206 1203 
Q 206 1869 825 2228 
Q 547 2453 426 2676 
Q 306 2900 306 3194 
z
M 2309 3175 
Q 2309 3459 2114 3643 
Q 1919 3828 1619 3828 
Q 1316 3828 1122 3647 
Q 928 3466 928 3181 
Q 928 2909 1133 2715 
Q 1338 2522 1625 2522 
Q 1909 2522 2109 2714 
Q 2309 2906 2309 3175 
z
M 2363 1172 
L 2363 1234 
Q 2363 1534 2148 1723 
Q 1934 1913 1594 1913 
Q 1259 1913 1048 1722 
Q 838 1531 838 1228 
Q 838 925 1053 734 
Q 1269 544 1613 544 
Q 1941 544 2152 719 
Q 2363 894 2363 1172 
z
" transform="scale(0.015625)"/>
       </defs>
       <use xlink:href="#GillSans-32"/>
       <use xlink:href="#GillSans-30" x="50"/>
       <use xlink:href="#GillSans-32" x="100"/>
       <use xlink:href="#GillSans-33" x="150"/>
       <use xlink:href="#GillSans-2d" x="200"/>
       <use xlink:href="#GillSans-30" x="232.324219"/>
       <use xlink:href="#GillSans-39" x="282.324219"/>
       <use xlink:href="#GillSans-2d" x="332.324219"/>
       <use xlink:href="#GillSans-30" x="364.648438"/>
       <use xlink:href="#GillSans-38" x="414.648438"/>
      </g>
     </g>
    </g>
    <g id="xtick_6">
     <g id="line2d_11">
      <path d="M 352.668607 448.56 
L 352.668607 60.48 
" clip-path="url(#p1b23f8d6a4)" style="fill: none; stroke: #444444; stroke-width: 0.8; stroke-linecap: square"/>
     </g>
     <g id="line2d_12">
      <g>
       <use xlink:href="#m07c9ca783a" x="352.668607" y="448.56" style="fill: #ffffff; stroke: #ffffff; stroke-width: 0.8"/>
      </g>
     </g>
     <g id="text_6">
      <!-- 2023-09-09 -->
      <g style="fill: #ffffff" transform="translate(334.082357 461.0175) scale(0.08 -0.08)">
       <use xlink:href="#GillSans-32"/>
       <use xlink:href="#GillSans-30" x="50"/>
       <use xlink:href="#GillSans-32" x="100"/>
       <use xlink:href="#GillSans-33" x="150"/>
       <use xlink:href="#GillSans-2d" x="200"/>
       <use xlink:href="#GillSans-30" x="232.324219"/>
       <use xlink:href="#GillSans-39" x="282.324219"/>
       <use xlink:href="#GillSans-2d" x="332.324219"/>
       <use xlink:href="#GillSans-30" x="364.648438"/>
       <use xlink:href="#GillSans-39" x="414.648438"/>
      </g>
     </g>
    </g>
    <g id="xtick_7">
     <g id="line2d_13">
      <path d="M 399.872692 448.56 
L 399.872692 60.48 
" clip-path="url(#p1b23f8d6a4)" style="fill: none; stroke: #444444; stroke-width: 0.8; stroke-linecap: square"/>
     </g>
     <g id="line2d_14">
      <g>
       <use xlink:href="#m07c9ca783a" x="399.872692" y="448.56" style="fill: #ffffff; stroke: #ffffff; stroke-width: 0.8"/>
      </g>
     </g>
     <g id="text_7">
      <!-- 2023-09-10 -->
      <g style="fill: #ffffff" transform="translate(381.286442 461.0175) scale(0.08 -0.08)">
       <defs>
        <path id="GillSans-31" d="M 1294 4366 
L 1919 4366 
L 1919 0 
L 1294 0 
L 1294 4366 
z
" transform="scale(0.015625)"/>
       </defs>
       <use xlink:href="#GillSans-32"/>
       <use xlink:href="#GillSans-30" x="50"/>
       <use xlink:href="#GillSans-32" x="100"/>
       <use xlink:href="#GillSans-33" x="150"/>
       <use xlink:href="#GillSans-2d" x="200"/>
       <use xlink:href="#GillSans-30" x="232.324219"/>
       <use xlink:href="#GillSans-39" x="282.324219"/>
       <use xlink:href="#GillSans-2d" x="332.324219"/>
       <use xlink:href="#GillSans-31" x="364.648438"/>
       <use xlink:href="#GillSans-30" x="414.648438"/>
      </g>
     </g>
    </g>
    <g id="xtick_8">
     <g id="line2d_15">
      <path d="M 447.076778 448.56 
L 447.076778 60.48 
" clip-path="url(#p1b23f8d6a4)" style="fill: none; stroke: #444444; stroke-width: 0.8; stroke-linecap: square"/>
     </g>
     <g id="line2d_16">
      <g>
       <use xlink:href="#m07c9ca783a" x="447.076778" y="448.56" style="fill: #ffffff; stroke: #ffffff; stroke-width: 0.8"/>
      </g>
     </g>
     <g id="text_8">
      <!-- 2023-09-11 -->
      <g style="fill: #ffffff" transform="translate(428.490528 461.0175) scale(0.08 -0.08)">
       <use xlink:href="#GillSans-32"/>
       <use xlink:href="#GillSans-30" x="50"/>
       <use xlink:href="#GillSans-32" x="100"/>
       <use xlink:href="#GillSans-33" x="150"/>
       <use xlink:href="#GillSans-2d" x="200"/>
       <use xlink:href="#GillSans-30" x="232.324219"/>
       <use xlink:href="#GillSans-39" x="282.324219"/>
       <use xlink:href="#GillSans-2d" x="332.324219"/>
       <use xlink:href="#GillSans-31" x="364.648438"/>
       <use xlink:href="#GillSans-31" x="414.648438"/>
      </g>
     </g>
    </g>
    <g id="xtick_9">
     <g id="line2d_17">
      <path d="M 494.280863 448.56 
L 494.280863 60.48 
" clip-path="url(#p1b23f8d6a4)" style="fill: none; stroke: #444444; stroke-width: 0.8; stroke-linecap: square"/>
     </g>
     <g id="line2d_18">
      <g>
       <use xlink:href="#m07c9ca783a" x="494.280863" y="448.56" style="fill: #ffffff; stroke: #ffffff; stroke-width: 0.8"/>
      </g>
     </g>
     <g id="text_9">
      <!-- 2023-09-12 -->
      <g style="fill: #ffffff" transform="translate(475.694613 461.0175) scale(0.08 -0.08)">
       <use xlink:href="#GillSans-32"/>
       <use xlink:href="#GillSans-30" x="50"/>
       <use xlink:href="#GillSans-32" x="100"/>
       <use xlink:href="#GillSans-33" x="150"/>
       <use xlink:href="#GillSans-2d" x="200"/>
       <use xlink:href="#GillSans-30" x="232.324219"/>
       <use xlink:href="#GillSans-39" x="282.324219"/>
       <use xlink:href="#GillSans-2d" x="332.324219"/>
       <use xlink:href="#GillSans-31" x="364.648438"/>
       <use xlink:href="#GillSans-32" x="414.648438"/>
      </g>
     </g>
    </g>
    <g id="xtick_10">
     <g id="line2d_19">
      <path d="M 541.484948 448.56 
L 541.484948 60.48 
" clip-path="url(#p1b23f8d6a4)" style="fill: none; stroke: #444444; stroke-width: 0.8; stroke-linecap: square"/>
     </g>
     <g id="line2d_20">
      <g>
       <use xlink:href="#m07c9ca783a" x="541.484948" y="448.56" style="fill: #ffffff; stroke: #ffffff; stroke-width: 0.8"/>
      </g>
     </g>
     <g id="text_10">
      <!-- 2023-09-13 -->
      <g style="fill: #ffffff" transform="translate(522.898698 461.0175) scale(0.08 -0.08)">
       <use xlink:href="#GillSans-32"/>
       <use xlink:href="#GillSans-30" x="50"/>
       <use xlink:href="#GillSans-32" x="100"/>
       <use xlink:href="#GillSans-33" x="150"/>
       <use xlink:href="#GillSans-2d" x="200"/>
       <use xlink:href="#GillSans-30" x="232.324219"/>
       <use xlink:href="#GillSans-39" x="282.324219"/>
       <use xlink:href="#GillSans-2d" x="332.324219"/>
       <use xlink:href="#GillSans-31" x="364.648438"/>
       <use xlink:href="#GillSans-33" x="414.648438"/>
      </g>
     </g>
    </g>
    <g id="xtick_11">
     <g id="line2d_21">
      <path d="M 588.689033 448.56 
L 588.689033 60.48 
" clip-path="url(#p1b23f8d6a4)" style="fill: none; stroke: #444444; stroke-width: 0.8; stroke-linecap: square"/>
     </g>
     <g id="line2d_22">
      <g>
       <use xlink:href="#m07c9ca783a" x="588.689033" y="448.56" style="fill: #ffffff; stroke: #ffffff; stroke-width: 0.8"/>
      </g>
     </g>
     <g id="text_11">
      <!-- 2023-09-14 -->
      <g style="fill: #ffffff" transform="translate(570.102783 461.0175) scale(0.08 -0.08)">
       <use xlink:href="#GillSans-32"/>
       <use xlink:href="#GillSans-30" x="50"/>
       <use xlink:href="#GillSans-32" x="100"/>
       <use xlink:href="#GillSans-33" x="150"/>
       <use xlink:href="#GillSans-2d" x="200"/>
       <use xlink:href="#GillSans-30" x="232.324219"/>
       <use xlink:href="#GillSans-39" x="282.324219"/>
       <use xlink:href="#GillSans-2d" x="332.324219"/>
       <use xlink:href="#GillSans-31" x="364.648438"/>
       <use xlink:href="#GillSans-34" x="414.648438"/>
      </g>
     </g>
    </g>
    <g id="xtick_12">
     <g id="line2d_23">
      <path d="M 635.893118 448.56 
L 635.893118 60.48 
" clip-path="url(#p1b23f8d6a4)" style="fill: none; stroke: #444444; stroke-width: 0.8; stroke-linecap: square"/>
     </g>
     <g id="line2d_24">
      <g>
       <use xlink:href="#m07c9ca783a" x="635.893118" y="448.56" style="fill: #ffffff; stroke: #ffffff; stroke-width: 0.8"/>
      </g>
     </g>
     <g id="text_12">
      <!-- 2023-09-15 -->
      <g style="fill: #ffffff" transform="translate(617.306868 461.0175) scale(0.08 -0.08)">
       <use xlink:href="#GillSans-32"/>
       <use xlink:href="#GillSans-30" x="50"/>
       <use xlink:href="#GillSans-32" x="100"/>
       <use xlink:href="#GillSans-33" x="150"/>
       <use xlink:href="#GillSans-2d" x="200"/>
       <use xlink:href="#GillSans-30" x="232.324219"/>
       <use xlink:href="#GillSans-39" x="282.324219"/>
       <use xlink:href="#GillSans-2d" x="332.324219"/>
       <use xlink:href="#GillSans-31" x="364.648438"/>
       <use xlink:href="#GillSans-35" x="414.648438"/>
      </g>
     </g>
    </g>
    <g id="xtick_13">
     <g id="line2d_25">
      <path d="M 683.097203 448.56 
L 683.097203 60.48 
" clip-path="url(#p1b23f8d6a4)" style="fill: none; stroke: #444444; stroke-width: 0.8; stroke-linecap: square"/>
     </g>
     <g id="line2d_26">
      <g>
       <use xlink:href="#m07c9ca783a" x="683.097203" y="448.56" style="fill: #ffffff; stroke: #ffffff; stroke-width: 0.8"/>
      </g>
     </g>
     <g id="text_13">
      <!-- 2023-09-16 -->
      <g style="fill: #ffffff" transform="translate(664.510953 461.0175) scale(0.08 -0.08)">
       <use xlink:href="#GillSans-32"/>
       <use xlink:href="#GillSans-30" x="50"/>
       <use xlink:href="#GillSans-32" x="100"/>
       <use xlink:href="#GillSans-33" x="150"/>
       <use xlink:href="#GillSans-2d" x="200"/>
       <use xlink:href="#GillSans-30" x="232.324219"/>
       <use xlink:href="#GillSans-39" x="282.324219"/>
       <use xlink:href="#GillSans-2d" x="332.324219"/>
       <use xlink:href="#GillSans-31" x="364.648438"/>
       <use xlink:href="#GillSans-36" x="414.648438"/>
      </g>
     </g>
    </g>
    <g id="xtick_14">
     <g id="line2d_27">
      <path d="M 730.301288 448.56 
L 730.301288 60.48 
" clip-path="url(#p1b23f8d6a4)" style="fill: none; stroke: #444444; stroke-width: 0.8; stroke-linecap: square"/>
     </g>
     <g id="line2d_28">
      <g>
       <use xlink:href="#m07c9ca783a" x="730.301288" y="448.56" style="fill: #ffffff; stroke: #ffffff; stroke-width: 0.8"/>
      </g>
     </g>
     <g id="text_14">
      <!-- 2023-09-17 -->
      <g style="fill: #ffffff" transform="translate(711.715038 461.0175) scale(0.08 -0.08)">
       <use xlink:href="#GillSans-32"/>
       <use xlink:href="#GillSans-30" x="50"/>
       <use xlink:href="#GillSans-32" x="100"/>
       <use xlink:href="#GillSans-33" x="150"/>
       <use xlink:href="#GillSans-2d" x="200"/>
       <use xlink:href="#GillSans-30" x="232.324219"/>
       <use xlink:href="#GillSans-39" x="282.324219"/>
       <use xlink:href="#GillSans-2d" x="332.324219"/>
       <use xlink:href="#GillSans-31" x="364.648438"/>
       <use xlink:href="#GillSans-37" x="414.648438"/>
      </g>
     </g>
    </g>
    <g id="xtick_15">
     <g id="line2d_29">
      <path d="M 777.505373 448.56 
L 777.505373 60.48 
" clip-path="url(#p1b23f8d6a4)" style="fill: none; stroke: #444444; stroke-width: 0.8; stroke-linecap: square"/>
     </g>
     <g id="line2d_30">
      <g>
       <use xlink:href="#m07c9ca783a" x="777.505373" y="448.56" style="fill: #ffffff; stroke: #ffffff; stroke-width: 0.8"/>
      </g>
     </g>
     <g id="text_15">
      <!-- 2023-09-18 -->
      <g style="fill: #ffffff" transform="translate(758.919123 461.0175) scale(0.08 -0.08)">
       <use xlink:href="#GillSans-32"/>
       <use xlink:href="#GillSans-30" x="50"/>
       <use xlink:href="#GillSans-32" x="100"/>
       <use xlink:href="#GillSans-33" x="150"/>
       <use xlink:href="#GillSans-2d" x="200"/>
       <use xlink:href="#GillSans-30" x="232.324219"/>
       <use xlink:href="#GillSans-39" x="282.324219"/>
       <use xlink:href="#GillSans-2d" x="332.324219"/>
       <use xlink:href="#GillSans-31" x="364.648438"/>
       <use xlink:href="#GillSans-38" x="414.648438"/>
      </g>
     </g>
    </g>
    <g id="text_16">
     <!-- Time -->
     <g style="fill: #ffffff" transform="translate(428.287031 476.400625) scale(0.14 -0.14)">
      <defs>
       <path id="GillSans-54" d="M 109 4372 
L 3756 4372 
L 3756 3816 
L 2234 3816 
L 2234 0 
L 1606 0 
L 1606 3816 
L 109 3816 
L 109 4372 
z
" transform="scale(0.015625)"/>
       <path id="GillSans-69" d="M 697 4084 
Q 838 4084 938 3987 
Q 1038 3891 1038 3750 
Q 1038 3613 938 3513 
Q 838 3413 697 3413 
Q 566 3413 466 3514 
Q 366 3616 366 3750 
Q 366 3881 466 3982 
Q 566 4084 697 4084 
z
M 416 2875 
L 984 2875 
L 984 0 
L 416 0 
L 416 2875 
z
" transform="scale(0.015625)"/>
       <path id="GillSans-6d" d="M 2759 2088 
L 2759 0 
L 2188 0 
L 2188 1600 
Q 2188 2078 2059 2267 
Q 1931 2456 1613 2456 
Q 1434 2456 1286 2375 
Q 1138 2294 947 2088 
L 947 0 
L 378 0 
L 378 2875 
L 947 2875 
L 947 2497 
Q 1381 2931 1797 2931 
Q 2344 2931 2644 2413 
Q 3100 2938 3597 2938 
Q 4016 2938 4286 2631 
Q 4556 2325 4556 1697 
L 4556 0 
L 3988 0 
L 3988 1703 
Q 3988 2063 3841 2253 
Q 3694 2444 3419 2444 
Q 3066 2444 2759 2088 
z
" transform="scale(0.015625)"/>
       <path id="GillSans-65" d="M 2853 1388 
L 831 1388 
Q 853 975 1108 731 
Q 1363 488 1766 488 
Q 2328 488 2803 838 
L 2803 281 
Q 2541 106 2283 31 
Q 2025 -44 1678 -44 
Q 1203 -44 909 153 
Q 616 350 439 683 
Q 263 1016 263 1453 
Q 263 2109 634 2520 
Q 1006 2931 1600 2931 
Q 2172 2931 2512 2531 
Q 2853 2131 2853 1459 
L 2853 1388 
z
M 844 1728 
L 2291 1728 
Q 2269 2069 2087 2253 
Q 1906 2438 1600 2438 
Q 1294 2438 1098 2253 
Q 903 2069 844 1728 
z
" transform="scale(0.015625)"/>
      </defs>
      <use xlink:href="#GillSans-54"/>
      <use xlink:href="#GillSans-69" x="60.400391"/>
      <use xlink:href="#GillSans-6d" x="82.324219"/>
      <use xlink:href="#GillSans-65" x="159.423828"/>
     </g>
    </g>
   </g>
   <g id="matplotlib.axis_2">
    <g id="ytick_1">
     <g id="line2d_31">
      <path d="M 108 424.002353 
L 777.6 424.002353 
" clip-path="url(#p1b23f8d6a4)" style="fill: none; stroke: #444444; stroke-width: 0.8; stroke-linecap: square"/>
     </g>
     <g id="line2d_32">
      <defs>
       <path id="m935af9d331" d="M 0 0 
L -3.5 0 
" style="stroke: #ffffff; stroke-width: 0.8"/>
      </defs>
      <g>
       <use xlink:href="#m935af9d331" x="108" y="424.002353" style="fill: #ffffff; stroke: #ffffff; stroke-width: 0.8"/>
      </g>
     </g>
     <g id="text_17">
      <!-- 96.5 -->
      <g style="fill: #ffffff" transform="translate(87.24625 426.731103) scale(0.08 -0.08)">
       <defs>
        <path id="GillSans-2e" d="M 697 697 
Q 856 697 968 587 
Q 1081 478 1081 319 
Q 1081 163 970 56 
Q 859 -50 697 -50 
Q 538 -50 428 56 
Q 319 163 319 319 
Q 319 478 428 587 
Q 538 697 697 697 
z
" transform="scale(0.015625)"/>
       </defs>
       <use xlink:href="#GillSans-39"/>
       <use xlink:href="#GillSans-36" x="50"/>
       <use xlink:href="#GillSans-2e" x="100"/>
       <use xlink:href="#GillSans-35" x="121.923828"/>
      </g>
     </g>
    </g>
    <g id="ytick_2">
     <g id="line2d_33">
      <path d="M 108 374.590588 
L 777.6 374.590588 
" clip-path="url(#p1b23f8d6a4)" style="fill: none; stroke: #444444; stroke-width: 0.8; stroke-linecap: square"/>
     </g>
     <g id="line2d_34">
      <g>
       <use xlink:href="#m935af9d331" x="108" y="374.590588" style="fill: #ffffff; stroke: #ffffff; stroke-width: 0.8"/>
      </g>
     </g>
     <g id="text_18">
      <!-- 97.0 -->
      <g style="fill: #ffffff" transform="translate(87.24625 377.319338) scale(0.08 -0.08)">
       <use xlink:href="#GillSans-39"/>
       <use xlink:href="#GillSans-37" x="50"/>
       <use xlink:href="#GillSans-2e" x="100"/>
       <use xlink:href="#GillSans-30" x="121.923828"/>
      </g>
     </g>
    </g>
    <g id="ytick_3">
     <g id="line2d_35">
      <path d="M 108 325.178824 
L 777.6 325.178824 
" clip-path="url(#p1b23f8d6a4)" style="fill: none; stroke: #444444; stroke-width: 0.8; stroke-linecap: square"/>
     </g>
     <g id="line2d_36">
      <g>
       <use xlink:href="#m935af9d331" x="108" y="325.178824" style="fill: #ffffff; stroke: #ffffff; stroke-width: 0.8"/>
      </g>
     </g>
     <g id="text_19">
      <!-- 97.5 -->
      <g style="fill: #ffffff" transform="translate(87.24625 327.907574) scale(0.08 -0.08)">
       <use xlink:href="#GillSans-39"/>
       <use xlink:href="#GillSans-37" x="50"/>
       <use xlink:href="#GillSans-2e" x="100"/>
       <use xlink:href="#GillSans-35" x="121.923828"/>
      </g>
     </g>
    </g>
    <g id="ytick_4">
     <g id="line2d_37">
      <path d="M 108 275.767059 
L 777.6 275.767059 
" clip-path="url(#p1b23f8d6a4)" style="fill: none; stroke: #444444; stroke-width: 0.8; stroke-linecap: square"/>
     </g>
     <g id="line2d_38">
      <g>
       <use xlink:href="#m935af9d331" x="108" y="275.767059" style="fill: #ffffff; stroke: #ffffff; stroke-width: 0.8"/>
      </g>
     </g>
     <g id="text_20">
      <!-- 98.0 -->
      <g style="fill: #ffffff" transform="translate(87.24625 278.495809) scale(0.08 -0.08)">
       <use xlink:href="#GillSans-39"/>
       <use xlink:href="#GillSans-38" x="50"/>
       <use xlink:href="#GillSans-2e" x="100"/>
       <use xlink:href="#GillSans-30" x="121.923828"/>
      </g>
     </g>
    </g>
    <g id="ytick_5">
     <g id="line2d_39">
      <path d="M 108 226.355294 
L 777.6 226.355294 
" clip-path="url(#p1b23f8d6a4)" style="fill: none; stroke: #444444; stroke-width: 0.8; stroke-linecap: square"/>
     </g>
     <g id="line2d_40">
      <g>
       <use xlink:href="#m935af9d331" x="108" y="226.355294" style="fill: #ffffff; stroke: #ffffff; stroke-width: 0.8"/>
      </g>
     </g>
     <g id="text_21">
      <!-- 98.5 -->
      <g style="fill: #ffffff" transform="translate(87.24625 229.084044) scale(0.08 -0.08)">
       <use xlink:href="#GillSans-39"/>
       <use xlink:href="#GillSans-38" x="50"/>
       <use xlink:href="#GillSans-2e" x="100"/>
       <use xlink:href="#GillSans-35" x="121.923828"/>
      </g>
     </g>
    </g>
    <g id="ytick_6">
     <g id="line2d_41">
      <path d="M 108 176.943529 
L 777.6 176.943529 
" clip-path="url(#p1b23f8d6a4)" style="fill: none; stroke: #444444; stroke-width: 0.8; stroke-linecap: square"/>
     </g>
     <g id="line2d_42">
      <g>
       <use xlink:href="#m935af9d331" x="108" y="176.943529" style="fill: #ffffff; stroke: #ffffff; stroke-width: 0.8"/>
      </g>
     </g>
     <g id="text_22">
      <!-- 99.0 -->
      <g style="fill: #ffffff" transform="translate(87.24625 179.672279) scale(0.08 -0.08)">
       <use xlink:href="#GillSans-39"/>
       <use xlink:href="#GillSans-39" x="50"/>
       <use xlink:href="#GillSans-2e" x="100"/>
       <use xlink:href="#GillSans-30" x="121.923828"/>
      </g>
     </g>
    </g>
    <g id="ytick_7">
     <g id="line2d_43">
      <path d="M 108 127.531765 
L 777.6 127.531765 
" clip-path="url(#p1b23f8d6a4)" style="fill: none; stroke: #444444; stroke-width: 0.8; stroke-linecap: square"/>
     </g>
     <g id="line2d_44">
      <g>
       <use xlink:href="#m935af9d331" x="108" y="127.531765" style="fill: #ffffff; stroke: #ffffff; stroke-width: 0.8"/>
      </g>
     </g>
     <g id="text_23">
      <!-- 99.5 -->
      <g style="fill: #ffffff" transform="translate(87.24625 130.260515) scale(0.08 -0.08)">
       <use xlink:href="#GillSans-39"/>
       <use xlink:href="#GillSans-39" x="50"/>
       <use xlink:href="#GillSans-2e" x="100"/>
       <use xlink:href="#GillSans-35" x="121.923828"/>
      </g>
     </g>
    </g>
    <g id="ytick_8">
     <g id="line2d_45">
      <path d="M 108 78.12 
L 777.6 78.12 
" clip-path="url(#p1b23f8d6a4)" style="fill: none; stroke: #444444; stroke-width: 0.8; stroke-linecap: square"/>
     </g>
     <g id="line2d_46">
      <g>
       <use xlink:href="#m935af9d331" x="108" y="78.12" style="fill: #ffffff; stroke: #ffffff; stroke-width: 0.8"/>
      </g>
     </g>
     <g id="text_24">
      <!-- 100.0 -->
      <g style="fill: #ffffff" transform="translate(83.24625 80.84875) scale(0.08 -0.08)">
       <use xlink:href="#GillSans-31"/>
       <use xlink:href="#GillSans-30" x="50"/>
       <use xlink:href="#GillSans-30" x="100"/>
       <use xlink:href="#GillSans-2e" x="150"/>
       <use xlink:href="#GillSans-30" x="171.923828"/>
      </g>
     </g>
    </g>
    <g id="text_25">
     <!-- Coverage % -->
     <g style="fill: #ffffff" transform="translate(77.41375 273.955) rotate(-90) scale(0.08 -0.08)">
      <defs>
       <path id="GillSans-43" d="M 4244 1013 
L 4244 325 
Q 3556 -50 2656 -50 
Q 1925 -50 1415 244 
Q 906 538 609 1053 
Q 313 1569 313 2169 
Q 313 3122 992 3772 
Q 1672 4422 2669 4422 
Q 3356 4422 4197 4063 
L 4197 3391 
Q 3431 3828 2700 3828 
Q 1950 3828 1454 3354 
Q 959 2881 959 2169 
Q 959 1450 1446 987 
Q 1934 525 2694 525 
Q 3488 525 4244 1013 
z
" transform="scale(0.015625)"/>
       <path id="GillSans-6f" d="M 1778 2881 
Q 2434 2881 2868 2457 
Q 3303 2034 3303 1394 
Q 3303 772 2862 361 
Q 2422 -50 1753 -50 
Q 1106 -50 672 367 
Q 238 784 238 1409 
Q 238 2041 677 2461 
Q 1116 2881 1778 2881 
z
M 1747 2369 
Q 1338 2369 1075 2100 
Q 813 1831 813 1416 
Q 813 1003 1081 742 
Q 1350 481 1772 481 
Q 2191 481 2458 745 
Q 2725 1009 2725 1422 
Q 2725 1831 2447 2100 
Q 2169 2369 1747 2369 
z
" transform="scale(0.015625)"/>
       <path id="GillSans-76" d="M 2163 2875 
L 2778 2875 
L 1509 -50 
L 1319 -50 
L 19 2875 
L 641 2875 
L 1416 1106 
L 2163 2875 
z
" transform="scale(0.015625)"/>
       <path id="GillSans-72" d="M 1013 2875 
L 1013 2216 
L 1044 2266 
Q 1456 2931 1869 2931 
Q 2191 2931 2541 2606 
L 2241 2106 
Q 1944 2388 1691 2388 
Q 1416 2388 1214 2125 
Q 1013 1863 1013 1503 
L 1013 0 
L 441 0 
L 441 2875 
L 1013 2875 
z
" transform="scale(0.015625)"/>
       <path id="GillSans-61" d="M 2209 1728 
L 2209 506 
Q 2209 359 2309 359 
Q 2413 359 2631 513 
L 2631 166 
Q 2438 41 2320 -4 
Q 2203 -50 2075 -50 
Q 1709 -50 1644 238 
Q 1281 -44 872 -44 
Q 572 -44 372 154 
Q 172 353 172 653 
Q 172 925 367 1139 
Q 563 1353 922 1478 
L 1650 1728 
L 1650 1881 
Q 1650 2400 1131 2400 
Q 666 2400 225 1919 
L 225 2541 
Q 556 2931 1178 2931 
Q 1644 2931 1925 2688 
Q 2019 2609 2094 2479 
Q 2169 2350 2189 2220 
Q 2209 2091 2209 1728 
z
M 1650 569 
L 1650 1422 
L 1269 1275 
Q 978 1159 858 1042 
Q 738 925 738 750 
Q 738 572 852 459 
Q 966 347 1147 347 
Q 1419 347 1650 569 
z
" transform="scale(0.015625)"/>
       <path id="GillSans-67" d="M 256 1881 
Q 256 2341 592 2608 
Q 928 2875 1509 2875 
L 2694 2875 
L 2694 2431 
L 2113 2431 
Q 2281 2259 2347 2118 
Q 2413 1978 2413 1797 
Q 2413 1572 2284 1355 
Q 2156 1138 1954 1022 
Q 1753 906 1294 838 
Q 972 791 972 616 
Q 972 516 1092 452 
Q 1213 388 1528 319 
Q 2056 203 2207 137 
Q 2359 72 2481 -50 
Q 2688 -256 2688 -569 
Q 2688 -978 2323 -1222 
Q 1959 -1466 1350 -1466 
Q 734 -1466 367 -1220 
Q 0 -975 0 -563 
Q 0 22 722 191 
Q 434 375 434 556 
Q 434 694 557 806 
Q 681 919 891 972 
Q 256 1253 256 1881 
z
M 1325 2381 
Q 1094 2381 931 2225 
Q 769 2069 769 1850 
Q 769 1628 928 1483 
Q 1088 1338 1331 1338 
Q 1572 1338 1733 1486 
Q 1894 1634 1894 1856 
Q 1894 2081 1731 2231 
Q 1569 2381 1325 2381 
z
M 1191 -134 
Q 903 -134 720 -256 
Q 538 -378 538 -569 
Q 538 -1013 1338 -1013 
Q 1716 -1013 1923 -902 
Q 2131 -791 2131 -588 
Q 2131 -388 1868 -261 
Q 1606 -134 1191 -134 
z
" transform="scale(0.015625)"/>
       <path id="GillSans-20" transform="scale(0.015625)"/>
       <path id="GillSans-25" d="M 3347 4428 
L 3825 4428 
L 953 -50 
L 472 -50 
L 3347 4428 
z
M 3191 1900 
Q 3591 1900 3878 1614 
Q 4166 1328 4166 928 
Q 4166 528 3880 248 
Q 3594 -31 3191 -31 
Q 2784 -31 2498 248 
Q 2213 528 2213 928 
Q 2213 1331 2500 1615 
Q 2788 1900 3191 1900 
z
M 3184 1428 
Q 2978 1428 2833 1281 
Q 2688 1134 2688 928 
Q 2688 719 2833 570 
Q 2978 422 3184 422 
Q 3397 422 3544 569 
Q 3691 716 3691 928 
Q 3691 1138 3544 1283 
Q 3397 1428 3184 1428 
z
M 1131 4416 
Q 1534 4416 1818 4128 
Q 2103 3841 2103 3438 
Q 2103 3038 1817 2750 
Q 1531 2463 1131 2463 
Q 731 2463 445 2750 
Q 159 3038 159 3438 
Q 159 3841 443 4128 
Q 728 4416 1131 4416 
z
M 1125 3944 
Q 916 3944 767 3795 
Q 619 3647 619 3438 
Q 619 3231 769 3084 
Q 919 2938 1125 2938 
Q 1334 2938 1482 3084 
Q 1631 3231 1631 3438 
Q 1631 3650 1484 3797 
Q 1338 3944 1125 3944 
z
" transform="scale(0.015625)"/>
      </defs>
      <use xlink:href="#GillSans-43"/>
      <use xlink:href="#GillSans-6f" x="70.800781"/>
      <use xlink:href="#GillSans-76" x="125.976562"/>
      <use xlink:href="#GillSans-65" x="169.775391"/>
      <use xlink:href="#GillSans-72" x="217.675781"/>
      <use xlink:href="#GillSans-61" x="257.275391"/>
      <use xlink:href="#GillSans-67" x="299.951172"/>
      <use xlink:href="#GillSans-65" x="342.626953"/>
      <use xlink:href="#GillSans-20" x="390.527344"/>
      <use xlink:href="#GillSans-25" x="418.310547"/>
     </g>
    </g>
   </g>
   <g id="line2d_47">
    <path d="M 138.436364 78.12 
L 140.172644 78.12 
L 142.937142 78.12 
L 148.744774 78.12 
L 149.103722 78.12 
L 149.56429 78.12 
L 150.254322 78.12 
L 177.032259 78.12 
L 179.630669 78.12 
L 197.763813 78.12 
L 213.854177 78.12 
L 214.232247 78.12 
L 215.683882 78.12 
L 216.282675 78.12 
L 216.684784 78.12 
L 217.372084 78.12 
L 218.298136 78.12 
L 221.728081 78.12 
L 228.962216 78.12 
L 231.872042 430.92 
L 233.763484 430.92 
L 238.988714 430.92 
L 239.437808 430.92 
L 240.110357 430.92 
L 241.899086 430.92 
L 242.214873 430.92 
L 244.544482 430.92 
L 245.743706 430.92 
L 265.262923 430.92 
L 267.18332 430.92 
L 271.497249 430.92 
L 271.922851 430.92 
L 306.515687 430.92 
L 336.293051 430.92 
L 336.955766 430.92 
L 338.129312 430.92 
L 339.266253 430.92 
L 340.503175 430.92 
L 341.357656 430.92 
L 356.458046 430.92 
L 357.300508 430.92 
L 366.07861 430.92 
L 367.317171 430.92 
L 388.232296 430.92 
L 403.847342 430.92 
L 404.402427 430.92 
L 408.158539 430.92 
L 411.625089 430.92 
L 414.009879 430.92 
L 419.271167 430.92 
L 420.407562 430.92 
L 421.159877 430.92 
L 421.704582 430.92 
L 423.914542 430.92 
L 426.371449 430.92 
L 428.988981 430.92 
L 429.586681 430.92 
L 430.145044 430.92 
L 430.697943 430.92 
L 431.02575 430.92 
L 431.723977 430.92 
L 433.537291 430.92 
L 458.190499 430.92 
L 460.076477 430.92 
L 461.420482 430.92 
L 463.455065 430.92 
L 464.034736 430.92 
L 465.789045 430.92 
L 468.746403 430.92 
L 471.763312 430.92 
L 481.106334 430.92 
L 481.624814 430.92 
L 482.189733 430.92 
L 498.887085 430.92 
L 499.621917 430.92 
L 522.788524 430.92 
L 525.554662 430.92 
L 526.53808 430.92 
L 527.443371 430.92 
L 528.397287 430.92 
L 556.96013 430.92 
L 558.138593 430.92 
L 560.499343 430.92 
L 566.356693 430.92 
L 568.701053 430.92 
L 569.594325 430.92 
L 570.658056 430.92 
L 571.187463 430.92 
L 574.462792 430.92 
L 575.220571 430.92 
L 575.941745 430.92 
L 576.696791 430.92 
L 592.644014 430.92 
L 593.31547 430.92 
L 596.10674 430.92 
L 596.943738 430.92 
L 597.692775 430.92 
L 603.842965 430.92 
L 605.842582 430.92 
L 610.673352 430.92 
L 612.011894 430.92 
L 619.008916 430.92 
L 619.715885 430.92 
L 641.241275 430.92 
L 644.018886 430.92 
L 645.202813 430.92 
L 648.755685 430.92 
L 652.400343 430.92 
L 654.52398 430.92 
L 658.342376 430.92 
L 668.957831 430.92 
L 690.510539 430.92 
L 695.817174 430.92 
L 697.227287 430.92 
L 711.008257 430.92 
L 712.99968 430.92 
L 714.262826 430.92 
L 715.032078 430.92 
L 715.816627 430.92 
L 740.329425 430.92 
L 747.163636 430.92 
" clip-path="url(#p1b23f8d6a4)" style="fill: none; stroke: #8b5000; stroke-width: 2; stroke-linecap: square"/>
   </g>
   <g id="line2d_48">
    <path d="M 138.436364 78.12 
L 140.172644 78.12 
L 142.937142 78.12 
L 148.744774 78.12 
L 149.103722 78.12 
L 149.56429 78.12 
L 150.254322 78.12 
L 177.032259 78.12 
L 179.630669 78.12 
L 197.763813 78.12 
L 213.854177 78.12 
L 214.232247 78.12 
L 215.683882 78.12 
L 216.282675 78.12 
L 216.684784 78.12 
L 217.372084 78.12 
L 218.298136 78.12 
L 221.728081 78.12 
L 228.962216 78.12 
L 231.872042 170.025882 
L 233.763484 170.025882 
L 238.988714 170.025882 
L 239.437808 170.025882 
L 240.110357 170.025882 
L 241.899086 170.025882 
L 242.214873 170.025882 
L 244.544482 170.025882 
L 245.743706 170.025882 
L 265.262923 170.025882 
L 267.18332 170.025882 
L 271.497249 170.025882 
L 271.922851 170.025882 
L 306.515687 170.025882 
L 336.293051 170.025882 
L 336.955766 170.025882 
L 338.129312 170.025882 
L 339.266253 170.025882 
L 340.503175 170.025882 
L 341.357656 170.025882 
L 356.458046 170.025882 
L 357.300508 170.025882 
L 366.07861 170.025882 
L 367.317171 170.025882 
L 388.232296 170.025882 
L 403.847342 170.025882 
L 404.402427 170.025882 
L 408.158539 170.025882 
L 411.625089 170.025882 
L 414.009879 170.025882 
L 419.271167 170.025882 
L 420.407562 170.025882 
L 421.159877 170.025882 
L 421.704582 170.025882 
L 423.914542 170.025882 
L 426.371449 170.025882 
L 428.988981 170.025882 
L 429.586681 170.025882 
L 430.145044 170.025882 
L 430.697943 170.025882 
L 431.02575 170.025882 
L 431.723977 170.025882 
L 433.537291 170.025882 
L 458.190499 170.025882 
L 460.076477 170.025882 
L 461.420482 170.025882 
L 463.455065 170.025882 
L 464.034736 170.025882 
L 465.789045 170.025882 
L 468.746403 170.025882 
L 471.763312 170.025882 
L 481.106334 170.025882 
L 481.624814 170.025882 
L 482.189733 170.025882 
L 498.887085 170.025882 
L 499.621917 170.025882 
L 522.788524 170.025882 
L 525.554662 170.025882 
L 526.53808 170.025882 
L 527.443371 170.025882 
L 528.397287 170.025882 
L 556.96013 170.025882 
L 558.138593 170.025882 
L 560.499343 170.025882 
L 566.356693 170.025882 
L 568.701053 170.025882 
L 569.594325 170.025882 
L 570.658056 170.025882 
L 571.187463 170.025882 
L 574.462792 170.025882 
L 575.220571 170.025882 
L 575.941745 170.025882 
L 576.696791 170.025882 
L 592.644014 170.025882 
L 593.31547 170.025882 
L 596.10674 170.025882 
L 596.943738 170.025882 
L 597.692775 170.025882 
L 603.842965 170.025882 
L 605.842582 170.025882 
L 610.673352 170.025882 
L 612.011894 170.025882 
L 619.008916 170.025882 
L 619.715885 170.025882 
L 641.241275 170.025882 
L 644.018886 170.025882 
L 645.202813 170.025882 
L 648.755685 170.025882 
L 652.400343 170.025882 
L 654.52398 170.025882 
L 658.342376 170.025882 
L 668.957831 170.025882 
L 690.510539 170.025882 
L 695.817174 170.025882 
L 697.227287 170.025882 
L 711.008257 170.025882 
L 712.99968 170.025882 
L 714.262826 170.025882 
L 715.032078 170.025882 
L 715.816627 170.025882 
L 740.329425 170.025882 
L 747.163636 170.025882 
" clip-path="url(#p1b23f8d6a4)" style="fill: none; stroke: #106a77; stroke-width: 2; stroke-linecap: square"/>
   </g>
   <g id="line2d_49">
    <path d="M 138.436364 199.672941 
L 140.172644 199.672941 
L 142.937142 199.672941 
L 148.744774 199.672941 
L 149.103722 199.672941 
L 149.56429 199.672941 
L 150.254322 199.672941 
L 177.032259 199.672941 
L 179.630669 199.672941 
L 197.763813 199.672941 
L 213.854177 199.672941 
L 214.232247 199.672941 
L 215.683882 199.672941 
L 216.282675 199.672941 
L 216.684784 199.672941 
L 217.372084 199.672941 
L 218.298136 199.672941 
L 221.728081 199.672941 
L 228.962216 199.672941 
L 231.872042 426.967059 
L 233.763484 426.967059 
L 238.988714 426.967059 
L 239.437808 426.967059 
L 240.110357 426.967059 
L 241.899086 426.967059 
L 242.214873 426.967059 
L 244.544482 426.967059 
L 245.743706 426.967059 
L 265.262923 426.967059 
L 267.18332 426.967059 
L 271.497249 426.967059 
L 271.922851 426.967059 
L 306.515687 426.967059 
L 336.293051 426.967059 
L 336.955766 426.967059 
L 338.129312 426.967059 
L 339.266253 426.967059 
L 340.503175 426.967059 
L 341.357656 426.967059 
L 356.458046 426.967059 
L 357.300508 426.967059 
L 366.07861 426.967059 
L 367.317171 426.967059 
L 388.232296 426.967059 
L 403.847342 426.967059 
L 404.402427 426.967059 
L 408.158539 426.967059 
L 411.625089 426.967059 
L 414.009879 426.967059 
L 419.271167 426.967059 
L 420.407562 426.967059 
L 421.159877 426.967059 
L 421.704582 426.967059 
L 423.914542 426.967059 
L 426.371449 426.967059 
L 428.988981 426.967059 
L 429.586681 426.967059 
L 430.145044 426.967059 
L 430.697943 426.967059 
L 431.02575 426.967059 
L 431.723977 426.967059 
L 433.537291 426.967059 
L 458.190499 426.967059 
L 460.076477 426.967059 
L 461.420482 426.967059 
L 463.455065 426.967059 
L 464.034736 426.967059 
L 465.789045 426.967059 
L 468.746403 426.967059 
L 471.763312 426.967059 
L 481.106334 426.967059 
L 481.624814 426.967059 
L 482.189733 426.967059 
L 498.887085 426.967059 
L 499.621917 426.967059 
L 522.788524 426.967059 
L 525.554662 426.967059 
L 526.53808 426.967059 
L 527.443371 426.967059 
L 528.397287 426.967059 
L 556.96013 426.967059 
L 558.138593 426.967059 
L 560.499343 426.967059 
L 566.356693 426.967059 
L 568.701053 426.967059 
L 569.594325 426.967059 
L 570.658056 426.967059 
L 571.187463 426.967059 
L 574.462792 426.967059 
L 575.220571 426.967059 
L 575.941745 426.967059 
L 576.696791 426.967059 
L 592.644014 426.967059 
L 593.31547 426.967059 
L 596.10674 426.967059 
L 596.943738 426.967059 
L 597.692775 426.967059 
L 603.842965 426.967059 
L 605.842582 426.967059 
L 610.673352 426.967059 
L 612.011894 426.967059 
L 619.008916 426.967059 
L 619.715885 426.967059 
L 641.241275 426.967059 
L 644.018886 426.967059 
L 645.202813 426.967059 
L 648.755685 426.967059 
L 652.400343 426.967059 
L 654.52398 426.967059 
L 658.342376 426.967059 
L 668.957831 426.967059 
L 690.510539 426.967059 
L 695.817174 426.967059 
L 697.227287 426.967059 
L 711.008257 426.967059 
L 712.99968 426.967059 
L 714.262826 426.967059 
L 715.032078 426.967059 
L 715.816627 426.967059 
L 740.329425 426.967059 
L 747.163636 426.967059 
" clip-path="url(#p1b23f8d6a4)" style="fill: none; stroke: #50486c; stroke-width: 2; stroke-linecap: square"/>
   </g>
   <g id="text_26">
    <g id="patch_2">
     <path d="M 757.512 436.70475 
L 792.252 436.70475 
Q 797.052 436.70475 797.052 431.90475 
L 797.052 420.96975 
Q 797.052 416.16975 792.252 416.16975 
L 757.512 416.16975 
Q 752.712 416.16975 752.712 420.96975 
L 752.712 431.90475 
Q 752.712 436.70475 757.512 436.70475 
z
" style="fill: #8b5000; stroke: #8b5000; stroke-linejoin: miter"/>
    </g>
    <!-- 96.43% -->
    <g style="fill: #ffffff" transform="translate(757.512 429.156) scale(0.12 -0.12)">
     <use xlink:href="#GillSans-39"/>
     <use xlink:href="#GillSans-36" x="50"/>
     <use xlink:href="#GillSans-2e" x="100"/>
     <use xlink:href="#GillSans-34" x="121.923828"/>
     <use xlink:href="#GillSans-33" x="171.923828"/>
     <use xlink:href="#GillSans-25" x="221.923828"/>
    </g>
   </g>
   <g id="text_27">
    <g id="patch_3">
     <path d="M 757.512 169.125221 
L 792.252 169.125221 
Q 797.052 169.125221 797.052 164.325221 
L 797.052 153.390221 
Q 797.052 148.590221 792.252 148.590221 
L 757.512 148.590221 
Q 752.712 148.590221 752.712 153.390221 
L 752.712 164.325221 
Q 752.712 169.125221 757.512 169.125221 
z
" style="fill: #106a77; stroke: #106a77; stroke-linejoin: miter"/>
    </g>
    <!-- 99.07% -->
    <g style="fill: #ffffff" transform="translate(757.512 161.576471) scale(0.12 -0.12)">
     <use xlink:href="#GillSans-39"/>
     <use xlink:href="#GillSans-39" x="50"/>
     <use xlink:href="#GillSans-2e" x="100"/>
     <use xlink:href="#GillSans-30" x="121.923828"/>
     <use xlink:href="#GillSans-37" x="171.923828"/>
     <use xlink:href="#GillSans-25" x="221.923828"/>
    </g>
   </g>
   <g id="text_28">
    <g id="patch_4">
     <path d="M 757.512 390.13515 
L 792.252 390.13515 
Q 797.052 390.13515 797.052 385.33515 
L 797.052 374.40015 
Q 797.052 369.60015 792.252 369.60015 
L 757.512 369.60015 
Q 752.712 369.60015 752.712 374.40015 
L 752.712 385.33515 
Q 752.712 390.13515 757.512 390.13515 
z
" style="fill: #50486c; stroke: #50486c; stroke-linejoin: miter"/>
    </g>
    <!-- 96.47% -->
    <g style="fill: #ffffff" transform="translate(757.512 382.5864) scale(0.12 -0.12)">
     <use xlink:href="#GillSans-39"/>
     <use xlink:href="#GillSans-36" x="50"/>
     <use xlink:href="#GillSans-2e" x="100"/>
     <use xlink:href="#GillSans-34" x="121.923828"/>
     <use xlink:href="#GillSans-37" x="171.923828"/>
     <use xlink:href="#GillSans-25" x="221.923828"/>
    </g>
   </g>
   <g id="text_29">
    <!-- CutBox CLI coverage progress -->
    <g style="fill: #ffffff" transform="translate(279.109688 54.48) scale(0.26 -0.26)">
     <defs>
      <path id="GillSans-75" d="M 2234 0 
L 2234 366 
Q 2053 169 1820 59 
Q 1588 -50 1356 -50 
Q 1084 -50 854 86 
Q 625 222 508 455 
Q 391 688 391 1228 
L 391 2875 
L 959 2875 
L 959 1234 
Q 959 781 1089 601 
Q 1219 422 1544 422 
Q 1950 422 2234 819 
L 2234 2875 
L 2803 2875 
L 2803 0 
L 2234 0 
z
" transform="scale(0.015625)"/>
      <path id="GillSans-74" d="M 0 2419 
L 1069 3469 
L 1069 2875 
L 1978 2875 
L 1978 2363 
L 1069 2363 
L 1069 953 
Q 1069 459 1478 459 
Q 1784 459 2125 666 
L 2125 134 
Q 1797 -50 1409 -50 
Q 1019 -50 759 178 
Q 678 247 625 333 
Q 572 419 536 558 
Q 500 697 500 1088 
L 500 2363 
L 0 2363 
L 0 2419 
z
" transform="scale(0.015625)"/>
      <path id="GillSans-42" d="M 1959 0 
L 481 0 
L 481 4366 
L 1625 4366 
Q 2166 4366 2469 4220 
Q 2772 4075 2931 3820 
Q 3091 3566 3091 3231 
Q 3091 2588 2425 2309 
Q 2903 2219 3186 1916 
Q 3469 1613 3469 1191 
Q 3469 856 3297 593 
Q 3125 331 2792 165 
Q 2459 0 1959 0 
z
M 1644 3809 
L 1106 3809 
L 1106 2497 
L 1522 2497 
Q 2022 2497 2233 2687 
Q 2444 2878 2444 3181 
Q 2444 3809 1644 3809 
z
M 1691 1941 
L 1106 1941 
L 1106 556 
L 1722 556 
Q 2234 556 2417 636 
Q 2600 716 2711 884 
Q 2822 1053 2822 1247 
Q 2822 1447 2705 1612 
Q 2588 1778 2372 1859 
Q 2156 1941 1691 1941 
z
" transform="scale(0.015625)"/>
      <path id="GillSans-78" d="M 2388 2875 
L 3116 2875 
L 1931 1459 
L 3200 0 
L 2472 0 
L 1569 1031 
L 716 0 
L 0 0 
L 1209 1459 
L 0 2875 
L 716 2875 
L 1569 1888 
L 2388 2875 
z
" transform="scale(0.015625)"/>
      <path id="GillSans-4c" d="M 481 4366 
L 1106 4366 
L 1106 569 
L 3072 569 
L 3072 0 
L 481 0 
L 481 4366 
z
" transform="scale(0.015625)"/>
      <path id="GillSans-49" d="M 488 4366 
L 1113 4366 
L 1113 0 
L 488 0 
L 488 4366 
z
" transform="scale(0.015625)"/>
      <path id="GillSans-63" d="M 2559 672 
L 2559 109 
Q 2131 -50 1722 -50 
Q 1047 -50 645 350 
Q 244 750 244 1422 
Q 244 2100 634 2515 
Q 1025 2931 1663 2931 
Q 1884 2931 2061 2889 
Q 2238 2847 2497 2731 
L 2497 2125 
Q 2066 2400 1697 2400 
Q 1313 2400 1066 2129 
Q 819 1859 819 1441 
Q 819 1000 1086 740 
Q 1353 481 1806 481 
Q 2134 481 2559 672 
z
" transform="scale(0.015625)"/>
      <path id="GillSans-70" d="M 366 -1466 
L 366 2875 
L 1363 2875 
Q 2128 2875 2554 2494 
Q 2981 2113 2981 1428 
Q 2981 781 2579 365 
Q 2178 -50 1556 -50 
Q 1281 -50 947 72 
L 947 -1466 
L 366 -1466 
z
M 1350 2344 
L 947 2344 
L 947 575 
Q 1209 441 1497 441 
Q 1897 441 2151 719 
Q 2406 997 2406 1434 
Q 2406 1716 2286 1931 
Q 2166 2147 1958 2245 
Q 1750 2344 1350 2344 
z
" transform="scale(0.015625)"/>
      <path id="GillSans-73" d="M 263 206 
L 263 819 
Q 503 650 754 545 
Q 1006 441 1178 441 
Q 1356 441 1484 528 
Q 1613 616 1613 738 
Q 1613 863 1530 945 
Q 1447 1028 1172 1184 
Q 622 1491 451 1708 
Q 281 1925 281 2181 
Q 281 2513 539 2722 
Q 797 2931 1203 2931 
Q 1625 2931 2069 2694 
L 2069 2131 
Q 1563 2438 1241 2438 
Q 1075 2438 973 2367 
Q 872 2297 872 2181 
Q 872 2081 964 1990 
Q 1056 1900 1288 1772 
L 1491 1656 
Q 2209 1250 2209 756 
Q 2209 403 1932 176 
Q 1656 -50 1222 -50 
Q 966 -50 766 4 
Q 566 59 263 206 
z
" transform="scale(0.015625)"/>
     </defs>
     <use xlink:href="#GillSans-43"/>
     <use xlink:href="#GillSans-75" x="70.800781"/>
     <use xlink:href="#GillSans-74" x="120.800781"/>
     <use xlink:href="#GillSans-42" x="154.101562"/>
     <use xlink:href="#GillSans-6f" x="210.400391"/>
     <use xlink:href="#GillSans-78" x="265.576172"/>
     <use xlink:href="#GillSans-20" x="315.576172"/>
     <use xlink:href="#GillSans-43" x="343.359375"/>
     <use xlink:href="#GillSans-4c" x="414.160156"/>
     <use xlink:href="#GillSans-49" x="463.183594"/>
     <use xlink:href="#GillSans-20" x="488.183594"/>
     <use xlink:href="#GillSans-63" x="515.966797"/>
     <use xlink:href="#GillSans-6f" x="559.765625"/>
     <use xlink:href="#GillSans-76" x="614.941406"/>
     <use xlink:href="#GillSans-65" x="658.740234"/>
     <use xlink:href="#GillSans-72" x="706.640625"/>
     <use xlink:href="#GillSans-61" x="746.240234"/>
     <use xlink:href="#GillSans-67" x="788.916016"/>
     <use xlink:href="#GillSans-65" x="831.591797"/>
     <use xlink:href="#GillSans-20" x="879.492188"/>
     <use xlink:href="#GillSans-70" x="907.275391"/>
     <use xlink:href="#GillSans-72" x="957.275391"/>
     <use xlink:href="#GillSans-6f" x="996.875"/>
     <use xlink:href="#GillSans-67" x="1052.050781"/>
     <use xlink:href="#GillSans-72" x="1094.726562"/>
     <use xlink:href="#GillSans-65" x="1134.326172"/>
     <use xlink:href="#GillSans-73" x="1182.226562"/>
     <use xlink:href="#GillSans-73" x="1220.703125"/>
    </g>
   </g>
   <g id="legend_1">
    <g id="line2d_50">
     <path d="M 719.91125 70.48 
L 727.91125 70.48 
L 735.91125 70.48 
" style="fill: none; stroke: #8b5000; stroke-width: 2; stroke-linecap: square"/>
    </g>
    <g id="text_30">
     <!-- Function -->
     <g style="fill: #ffffff" transform="translate(742.31125 73.28) scale(0.08 -0.08)">
      <defs>
       <path id="GillSans-46" d="M 488 4366 
L 2816 4366 
L 2816 3809 
L 1113 3809 
L 1113 2591 
L 2816 2591 
L 2816 2034 
L 1113 2034 
L 1113 0 
L 488 0 
L 488 4366 
z
" transform="scale(0.015625)"/>
       <path id="GillSans-6e" d="M 972 2875 
L 972 2509 
Q 1353 2931 1838 2931 
Q 2106 2931 2337 2792 
Q 2569 2653 2689 2411 
Q 2809 2169 2809 1644 
L 2809 0 
L 2241 0 
L 2241 1638 
Q 2241 2078 2106 2267 
Q 1972 2456 1656 2456 
Q 1253 2456 972 2053 
L 972 0 
L 391 0 
L 391 2875 
L 972 2875 
z
" transform="scale(0.015625)"/>
      </defs>
      <use xlink:href="#GillSans-46"/>
      <use xlink:href="#GillSans-75" x="46.923828"/>
      <use xlink:href="#GillSans-6e" x="96.923828"/>
      <use xlink:href="#GillSans-63" x="146.923828"/>
      <use xlink:href="#GillSans-74" x="190.722656"/>
      <use xlink:href="#GillSans-69" x="224.023438"/>
      <use xlink:href="#GillSans-6f" x="245.947266"/>
      <use xlink:href="#GillSans-6e" x="301.123047"/>
     </g>
    </g>
    <g id="line2d_51">
     <path d="M 719.91125 81.9125 
L 727.91125 81.9125 
L 735.91125 81.9125 
" style="fill: none; stroke: #106a77; stroke-width: 2; stroke-linecap: square"/>
    </g>
    <g id="text_31">
     <!-- Line -->
     <g style="fill: #ffffff" transform="translate(742.31125 84.7125) scale(0.08 -0.08)">
      <use xlink:href="#GillSans-4c"/>
      <use xlink:href="#GillSans-69" x="49.023438"/>
      <use xlink:href="#GillSans-6e" x="70.947266"/>
      <use xlink:href="#GillSans-65" x="120.947266"/>
     </g>
    </g>
    <g id="line2d_52">
     <path d="M 719.91125 93.345 
L 727.91125 93.345 
L 735.91125 93.345 
" style="fill: none; stroke: #50486c; stroke-width: 2; stroke-linecap: square"/>
    </g>
    <g id="text_32">
     <!-- Region -->
     <g style="fill: #ffffff" transform="translate(742.31125 96.145) scale(0.08 -0.08)">
      <defs>
       <path id="GillSans-52" d="M 500 0 
L 500 4366 
L 1594 4366 
Q 2256 4366 2645 4037 
Q 3034 3709 3034 3150 
Q 3034 2769 2843 2491 
Q 2653 2213 2297 2075 
Q 2506 1938 2706 1700 
Q 2906 1463 3269 872 
Q 3497 500 3634 313 
L 3866 0 
L 3122 0 
L 2931 288 
Q 2922 303 2894 341 
L 2772 513 
L 2578 831 
L 2369 1172 
Q 2175 1441 2014 1600 
Q 1853 1759 1723 1829 
Q 1594 1900 1288 1900 
L 1125 1900 
L 1125 0 
L 500 0 
z
M 1313 3834 
L 1125 3834 
L 1125 2456 
L 1363 2456 
Q 1838 2456 2014 2537 
Q 2191 2619 2289 2783 
Q 2388 2947 2388 3156 
Q 2388 3363 2278 3530 
Q 2169 3697 1970 3765 
Q 1772 3834 1313 3834 
z
" transform="scale(0.015625)"/>
      </defs>
      <use xlink:href="#GillSans-52"/>
      <use xlink:href="#GillSans-65" x="60.400391"/>
      <use xlink:href="#GillSans-67" x="108.300781"/>
      <use xlink:href="#GillSans-69" x="150.976562"/>
      <use xlink:href="#GillSans-6f" x="172.900391"/>
      <use xlink:href="#GillSans-6e" x="228.076172"/>
     </g>
    </g>
   </g>
  </g>
 </g>
 <defs>
  <clipPath id="p1b23f8d6a4">
   <rect x="108" y="60.48" width="669.6" height="388.08"/>
  </clipPath>
 </defs>
</svg>
