<?xml version="1.0" encoding="utf-8" standalone="no"?>
<!DOCTYPE svg PUBLIC "-//W3C//DTD SVG 1.1//EN"
  "http://www.w3.org/Graphics/SVG/1.1/DTD/svg11.dtd">
<svg xmlns:xlink="http://www.w3.org/1999/xlink" width="864pt" height="432pt" viewBox="0 0 864 432" xmlns="http://www.w3.org/2000/svg" version="1.1">
 <metadata>
  <rdf:RDF xmlns:dc="http://purl.org/dc/elements/1.1/" xmlns:cc="http://creativecommons.org/ns#" xmlns:rdf="http://www.w3.org/1999/02/22-rdf-syntax-ns#">
   <cc:Work>
    <dc:type rdf:resource="http://purl.org/dc/dcmitype/StillImage"/>
    <dc:date>2023-09-10T16:11:39.177159</dc:date>
    <dc:format>image/svg+xml</dc:format>
    <dc:creator>
     <cc:Agent>
      <dc:title>Matplotlib v3.7.2, https://matplotlib.org/</dc:title>
     </cc:Agent>
    </dc:creator>
   </cc:Work>
  </rdf:RDF>
 </metadata>
 <defs>
  <style type="text/css">*{stroke-linejoin: round; stroke-linecap: butt}</style>
 </defs>
 <g id="figure_1">
  <g id="patch_1">
   <path d="M 0 432 
L 864 432 
L 864 0 
L 0 0 
z
"/>
  </g>
  <g id="axes_1">
   <g id="matplotlib.axis_1">
    <g id="xtick_1">
     <g id="line2d_1">
      <path d="M 191.313721 384.48 
L 191.313721 51.84 
" clip-path="url(#p3886e187df)" style="fill: none; stroke: #ffffff; stroke-width: 0.1; stroke-linecap: square"/>
     </g>
     <g id="line2d_2">
      <defs>
       <path id="m7ece3658b7" d="M 0 0 
L 0 3.5 
" style="stroke: #ffffff; stroke-width: 0.8"/>
      </defs>
      <g>
       <use xlink:href="#m7ece3658b7" x="191.313721" y="384.48" style="fill: #ffffff; stroke: #ffffff; stroke-width: 0.8"/>
      </g>
     </g>
     <g id="text_1">
      <!-- 2023-09-05 -->
      <g style="fill: #ffffff" transform="translate(168.036221 397.5275) scale(0.08 -0.08)">
       <defs>
        <path id="AvenirNext-Bold-32" d="M 435 0 
L 435 896 
L 2202 2496 
Q 2368 2656 2470 2822 
Q 2573 2989 2573 3194 
Q 2573 3437 2419 3587 
Q 2266 3738 2010 3738 
Q 1741 3738 1571 3549 
Q 1402 3360 1370 3053 
L 339 3194 
Q 378 3539 528 3808 
Q 678 4077 908 4265 
Q 1139 4454 1436 4553 
Q 1734 4653 2067 4653 
Q 2381 4653 2675 4569 
Q 2970 4486 3200 4313 
Q 3430 4141 3568 3878 
Q 3706 3616 3706 3264 
Q 3706 3021 3642 2825 
Q 3578 2630 3466 2464 
Q 3354 2298 3210 2154 
Q 3066 2010 2912 1869 
L 1862 934 
L 3712 934 
L 3712 0 
L 435 0 
z
" transform="scale(0.015625)"/>
        <path id="AvenirNext-Bold-30" d="M 3840 2278 
Q 3840 1798 3744 1363 
Q 3648 928 3437 598 
Q 3226 269 2890 73 
Q 2554 -122 2074 -122 
Q 1594 -122 1254 73 
Q 915 269 700 598 
Q 486 928 390 1363 
Q 294 1798 294 2278 
Q 294 2758 390 3190 
Q 486 3622 700 3945 
Q 915 4269 1254 4461 
Q 1594 4653 2074 4653 
Q 2554 4653 2890 4461 
Q 3226 4269 3437 3945 
Q 3648 3622 3744 3190 
Q 3840 2758 3840 2278 
z
M 2739 2278 
Q 2739 2490 2713 2746 
Q 2688 3002 2617 3222 
Q 2547 3443 2416 3593 
Q 2285 3744 2074 3744 
Q 1862 3744 1728 3593 
Q 1594 3443 1520 3222 
Q 1446 3002 1420 2746 
Q 1395 2490 1395 2278 
Q 1395 2061 1420 1801 
Q 1446 1542 1520 1321 
Q 1594 1101 1728 950 
Q 1862 800 2074 800 
Q 2285 800 2416 950 
Q 2547 1101 2617 1321 
Q 2688 1542 2713 1801 
Q 2739 2061 2739 2278 
z
" transform="scale(0.015625)"/>
        <path id="AvenirNext-Bold-33" d="M 3731 1318 
Q 3731 947 3580 675 
Q 3430 403 3187 227 
Q 2944 51 2640 -35 
Q 2336 -122 2022 -122 
Q 1715 -122 1424 -51 
Q 1133 19 893 163 
Q 653 307 473 534 
Q 294 762 205 1082 
L 1203 1344 
Q 1267 1120 1465 950 
Q 1664 781 1971 781 
Q 2086 781 2204 813 
Q 2323 845 2416 912 
Q 2509 979 2569 1088 
Q 2630 1197 2630 1357 
Q 2630 1530 2550 1645 
Q 2470 1760 2339 1827 
Q 2208 1894 2041 1923 
Q 1875 1952 1709 1952 
L 1421 1952 
L 1421 2739 
L 1734 2739 
Q 1888 2739 2029 2761 
Q 2170 2784 2282 2845 
Q 2394 2906 2461 3008 
Q 2528 3110 2528 3277 
Q 2528 3520 2355 3648 
Q 2182 3776 1958 3776 
Q 1728 3776 1558 3638 
Q 1389 3501 1338 3270 
L 339 3501 
Q 422 3789 588 4003 
Q 755 4218 982 4362 
Q 1210 4506 1478 4579 
Q 1747 4653 2029 4653 
Q 2330 4653 2614 4576 
Q 2899 4499 3123 4339 
Q 3347 4179 3484 3939 
Q 3622 3699 3622 3373 
Q 3622 2995 3408 2736 
Q 3194 2477 2861 2387 
L 2861 2368 
Q 3053 2323 3213 2224 
Q 3373 2125 3488 1987 
Q 3603 1850 3667 1680 
Q 3731 1510 3731 1318 
z
" transform="scale(0.015625)"/>
        <path id="AvenirNext-Bold-2d" d="M 230 1261 
L 230 2093 
L 1856 2093 
L 1856 1261 
L 230 1261 
z
" transform="scale(0.015625)"/>
        <path id="AvenirNext-Bold-39" d="M 3853 3034 
Q 3853 2630 3712 2300 
Q 3571 1971 3347 1632 
L 2253 0 
L 954 0 
L 2080 1562 
L 2093 1581 
Q 2022 1555 1936 1542 
Q 1850 1530 1773 1530 
Q 1472 1530 1203 1635 
Q 934 1741 729 1936 
Q 525 2131 403 2403 
Q 282 2675 282 3008 
Q 282 3392 422 3699 
Q 563 4006 806 4217 
Q 1050 4429 1376 4541 
Q 1702 4653 2067 4653 
Q 2438 4653 2764 4541 
Q 3091 4429 3331 4217 
Q 3571 4006 3712 3705 
Q 3853 3405 3853 3034 
z
M 2778 3046 
Q 2778 3341 2589 3555 
Q 2400 3770 2074 3770 
Q 1747 3770 1552 3568 
Q 1357 3366 1357 3040 
Q 1357 2733 1549 2531 
Q 1741 2330 2061 2330 
Q 2381 2330 2579 2528 
Q 2778 2726 2778 3046 
z
" transform="scale(0.015625)"/>
        <path id="AvenirNext-Bold-35" d="M 3725 1498 
Q 3725 1082 3577 778 
Q 3430 474 3184 275 
Q 2938 77 2624 -22 
Q 2310 -122 1978 -122 
Q 1670 -122 1392 -42 
Q 1114 38 886 185 
Q 659 333 496 547 
Q 333 762 256 1030 
L 1235 1331 
Q 1306 1094 1501 940 
Q 1696 787 1965 787 
Q 2240 787 2441 953 
Q 2643 1120 2643 1446 
Q 2643 1645 2560 1779 
Q 2477 1914 2345 1994 
Q 2214 2074 2048 2106 
Q 1882 2138 1715 2138 
Q 1472 2138 1161 2083 
Q 851 2029 608 1939 
L 717 4531 
L 3494 4531 
L 3494 3610 
L 1670 3610 
L 1632 2893 
Q 1734 2918 1859 2928 
Q 1984 2938 2086 2938 
Q 2426 2938 2726 2848 
Q 3027 2758 3248 2576 
Q 3469 2394 3597 2125 
Q 3725 1856 3725 1498 
z
" transform="scale(0.015625)"/>
       </defs>
       <use xlink:href="#AvenirNext-Bold-32"/>
       <use xlink:href="#AvenirNext-Bold-30" x="64.599991"/>
       <use xlink:href="#AvenirNext-Bold-32" x="129.199982"/>
       <use xlink:href="#AvenirNext-Bold-33" x="193.799973"/>
       <use xlink:href="#AvenirNext-Bold-2d" x="258.399963"/>
       <use xlink:href="#AvenirNext-Bold-30" x="290.999954"/>
       <use xlink:href="#AvenirNext-Bold-39" x="355.599945"/>
       <use xlink:href="#AvenirNext-Bold-2d" x="420.199936"/>
       <use xlink:href="#AvenirNext-Bold-30" x="452.799927"/>
       <use xlink:href="#AvenirNext-Bold-35" x="517.399918"/>
      </g>
     </g>
    </g>
    <g id="xtick_2">
     <g id="line2d_3">
      <path d="M 289.521022 384.48 
L 289.521022 51.84 
" clip-path="url(#p3886e187df)" style="fill: none; stroke: #ffffff; stroke-width: 0.1; stroke-linecap: square"/>
     </g>
     <g id="line2d_4">
      <g>
       <use xlink:href="#m7ece3658b7" x="289.521022" y="384.48" style="fill: #ffffff; stroke: #ffffff; stroke-width: 0.8"/>
      </g>
     </g>
     <g id="text_2">
      <!-- 2023-09-06 -->
      <g style="fill: #ffffff" transform="translate(266.243522 397.5275) scale(0.08 -0.08)">
       <defs>
        <path id="AvenirNext-Bold-36" d="M 3846 1523 
Q 3846 1139 3705 832 
Q 3565 525 3321 313 
Q 3078 102 2752 -10 
Q 2426 -122 2061 -122 
Q 1690 -122 1366 -10 
Q 1043 102 800 313 
Q 557 525 416 825 
Q 275 1126 275 1498 
Q 275 1901 416 2230 
Q 557 2560 781 2899 
L 1875 4531 
L 3174 4531 
L 2061 2982 
L 2042 2950 
Q 2106 2976 2195 2989 
Q 2285 3002 2362 3002 
Q 2656 3002 2928 2896 
Q 3200 2790 3401 2595 
Q 3603 2400 3724 2128 
Q 3846 1856 3846 1523 
z
M 2771 1498 
Q 2771 1805 2579 2006 
Q 2387 2208 2067 2208 
Q 1747 2208 1548 2009 
Q 1350 1811 1350 1491 
Q 1350 1197 1542 985 
Q 1734 774 2061 774 
Q 2381 774 2576 972 
Q 2771 1171 2771 1498 
z
" transform="scale(0.015625)"/>
       </defs>
       <use xlink:href="#AvenirNext-Bold-32"/>
       <use xlink:href="#AvenirNext-Bold-30" x="64.599991"/>
       <use xlink:href="#AvenirNext-Bold-32" x="129.199982"/>
       <use xlink:href="#AvenirNext-Bold-33" x="193.799973"/>
       <use xlink:href="#AvenirNext-Bold-2d" x="258.399963"/>
       <use xlink:href="#AvenirNext-Bold-30" x="290.999954"/>
       <use xlink:href="#AvenirNext-Bold-39" x="355.599945"/>
       <use xlink:href="#AvenirNext-Bold-2d" x="420.199936"/>
       <use xlink:href="#AvenirNext-Bold-30" x="452.799927"/>
       <use xlink:href="#AvenirNext-Bold-36" x="517.399918"/>
      </g>
     </g>
    </g>
    <g id="xtick_3">
     <g id="line2d_5">
      <path d="M 387.728323 384.48 
L 387.728323 51.84 
" clip-path="url(#p3886e187df)" style="fill: none; stroke: #ffffff; stroke-width: 0.1; stroke-linecap: square"/>
     </g>
     <g id="line2d_6">
      <g>
       <use xlink:href="#m7ece3658b7" x="387.728323" y="384.48" style="fill: #ffffff; stroke: #ffffff; stroke-width: 0.8"/>
      </g>
     </g>
     <g id="text_3">
      <!-- 2023-09-07 -->
      <g style="fill: #ffffff" transform="translate(364.450823 397.5275) scale(0.08 -0.08)">
       <defs>
        <path id="AvenirNext-Bold-37" d="M 1958 0 
L 710 0 
L 2547 3610 
L 403 3610 
L 403 4531 
L 3693 4531 
L 3693 3674 
L 1958 0 
z
" transform="scale(0.015625)"/>
       </defs>
       <use xlink:href="#AvenirNext-Bold-32"/>
       <use xlink:href="#AvenirNext-Bold-30" x="64.599991"/>
       <use xlink:href="#AvenirNext-Bold-32" x="129.199982"/>
       <use xlink:href="#AvenirNext-Bold-33" x="193.799973"/>
       <use xlink:href="#AvenirNext-Bold-2d" x="258.399963"/>
       <use xlink:href="#AvenirNext-Bold-30" x="290.999954"/>
       <use xlink:href="#AvenirNext-Bold-39" x="355.599945"/>
       <use xlink:href="#AvenirNext-Bold-2d" x="420.199936"/>
       <use xlink:href="#AvenirNext-Bold-30" x="452.799927"/>
       <use xlink:href="#AvenirNext-Bold-37" x="517.399918"/>
      </g>
     </g>
    </g>
    <g id="xtick_4">
     <g id="line2d_7">
      <path d="M 485.935625 384.48 
L 485.935625 51.84 
" clip-path="url(#p3886e187df)" style="fill: none; stroke: #ffffff; stroke-width: 0.1; stroke-linecap: square"/>
     </g>
     <g id="line2d_8">
      <g>
       <use xlink:href="#m7ece3658b7" x="485.935625" y="384.48" style="fill: #ffffff; stroke: #ffffff; stroke-width: 0.8"/>
      </g>
     </g>
     <g id="text_4">
      <!-- 2023-09-08 -->
      <g style="fill: #ffffff" transform="translate(462.658125 397.5275) scale(0.08 -0.08)">
       <defs>
        <path id="AvenirNext-Bold-38" d="M 3770 1293 
Q 3770 934 3629 668 
Q 3488 403 3254 227 
Q 3021 51 2710 -35 
Q 2400 -122 2067 -122 
Q 1728 -122 1421 -35 
Q 1114 51 880 224 
Q 646 397 505 662 
Q 365 928 365 1286 
Q 365 1491 429 1667 
Q 493 1843 605 1980 
Q 717 2118 864 2217 
Q 1011 2317 1178 2368 
L 1178 2381 
Q 883 2490 684 2736 
Q 486 2982 486 3360 
Q 486 3674 614 3917 
Q 742 4160 960 4323 
Q 1178 4486 1466 4569 
Q 1754 4653 2067 4653 
Q 2381 4653 2665 4573 
Q 2950 4493 3168 4333 
Q 3386 4173 3517 3933 
Q 3648 3693 3648 3379 
Q 3648 3002 3456 2746 
Q 3264 2490 2957 2387 
L 2957 2368 
Q 3130 2317 3277 2217 
Q 3424 2118 3533 1980 
Q 3642 1843 3706 1667 
Q 3770 1491 3770 1293 
z
M 2611 3302 
Q 2611 3526 2451 3673 
Q 2291 3821 2067 3821 
Q 1824 3821 1677 3673 
Q 1530 3526 1530 3302 
Q 1530 3085 1674 2925 
Q 1818 2765 2067 2765 
Q 2304 2765 2457 2925 
Q 2611 3085 2611 3302 
z
M 2694 1331 
Q 2694 1594 2518 1770 
Q 2342 1946 2067 1946 
Q 1786 1946 1610 1773 
Q 1434 1600 1434 1331 
Q 1434 1056 1610 893 
Q 1786 730 2067 730 
Q 2349 730 2521 893 
Q 2694 1056 2694 1331 
z
" transform="scale(0.015625)"/>
       </defs>
       <use xlink:href="#AvenirNext-Bold-32"/>
       <use xlink:href="#AvenirNext-Bold-30" x="64.599991"/>
       <use xlink:href="#AvenirNext-Bold-32" x="129.199982"/>
       <use xlink:href="#AvenirNext-Bold-33" x="193.799973"/>
       <use xlink:href="#AvenirNext-Bold-2d" x="258.399963"/>
       <use xlink:href="#AvenirNext-Bold-30" x="290.999954"/>
       <use xlink:href="#AvenirNext-Bold-39" x="355.599945"/>
       <use xlink:href="#AvenirNext-Bold-2d" x="420.199936"/>
       <use xlink:href="#AvenirNext-Bold-30" x="452.799927"/>
       <use xlink:href="#AvenirNext-Bold-38" x="517.399918"/>
      </g>
     </g>
    </g>
    <g id="xtick_5">
     <g id="line2d_9">
      <path d="M 584.142926 384.48 
L 584.142926 51.84 
" clip-path="url(#p3886e187df)" style="fill: none; stroke: #ffffff; stroke-width: 0.1; stroke-linecap: square"/>
     </g>
     <g id="line2d_10">
      <g>
       <use xlink:href="#m7ece3658b7" x="584.142926" y="384.48" style="fill: #ffffff; stroke: #ffffff; stroke-width: 0.8"/>
      </g>
     </g>
     <g id="text_5">
      <!-- 2023-09-09 -->
      <g style="fill: #ffffff" transform="translate(560.865426 397.5275) scale(0.08 -0.08)">
       <use xlink:href="#AvenirNext-Bold-32"/>
       <use xlink:href="#AvenirNext-Bold-30" x="64.599991"/>
       <use xlink:href="#AvenirNext-Bold-32" x="129.199982"/>
       <use xlink:href="#AvenirNext-Bold-33" x="193.799973"/>
       <use xlink:href="#AvenirNext-Bold-2d" x="258.399963"/>
       <use xlink:href="#AvenirNext-Bold-30" x="290.999954"/>
       <use xlink:href="#AvenirNext-Bold-39" x="355.599945"/>
       <use xlink:href="#AvenirNext-Bold-2d" x="420.199936"/>
       <use xlink:href="#AvenirNext-Bold-30" x="452.799927"/>
       <use xlink:href="#AvenirNext-Bold-39" x="517.399918"/>
      </g>
     </g>
    </g>
    <g id="xtick_6">
     <g id="line2d_11">
      <path d="M 682.350227 384.48 
L 682.350227 51.84 
" clip-path="url(#p3886e187df)" style="fill: none; stroke: #ffffff; stroke-width: 0.1; stroke-linecap: square"/>
     </g>
     <g id="line2d_12">
      <g>
       <use xlink:href="#m7ece3658b7" x="682.350227" y="384.48" style="fill: #ffffff; stroke: #ffffff; stroke-width: 0.8"/>
      </g>
     </g>
     <g id="text_6">
      <!-- 2023-09-10 -->
      <g style="fill: #ffffff" transform="translate(659.072727 397.5275) scale(0.08 -0.08)">
       <defs>
        <path id="AvenirNext-Bold-31" d="M 1811 0 
L 1811 3328 
L 966 2675 
L 410 3437 
L 1901 4531 
L 2886 4531 
L 2886 0 
L 1811 0 
z
" transform="scale(0.015625)"/>
       </defs>
       <use xlink:href="#AvenirNext-Bold-32"/>
       <use xlink:href="#AvenirNext-Bold-30" x="64.599991"/>
       <use xlink:href="#AvenirNext-Bold-32" x="129.199982"/>
       <use xlink:href="#AvenirNext-Bold-33" x="193.799973"/>
       <use xlink:href="#AvenirNext-Bold-2d" x="258.399963"/>
       <use xlink:href="#AvenirNext-Bold-30" x="290.999954"/>
       <use xlink:href="#AvenirNext-Bold-39" x="355.599945"/>
       <use xlink:href="#AvenirNext-Bold-2d" x="420.199936"/>
       <use xlink:href="#AvenirNext-Bold-31" x="452.799927"/>
       <use xlink:href="#AvenirNext-Bold-30" x="517.399918"/>
      </g>
     </g>
    </g>
    <g id="text_7">
     <!-- Time -->
     <g style="fill: #ffffff" transform="translate(426.021875 414.030625) scale(0.14 -0.14)">
      <defs>
       <path id="AvenirNext-Bold-54" d="M 2406 3597 
L 2406 0 
L 1312 0 
L 1312 3597 
L 32 3597 
L 32 4531 
L 3686 4531 
L 3686 3597 
L 2406 3597 
z
" transform="scale(0.015625)"/>
       <path id="AvenirNext-Bold-69" d="M 1549 4205 
Q 1549 4083 1501 3977 
Q 1453 3872 1373 3795 
Q 1293 3718 1181 3673 
Q 1069 3629 947 3629 
Q 691 3629 518 3798 
Q 346 3968 346 4205 
Q 346 4320 390 4425 
Q 435 4531 518 4608 
Q 602 4685 710 4733 
Q 819 4781 947 4781 
Q 1069 4781 1181 4736 
Q 1293 4691 1373 4614 
Q 1453 4538 1501 4432 
Q 1549 4326 1549 4205 
z
M 422 0 
L 422 3187 
L 1472 3187 
L 1472 0 
L 422 0 
z
" transform="scale(0.015625)"/>
       <path id="AvenirNext-Bold-6d" d="M 4480 0 
L 4480 1741 
Q 4480 1875 4461 2000 
Q 4442 2125 4390 2214 
Q 4339 2304 4252 2358 
Q 4166 2413 4026 2413 
Q 3891 2413 3792 2355 
Q 3693 2298 3625 2202 
Q 3558 2106 3526 1981 
Q 3494 1856 3494 1722 
L 3494 0 
L 2445 0 
L 2445 1818 
Q 2445 2093 2336 2253 
Q 2227 2413 1990 2413 
Q 1741 2413 1603 2214 
Q 1466 2016 1466 1728 
L 1466 0 
L 410 0 
L 410 3187 
L 1427 3187 
L 1427 2746 
L 1440 2746 
Q 1498 2848 1584 2944 
Q 1670 3040 1792 3113 
Q 1914 3187 2064 3232 
Q 2214 3277 2394 3277 
Q 2739 3277 2979 3136 
Q 3219 2995 3354 2733 
Q 3514 2982 3763 3129 
Q 4013 3277 4371 3277 
Q 4698 3277 4918 3158 
Q 5139 3040 5273 2851 
Q 5408 2662 5469 2428 
Q 5530 2195 5530 1971 
L 5530 0 
L 4480 0 
z
" transform="scale(0.015625)"/>
       <path id="AvenirNext-Bold-65" d="M 2605 1958 
Q 2605 2208 2448 2387 
Q 2291 2566 1978 2566 
Q 1824 2566 1696 2518 
Q 1568 2470 1472 2387 
Q 1376 2304 1318 2192 
Q 1261 2080 1254 1958 
L 2605 1958 
z
M 3571 1555 
Q 3571 1491 3571 1427 
Q 3571 1363 3565 1306 
L 1254 1306 
Q 1267 1171 1334 1062 
Q 1402 954 1507 874 
Q 1613 794 1744 749 
Q 1875 704 2016 704 
Q 2266 704 2438 797 
Q 2611 890 2720 1037 
L 3450 576 
Q 3226 250 2858 74 
Q 2490 -102 2003 -102 
Q 1645 -102 1325 10 
Q 1005 122 765 336 
Q 525 550 387 864 
Q 250 1178 250 1581 
Q 250 1971 384 2288 
Q 518 2605 748 2825 
Q 979 3046 1292 3168 
Q 1606 3290 1971 3290 
Q 2323 3290 2617 3171 
Q 2912 3053 3123 2829 
Q 3334 2605 3452 2285 
Q 3571 1965 3571 1555 
z
" transform="scale(0.015625)"/>
      </defs>
      <use xlink:href="#AvenirNext-Bold-54"/>
      <use xlink:href="#AvenirNext-Bold-69" x="58.099991"/>
      <use xlink:href="#AvenirNext-Bold-6d" x="87.699982"/>
      <use xlink:href="#AvenirNext-Bold-65" x="180.099976"/>
     </g>
    </g>
   </g>
   <g id="matplotlib.axis_2">
    <g id="ytick_1">
     <g id="line2d_13">
      <path d="M 108 363.430588 
L 777.6 363.430588 
" clip-path="url(#p3886e187df)" style="fill: none; stroke: #ffffff; stroke-width: 0.1; stroke-linecap: square"/>
     </g>
     <g id="line2d_14">
      <defs>
       <path id="mfc496d38c4" d="M 0 0 
L -3.5 0 
" style="stroke: #ffffff; stroke-width: 0.8"/>
      </defs>
      <g>
       <use xlink:href="#mfc496d38c4" x="108" y="363.430588" style="fill: #ffffff; stroke: #ffffff; stroke-width: 0.8"/>
      </g>
     </g>
     <g id="text_8">
      <!-- 96.5 -->
      <g style="fill: #ffffff" transform="translate(83.0975 366.454338) scale(0.08 -0.08)">
       <defs>
        <path id="AvenirNext-Bold-2e" d="M 1606 563 
Q 1606 294 1417 115 
Q 1229 -64 966 -64 
Q 832 -64 713 -16 
Q 595 32 505 115 
Q 416 198 365 310 
Q 314 422 314 557 
Q 314 685 365 800 
Q 416 915 505 1001 
Q 595 1088 713 1139 
Q 832 1190 966 1190 
Q 1229 1190 1417 1011 
Q 1606 832 1606 563 
z
" transform="scale(0.015625)"/>
       </defs>
       <use xlink:href="#AvenirNext-Bold-39"/>
       <use xlink:href="#AvenirNext-Bold-36" x="64.599991"/>
       <use xlink:href="#AvenirNext-Bold-2e" x="129.199982"/>
       <use xlink:href="#AvenirNext-Bold-35" x="159.199966"/>
      </g>
     </g>
    </g>
    <g id="ytick_2">
     <g id="line2d_15">
      <path d="M 108 321.077647 
L 777.6 321.077647 
" clip-path="url(#p3886e187df)" style="fill: none; stroke: #ffffff; stroke-width: 0.1; stroke-linecap: square"/>
     </g>
     <g id="line2d_16">
      <g>
       <use xlink:href="#mfc496d38c4" x="108" y="321.077647" style="fill: #ffffff; stroke: #ffffff; stroke-width: 0.8"/>
      </g>
     </g>
     <g id="text_9">
      <!-- 97.0 -->
      <g style="fill: #ffffff" transform="translate(83.0975 324.101397) scale(0.08 -0.08)">
       <use xlink:href="#AvenirNext-Bold-39"/>
       <use xlink:href="#AvenirNext-Bold-37" x="64.599991"/>
       <use xlink:href="#AvenirNext-Bold-2e" x="129.199982"/>
       <use xlink:href="#AvenirNext-Bold-30" x="159.199966"/>
      </g>
     </g>
    </g>
    <g id="ytick_3">
     <g id="line2d_17">
      <path d="M 108 278.724706 
L 777.6 278.724706 
" clip-path="url(#p3886e187df)" style="fill: none; stroke: #ffffff; stroke-width: 0.1; stroke-linecap: square"/>
     </g>
     <g id="line2d_18">
      <g>
       <use xlink:href="#mfc496d38c4" x="108" y="278.724706" style="fill: #ffffff; stroke: #ffffff; stroke-width: 0.8"/>
      </g>
     </g>
     <g id="text_10">
      <!-- 97.5 -->
      <g style="fill: #ffffff" transform="translate(83.0975 281.748456) scale(0.08 -0.08)">
       <use xlink:href="#AvenirNext-Bold-39"/>
       <use xlink:href="#AvenirNext-Bold-37" x="64.599991"/>
       <use xlink:href="#AvenirNext-Bold-2e" x="129.199982"/>
       <use xlink:href="#AvenirNext-Bold-35" x="159.199966"/>
      </g>
     </g>
    </g>
    <g id="ytick_4">
     <g id="line2d_19">
      <path d="M 108 236.371765 
L 777.6 236.371765 
" clip-path="url(#p3886e187df)" style="fill: none; stroke: #ffffff; stroke-width: 0.1; stroke-linecap: square"/>
     </g>
     <g id="line2d_20">
      <g>
       <use xlink:href="#mfc496d38c4" x="108" y="236.371765" style="fill: #ffffff; stroke: #ffffff; stroke-width: 0.8"/>
      </g>
     </g>
     <g id="text_11">
      <!-- 98.0 -->
      <g style="fill: #ffffff" transform="translate(83.0975 239.395515) scale(0.08 -0.08)">
       <use xlink:href="#AvenirNext-Bold-39"/>
       <use xlink:href="#AvenirNext-Bold-38" x="64.599991"/>
       <use xlink:href="#AvenirNext-Bold-2e" x="129.199982"/>
       <use xlink:href="#AvenirNext-Bold-30" x="159.199966"/>
      </g>
     </g>
    </g>
    <g id="ytick_5">
     <g id="line2d_21">
      <path d="M 108 194.018824 
L 777.6 194.018824 
" clip-path="url(#p3886e187df)" style="fill: none; stroke: #ffffff; stroke-width: 0.1; stroke-linecap: square"/>
     </g>
     <g id="line2d_22">
      <g>
       <use xlink:href="#mfc496d38c4" x="108" y="194.018824" style="fill: #ffffff; stroke: #ffffff; stroke-width: 0.8"/>
      </g>
     </g>
     <g id="text_12">
      <!-- 98.5 -->
      <g style="fill: #ffffff" transform="translate(83.0975 197.042574) scale(0.08 -0.08)">
       <use xlink:href="#AvenirNext-Bold-39"/>
       <use xlink:href="#AvenirNext-Bold-38" x="64.599991"/>
       <use xlink:href="#AvenirNext-Bold-2e" x="129.199982"/>
       <use xlink:href="#AvenirNext-Bold-35" x="159.199966"/>
      </g>
     </g>
    </g>
    <g id="ytick_6">
     <g id="line2d_23">
      <path d="M 108 151.665882 
L 777.6 151.665882 
" clip-path="url(#p3886e187df)" style="fill: none; stroke: #ffffff; stroke-width: 0.1; stroke-linecap: square"/>
     </g>
     <g id="line2d_24">
      <g>
       <use xlink:href="#mfc496d38c4" x="108" y="151.665882" style="fill: #ffffff; stroke: #ffffff; stroke-width: 0.8"/>
      </g>
     </g>
     <g id="text_13">
      <!-- 99.0 -->
      <g style="fill: #ffffff" transform="translate(83.0975 154.689632) scale(0.08 -0.08)">
       <use xlink:href="#AvenirNext-Bold-39"/>
       <use xlink:href="#AvenirNext-Bold-39" x="64.599991"/>
       <use xlink:href="#AvenirNext-Bold-2e" x="129.199982"/>
       <use xlink:href="#AvenirNext-Bold-30" x="159.199966"/>
      </g>
     </g>
    </g>
    <g id="ytick_7">
     <g id="line2d_25">
      <path d="M 108 109.312941 
L 777.6 109.312941 
" clip-path="url(#p3886e187df)" style="fill: none; stroke: #ffffff; stroke-width: 0.1; stroke-linecap: square"/>
     </g>
     <g id="line2d_26">
      <g>
       <use xlink:href="#mfc496d38c4" x="108" y="109.312941" style="fill: #ffffff; stroke: #ffffff; stroke-width: 0.8"/>
      </g>
     </g>
     <g id="text_14">
      <!-- 99.5 -->
      <g style="fill: #ffffff" transform="translate(83.0975 112.336691) scale(0.08 -0.08)">
       <use xlink:href="#AvenirNext-Bold-39"/>
       <use xlink:href="#AvenirNext-Bold-39" x="64.599991"/>
       <use xlink:href="#AvenirNext-Bold-2e" x="129.199982"/>
       <use xlink:href="#AvenirNext-Bold-35" x="159.199966"/>
      </g>
     </g>
    </g>
    <g id="ytick_8">
     <g id="line2d_27">
      <path d="M 108 66.96 
L 777.6 66.96 
" clip-path="url(#p3886e187df)" style="fill: none; stroke: #ffffff; stroke-width: 0.1; stroke-linecap: square"/>
     </g>
     <g id="line2d_28">
      <g>
       <use xlink:href="#mfc496d38c4" x="108" y="66.96" style="fill: #ffffff; stroke: #ffffff; stroke-width: 0.8"/>
      </g>
     </g>
     <g id="text_15">
      <!-- 100.0 -->
      <g style="fill: #ffffff" transform="translate(77.93 69.98375) scale(0.08 -0.08)">
       <use xlink:href="#AvenirNext-Bold-31"/>
       <use xlink:href="#AvenirNext-Bold-30" x="64.599991"/>
       <use xlink:href="#AvenirNext-Bold-30" x="129.199982"/>
       <use xlink:href="#AvenirNext-Bold-2e" x="193.799973"/>
       <use xlink:href="#AvenirNext-Bold-30" x="223.799957"/>
      </g>
     </g>
    </g>
    <g id="text_16">
     <!-- Coverage % -->
     <g style="fill: #ffffff" transform="translate(72.01 241.565625) rotate(-90) scale(0.08 -0.08)">
      <defs>
       <path id="AvenirNext-Bold-43" d="M 4454 627 
Q 4154 282 3712 80 
Q 3270 -122 2694 -122 
Q 2170 -122 1725 51 
Q 1280 224 953 541 
Q 627 858 441 1299 
Q 256 1741 256 2272 
Q 256 2816 445 3257 
Q 634 3699 966 4009 
Q 1299 4320 1747 4486 
Q 2195 4653 2714 4653 
Q 3194 4653 3658 4483 
Q 4122 4314 4410 3987 
L 3667 3245 
Q 3514 3456 3264 3558 
Q 3014 3661 2752 3661 
Q 2464 3661 2224 3555 
Q 1984 3450 1811 3264 
Q 1638 3078 1542 2825 
Q 1446 2573 1446 2272 
Q 1446 1965 1542 1709 
Q 1638 1453 1808 1270 
Q 1978 1088 2214 985 
Q 2451 883 2733 883 
Q 3059 883 3302 1011 
Q 3546 1139 3693 1344 
L 4454 627 
L 4454 627 
z
" transform="scale(0.015625)"/>
       <path id="AvenirNext-Bold-6f" d="M 3789 1606 
Q 3789 1216 3648 899 
Q 3507 582 3264 361 
Q 3021 141 2701 19 
Q 2381 -102 2016 -102 
Q 1658 -102 1334 19 
Q 1011 141 771 361 
Q 531 582 390 899 
Q 250 1216 250 1606 
Q 250 1997 390 2310 
Q 531 2624 771 2841 
Q 1011 3059 1334 3174 
Q 1658 3290 2016 3290 
Q 2381 3290 2701 3174 
Q 3021 3059 3264 2841 
Q 3507 2624 3648 2310 
Q 3789 1997 3789 1606 
z
M 2778 1606 
Q 2778 1760 2726 1907 
Q 2675 2054 2579 2166 
Q 2483 2278 2342 2348 
Q 2202 2419 2016 2419 
Q 1830 2419 1689 2348 
Q 1549 2278 1456 2166 
Q 1363 2054 1315 1907 
Q 1267 1760 1267 1606 
Q 1267 1453 1315 1305 
Q 1363 1158 1459 1040 
Q 1555 922 1696 851 
Q 1837 781 2022 781 
Q 2208 781 2349 851 
Q 2490 922 2586 1040 
Q 2682 1158 2730 1305 
Q 2778 1453 2778 1606 
z
" transform="scale(0.015625)"/>
       <path id="AvenirNext-Bold-76" d="M 2381 0 
L 1248 0 
L -6 3187 
L 1152 3187 
L 1824 1120 
L 1843 1120 
L 2515 3187 
L 3635 3187 
L 2381 0 
z
" transform="scale(0.015625)"/>
       <path id="AvenirNext-Bold-72" d="M 2477 2330 
Q 2406 2349 2339 2355 
Q 2272 2362 2208 2362 
Q 1997 2362 1853 2285 
Q 1709 2208 1622 2099 
Q 1536 1990 1497 1862 
Q 1459 1734 1459 1638 
L 1459 0 
L 410 0 
L 410 3187 
L 1421 3187 
L 1421 2726 
L 1434 2726 
Q 1555 2970 1779 3123 
Q 2003 3277 2298 3277 
Q 2362 3277 2422 3270 
Q 2483 3264 2522 3251 
L 2477 2330 
z
" transform="scale(0.015625)"/>
       <path id="AvenirNext-Bold-61" d="M 2291 1389 
L 2157 1389 
Q 1984 1389 1808 1373 
Q 1632 1357 1494 1312 
Q 1357 1267 1267 1180 
Q 1178 1094 1178 954 
Q 1178 864 1219 800 
Q 1261 736 1325 697 
Q 1389 659 1472 643 
Q 1555 627 1632 627 
Q 1952 627 2121 803 
Q 2291 979 2291 1280 
L 2291 1389 
z
M 365 2752 
Q 646 3021 1020 3155 
Q 1395 3290 1786 3290 
Q 2189 3290 2467 3190 
Q 2746 3091 2918 2883 
Q 3091 2675 3171 2358 
Q 3251 2042 3251 1606 
L 3251 0 
L 2291 0 
L 2291 339 
L 2272 339 
Q 2150 141 1904 32 
Q 1658 -77 1370 -77 
Q 1178 -77 973 -25 
Q 768 26 598 141 
Q 429 256 320 448 
Q 211 640 211 922 
Q 211 1267 400 1478 
Q 589 1690 886 1805 
Q 1184 1920 1549 1958 
Q 1914 1997 2259 1997 
L 2259 2048 
Q 2259 2285 2092 2397 
Q 1926 2509 1683 2509 
Q 1459 2509 1251 2413 
Q 1043 2317 896 2182 
L 365 2752 
z
" transform="scale(0.015625)"/>
       <path id="AvenirNext-Bold-67" d="M 3789 301 
Q 3789 -166 3654 -512 
Q 3520 -858 3277 -1085 
Q 3034 -1312 2685 -1424 
Q 2336 -1536 1914 -1536 
Q 1491 -1536 1046 -1408 
Q 602 -1280 275 -1037 
L 800 -288 
Q 1030 -493 1308 -592 
Q 1587 -691 1856 -691 
Q 2317 -691 2537 -448 
Q 2758 -205 2758 198 
L 2758 390 
L 2739 390 
Q 2592 198 2342 83 
Q 2093 -32 1773 -32 
Q 1408 -32 1126 99 
Q 845 230 649 454 
Q 454 678 352 976 
Q 250 1274 250 1606 
Q 250 1939 352 2240 
Q 454 2541 649 2771 
Q 845 3002 1126 3139 
Q 1408 3277 1766 3277 
Q 2067 3277 2342 3155 
Q 2618 3034 2784 2778 
L 2797 2778 
L 2797 3187 
L 3789 3187 
L 3789 301 
z
M 2790 1613 
Q 2790 1773 2736 1920 
Q 2682 2067 2579 2179 
Q 2477 2291 2336 2355 
Q 2195 2419 2016 2419 
Q 1837 2419 1699 2355 
Q 1562 2291 1466 2182 
Q 1370 2074 1318 1926 
Q 1267 1779 1267 1613 
Q 1267 1453 1318 1305 
Q 1370 1158 1466 1046 
Q 1562 934 1699 867 
Q 1837 800 2016 800 
Q 2195 800 2339 867 
Q 2483 934 2582 1043 
Q 2682 1152 2736 1299 
Q 2790 1446 2790 1613 
z
" transform="scale(0.015625)"/>
       <path id="AvenirNext-Bold-20" transform="scale(0.015625)"/>
       <path id="AvenirNext-Bold-25" d="M 5690 1133 
Q 5690 883 5594 662 
Q 5498 442 5334 278 
Q 5171 115 4947 19 
Q 4723 -77 4474 -77 
Q 4224 -77 4000 19 
Q 3776 115 3613 278 
Q 3450 442 3354 662 
Q 3258 883 3258 1133 
Q 3258 1382 3354 1603 
Q 3450 1824 3613 1987 
Q 3776 2150 4000 2246 
Q 4224 2342 4474 2342 
Q 4723 2342 4947 2246 
Q 5171 2150 5334 1987 
Q 5498 1824 5594 1603 
Q 5690 1382 5690 1133 
z
M 4973 1133 
Q 4973 1235 4931 1328 
Q 4890 1421 4822 1488 
Q 4755 1555 4665 1593 
Q 4576 1632 4474 1632 
Q 4269 1632 4121 1485 
Q 3974 1338 3974 1133 
Q 3974 928 4121 784 
Q 4269 640 4474 640 
Q 4576 640 4665 678 
Q 4755 717 4822 784 
Q 4890 851 4931 940 
Q 4973 1030 4973 1133 
z
M 2618 3398 
Q 2618 3149 2522 2928 
Q 2426 2707 2262 2544 
Q 2099 2381 1875 2285 
Q 1651 2189 1402 2189 
Q 1152 2189 928 2285 
Q 704 2381 541 2544 
Q 378 2707 282 2928 
Q 186 3149 186 3398 
Q 186 3654 282 3875 
Q 378 4096 541 4259 
Q 704 4422 928 4515 
Q 1152 4608 1402 4608 
Q 1651 4608 1875 4515 
Q 2099 4422 2262 4259 
Q 2426 4096 2522 3875 
Q 2618 3654 2618 3398 
z
M 1901 3398 
Q 1901 3603 1753 3750 
Q 1606 3898 1402 3898 
Q 1197 3898 1049 3750 
Q 902 3603 902 3398 
Q 902 3194 1049 3050 
Q 1197 2906 1402 2906 
Q 1606 2906 1753 3050 
Q 1901 3194 1901 3398 
z
M 1894 -218 
L 1325 64 
L 3968 4736 
L 4563 4448 
L 1894 -218 
z
" transform="scale(0.015625)"/>
      </defs>
      <use xlink:href="#AvenirNext-Bold-43"/>
      <use xlink:href="#AvenirNext-Bold-6f" x="69.599991"/>
      <use xlink:href="#AvenirNext-Bold-76" x="132.799988"/>
      <use xlink:href="#AvenirNext-Bold-65" x="189.499985"/>
      <use xlink:href="#AvenirNext-Bold-72" x="249.099976"/>
      <use xlink:href="#AvenirNext-Bold-61" x="287.074966"/>
      <use xlink:href="#AvenirNext-Bold-67" x="343.674957"/>
      <use xlink:href="#AvenirNext-Bold-65" x="409.474945"/>
      <use xlink:href="#AvenirNext-Bold-20" x="469.074936"/>
      <use xlink:href="#AvenirNext-Bold-25" x="494.074921"/>
     </g>
    </g>
   </g>
   <g id="line2d_29">
    <path d="M 138.436364 66.96 
L 142.048665 66.96 
L 147.800157 66.96 
L 159.882838 66.96 
L 160.629622 66.96 
L 161.587826 66.96 
L 163.023425 66.96 
L 218.734472 66.96 
L 224.140421 66.96 
L 261.866119 66.96 
L 295.341851 66.96 
L 296.128418 66.96 
L 299.14852 66.96 
L 300.394298 66.96 
L 301.230879 66.96 
L 302.660795 66.96 
L 304.587432 66.96 
L 311.723374 66.96 
L 326.77387 66.96 
L 332.827714 369.36 
L 336.762826 369.36 
L 347.633829 369.36 
L 348.568162 369.36 
L 349.967389 369.36 
L 353.688809 369.36 
L 354.345798 369.36 
L 359.19251 369.36 
L 361.687475 369.36 
L 402.296876 369.36 
L 406.292231 369.36 
L 415.267288 369.36 
L 416.152745 369.36 
L 488.122556 369.36 
L 550.073858 369.36 
L 551.452625 369.36 
L 553.894168 369.36 
L 556.259554 369.36 
L 558.83295 369.36 
L 560.610684 369.36 
L 592.02679 369.36 
L 593.779518 369.36 
L 612.042211 369.36 
L 614.619016 369.36 
L 658.13258 369.36 
L 690.619419 369.36 
L 691.774264 369.36 
L 699.588791 369.36 
L 706.80089 369.36 
L 711.762405 369.36 
L 722.708427 369.36 
L 725.072677 369.36 
L 726.637856 369.36 
L 727.771104 369.36 
L 732.368888 369.36 
L 737.480442 369.36 
L 742.926173 369.36 
L 744.169678 369.36 
L 745.331343 369.36 
L 746.481641 369.36 
L 747.163636 369.36 
" clip-path="url(#p3886e187df)" style="fill: none; stroke: #0066aa; stroke-width: 0.5; stroke-linecap: square"/>
   </g>
   <g id="line2d_30">
    <path d="M 138.436364 66.96 
L 142.048665 66.96 
L 147.800157 66.96 
L 159.882838 66.96 
L 160.629622 66.96 
L 161.587826 66.96 
L 163.023425 66.96 
L 218.734472 66.96 
L 224.140421 66.96 
L 261.866119 66.96 
L 295.341851 66.96 
L 296.128418 66.96 
L 299.14852 66.96 
L 300.394298 66.96 
L 301.230879 66.96 
L 302.660795 66.96 
L 304.587432 66.96 
L 311.723374 66.96 
L 326.77387 66.96 
L 332.827714 145.736471 
L 336.762826 145.736471 
L 347.633829 145.736471 
L 348.568162 145.736471 
L 349.967389 145.736471 
L 353.688809 145.736471 
L 354.345798 145.736471 
L 359.19251 145.736471 
L 361.687475 145.736471 
L 402.296876 145.736471 
L 406.292231 145.736471 
L 415.267288 145.736471 
L 416.152745 145.736471 
L 488.122556 145.736471 
L 550.073858 145.736471 
L 551.452625 145.736471 
L 553.894168 145.736471 
L 556.259554 145.736471 
L 558.83295 145.736471 
L 560.610684 145.736471 
L 592.02679 145.736471 
L 593.779518 145.736471 
L 612.042211 145.736471 
L 614.619016 145.736471 
L 658.13258 145.736471 
L 690.619419 145.736471 
L 691.774264 145.736471 
L 699.588791 145.736471 
L 706.80089 145.736471 
L 711.762405 145.736471 
L 722.708427 145.736471 
L 725.072677 145.736471 
L 726.637856 145.736471 
L 727.771104 145.736471 
L 732.368888 145.736471 
L 737.480442 145.736471 
L 742.926173 145.736471 
L 744.169678 145.736471 
L 745.331343 145.736471 
L 746.481641 145.736471 
L 747.163636 145.736471 
" clip-path="url(#p3886e187df)" style="fill: none; stroke: #ff66aa; stroke-width: 0.5; stroke-linecap: square"/>
   </g>
   <g id="line2d_31">
    <path d="M 138.436364 171.148235 
L 142.048665 171.148235 
L 147.800157 171.148235 
L 159.882838 171.148235 
L 160.629622 171.148235 
L 161.587826 171.148235 
L 163.023425 171.148235 
L 218.734472 171.148235 
L 224.140421 171.148235 
L 261.866119 171.148235 
L 295.341851 171.148235 
L 296.128418 171.148235 
L 299.14852 171.148235 
L 300.394298 171.148235 
L 301.230879 171.148235 
L 302.660795 171.148235 
L 304.587432 171.148235 
L 311.723374 171.148235 
L 326.77387 171.148235 
L 332.827714 365.971765 
L 336.762826 365.971765 
L 347.633829 365.971765 
L 348.568162 365.971765 
L 349.967389 365.971765 
L 353.688809 365.971765 
L 354.345798 365.971765 
L 359.19251 365.971765 
L 361.687475 365.971765 
L 402.296876 365.971765 
L 406.292231 365.971765 
L 415.267288 365.971765 
L 416.152745 365.971765 
L 488.122556 365.971765 
L 550.073858 365.971765 
L 551.452625 365.971765 
L 553.894168 365.971765 
L 556.259554 365.971765 
L 558.83295 365.971765 
L 560.610684 365.971765 
L 592.02679 365.971765 
L 593.779518 365.971765 
L 612.042211 365.971765 
L 614.619016 365.971765 
L 658.13258 365.971765 
L 690.619419 365.971765 
L 691.774264 365.971765 
L 699.588791 365.971765 
L 706.80089 365.971765 
L 711.762405 365.971765 
L 722.708427 365.971765 
L 725.072677 365.971765 
L 726.637856 365.971765 
L 727.771104 365.971765 
L 732.368888 365.971765 
L 737.480442 365.971765 
L 742.926173 365.971765 
L 744.169678 365.971765 
L 745.331343 365.971765 
L 746.481641 365.971765 
L 747.163636 365.971765 
" clip-path="url(#p3886e187df)" style="fill: none; stroke: #6600aa; stroke-width: 0.5; stroke-linecap: square"/>
   </g>
   <g id="text_17">
    <!-- Cutbox CLI Coverage Progression -->
    <g style="fill: #ffffff" transform="translate(247.760625 45.84) scale(0.24 -0.24)">
     <defs>
      <path id="AvenirNext-Bold-75" d="M 2509 0 
L 2509 442 
L 2496 442 
Q 2438 333 2345 237 
Q 2253 141 2128 70 
Q 2003 0 1852 -45 
Q 1702 -90 1536 -90 
Q 1216 -90 995 25 
Q 774 141 636 323 
Q 499 506 438 739 
Q 378 973 378 1216 
L 378 3187 
L 1434 3187 
L 1434 1459 
Q 1434 1325 1453 1203 
Q 1472 1082 1526 986 
Q 1581 890 1670 835 
Q 1760 781 1907 781 
Q 2182 781 2326 985 
Q 2470 1190 2470 1466 
L 2470 3187 
L 3520 3187 
L 3520 0 
L 2509 0 
z
" transform="scale(0.015625)"/>
      <path id="AvenirNext-Bold-74" d="M 1549 2400 
L 1549 1184 
Q 1549 960 1635 848 
Q 1722 736 1946 736 
Q 2022 736 2108 749 
Q 2195 762 2253 787 
L 2266 19 
Q 2157 -19 1990 -48 
Q 1824 -77 1658 -77 
Q 1338 -77 1120 3 
Q 902 83 771 233 
Q 640 384 582 592 
Q 525 800 525 1056 
L 525 2400 
L 13 2400 
L 13 3187 
L 518 3187 
L 518 4026 
L 1549 4026 
L 1549 3187 
L 2298 3187 
L 2298 2400 
L 1549 2400 
z
" transform="scale(0.015625)"/>
      <path id="AvenirNext-Bold-62" d="M 3962 1606 
Q 3962 1274 3859 966 
Q 3757 659 3561 425 
Q 3366 192 3084 51 
Q 2803 -90 2445 -90 
Q 2125 -90 1840 41 
Q 1555 173 1402 416 
L 1389 416 
L 1389 0 
L 422 0 
L 422 4838 
L 1472 4838 
L 1472 2848 
L 1485 2848 
Q 1619 3008 1862 3142 
Q 2106 3277 2458 3277 
Q 2803 3277 3081 3142 
Q 3360 3008 3555 2777 
Q 3750 2547 3856 2243 
Q 3962 1939 3962 1606 
z
M 2950 1606 
Q 2950 1760 2902 1907 
Q 2854 2054 2758 2166 
Q 2662 2278 2521 2348 
Q 2381 2419 2195 2419 
Q 2016 2419 1875 2348 
Q 1734 2278 1635 2163 
Q 1536 2048 1481 1901 
Q 1427 1754 1427 1600 
Q 1427 1446 1481 1299 
Q 1536 1152 1635 1037 
Q 1734 922 1875 851 
Q 2016 781 2195 781 
Q 2381 781 2521 851 
Q 2662 922 2758 1037 
Q 2854 1152 2902 1302 
Q 2950 1453 2950 1606 
z
" transform="scale(0.015625)"/>
      <path id="AvenirNext-Bold-78" d="M 2586 0 
L 1901 979 
L 1197 0 
L -19 0 
L 1254 1670 
L 102 3187 
L 1325 3187 
L 1920 2336 
L 2522 3187 
L 3706 3187 
L 2560 1670 
L 3821 0 
L 2586 0 
z
" transform="scale(0.015625)"/>
      <path id="AvenirNext-Bold-4c" d="M 467 0 
L 467 4531 
L 1568 4531 
L 1568 954 
L 3322 954 
L 3322 0 
L 467 0 
z
" transform="scale(0.015625)"/>
      <path id="AvenirNext-Bold-49" d="M 467 0 
L 467 4531 
L 1568 4531 
L 1568 0 
L 467 0 
z
" transform="scale(0.015625)"/>
      <path id="AvenirNext-Bold-50" d="M 3904 3136 
Q 3904 2739 3757 2467 
Q 3610 2195 3360 2028 
Q 3110 1862 2784 1785 
Q 2458 1709 2106 1709 
L 1562 1709 
L 1562 0 
L 467 0 
L 467 4531 
L 2131 4531 
Q 2502 4531 2825 4457 
Q 3149 4384 3389 4221 
Q 3629 4058 3766 3792 
Q 3904 3526 3904 3136 
z
M 2810 3130 
Q 2810 3290 2746 3392 
Q 2682 3494 2573 3552 
Q 2464 3610 2326 3629 
Q 2189 3648 2042 3648 
L 1562 3648 
L 1562 2579 
L 2022 2579 
Q 2176 2579 2317 2604 
Q 2458 2630 2570 2694 
Q 2682 2758 2746 2864 
Q 2810 2970 2810 3130 
z
" transform="scale(0.015625)"/>
      <path id="AvenirNext-Bold-73" d="M 2285 2246 
Q 2157 2368 1984 2451 
Q 1811 2534 1619 2534 
Q 1472 2534 1347 2476 
Q 1222 2419 1222 2278 
Q 1222 2144 1360 2086 
Q 1498 2029 1805 1958 
Q 1984 1920 2166 1849 
Q 2349 1779 2496 1664 
Q 2643 1549 2732 1382 
Q 2822 1216 2822 986 
Q 2822 685 2700 477 
Q 2579 269 2384 141 
Q 2189 13 1945 -44 
Q 1702 -102 1459 -102 
Q 1069 -102 694 22 
Q 320 147 70 390 
L 659 1011 
Q 800 858 1005 755 
Q 1210 653 1440 653 
Q 1568 653 1693 713 
Q 1818 774 1818 928 
Q 1818 1075 1664 1145 
Q 1510 1216 1184 1293 
Q 1018 1331 851 1395 
Q 685 1459 553 1568 
Q 422 1677 339 1837 
Q 256 1997 256 2221 
Q 256 2509 377 2710 
Q 499 2912 691 3040 
Q 883 3168 1116 3229 
Q 1350 3290 1581 3290 
Q 1939 3290 2281 3178 
Q 2624 3066 2861 2842 
L 2285 2246 
z
" transform="scale(0.015625)"/>
      <path id="AvenirNext-Bold-6e" d="M 2502 0 
L 2502 1741 
Q 2502 1875 2480 1996 
Q 2458 2118 2406 2211 
Q 2355 2304 2262 2358 
Q 2170 2413 2029 2413 
Q 1888 2413 1782 2358 
Q 1677 2304 1606 2208 
Q 1536 2112 1501 1987 
Q 1466 1862 1466 1728 
L 1466 0 
L 410 0 
L 410 3187 
L 1427 3187 
L 1427 2746 
L 1440 2746 
Q 1498 2848 1590 2947 
Q 1683 3046 1808 3116 
Q 1933 3187 2080 3232 
Q 2227 3277 2394 3277 
Q 2714 3277 2938 3161 
Q 3162 3046 3299 2864 
Q 3437 2682 3497 2445 
Q 3558 2208 3558 1971 
L 3558 0 
L 2502 0 
z
" transform="scale(0.015625)"/>
     </defs>
     <use xlink:href="#AvenirNext-Bold-43"/>
     <use xlink:href="#AvenirNext-Bold-75" x="69.599991"/>
     <use xlink:href="#AvenirNext-Bold-74" x="130.999985"/>
     <use xlink:href="#AvenirNext-Bold-62" x="168.199982"/>
     <use xlink:href="#AvenirNext-Bold-6f" x="234.099976"/>
     <use xlink:href="#AvenirNext-Bold-78" x="295.049973"/>
     <use xlink:href="#AvenirNext-Bold-20" x="354.449966"/>
     <use xlink:href="#AvenirNext-Bold-43" x="379.449951"/>
     <use xlink:href="#AvenirNext-Bold-4c" x="449.049942"/>
     <use xlink:href="#AvenirNext-Bold-49" x="501.649933"/>
     <use xlink:href="#AvenirNext-Bold-20" x="533.449921"/>
     <use xlink:href="#AvenirNext-Bold-43" x="558.449905"/>
     <use xlink:href="#AvenirNext-Bold-6f" x="628.049896"/>
     <use xlink:href="#AvenirNext-Bold-76" x="691.249893"/>
     <use xlink:href="#AvenirNext-Bold-65" x="747.94989"/>
     <use xlink:href="#AvenirNext-Bold-72" x="807.549881"/>
     <use xlink:href="#AvenirNext-Bold-61" x="845.524872"/>
     <use xlink:href="#AvenirNext-Bold-67" x="902.124863"/>
     <use xlink:href="#AvenirNext-Bold-65" x="967.92485"/>
     <use xlink:href="#AvenirNext-Bold-20" x="1027.524841"/>
     <use xlink:href="#AvenirNext-Bold-50" x="1052.524826"/>
     <use xlink:href="#AvenirNext-Bold-72" x="1112.274811"/>
     <use xlink:href="#AvenirNext-Bold-6f" x="1150.124802"/>
     <use xlink:href="#AvenirNext-Bold-67" x="1213.324799"/>
     <use xlink:href="#AvenirNext-Bold-72" x="1279.124786"/>
     <use xlink:href="#AvenirNext-Bold-65" x="1316.974777"/>
     <use xlink:href="#AvenirNext-Bold-73" x="1376.574768"/>
     <use xlink:href="#AvenirNext-Bold-73" x="1423.774765"/>
     <use xlink:href="#AvenirNext-Bold-69" x="1470.974762"/>
     <use xlink:href="#AvenirNext-Bold-6f" x="1500.574753"/>
     <use xlink:href="#AvenirNext-Bold-6e" x="1563.77475"/>
    </g>
   </g>
   <g id="legend_1">
    <g id="line2d_32">
     <path d="M 714.54125 62.2875 
L 722.54125 62.2875 
L 730.54125 62.2875 
" style="fill: none; stroke: #0066aa; stroke-width: 0.5; stroke-linecap: square"/>
    </g>
    <g id="text_18">
     <!-- Function -->
     <g style="fill: #ffffff" transform="translate(736.94125 65.0875) scale(0.08 -0.08)">
      <defs>
       <path id="AvenirNext-Bold-46" d="M 1549 3597 
L 1549 2662 
L 3302 2662 
L 3302 1760 
L 1549 1760 
L 1549 0 
L 467 0 
L 467 4531 
L 3450 4531 
L 3450 3597 
L 1549 3597 
z
" transform="scale(0.015625)"/>
       <path id="AvenirNext-Bold-63" d="M 2605 2157 
Q 2515 2272 2361 2342 
Q 2208 2413 2048 2413 
Q 1882 2413 1747 2345 
Q 1613 2278 1517 2166 
Q 1421 2054 1366 1907 
Q 1312 1760 1312 1594 
Q 1312 1427 1363 1280 
Q 1414 1133 1513 1021 
Q 1613 909 1750 845 
Q 1888 781 2061 781 
Q 2221 781 2377 841 
Q 2534 902 2630 1018 
L 3213 307 
Q 3014 115 2700 6 
Q 2387 -102 2035 -102 
Q 1658 -102 1331 13 
Q 1005 128 765 349 
Q 525 570 387 883 
Q 250 1197 250 1594 
Q 250 1984 387 2297 
Q 525 2611 765 2832 
Q 1005 3053 1331 3171 
Q 1658 3290 2029 3290 
Q 2202 3290 2371 3258 
Q 2541 3226 2697 3171 
Q 2854 3117 2985 3037 
Q 3117 2957 3213 2861 
L 2605 2157 
z
" transform="scale(0.015625)"/>
      </defs>
      <use xlink:href="#AvenirNext-Bold-46"/>
      <use xlink:href="#AvenirNext-Bold-75" x="53.349991"/>
      <use xlink:href="#AvenirNext-Bold-6e" x="114.749985"/>
      <use xlink:href="#AvenirNext-Bold-63" x="176.349976"/>
      <use xlink:href="#AvenirNext-Bold-74" x="226.649963"/>
      <use xlink:href="#AvenirNext-Bold-69" x="263.84996"/>
      <use xlink:href="#AvenirNext-Bold-6f" x="293.449951"/>
      <use xlink:href="#AvenirNext-Bold-6e" x="356.649948"/>
     </g>
    </g>
    <g id="line2d_33">
     <path d="M 714.54125 74.255 
L 722.54125 74.255 
L 730.54125 74.255 
" style="fill: none; stroke: #ff66aa; stroke-width: 0.5; stroke-linecap: square"/>
    </g>
    <g id="text_19">
     <!-- Line -->
     <g style="fill: #ffffff" transform="translate(736.94125 77.055) scale(0.08 -0.08)">
      <use xlink:href="#AvenirNext-Bold-4c"/>
      <use xlink:href="#AvenirNext-Bold-69" x="52.599991"/>
      <use xlink:href="#AvenirNext-Bold-6e" x="82.199982"/>
      <use xlink:href="#AvenirNext-Bold-65" x="143.799973"/>
     </g>
    </g>
    <g id="line2d_34">
     <path d="M 714.54125 86.2225 
L 722.54125 86.2225 
L 730.54125 86.2225 
" style="fill: none; stroke: #6600aa; stroke-width: 0.5; stroke-linecap: square"/>
    </g>
    <g id="text_20">
     <!-- Region -->
     <g style="fill: #ffffff" transform="translate(736.94125 89.0225) scale(0.08 -0.08)">
      <defs>
       <path id="AvenirNext-Bold-52" d="M 2893 0 
L 1914 1798 
L 1542 1798 
L 1542 0 
L 467 0 
L 467 4531 
L 2195 4531 
Q 2522 4531 2832 4464 
Q 3142 4397 3388 4237 
Q 3635 4077 3782 3814 
Q 3930 3552 3930 3162 
Q 3930 2701 3680 2387 
Q 3430 2074 2989 1939 
L 4173 0 
L 2893 0 
z
M 2848 3142 
Q 2848 3302 2781 3401 
Q 2714 3501 2608 3555 
Q 2502 3610 2371 3629 
Q 2240 3648 2118 3648 
L 1536 3648 
L 1536 2592 
L 2054 2592 
Q 2189 2592 2329 2614 
Q 2470 2637 2585 2694 
Q 2701 2752 2774 2861 
Q 2848 2970 2848 3142 
z
" transform="scale(0.015625)"/>
      </defs>
      <use xlink:href="#AvenirNext-Bold-52"/>
      <use xlink:href="#AvenirNext-Bold-65" x="66.299988"/>
      <use xlink:href="#AvenirNext-Bold-67" x="125.899979"/>
      <use xlink:href="#AvenirNext-Bold-69" x="191.699966"/>
      <use xlink:href="#AvenirNext-Bold-6f" x="221.299957"/>
      <use xlink:href="#AvenirNext-Bold-6e" x="284.499954"/>
     </g>
    </g>
   </g>
  </g>
 </g>
 <defs>
  <clipPath id="p3886e187df">
   <rect x="108" y="51.84" width="669.6" height="332.64"/>
  </clipPath>
 </defs>
</svg>
