<?xml version="1.0" encoding="UTF-8" standalone="no"?>
<!-- Generator: Adobe Illustrator 19.0.0, SVG Export Plug-In . SVG Version: 6.00 Build 0)  -->

<svg
   xmlns:dc="http://purl.org/dc/elements/1.1/"
   xmlns:cc="http://creativecommons.org/ns#"
   xmlns:rdf="http://www.w3.org/1999/02/22-rdf-syntax-ns#"
   xmlns:svg="http://www.w3.org/2000/svg"
   xmlns="http://www.w3.org/2000/svg"
   xmlns:sodipodi="http://sodipodi.sourceforge.net/DTD/sodipodi-0.dtd"
   xmlns:inkscape="http://www.inkscape.org/namespaces/inkscape"
   version="1.1"
   id="Layer_1"
   x="0px"
   y="0px"
   viewBox="0 0 504.149 504.149"
   style="enable-background:new 0 0 504.149 504.149;"
   xml:space="preserve"
   inkscape:version="0.91 r13725"
   sodipodi:docname="cutbox-status.svg"
   inkscape:export-filename="/Users/jason/workspace/CutBox/CutBox/CutBox/Assets.xcassets/statusIcon.imageset/cutbox-status.png"
   inkscape:export-xdpi="3.9274104"
   inkscape:export-ydpi="3.9274104"><metadata
     id="metadata49"><rdf:RDF><cc:Work
         rdf:about=""><dc:format>image/svg+xml</dc:format><dc:type
           rdf:resource="http://purl.org/dc/dcmitype/StillImage" /><dc:title /></cc:Work></rdf:RDF></metadata><defs
     id="defs47" /><sodipodi:namedview
     pagecolor="#ffffff"
     bordercolor="#666666"
     borderopacity="1"
     objecttolerance="10"
     gridtolerance="10"
     guidetolerance="10"
     inkscape:pageopacity="0"
     inkscape:pageshadow="2"
     inkscape:window-width="1680"
     inkscape:window-height="1002"
     id="namedview45"
     showgrid="false"
     showguides="true"
     inkscape:guide-bbox="true"
     inkscape:zoom="0.38625919"
     inkscape:cx="148.66942"
     inkscape:cy="271.97962"
     inkscape:window-x="-3"
     inkscape:window-y="22"
     inkscape:window-maximized="0"
     inkscape:current-layer="Layer_1"><sodipodi:guide
       position="-460.00001,165"
       orientation="0,1"
       id="guide4186" /><sodipodi:guide
       position="-477.00001,311.00001"
       orientation="1,0"
       id="guide4188" /></sodipodi:namedview><path
     style="fill:#000000;fill-opacity:0.46130952"
     d="M 252.125,8.1899074 253.09961,242.2153 462.6875,129.76217 Z"
     id="path4167"
     inkscape:connector-curvature="0"
     sodipodi:nodetypes="cccc" /><path
     style="fill:#000000;fill-opacity:0.19940479"
     d="M 251.48723,8.2208624 40.873956,129.82048 252.51067,242.27361 251.53606,8.2482034 l -0.0488,-0.02734 z"
     id="path4165"
     inkscape:connector-curvature="0"
     sodipodi:nodetypes="cccccc" /><path
     style="fill:#000000"
     d="m 462.6875,131.20312 0,243.06446 -210.32031,121.42969 9.33984,-240.55079 z"
     id="path4898"
     inkscape:connector-curvature="0"
     sodipodi:nodetypes="ccccc" /><path
     style="fill:#000000;fill-opacity:0.71428576"
     d="m 41.462891,131.20312 0,243.06446 209.970699,121.22656 -9.13822,-240.80154 z"
     id="path5770"
     inkscape:connector-curvature="0"
     sodipodi:nodetypes="ccccc" /><g
     id="g15"
     transform="matrix(-1.1609507,0,0,1.1609507,544.72195,-89.426047)" /><g
     id="g17"
     transform="matrix(-1.1609507,0,0,1.1609507,544.72195,-89.426047)" /><g
     id="g19"
     transform="matrix(-1.1609507,0,0,1.1609507,544.72195,-89.426047)" /><g
     id="g21"
     transform="matrix(-1.1609507,0,0,1.1609507,544.72195,-89.426047)" /><g
     id="g23"
     transform="matrix(-1.1609507,0,0,1.1609507,544.72195,-89.426047)" /><g
     id="g25"
     transform="matrix(-1.1609507,0,0,1.1609507,544.72195,-89.426047)" /><g
     id="g27"
     transform="matrix(-1.1609507,0,0,1.1609507,544.72195,-89.426047)" /><g
     id="g29"
     transform="matrix(-1.1609507,0,0,1.1609507,544.72195,-89.426047)" /><g
     id="g31"
     transform="matrix(-1.1609507,0,0,1.1609507,544.72195,-89.426047)" /><g
     id="g33"
     transform="matrix(-1.1609507,0,0,1.1609507,544.72195,-89.426047)" /><g
     id="g35"
     transform="matrix(-1.1609507,0,0,1.1609507,544.72195,-89.426047)" /><g
     id="g37"
     transform="matrix(-1.1609507,0,0,1.1609507,544.72195,-89.426047)" /><g
     id="g39"
     transform="matrix(-1.1609507,0,0,1.1609507,544.72195,-89.426047)" /><g
     id="g41"
     transform="matrix(-1.1609507,0,0,1.1609507,544.72195,-89.426047)" /><g
     id="g43"
     transform="matrix(-1.1609507,0,0,1.1609507,544.72195,-89.426047)" /><path
     inkscape:connector-curvature="0"
     style="color:#000000;font-style:normal;font-variant:normal;font-weight:normal;font-stretch:normal;font-size:medium;line-height:normal;font-family:sans-serif;text-indent:0;text-align:start;text-decoration:none;text-decoration-line:none;text-decoration-style:solid;text-decoration-color:#000000;letter-spacing:normal;word-spacing:normal;text-transform:none;direction:ltr;block-progression:tb;writing-mode:lr-tb;baseline-shift:baseline;text-anchor:start;white-space:normal;clip-rule:nonzero;display:inline;overflow:visible;visibility:visible;opacity:1;isolation:auto;mix-blend-mode:normal;color-interpolation:sRGB;color-interpolation-filters:linearRGB;solid-color:#000000;solid-opacity:1;fill:#ffffff;fill-opacity:1;fill-rule:nonzero;stroke:none;stroke-width:30;stroke-linecap:round;stroke-linejoin:round;stroke-miterlimit:4;stroke-dasharray:none;stroke-dashoffset:0;stroke-opacity:1;color-rendering:auto;image-rendering:auto;shape-rendering:auto;text-rendering:auto;enable-background:accumulate"
     d="m 264.20918,97.19691 c -37.62324,-0.33875 -75.37638,13.62529 -104.23998,41.9732 -57.72716,56.69564 -58.56739,149.9762 -1.87167,207.70333 56.69574,57.72723 149.97622,58.56941 207.7034,1.87366 0.55556,-0.54561 1.0957,-1.10224 1.64071,-1.65458 l -24.19829,-24.63835 c -0.54183,0.55407 -1.08513,1.10703 -1.6407,1.65264 -44.41093,43.61737 -115.2494,42.97735 -158.86679,-1.43356 -43.61739,-44.41102 -42.97731,-115.24548 1.43362,-158.86285 43.62947,-42.84992 112.76053,-42.98605 156.53518,-0.87011 l -23.3182,22.90008 69.33734,0.62513 0.62521,-69.33532 -21.99807,21.60381 C 337.29501,111.40048 300.81426,97.5265 264.20918,97.19691 Z"
     id="path4950" /></svg>