<?xml version="1.0" encoding="UTF-8" standalone="no"?>
<!-- Generator: Adobe Illustrator 19.0.0, SVG Export Plug-In . SVG Version: 6.00 Build 0)  -->

<svg
   xmlns:dc="http://purl.org/dc/elements/1.1/"
   xmlns:cc="http://creativecommons.org/ns#"
   xmlns:rdf="http://www.w3.org/1999/02/22-rdf-syntax-ns#"
   xmlns:svg="http://www.w3.org/2000/svg"
   xmlns="http://www.w3.org/2000/svg"
   xmlns:sodipodi="http://sodipodi.sourceforge.net/DTD/sodipodi-0.dtd"
   xmlns:inkscape="http://www.inkscape.org/namespaces/inkscape"
   version="1.1"
   id="Layer_1"
   x="0px"
   y="0px"
   viewBox="0 0 504.149 504.149"
   style="enable-background:new 0 0 504.149 504.149;"
   xml:space="preserve"
   inkscape:version="0.91 r13725"
   sodipodi:docname="cutbox-status.svg"
   inkscape:export-filename="/Users/jason/workspace/CutBox/CutBox/CutBox/Assets.xcassets/statusIcon.imageset/cutbox-status.png"
   inkscape:export-xdpi="3.9274104"
   inkscape:export-ydpi="3.9274104"><metadata
     id="metadata49"><rdf:RDF><cc:Work
         rdf:about=""><dc:format>image/svg+xml</dc:format><dc:type
           rdf:resource="http://purl.org/dc/dcmitype/StillImage" /><dc:title /></cc:Work></rdf:RDF></metadata><defs
     id="defs47" /><sodipodi:namedview
     pagecolor="#ffffff"
     bordercolor="#666666"
     borderopacity="1"
     objecttolerance="10"
     gridtolerance="10"
     guidetolerance="10"
     inkscape:pageopacity="0"
     inkscape:pageshadow="2"
     inkscape:window-width="1680"
     inkscape:window-height="1002"
     id="namedview45"
     showgrid="false"
     showguides="true"
     inkscape:guide-bbox="true"
     inkscape:zoom="0.38625919"
     inkscape:cx="148.66942"
     inkscape:cy="271.97962"
     inkscape:window-x="-3"
     inkscape:window-y="22"
     inkscape:window-maximized="0"
     inkscape:current-layer="Layer_1"><sodipodi:guide
       position="-460.00001,165"
       orientation="0,1"
       id="guide4186" /><sodipodi:guide
       position="-477.00001,311.00001"
       orientation="1,0"
       id="guide4188" /></sodipodi:namedview><path
     style="fill:#000000;fill-opacity:0.46130952"
     d="M 252.125 8.1894531 L 252.49805 97.5625 C 256.39635 97.289317 260.30339 97.162101 264.20898 97.197266 C 300.81406 97.526856 337.29563 111.40087 365.35156 138.73438 L 387.34961 117.13086 L 386.86914 170.44141 L 462.6875 129.76172 L 252.125 8.1894531 z M 262.38281 131.51367 C 259.13169 131.52817 255.88153 131.68958 252.64062 131.98633 L 253.09961 242.21484 L 357.49609 186.20117 L 317.38672 185.83984 L 340.70508 162.93945 C 318.81775 141.88148 290.59109 131.38789 262.38281 131.51367 z "
     id="path4167" /><path
     style="fill:#000000;fill-opacity:0.19940479"
     d="M 251.48633 8.2207031 L 40.873047 129.82031 L 131.63867 178.04883 C 138.68681 163.96565 148.12941 150.79771 159.96875 139.16992 C 185.68489 113.91324 218.45794 100.08565 251.9082 97.607422 L 251.53516 8.2480469 L 251.48633 8.2207031 z M 252.05078 132.03906 C 227.37814 134.42948 203.31789 145.00471 184.16992 163.81055 C 174.89212 172.92257 167.53094 183.22404 162.07812 194.22266 L 252.50977 242.27344 L 252.05078 132.03906 z "
     id="path4165" /><path
     style="fill:#000000"
     d="M 462.6875 131.20312 L 386.80078 178.00195 L 386.72461 186.46484 L 373.27344 186.34375 L 261.70703 255.14648 L 257.78125 356.28125 C 287.83253 357.64758 318.34332 346.95199 341.60352 324.10742 C 342.15909 323.56181 342.70231 323.00915 343.24414 322.45508 L 367.44141 347.0918 C 366.8964 347.64414 366.35634 348.20244 365.80078 348.74805 C 335.62921 378.38053 295.74555 392.28395 256.44922 390.57422 L 252.36719 495.69727 L 462.6875 374.26758 L 462.6875 131.20312 z "
     id="path4898" /><path
     style="fill:#000000;fill-opacity:0.71428576"
     d="M 41.462891 131.20312 L 41.462891 374.26758 L 251.43359 495.49414 L 247.42773 389.91602 C 214.67637 386.48215 182.8897 372.11614 158.09766 346.87305 C 114.84934 302.83795 105.08744 238.11761 128.50977 184.72656 L 41.462891 131.20312 z M 158.19141 202.97852 C 142.49634 242.92375 150.61196 289.96494 182.73633 322.67383 C 200.54064 340.80205 222.88072 351.63183 246.10742 355.14062 L 242.29492 254.69336 L 158.19141 202.97852 z "
     id="path5770" /><g
     id="g15"
     transform="matrix(-1.1609507,0,0,1.1609507,544.72195,-89.426047)" /><g
     id="g17"
     transform="matrix(-1.1609507,0,0,1.1609507,544.72195,-89.426047)" /><g
     id="g19"
     transform="matrix(-1.1609507,0,0,1.1609507,544.72195,-89.426047)" /><g
     id="g21"
     transform="matrix(-1.1609507,0,0,1.1609507,544.72195,-89.426047)" /><g
     id="g23"
     transform="matrix(-1.1609507,0,0,1.1609507,544.72195,-89.426047)" /><g
     id="g25"
     transform="matrix(-1.1609507,0,0,1.1609507,544.72195,-89.426047)" /><g
     id="g27"
     transform="matrix(-1.1609507,0,0,1.1609507,544.72195,-89.426047)" /><g
     id="g29"
     transform="matrix(-1.1609507,0,0,1.1609507,544.72195,-89.426047)" /><g
     id="g31"
     transform="matrix(-1.1609507,0,0,1.1609507,544.72195,-89.426047)" /><g
     id="g33"
     transform="matrix(-1.1609507,0,0,1.1609507,544.72195,-89.426047)" /><g
     id="g35"
     transform="matrix(-1.1609507,0,0,1.1609507,544.72195,-89.426047)" /><g
     id="g37"
     transform="matrix(-1.1609507,0,0,1.1609507,544.72195,-89.426047)" /><g
     id="g39"
     transform="matrix(-1.1609507,0,0,1.1609507,544.72195,-89.426047)" /><g
     id="g41"
     transform="matrix(-1.1609507,0,0,1.1609507,544.72195,-89.426047)" /><g
     id="g43"
     transform="matrix(-1.1609507,0,0,1.1609507,544.72195,-89.426047)" /><path
     id="path5815"
     d="m -367.491,-184.99702 c -37.62324,-0.33875 -75.37638,13.62529 -104.23998,41.9732 -57.72716,56.695637 -58.56739,149.9761974 -1.87167,207.703327 56.69574,57.727233 149.97622,58.569413 207.7034,1.87366 0.55556,-0.54561 1.0957,-1.10224 1.64071,-1.65458 l -24.19829,-24.63835 c -0.54183,0.55407 -1.08513,1.10703 -1.6407,1.65264 -44.41093,43.61737 -115.2494,42.97735 -158.86679,-1.43356 -43.61739,-44.4110196 -42.97731,-115.24548 1.43362,-158.862847 43.62947,-42.84992 112.76053,-42.98605 156.53518,-0.87011 l -23.3182,22.900077 69.33734,0.62513 0.62521,-69.335317 -21.99807,21.60381 c -28.05593,-27.33351 -64.53668,-41.20749 -101.14176,-41.53708 z"
     style="color:#000000;font-style:normal;font-variant:normal;font-weight:normal;font-stretch:normal;font-size:medium;line-height:normal;font-family:sans-serif;text-indent:0;text-align:start;text-decoration:none;text-decoration-line:none;text-decoration-style:solid;text-decoration-color:#000000;letter-spacing:normal;word-spacing:normal;text-transform:none;direction:ltr;block-progression:tb;writing-mode:lr-tb;baseline-shift:baseline;text-anchor:start;white-space:normal;clip-rule:nonzero;display:inline;overflow:visible;visibility:visible;opacity:1;isolation:auto;mix-blend-mode:normal;color-interpolation:sRGB;color-interpolation-filters:linearRGB;solid-color:#000000;solid-opacity:1;fill:#000000;fill-opacity:1;fill-rule:nonzero;stroke:none;stroke-width:30;stroke-linecap:round;stroke-linejoin:round;stroke-miterlimit:4;stroke-dasharray:none;stroke-dashoffset:0;stroke-opacity:1;color-rendering:auto;image-rendering:auto;shape-rendering:auto;text-rendering:auto;enable-background:accumulate"
     inkscape:connector-curvature="0" /></svg>