<?xml version="1.0" encoding="UTF-8" standalone="no"?>
<!-- Generator: Adobe Illustrator 19.0.0, SVG Export Plug-In . SVG Version: 6.00 Build 0)  -->

<svg
   xmlns:dc="http://purl.org/dc/elements/1.1/"
   xmlns:cc="http://creativecommons.org/ns#"
   xmlns:rdf="http://www.w3.org/1999/02/22-rdf-syntax-ns#"
   xmlns:svg="http://www.w3.org/2000/svg"
   xmlns="http://www.w3.org/2000/svg"
   xmlns:sodipodi="http://sodipodi.sourceforge.net/DTD/sodipodi-0.dtd"
   xmlns:inkscape="http://www.inkscape.org/namespaces/inkscape"
   version="1.1"
   id="Layer_1"
   x="0px"
   y="0px"
   viewBox="0 0 504.149 504.149"
   style="enable-background:new 0 0 504.149 504.149;"
   xml:space="preserve"
   inkscape:version="0.91 r13725"
   sodipodi:docname="cutbox-status.svg"
   inkscape:export-filename="/Users/jason/workspace/CutBox/CutBox/cutbox-status-22px.png"
   inkscape:export-xdpi="3.9274104"
   inkscape:export-ydpi="3.9274104"><metadata
     id="metadata49"><rdf:RDF><cc:Work
         rdf:about=""><dc:format>image/svg+xml</dc:format><dc:type
           rdf:resource="http://purl.org/dc/dcmitype/StillImage" /><dc:title /></cc:Work></rdf:RDF></metadata><defs
     id="defs47" /><sodipodi:namedview
     pagecolor="#ffffff"
     bordercolor="#666666"
     borderopacity="1"
     objecttolerance="10"
     gridtolerance="10"
     guidetolerance="10"
     inkscape:pageopacity="0"
     inkscape:pageshadow="2"
     inkscape:window-width="1680"
     inkscape:window-height="1002"
     id="namedview45"
     showgrid="false"
     showguides="true"
     inkscape:guide-bbox="true"
     inkscape:zoom="0.5"
     inkscape:cx="223.42492"
     inkscape:cy="504.98378"
     inkscape:window-x="-3"
     inkscape:window-y="0"
     inkscape:window-maximized="0"
     inkscape:current-layer="Layer_1"><sodipodi:guide
       position="-460.00001,165"
       orientation="0,1"
       id="guide4186" /><sodipodi:guide
       position="-477.00001,311.00001"
       orientation="1,0"
       id="guide4188" /></sodipodi:namedview><path
     style="fill:#000000"
     d="M 252.07422 9.4570312 L 41.462891 131.05664 L 121.91992 174.41992 C 147.7944 127.5895 199.26389 94.795292 253.35938 95.164062 C 254.91991 95.132613 256.47958 95.127014 258.03711 95.146484 C 306.32066 95.75016 352.87494 120.67525 379.89648 160.81836 C 382.33763 164.25097 384.59568 167.79905 386.71094 171.42578 L 462.6875 131.05664 L 252.07422 9.4570312 z M 254.83789 133.25781 C 235.34228 133.35667 215.86612 138.29103 198.94922 148.05859 C 180.2099 158.24141 165.45776 174.04936 155.56836 192.55664 L 250.57422 243.76172 L 353.11523 189.27734 C 345.86425 176.81576 336.29365 165.69398 324.74023 156.86133 C 305.00213 140.99697 279.90367 133.13071 254.83789 133.25781 z "
     id="path4900" /><path
     style="fill:#000000"
     d="M 41.462891 131.20312 L 41.462891 374.26758 L 251.7832 495.69727 L 247.94727 396.88672 C 237.7264 393.43853 233.2641 379.19785 238.64844 369.65234 C 240.36527 365.7337 243.21481 363.49294 246.59766 362.1543 L 242.44336 255.14648 L 152.1543 199.4668 C 149.54339 205.21729 147.37774 211.17789 145.69141 217.27344 C 149.87067 213.71132 154.55776 210.98272 160.35547 210.16016 C 172.83026 209.6356 183.42855 223.5329 179.04492 235.38281 C 163.21365 257.47296 140.94702 274.19582 122.86133 294.43359 C 110.37145 281.94326 97.882383 269.45328 85.392578 256.96289 C 79.193085 248.62095 66.946453 243.59507 65.888672 232.07031 C 63.615128 219.25084 76.737152 206.58179 89.392578 211.0293 C 95.909188 213.44709 100.96985 217.88282 105.65039 222.83008 C 105.88687 221.40086 106.12812 219.97872 106.36328 218.58203 C 108.6743 204.79598 113.14422 191.57634 119.36719 179.24609 L 41.462891 131.20312 z "
     id="path4898" /><path
     style="fill:#000000"
     d="M 462.6875 131.20312 L 389.38672 176.2207 C 412.2742 219.18648 413.06807 273.40184 389.62305 316.42188 C 364.70224 365.34721 311.14937 399.31099 255.91016 397.72852 L 252.7168 495.49414 L 462.6875 374.26758 L 462.6875 131.20312 z M 356.83398 196.21484 L 260.56055 255.33984 L 257.13672 360.16406 C 260.23503 359.93875 263.32567 359.84061 266.10938 359.49219 C 310.11262 356.50596 349.5087 324.0221 363.05078 282.23047 C 373.00681 254.03123 369.92337 222.66946 356.83398 196.21484 z "
     id="polygon3" /><g
     id="g15"
     transform="matrix(1.1609507,0,0,1.1609507,-40.57156,-89.426047)" /><g
     id="g17"
     transform="matrix(1.1609507,0,0,1.1609507,-40.57156,-89.426047)" /><g
     id="g19"
     transform="matrix(1.1609507,0,0,1.1609507,-40.57156,-89.426047)" /><g
     id="g21"
     transform="matrix(1.1609507,0,0,1.1609507,-40.57156,-89.426047)" /><g
     id="g23"
     transform="matrix(1.1609507,0,0,1.1609507,-40.57156,-89.426047)" /><g
     id="g25"
     transform="matrix(1.1609507,0,0,1.1609507,-40.57156,-89.426047)" /><g
     id="g27"
     transform="matrix(1.1609507,0,0,1.1609507,-40.57156,-89.426047)" /><g
     id="g29"
     transform="matrix(1.1609507,0,0,1.1609507,-40.57156,-89.426047)" /><g
     id="g31"
     transform="matrix(1.1609507,0,0,1.1609507,-40.57156,-89.426047)" /><g
     id="g33"
     transform="matrix(1.1609507,0,0,1.1609507,-40.57156,-89.426047)" /><g
     id="g35"
     transform="matrix(1.1609507,0,0,1.1609507,-40.57156,-89.426047)" /><g
     id="g37"
     transform="matrix(1.1609507,0,0,1.1609507,-40.57156,-89.426047)" /><g
     id="g39"
     transform="matrix(1.1609507,0,0,1.1609507,-40.57156,-89.426047)" /><g
     id="g41"
     transform="matrix(1.1609507,0,0,1.1609507,-40.57156,-89.426047)" /><g
     id="g43"
     transform="matrix(1.1609507,0,0,1.1609507,-40.57156,-89.426047)" /></svg>