<?xml version="1.0" encoding="UTF-8" standalone="no"?>
<!-- Generator: Adobe Illustrator 19.0.0, SVG Export Plug-In . SVG Version: 6.00 Build 0)  -->

<svg
   xmlns:dc="http://purl.org/dc/elements/1.1/"
   xmlns:cc="http://creativecommons.org/ns#"
   xmlns:rdf="http://www.w3.org/1999/02/22-rdf-syntax-ns#"
   xmlns:svg="http://www.w3.org/2000/svg"
   xmlns="http://www.w3.org/2000/svg"
   xmlns:xlink="http://www.w3.org/1999/xlink"
   xmlns:sodipodi="http://sodipodi.sourceforge.net/DTD/sodipodi-0.dtd"
   xmlns:inkscape="http://www.inkscape.org/namespaces/inkscape"
   version="1.1"
   id="Layer_1"
   x="0px"
   y="0px"
   viewBox="0 0 504.149 504.149"
   style="enable-background:new 0 0 504.149 504.149;"
   xml:space="preserve"
   inkscape:version="0.91 r13725"
   sodipodi:docname="cutbox-blue.svg"
   inkscape:export-filename="/Users/jason/workspace/CutBox/CutBox/cutbox-icon.png"
   inkscape:export-xdpi="365.60999"
   inkscape:export-ydpi="365.60999"><metadata
     id="metadata49"><rdf:RDF><cc:Work
         rdf:about=""><dc:format>image/svg+xml</dc:format><dc:type
           rdf:resource="http://purl.org/dc/dcmitype/StillImage" /><dc:title></dc:title></cc:Work></rdf:RDF></metadata><defs
     id="defs47"><linearGradient
       inkscape:collect="always"
       id="linearGradient5193"><stop
         style="stop-color:#ffffff;stop-opacity:1"
         offset="0"
         id="stop5195" /><stop
         style="stop-color:#22424f;stop-opacity:1"
         offset="1"
         id="stop5197" /></linearGradient><linearGradient
       inkscape:collect="always"
       id="linearGradient5180"><stop
         style="stop-color:#ffffff;stop-opacity:1;"
         offset="0"
         id="stop5182" /><stop
         style="stop-color:#ffffff;stop-opacity:0;"
         offset="1"
         id="stop5184" /></linearGradient><inkscape:perspective
       sodipodi:type="inkscape:persp3d"
       inkscape:vp_x="0 : 252.0745 : 1"
       inkscape:vp_y="0 : 1000 : 0"
       inkscape:vp_z="504.149 : 252.0745 : 1"
       inkscape:persp3d-origin="252.0745 : 168.04967 : 1"
       id="perspective4284" /><mask
       maskUnits="userSpaceOnUse"
       id="mask4372"><path
         style="opacity:1;fill:#ffffff;fill-opacity:1;stroke:none;stroke-width:19.60000038;stroke-linecap:round;stroke-linejoin:round;stroke-miterlimit:4;stroke-dasharray:none;stroke-opacity:1"
         d="M 253.71484,3.810547 39.523438,127.47461 l 0,247.32812 214.191402,123.66407 214.19336,-123.66407 0,-247.32812 L 253.71484,3.810547 Z m 5.10938,78.589844 c 89.63648,0 162.57422,72.935789 162.57422,162.572269 0,89.63646 -72.93774,162.5742 -162.57422,162.57422 a 12.665921,12.665921 0 1 1 0,-25.33008 c 75.94751,0 137.24414,-61.29665 137.24414,-137.24414 0,-75.94751 -61.29663,-137.24024 -137.24414,-137.24024 -73.50527,0 -133.28401,57.4145 -137.05274,129.96094 l 21.2168,-21.2168 a 12.665921,12.665921 0 1 1 17.91211,17.91016 l -51.98437,51.98242 -51.982426,-51.98242 a 12.665921,12.665921 0 0 1 8.824218,-21.74805 12.665921,12.665921 0 0 1 9.087891,3.83789 l 21.566406,21.56836 C 100.05549,151.60946 171.50933,82.400391 258.82422,82.400391 Z m -5.97461,39.097659 a 14.497187,14.497187 0 0 1 14.7168,14.69922 l 0,123.67187 49.88086,44.49024 a 14.497187,14.497187 0 1 1 -19.29688,21.63476 l -59.57812,-53.13672 0,-136.66015 a 14.497187,14.497187 0 0 1 14.27734,-14.69922 z"
         id="path4374"
         inkscape:connector-curvature="0" /></mask><linearGradient
       inkscape:collect="always"
       xlink:href="#linearGradient4827"
       id="linearGradient4399"
       x1="190.07547"
       y1="263.47733"
       x2="190.85603"
       y2="458.19138"
       gradientUnits="userSpaceOnUse" /><linearGradient
       id="linearGradient4827"
       inkscape:collect="always"><stop
         id="stop4829"
         offset="0"
         style="stop-color:#6c8d8b;stop-opacity:1" /><stop
         id="stop4831"
         offset="1"
         style="stop-color:#31403f;stop-opacity:1" /></linearGradient><linearGradient
       inkscape:collect="always"
       xlink:href="#linearGradient4827"
       id="linearGradient4429"
       x1="252.07401"
       y1="294.66199"
       x2="433.48801"
       y2="294.66199"
       gradientUnits="userSpaceOnUse" /><linearGradient
       inkscape:collect="always"
       xlink:href="#linearGradient4821"
       id="linearGradient4407"
       x1="231.90857"
       y1="352.74628"
       x2="233.42979"
       y2="95.662872"
       gradientUnits="userSpaceOnUse" /><linearGradient
       inkscape:collect="always"
       id="linearGradient4821"><stop
         style="stop-color:#000000;stop-opacity:1"
         offset="0"
         id="stop4823" /><stop
         style="stop-color:#445958;stop-opacity:1"
         offset="1"
         id="stop4825" /></linearGradient><linearGradient
       inkscape:collect="always"
       xlink:href="#linearGradient4821"
       id="linearGradient4421"
       x1="263.71747"
       y1="223.31761"
       x2="303.42511"
       y2="75.126625"
       gradientUnits="userSpaceOnUse" /><filter
       inkscape:collect="always"
       style="color-interpolation-filters:sRGB"
       id="filter5159"
       x="-0.11743793"
       width="1.2348759"
       y="-0.10851448"
       height="1.217029"><feGaussianBlur
         inkscape:collect="always"
         stdDeviation="13.018568"
         id="feGaussianBlur5161" /></filter><linearGradient
       inkscape:collect="always"
       xlink:href="#linearGradient5180"
       id="linearGradient5188"
       x1="109.07287"
       y1="256.9346"
       x2="390.40247"
       y2="256.9346"
       gradientUnits="userSpaceOnUse" /><linearGradient
       inkscape:collect="always"
       xlink:href="#linearGradient5193"
       id="linearGradient5190"
       gradientUnits="userSpaceOnUse"
       x1="82.6549"
       y1="182.87228"
       x2="465.6091"
       y2="294.99643"
       gradientTransform="matrix(-0.99136146,0.13115815,0.13115815,0.99136146,466.20781,-38.486142)" /></defs><sodipodi:namedview
     pagecolor="#ffffff"
     bordercolor="#666666"
     borderopacity="1"
     objecttolerance="10"
     gridtolerance="10"
     guidetolerance="10"
     inkscape:pageopacity="0"
     inkscape:pageshadow="2"
     inkscape:window-width="1680"
     inkscape:window-height="1002"
     id="namedview45"
     showgrid="false"
     showguides="true"
     inkscape:guide-bbox="true"
     inkscape:zoom="1.092506"
     inkscape:cx="93.037188"
     inkscape:cy="341.26222"
     inkscape:window-x="-3"
     inkscape:window-y="22"
     inkscape:window-maximized="0"
     inkscape:current-layer="g5001"><sodipodi:guide
       position="-460.00001,165"
       orientation="0,1"
       id="guide4186" /><sodipodi:guide
       position="-477.00001,311.00001"
       orientation="1,0"
       id="guide4188" /></sodipodi:namedview><g
     id="g4431"
     transform="translate(4.5889212,3.1792912)"><g
       id="g4461"><g
         id="g4926"
         transform="translate(-10.6243,5.1323415)"><g
           transform="matrix(1.1609507,0,0,1.1609507,-40.57156,-89.426047)"
           id="g15" /><g
           transform="matrix(1.1609507,0,0,1.1609507,-40.57156,-89.426047)"
           id="g17" /><g
           transform="matrix(1.1609507,0,0,1.1609507,-40.57156,-89.426047)"
           id="g19" /><g
           transform="matrix(1.1609507,0,0,1.1609507,-40.57156,-89.426047)"
           id="g21" /><g
           transform="matrix(1.1609507,0,0,1.1609507,-40.57156,-89.426047)"
           id="g23" /><g
           transform="matrix(1.1609507,0,0,1.1609507,-40.57156,-89.426047)"
           id="g25" /><g
           transform="matrix(1.1609507,0,0,1.1609507,-40.57156,-89.426047)"
           id="g27" /><g
           transform="matrix(1.1609507,0,0,1.1609507,-40.57156,-89.426047)"
           id="g29" /><g
           transform="matrix(1.1609507,0,0,1.1609507,-40.57156,-89.426047)"
           id="g31" /><g
           transform="matrix(1.1609507,0,0,1.1609507,-40.57156,-89.426047)"
           id="g33" /><g
           transform="matrix(1.1609507,0,0,1.1609507,-40.57156,-89.426047)"
           id="g35" /><g
           transform="matrix(1.1609507,0,0,1.1609507,-40.57156,-89.426047)"
           id="g37" /><g
           transform="matrix(1.1609507,0,0,1.1609507,-40.57156,-89.426047)"
           id="g39" /><g
           transform="matrix(1.1609507,0,0,1.1609507,-40.57156,-89.426047)"
           id="g41" /><g
           transform="matrix(1.1609507,0,0,1.1609507,-40.57156,-89.426047)"
           id="g43" /><g
           id="g4274"
           style="fill:#ffffff"
           transform="matrix(1.4791569,0,0,1.4791569,767.81648,-47.958145)" /><g
           transform="translate(-4.588935,-5.766806)"
           mask="url(#mask4372)"
           id="g4264" /><g
           mask="none"
           id="g4259"
           transform="translate(6.0353646,-8.899146)"><polygon
             transform="matrix(1.1609507,0,0,1.1609507,-40.57156,-89.426047)"
             id="polygon3"
             points="433.488,189.915 433.488,399.409 252.074,504.149 70.661,399.409 70.661,189.915 252.074,85.175 "
             style="fill:url(#linearGradient4399);fill-opacity:1" /><polyline
             transform="matrix(1.1609507,0,0,1.1609507,-40.57156,-89.426047)"
             id="polyline5"
             points="252.074,85.175 433.488,189.915 433.488,399.409 252.074,504.149 "
             style="fill:url(#linearGradient4429);fill-opacity:1" /><polygon
             transform="matrix(1.1609507,0,0,1.1609507,-40.57156,-89.426047)"
             id="polygon7"
             points="252.074,85.175 70.661,189.915 70.661,190.041 252.074,294.78 433.488,190.041 433.488,189.915 "
             style="fill:url(#linearGradient4407);fill-opacity:1" /></g><polyline
           style="fill:url(#linearGradient4421);fill-opacity:1"
           points="252.074,294.78 433.488,190.041 433.488,189.915 252.074,85.175 "
           id="polyline9"
           transform="matrix(1.1609507,0,0,1.1609507,-34.536195,-98.325196)" /></g><g
         id="g5172"><g
           style="fill:#000000;filter:url(#filter5159)"
           id="g5005"
           transform="matrix(-0.99136146,0.13115815,0.13115815,0.99136146,465.61889,-35.665433)"><path
             inkscape:connector-curvature="0"
             id="path5007"
             d="m 333.01982,141.79464 c -63.43015,-47.706119 -154.03241,-34.8889 -201.73853,28.54124 -0.0815,0.10841 -0.15883,0.21868 -0.24032,0.32703 l 27.07385,20.36238 c 0.0811,-0.10863 0.15877,-0.21862 0.24031,-0.32704 36.70148,-48.79834 105.50396,-58.53123 154.30232,-21.82975 48.79834,36.70146 58.53255,105.5022 21.83108,154.30055 -36.70148,48.79835 -105.50352,58.5343 -154.30188,21.83284 -0.61045,-0.45913 -1.21064,-0.92721 -1.80883,-1.39632 l -20.36105,27.07207 c 0.60105,0.46705 1.1971,0.93892 1.80754,1.39804 63.43015,47.70612 154.03198,34.88583 201.73811,-28.54431 47.70611,-63.43014 34.88757,-154.03066 -28.54255,-201.73678 z"
             style="color:#000000;font-style:normal;font-variant:normal;font-weight:normal;font-stretch:normal;font-size:medium;line-height:normal;font-family:sans-serif;text-indent:0;text-align:start;text-decoration:none;text-decoration-line:none;text-decoration-style:solid;text-decoration-color:#000000;letter-spacing:normal;word-spacing:normal;text-transform:none;direction:ltr;block-progression:tb;writing-mode:lr-tb;baseline-shift:baseline;text-anchor:start;white-space:normal;clip-rule:nonzero;display:inline;overflow:visible;visibility:visible;opacity:1;isolation:auto;mix-blend-mode:normal;color-interpolation:sRGB;color-interpolation-filters:linearRGB;solid-color:#000000;solid-opacity:1;fill:#000000;fill-opacity:1;fill-rule:nonzero;stroke:none;stroke-width:30;stroke-linecap:round;stroke-linejoin:round;stroke-miterlimit:4;stroke-dasharray:none;stroke-dashoffset:0;stroke-opacity:1;color-rendering:auto;image-rendering:auto;shape-rendering:auto;text-rendering:auto;enable-background:accumulate" /><path
             sodipodi:nodetypes="cccc"
             inkscape:connector-curvature="0"
             id="path5009"
             d="m 109.07287,149.61473 76.87276,57.81638 -67.34456,9.52819 z"
             style="opacity:1;fill:#000000;fill-opacity:1;stroke:none;stroke-width:1;stroke-linecap:round;stroke-linejoin:miter;stroke-miterlimit:4;stroke-dasharray:none;stroke-opacity:1" /></g><g
           transform="matrix(-0.99136146,0.13115815,0.13115815,0.99136146,461.61889,-41.665433)"
           id="g5001"
           style="fill:url(#linearGradient5188);fill-opacity:1"><path
             style="color:#000000;font-style:normal;font-variant:normal;font-weight:normal;font-stretch:normal;font-size:medium;line-height:normal;font-family:sans-serif;text-indent:0;text-align:start;text-decoration:none;text-decoration-line:none;text-decoration-style:solid;text-decoration-color:#000000;letter-spacing:normal;word-spacing:normal;text-transform:none;direction:ltr;block-progression:tb;writing-mode:lr-tb;baseline-shift:baseline;text-anchor:start;white-space:normal;clip-rule:nonzero;display:inline;overflow:visible;visibility:visible;opacity:1;isolation:auto;mix-blend-mode:normal;color-interpolation:sRGB;color-interpolation-filters:linearRGB;solid-color:#000000;solid-opacity:1;fill:url(#linearGradient5190);fill-opacity:1;fill-rule:nonzero;stroke:none;stroke-width:30;stroke-linecap:round;stroke-linejoin:round;stroke-miterlimit:4;stroke-dasharray:none;stroke-dashoffset:0;stroke-opacity:1;color-rendering:auto;image-rendering:auto;shape-rendering:auto;text-rendering:auto;enable-background:accumulate"
             d="M 256.91211 104.58984 C 220.00712 104.25756 182.97469 117.95502 154.66211 145.76172 C 98.036979 201.3751 97.212793 292.87485 152.82617 349.5 C 208.43957 406.12515 299.93929 406.95128 356.56445 351.33789 C 357.1094 350.80267 357.63923 350.25669 358.17383 349.71484 L 334.4375 325.54688 C 333.90601 326.09039 333.37308 326.63274 332.82812 327.16797 C 289.26501 369.95268 219.77887 369.32482 176.99414 325.76172 C 134.20942 282.19861 134.83729 212.71635 178.40039 169.93164 C 221.19696 127.89975 289.00829 127.76622 331.94727 169.07812 L 309.07422 191.54102 L 377.08789 192.1543 L 377.70117 124.14258 L 356.12305 145.33398 C 328.60271 118.52226 292.81839 104.91314 256.91211 104.58984 z "
             transform="matrix(-0.99136146,0.13115815,0.13115815,0.99136146,467.22823,-22.993276)"
             id="path4950" /></g></g></g></g></svg>