<?xml version="1.0" encoding="UTF-8" standalone="no"?>
<!-- Generator: Adobe Illustrator 19.0.0, SVG Export Plug-In . SVG Version: 6.00 Build 0)  -->

<svg
   xmlns:dc="http://purl.org/dc/elements/1.1/"
   xmlns:cc="http://creativecommons.org/ns#"
   xmlns:rdf="http://www.w3.org/1999/02/22-rdf-syntax-ns#"
   xmlns:svg="http://www.w3.org/2000/svg"
   xmlns="http://www.w3.org/2000/svg"
   xmlns:xlink="http://www.w3.org/1999/xlink"
   xmlns:sodipodi="http://sodipodi.sourceforge.net/DTD/sodipodi-0.dtd"
   xmlns:inkscape="http://www.inkscape.org/namespaces/inkscape"
   version="1.1"
   id="Layer_1"
   x="0px"
   y="0px"
   viewBox="0 0 504.149 504.149"
   style="enable-background:new 0 0 504.149 504.149;"
   xml:space="preserve"
   inkscape:version="0.91 r13725"
   sodipodi:docname="cutbox.svg"
   inkscape:export-filename="/Users/jason/workspace/CutBox/CutBox/cutbox-icon.png"
   inkscape:export-xdpi="365.60999"
   inkscape:export-ydpi="365.60999"><metadata
     id="metadata49"><rdf:RDF><cc:Work
         rdf:about=""><dc:format>image/svg+xml</dc:format><dc:type
           rdf:resource="http://purl.org/dc/dcmitype/StillImage" /><dc:title /></cc:Work></rdf:RDF></metadata><defs
     id="defs47"><linearGradient
       id="linearGradient4409"
       inkscape:collect="always"><stop
         id="stop4411"
         offset="0"
         style="stop-color:#000000;stop-opacity:1" /><stop
         id="stop4413"
         offset="1"
         style="stop-color:#594444;stop-opacity:1" /></linearGradient><linearGradient
       inkscape:collect="always"
       id="linearGradient4393"><stop
         style="stop-color:#8d6c6c;stop-opacity:1"
         offset="0"
         id="stop4395" /><stop
         style="stop-color:#403131;stop-opacity:1"
         offset="1"
         id="stop4397" /></linearGradient><inkscape:perspective
       sodipodi:type="inkscape:persp3d"
       inkscape:vp_x="0 : 252.0745 : 1"
       inkscape:vp_y="0 : 1000 : 0"
       inkscape:vp_z="504.149 : 252.0745 : 1"
       inkscape:persp3d-origin="252.0745 : 168.04967 : 1"
       id="perspective4284" /><mask
       maskUnits="userSpaceOnUse"
       id="mask4372"><path
         style="opacity:1;fill:#ffffff;fill-opacity:1;stroke:none;stroke-width:19.60000038;stroke-linecap:round;stroke-linejoin:round;stroke-miterlimit:4;stroke-dasharray:none;stroke-opacity:1"
         d="M 253.71484,3.810547 39.523438,127.47461 l 0,247.32812 214.191402,123.66407 214.19336,-123.66407 0,-247.32812 L 253.71484,3.810547 Z m 5.10938,78.589844 c 89.63648,0 162.57422,72.935789 162.57422,162.572269 0,89.63646 -72.93774,162.5742 -162.57422,162.57422 a 12.665921,12.665921 0 1 1 0,-25.33008 c 75.94751,0 137.24414,-61.29665 137.24414,-137.24414 0,-75.94751 -61.29663,-137.24024 -137.24414,-137.24024 -73.50527,0 -133.28401,57.4145 -137.05274,129.96094 l 21.2168,-21.2168 a 12.665921,12.665921 0 1 1 17.91211,17.91016 l -51.98437,51.98242 -51.982426,-51.98242 a 12.665921,12.665921 0 0 1 8.824218,-21.74805 12.665921,12.665921 0 0 1 9.087891,3.83789 l 21.566406,21.56836 C 100.05549,151.60946 171.50933,82.400391 258.82422,82.400391 Z m -5.97461,39.097659 a 14.497187,14.497187 0 0 1 14.7168,14.69922 l 0,123.67187 49.88086,44.49024 a 14.497187,14.497187 0 1 1 -19.29688,21.63476 l -59.57812,-53.13672 0,-136.66015 a 14.497187,14.497187 0 0 1 14.27734,-14.69922 z"
         id="path4374"
         inkscape:connector-curvature="0" /></mask><linearGradient
       inkscape:collect="always"
       xlink:href="#linearGradient4393"
       id="linearGradient4399"
       x1="190.07547"
       y1="263.47733"
       x2="190.85603"
       y2="458.19138"
       gradientUnits="userSpaceOnUse" /><linearGradient
       inkscape:collect="always"
       xlink:href="#linearGradient4409"
       id="linearGradient4407"
       x1="231.90857"
       y1="352.74628"
       x2="233.42979"
       y2="95.662872"
       gradientUnits="userSpaceOnUse" /><linearGradient
       inkscape:collect="always"
       xlink:href="#linearGradient4409"
       id="linearGradient4421"
       x1="263.71747"
       y1="223.31761"
       x2="303.42511"
       y2="75.126625"
       gradientUnits="userSpaceOnUse" /><linearGradient
       inkscape:collect="always"
       xlink:href="#linearGradient4393"
       id="linearGradient4429"
       x1="252.07401"
       y1="294.66199"
       x2="433.48801"
       y2="294.66199"
       gradientUnits="userSpaceOnUse" /></defs><sodipodi:namedview
     pagecolor="#ffffff"
     bordercolor="#666666"
     borderopacity="1"
     objecttolerance="10"
     gridtolerance="10"
     guidetolerance="10"
     inkscape:pageopacity="0"
     inkscape:pageshadow="2"
     inkscape:window-width="1680"
     inkscape:window-height="1002"
     id="namedview45"
     showgrid="false"
     showguides="true"
     inkscape:guide-bbox="true"
     inkscape:zoom="1.1324757"
     inkscape:cx="129.65026"
     inkscape:cy="268.03608"
     inkscape:window-x="-3"
     inkscape:window-y="22"
     inkscape:window-maximized="0"
     inkscape:current-layer="g4431"><sodipodi:guide
       position="-460.00001,165"
       orientation="0,1"
       id="guide4186" /><sodipodi:guide
       position="-477.00001,311.00001"
       orientation="1,0"
       id="guide4188" /></sodipodi:namedview><g
     id="g4431"
     transform="translate(4.5889212,3.1792912)"><g
       id="g4461"><g
         id="g15"
         transform="matrix(1.1609507,0,0,1.1609507,-40.57156,-89.426047)" /><g
         id="g17"
         transform="matrix(1.1609507,0,0,1.1609507,-40.57156,-89.426047)" /><g
         id="g19"
         transform="matrix(1.1609507,0,0,1.1609507,-40.57156,-89.426047)" /><g
         id="g21"
         transform="matrix(1.1609507,0,0,1.1609507,-40.57156,-89.426047)" /><g
         id="g23"
         transform="matrix(1.1609507,0,0,1.1609507,-40.57156,-89.426047)" /><g
         id="g25"
         transform="matrix(1.1609507,0,0,1.1609507,-40.57156,-89.426047)" /><g
         id="g27"
         transform="matrix(1.1609507,0,0,1.1609507,-40.57156,-89.426047)" /><g
         id="g29"
         transform="matrix(1.1609507,0,0,1.1609507,-40.57156,-89.426047)" /><g
         id="g31"
         transform="matrix(1.1609507,0,0,1.1609507,-40.57156,-89.426047)" /><g
         id="g33"
         transform="matrix(1.1609507,0,0,1.1609507,-40.57156,-89.426047)" /><g
         id="g35"
         transform="matrix(1.1609507,0,0,1.1609507,-40.57156,-89.426047)" /><g
         id="g37"
         transform="matrix(1.1609507,0,0,1.1609507,-40.57156,-89.426047)" /><g
         id="g39"
         transform="matrix(1.1609507,0,0,1.1609507,-40.57156,-89.426047)" /><g
         id="g41"
         transform="matrix(1.1609507,0,0,1.1609507,-40.57156,-89.426047)" /><g
         id="g43"
         transform="matrix(1.1609507,0,0,1.1609507,-40.57156,-89.426047)" /><g
         transform="matrix(1.4791569,0,0,1.4791569,767.81648,-47.958145)"
         style="fill:#ffffff"
         id="g4274" /><g
         transform="translate(1.411065,0.233194)"
         mask="url(#mask4372)"
         id="g4376"
         style="opacity:0.29500002;fill:#000000"><g
           id="g4378"
           style="fill:#000000"><polygon
             transform="matrix(1.0456502,0,0,1.1182722,-32.424309,-85.790906)"
             id="polygon4380"
             points="70.661,189.915 252.074,85.175 433.488,189.915 433.488,399.409 252.074,504.149 70.661,399.409 "
             style="fill:#000000" /><polyline
             transform="matrix(1.1609507,0,0,1.1324984,-50.57156,-87.00262)"
             id="polyline4382"
             points="252.074,85.175 433.488,189.915 433.488,399.409 252.074,504.149 "
             style="fill:#000000" /><polygon
             transform="matrix(1.136005,0,0,1.1609507,-38.808873,-89.426047)"
             id="polygon4384"
             points="252.074,294.78 433.488,190.041 433.488,189.915 252.074,85.175 70.661,189.915 70.661,190.041 "
             style="fill:#000000" /></g><polyline
           style="fill:#000000"
           points="252.074,294.78 433.488,190.041 433.488,189.915 252.074,85.175 "
           id="polyline4386"
           transform="matrix(1.1086258,0,0,1.1609507,-27.381802,-89.426047)" /></g><g
         id="g4264"
         mask="url(#mask4372)"
         transform="translate(-4.588935,-5.766806)"><g
           id="g4259"><polygon
             style="fill:url(#linearGradient4399);fill-opacity:1"
             points="252.074,504.149 70.661,399.409 70.661,189.915 252.074,85.175 433.488,189.915 433.488,399.409 "
             id="polygon3"
             transform="matrix(1.1609507,0,0,1.1609507,-40.57156,-89.426047)" /><polyline
             style="fill:url(#linearGradient4429);fill-opacity:1"
             points="252.074,85.175 433.488,189.915 433.488,399.409 252.074,504.149 "
             id="polyline5"
             transform="matrix(1.1609507,0,0,1.1609507,-40.57156,-89.426047)" /><polygon
             style="fill:url(#linearGradient4407);fill-opacity:1"
             points="70.661,190.041 252.074,294.78 433.488,190.041 433.488,189.915 252.074,85.175 70.661,189.915 "
             id="polygon7"
             transform="matrix(1.1609507,0,0,1.1609507,-40.57156,-89.426047)" /></g><polyline
           transform="matrix(1.1609507,0,0,1.1609507,-40.57156,-89.426047)"
           id="polyline9"
           points="252.074,294.78 433.488,190.041 433.488,189.915 252.074,85.175 "
           style="fill:url(#linearGradient4421);fill-opacity:1" /></g></g></g></svg>