<?xml version="1.0" encoding="UTF-8" standalone="no"?>
<!-- Created with Inkscape (http://www.inkscape.org/) -->

<svg
   xmlns:dc="http://purl.org/dc/elements/1.1/"
   xmlns:cc="http://creativecommons.org/ns#"
   xmlns:rdf="http://www.w3.org/1999/02/22-rdf-syntax-ns#"
   xmlns:svg="http://www.w3.org/2000/svg"
   xmlns="http://www.w3.org/2000/svg"
   xmlns:xlink="http://www.w3.org/1999/xlink"
   xmlns:sodipodi="http://sodipodi.sourceforge.net/DTD/sodipodi-0.dtd"
   xmlns:inkscape="http://www.inkscape.org/namespaces/inkscape"
   width="1608.9907"
   height="962.64148"
   viewBox="0 0 1608.9907 962.64148"
   id="svg2"
   version="1.1"
   inkscape:version="0.91 r13725"
   sodipodi:docname="dmg_background.svg"
   inkscape:export-filename="/Users/jason/workspace/CutBox/CutBox/CutBox/GraphicAssets/dmg_background@2x.png"
   inkscape:export-xdpi="288"
   inkscape:export-ydpi="288">
  <defs
     id="defs4">
    <linearGradient
       inkscape:collect="always"
       id="linearGradient4843">
      <stop
         style="stop-color:#483737;stop-opacity:1;"
         offset="0"
         id="stop4845" />
      <stop
         style="stop-color:#483737;stop-opacity:0;"
         offset="1"
         id="stop4847" />
    </linearGradient>
    <marker
       inkscape:stockid="TriangleInL"
       orient="auto"
       refY="0"
       refX="0"
       id="TriangleInL"
       style="overflow:visible"
       inkscape:isstock="true">
      <path
         id="path4275"
         d="m 5.77,0 -8.65,5 0,-10 8.65,5 z"
         style="fill:#000000;fill-opacity:1;fill-rule:evenodd;stroke:#000000;stroke-width:1pt;stroke-opacity:1"
         transform="scale(-0.8,-0.8)"
         inkscape:connector-curvature="0" />
    </marker>
    <marker
       inkscape:stockid="Arrow2Lstart"
       orient="auto"
       refY="0"
       refX="0"
       id="Arrow2Lstart"
       style="overflow:visible"
       inkscape:isstock="true">
      <path
         id="path4160"
         style="fill:#000000;fill-opacity:1;fill-rule:evenodd;stroke:#000000;stroke-width:0.625;stroke-linejoin:round;stroke-opacity:1"
         d="M 8.7185878,4.0337352 -2.2072895,0.01601326 8.7185884,-4.0017078 c -1.7454984,2.3720609 -1.7354408,5.6174519 -6e-7,8.035443 z"
         transform="matrix(1.1,0,0,1.1,1.1,0)"
         inkscape:connector-curvature="0" />
    </marker>
    <linearGradient
       inkscape:collect="always"
       xlink:href="#linearGradient4843"
       id="linearGradient4849"
       x1="309.84293"
       y1="214.53616"
       x2="224.33656"
       y2="214.53616"
       gradientUnits="userSpaceOnUse"
       gradientTransform="matrix(-2.6395182,0,0,1.2101819,913.33973,578.57415)" />
  </defs>
  <sodipodi:namedview
     id="base"
     pagecolor="#ffffff"
     bordercolor="#666666"
     borderopacity="1.0"
     inkscape:pageopacity="0.0"
     inkscape:pageshadow="2"
     inkscape:zoom="0.3963665"
     inkscape:cx="956.22626"
     inkscape:cy="376.03357"
     inkscape:document-units="px"
     inkscape:current-layer="g4881"
     showgrid="false"
     units="px"
     inkscape:window-width="1680"
     inkscape:window-height="1002"
     inkscape:window-x="0"
     inkscape:window-y="0"
     inkscape:window-maximized="1"
     showguides="true"
     inkscape:guide-bbox="true"
     fit-margin-top="0"
     fit-margin-left="0"
     fit-margin-right="0"
     fit-margin-bottom="0">
    <sodipodi:guide
       position="1605,877.97537"
       orientation="1,0"
       id="guide5051"
       inkscape:label=""
       inkscape:color="rgb(0,0,255)" />
    <sodipodi:guide
       position="1531.411,960.00005"
       orientation="0,1"
       id="guide5053"
       inkscape:label=""
       inkscape:color="rgb(0,0,255)" />
  </sodipodi:namedview>
  <metadata
     id="metadata7">
    <rdf:RDF>
      <cc:Work
         rdf:about="">
        <dc:format>image/svg+xml</dc:format>
        <dc:type
           rdf:resource="http://purl.org/dc/dcmitype/StillImage" />
        <dc:title></dc:title>
      </cc:Work>
    </rdf:RDF>
  </metadata>
  <g
     inkscape:label="Layer 1"
     inkscape:groupmode="layer"
     id="layer1"
     transform="translate(4.8208201e-6,-89.720716)">
    <g
       id="g4834"
       transform="matrix(-0.44748967,0,0,1.049212,345.50691,25.980847)"
       style="fill:#483737">
      <g
         id="g5001"
         transform="matrix(3.208805,0,0,3.208805,-1705.419,-2160.7417)">
        <g
           id="g4861"
           transform="translate(2.2693331e-5,-62.410878)">
          <rect
             transform="scale(-1,1)"
             y="754.72217"
             x="-772.10028"
             height="161.10707"
             width="1120.5396"
             id="rect4863"
             style="opacity:1;fill:#c8b7b7;fill-opacity:1;stroke:none;stroke-width:3.9000001;stroke-linecap:round;stroke-linejoin:round;stroke-miterlimit:4;stroke-dasharray:none;stroke-opacity:1" />
        </g>
        <g
           transform="translate(2.2693331e-5,62.410919)"
           id="g4853">
          <rect
             style="opacity:1;fill:#e3dbdb;fill-opacity:1;stroke:none;stroke-width:3.9000001;stroke-linecap:round;stroke-linejoin:round;stroke-miterlimit:4;stroke-dasharray:none;stroke-opacity:1"
             id="rect4851"
             width="1120.5396"
             height="161.10707"
             x="-772.10028"
             y="754.72217"
             transform="scale(-1,1)" />
          <path
             style="color:#000000;font-style:normal;font-variant:normal;font-weight:normal;font-stretch:normal;font-size:medium;line-height:normal;font-family:sans-serif;text-indent:0;text-align:start;text-decoration:none;text-decoration-line:none;text-decoration-style:solid;text-decoration-color:#000000;letter-spacing:normal;word-spacing:normal;text-transform:none;direction:ltr;block-progression:tb;writing-mode:lr-tb;baseline-shift:baseline;text-anchor:start;white-space:normal;clip-rule:nonzero;display:inline;overflow:visible;visibility:visible;opacity:1;isolation:auto;mix-blend-mode:normal;color-interpolation:sRGB;color-interpolation-filters:linearRGB;solid-color:#000000;solid-opacity:1;fill:url(#linearGradient4849);fill-opacity:1;fill-rule:evenodd;stroke:none;stroke-width:3.9000001;stroke-linecap:butt;stroke-linejoin:miter;stroke-miterlimit:4;stroke-dasharray:none;stroke-dashoffset:0;stroke-opacity:1;color-rendering:auto;image-rendering:auto;shape-rendering:auto;text-rendering:auto;enable-background:accumulate"
             d="m 133.14044,815.46727 0,6.00836 192.45079,0 0,27.60018 -192.45079,0 0,6.00837 -9.67138,-6.00837 -0.93827,0 0,-0.58381 -21.26565,-13.2151 21.26565,-13.21509 0,-0.58618 0.94344,0 z"
             id="path4136"
             inkscape:connector-curvature="0"
             sodipodi:nodetypes="cccccccccccccc" />
        </g>
        <g
           id="text4857"
           style="font-style:normal;font-variant:normal;font-weight:900;font-stretch:normal;font-size:131.34677124px;line-height:125%;font-family:'Avenir Next';-inkscape-font-specification:'Avenir Next, Heavy';text-align:start;letter-spacing:0px;word-spacing:0px;writing-mode:lr-tb;text-anchor:start;fill:#e3dbdb;fill-opacity:1;stroke:none;stroke-width:1px;stroke-linecap:butt;stroke-linejoin:miter;stroke-opacity:1"
           transform="matrix(-1.5312289,0,0,0.65307022,-19.407464,0)">
          <path
             inkscape:connector-curvature="0"
             id="path4905"
             d="m -382.14203,1140.4204 q 0,-11.1645 3.9404,-20.2274 3.9404,-9.063 10.77043,-15.499 6.83004,-6.436 16.02431,-9.851 9.32562,-3.5463 19.83336,-3.5463 10.77044,0 20.35875,3.5463 9.58832,3.415 16.02431,9.3256 l -19.17663,23.1171 q -2.62694,-3.415 -6.56734,-5.1225 -3.9404,-1.8389 -8.80023,-1.8389 -3.94041,0 -7.35542,1.4448 -3.41502,1.3135 -6.04195,3.9404 -2.49559,2.627 -3.94041,6.436 -1.44481,3.6777 -1.44481,8.2749 0,4.5971 1.44481,8.2748 1.57616,3.5464 4.07175,6.1733 2.62694,2.6269 6.04195,4.0718 3.41502,1.3134 7.22408,1.3134 5.38521,0 9.19427,-2.2329 3.9404,-2.2329 6.1733,-5.2538 l 19.17663,22.9856 q -6.30465,6.3047 -15.49892,10.1137 -9.19428,3.6777 -20.88414,3.6777 -10.50774,0 -19.83336,-3.5463 -9.19427,-3.5464 -16.02431,-9.9824 -6.83003,-6.5673 -10.77043,-15.4989 -3.9404,-9.0629 -3.9404,-20.096 z" />
          <path
             inkscape:connector-curvature="0"
             id="path4907"
             d="m -221.76004,1186.9171 -29.55302,0 0,-7.6181 -0.26269,0 q -2.62694,3.8091 -7.88081,6.6987 -5.12252,2.7583 -11.82121,2.7583 -7.35542,0 -12.0839,-2.4956 -4.72848,-2.627 -7.61811,-6.6987 -2.75829,-4.2031 -3.94041,-9.3256 -1.05077,-5.2539 -1.05077,-10.3764 l 0,-42.031 30.47245,0 0,36.5144 q 0,5.2539 1.57616,7.3554 1.70751,2.1016 4.99118,2.1016 3.02097,0 4.85983,-2.3643 1.9702,-2.4955 1.9702,-7.0927 l 0,-36.5144 30.3411,0 0,69.0884 z" />
          <path
             inkscape:connector-curvature="0"
             id="path4909"
             d="m -180.79468,1188.756 q -13.92275,0 -20.62144,-5.9106 -6.69869,-6.042 -6.69869,-18.6513 l 0,-24.6932 -9.71966,0 0,-21.6722 9.58832,0 0,-15.4989 29.42167,0 0,15.4989 14.97354,0 0,21.6722 -14.97354,0 0,18.3886 q 0,4.9912 2.10155,6.83 2.2329,1.7075 6.04195,1.7075 1.44482,0 3.02098,-0.2627 1.57616,-0.2627 2.49559,-0.5254 l 0,20.7528 q -2.36424,1.0508 -6.69869,1.7075 -4.20309,0.6568 -8.93158,0.6568 z" />
          <path
             inkscape:connector-curvature="0"
             id="path4911"
             d="m -130.68884,1118.2228 0,11.4271 8.40619,0 q 3.28367,0 5.38522,-1.4448 2.10155,-1.5762 2.10155,-4.7285 0,-2.6269 -2.2329,-3.9404 -2.23289,-1.3134 -5.9106,-1.3134 l -7.74946,0 z m 0,31.5232 0,12.6093 9.32562,0 q 3.67771,0 5.9106,-1.5762 2.36425,-1.7075 2.36425,-4.8598 0,-1.8389 -1.05078,-3.021 -0.91942,-1.1821 -2.36424,-1.8389 -1.44481,-0.788 -3.15232,-1.0507 -1.57616,-0.2627 -3.02098,-0.2627 l -8.01215,0 z m 31.654587,-11.1645 q 3.283666,0.7881 6.435988,2.6269 3.152323,1.7075 5.647911,4.4658 2.495589,2.627 3.940403,6.1733 1.444815,3.5464 1.444815,7.8808 0,7.6181 -3.152323,12.872 -3.020975,5.1225 -8.143499,8.4062 -4.991175,3.1523 -11.558522,4.5971 -6.43599,1.3135 -13.26603,1.3135 l -42.16231,0 0,-92.9935 38.22191,0 q 5.64791,0 11.95256,0.9194 6.43599,0.7881 11.821217,3.415 5.385215,2.4956 8.931578,7.4868 3.546363,4.8598 3.546363,12.872 0,7.4868 -3.809057,12.3466 -3.677709,4.8598 -9.851004,7.2241 l 0,0.394 z" />
          <path
             inkscape:connector-curvature="0"
             id="path4913"
             d="m -0.272647,1152.1102 q 0,8.9316 -3.283669,15.893 -3.152323,6.9614 -8.668887,11.8212 -5.385218,4.7285 -12.60929,7.2241 -7.092726,2.4955 -14.973532,2.4955 -7.74946,0 -14.973532,-2.4955 -7.092726,-2.4956 -12.477943,-7.2241 -5.385218,-4.8598 -8.668887,-11.8212 -3.152323,-6.9614 -3.152323,-15.893 0,-8.8002 3.152323,-15.6302 3.283669,-6.9614 8.668887,-11.6899 5.385217,-4.7285 12.477943,-7.0927 7.224072,-2.4956 14.973532,-2.4956 7.880806,0 14.973532,2.4956 7.224072,2.3642 12.60929,7.0927 5.516564,4.7285 8.668887,11.6899 3.283669,6.83 3.283669,15.6302 z m -39.535378,-11.4271 q -4.991178,0 -8.1435,3.415 -3.020976,3.415 -3.020976,8.0121 0,4.8599 3.152323,8.2749 3.152322,3.415 8.1435,3.415 4.991177,0 8.143499,-3.415 3.152323,-3.415 3.152323,-8.2749 0,-4.5971 -3.283669,-8.0121 -3.152323,-3.415 -8.1435,-3.415 z" />
          <path
             inkscape:connector-curvature="0"
             id="path4915"
             d="m 32.711334,1171.2868 -11.295822,15.6303 -34.150161,0 26.663395,-35.4636 -24.82454,-33.6248 34.412854,0 9.982356,14.4482 9.85101,-14.4482 33.36207,0 -24.82453,33.6248 26.138,35.4636 -34.67554,0 -10.639092,-15.6303 z" />
        </g>
        <g
           id="text4873"
           style="font-style:normal;font-variant:normal;font-weight:bold;font-stretch:normal;font-size:25.53964806px;line-height:125%;font-family:sans-serif;-inkscape-font-specification:'sans-serif, Bold';text-align:start;letter-spacing:0px;word-spacing:0px;writing-mode:lr-tb;text-anchor:start;fill:#6c5353;fill-opacity:1;stroke:none;stroke-width:1px;stroke-linecap:butt;stroke-linejoin:miter;stroke-opacity:1"
           transform="scale(-1.5312289,0.65307022)">
          <path
             id="path4937"
             style="font-style:normal;font-variant:normal;font-weight:normal;font-stretch:normal;font-size:21.89112663px;font-family:'Avenir Next';-inkscape-font-specification:'Avenir Next';letter-spacing:0px;fill:#6c5353"
             d="m -312.44133,1228.6436 q 0,-1.3353 -0.70052,-1.9921 -0.70051,-0.6567 -2.03587,-0.6567 -0.91943,0 -1.70751,0.3284 -0.78808,0.3283 -1.33536,0.8756 l -0.83186,-0.9851 q 0.63484,-0.6348 1.66372,-1.0507 1.05078,-0.416 2.36425,-0.416 0.83186,0 1.55427,0.2408 0.7224,0.2189 1.26968,0.6786 0.54728,0.4598 0.85375,1.1603 0.30648,0.7005 0.30648,1.6418 l 0,4.4877 q 0,0.5911 0.0438,1.2259 0.0438,0.6348 0.13135,1.0727 l -1.33536,0 q -0.0657,-0.3722 -0.10945,-0.81 -0.0438,-0.4378 -0.0438,-0.8538 l -0.0438,0 q -0.70052,1.0289 -1.59805,1.4886 -0.87565,0.4379 -2.12344,0.4379 -0.59106,0 -1.2259,-0.1752 -0.61296,-0.1532 -1.13834,-0.5254 -0.5035,-0.3721 -0.85376,-0.9632 -0.32836,-0.591 -0.32836,-1.4448 0,-1.1821 0.59106,-1.8607 0.61295,-0.7005 1.61994,-1.0289 1.00699,-0.3503 2.29857,-0.4378 1.31347,-0.1095 2.7145,-0.1095 l 0,-0.3284 z m -0.43782,1.4886 q -0.91943,0 -1.86075,0.088 -0.91943,0.066 -1.68562,0.3065 -0.74429,0.2189 -1.2259,0.6567 -0.4816,0.4378 -0.4816,1.1602 0,0.5473 0.19702,0.9195 0.21891,0.3721 0.56916,0.6129 0.35026,0.2189 0.76619,0.3284 0.43783,0.088 0.87565,0.088 0.78808,0 1.40103,-0.2627 0.61295,-0.2846 1.02888,-0.7443 0.41594,-0.4816 0.63485,-1.0946 0.21891,-0.6129 0.21891,-1.2916 l 0,-0.7662 -0.43782,0 z"
             inkscape:connector-curvature="0" />
          <path
             id="path4939"
             style="font-style:normal;font-variant:normal;font-weight:normal;font-stretch:normal;font-size:21.89112663px;font-family:'Avenir Next';-inkscape-font-specification:'Avenir Next';letter-spacing:0px;fill:#6c5353"
             d="m -300.3759,1225.0097 q 0.0438,0.4159 0.0657,0.9194 0.0219,0.5035 0.0219,0.8319 l 0.0438,0 q 0.43782,-0.8975 1.42292,-1.4448 0.9851,-0.5692 2.07966,-0.5692 1.94831,0 2.91152,1.1602 0.9851,1.1603 0.9851,3.0648 l 0,6.2828 -1.4886,0 0,-5.6698 q 0,-0.81 -0.13135,-1.4667 -0.13134,-0.6568 -0.45971,-1.1165 -0.30648,-0.4816 -0.85375,-0.7443 -0.52539,-0.2627 -1.33536,-0.2627 -0.59106,0 -1.16023,0.2408 -0.54728,0.2408 -0.9851,0.7443 -0.43783,0.4816 -0.70052,1.2478 -0.26269,0.7443 -0.26269,1.7732 l 0,5.2539 -1.4886,0 0,-7.9903 q 0,-0.4159 -0.0219,-1.0727 -0.0219,-0.6567 -0.0657,-1.1821 l 1.42292,0 z"
             inkscape:connector-curvature="0" />
          <path
             id="path4941"
             style="font-style:normal;font-variant:normal;font-weight:normal;font-stretch:normal;font-size:21.89112663px;font-family:'Avenir Next';-inkscape-font-specification:'Avenir Next';letter-spacing:0px;fill:#6c5353"
             d="m -287.45945,1235.2548 -1.4886,0 0,-10.2451 1.4886,0 0,10.2451 z m 0.30647,-14.1855 q 0,0.4597 -0.32836,0.7662 -0.32837,0.2846 -0.72241,0.2846 -0.39404,0 -0.72241,-0.2846 -0.32836,-0.3065 -0.32836,-0.7662 0,-0.4597 0.32836,-0.7443 0.32837,-0.3065 0.72241,-0.3065 0.39404,0 0.72241,0.3065 0.32836,0.2846 0.32836,0.7443 z"
             inkscape:connector-curvature="0" />
          <path
             id="path4943"
             style="font-style:normal;font-variant:normal;font-weight:normal;font-stretch:normal;font-size:21.89112663px;font-family:'Avenir Next';-inkscape-font-specification:'Avenir Next';letter-spacing:0px;fill:#6c5353"
             d="m -276.16261,1227.3521 q -0.37214,-0.5911 -1.09455,-0.9632 -0.70052,-0.3941 -1.53238,-0.3941 -0.89754,0 -1.61994,0.3284 -0.72241,0.3065 -1.2478,0.8756 -0.50349,0.5473 -0.78808,1.3135 -0.26269,0.7443 -0.26269,1.6199 0,0.8757 0.26269,1.62 0.28459,0.7443 0.78808,1.3134 0.5035,0.5473 1.2259,0.8757 0.72241,0.3065 1.61995,0.3065 0.9851,0 1.66372,-0.3722 0.67863,-0.3721 1.11645,-0.9632 l 1.11645,0.8319 q -0.65674,0.8099 -1.61994,1.2915 -0.94132,0.4817 -2.27668,0.4817 -1.2478,0 -2.25479,-0.3941 -1.00699,-0.4159 -1.7294,-1.1383 -0.70051,-0.7224 -1.09455,-1.7075 -0.39404,-0.9851 -0.39404,-2.1454 0,-1.1602 0.39404,-2.1453 0.39404,-0.9851 1.09455,-1.7075 0.72241,-0.7224 1.7294,-1.1164 1.00699,-0.416 2.25479,-0.416 1.02888,0 2.07966,0.4597 1.07266,0.4379 1.72939,1.3135 l -1.16023,0.8319 z"
             inkscape:connector-curvature="0" />
          <path
             id="path4945"
             style="font-style:normal;font-variant:normal;font-weight:normal;font-stretch:normal;font-size:21.89112663px;font-family:'Avenir Next';-inkscape-font-specification:'Avenir Next';letter-spacing:0px;fill:#6c5353"
             d="m -264.77922,1229.3442 q -0.0657,-1.4449 -0.94132,-2.3862 -0.85375,-0.9632 -2.4518,-0.9632 -0.7443,0 -1.37914,0.2846 -0.63485,0.2627 -1.11645,0.7443 -0.48161,0.4597 -0.76619,1.0727 -0.28459,0.591 -0.32837,1.2478 l 6.98327,0 z m 1.51049,0.4816 q 0,0.1532 0,0.3283 0,0.1752 -0.0219,0.3722 l -8.49376,0 q 0.0219,0.7662 0.30648,1.4448 0.28458,0.6786 0.78808,1.1821 0.50349,0.5035 1.18212,0.81 0.67862,0.2846 1.4667,0.2846 1.16023,0 1.9921,-0.5254 0.85375,-0.5473 1.29157,-1.2478 l 1.11645,0.8756 q -0.91943,1.1603 -2.03587,1.6638 -1.09456,0.5035 -2.36425,0.5035 -1.13834,0 -2.12344,-0.3941 -0.96321,-0.4159 -1.66372,-1.1383 -0.70052,-0.7224 -1.11645,-1.7075 -0.39404,-0.9851 -0.39404,-2.1454 0,-1.1602 0.39404,-2.1453 0.39404,-0.9851 1.09456,-1.7075 0.70051,-0.7224 1.64183,-1.1164 0.94132,-0.416 2.03588,-0.416 1.20401,0 2.12344,0.416 0.91942,0.394 1.53237,1.0945 0.61296,0.6786 0.91943,1.5981 0.32837,0.9194 0.32837,1.9702 z"
             inkscape:connector-curvature="0" />
          <path
             id="path4947"
             style="font-style:normal;font-variant:normal;font-weight:normal;font-stretch:normal;font-size:21.89112663px;font-family:'Avenir Next';-inkscape-font-specification:'Avenir Next';letter-spacing:0px;fill:#6c5353"
             d="m -253.0189,1235.2548 -1.48859,0 0,-16.5497 1.48859,0 0,16.5497 z"
             inkscape:connector-curvature="0" />
          <path
             id="path4949"
             style="font-style:normal;font-variant:normal;font-weight:normal;font-stretch:normal;font-size:21.89112663px;font-family:'Avenir Next';-inkscape-font-specification:'Avenir Next';letter-spacing:0px;fill:#6c5353"
             d="m -247.52525,1235.2548 -1.48859,0 0,-10.2451 1.48859,0 0,10.2451 z m 0.30648,-14.1855 q 0,0.4597 -0.32837,0.7662 -0.32836,0.2846 -0.7224,0.2846 -0.39405,0 -0.72241,-0.2846 -0.32837,-0.3065 -0.32837,-0.7662 0,-0.4597 0.32837,-0.7443 0.32836,-0.3065 0.72241,-0.3065 0.39404,0 0.7224,0.3065 0.32837,0.2846 0.32837,0.7443 z"
             inkscape:connector-curvature="0" />
          <path
             id="path4951"
             style="font-style:normal;font-variant:normal;font-weight:normal;font-stretch:normal;font-size:21.89112663px;font-family:'Avenir Next';-inkscape-font-specification:'Avenir Next';letter-spacing:0px;fill:#6c5353"
             d="m -238.98668,1226.2575 -2.88963,0 0,5.9763 q 0,0.5692 0.10945,0.9413 0.10946,0.3722 0.30648,0.5911 0.21891,0.197 0.5035,0.2845 0.28458,0.066 0.61295,0.066 0.30647,0 0.63484,-0.088 0.35026,-0.088 0.65673,-0.2408 l 0.0657,1.2915 q -0.39404,0.1533 -0.83187,0.2189 -0.41593,0.088 -0.91942,0.088 -0.41593,0 -0.87565,-0.1094 -0.45971,-0.1095 -0.85375,-0.416 -0.39404,-0.3065 -0.65674,-0.8318 -0.2408,-0.5254 -0.2408,-1.3792 l 0,-6.3922 -2.12344,0 0,-1.2478 2.12344,0 0,-2.8896 1.4886,0 0,2.8896 2.88963,0 0,1.2478 z"
             inkscape:connector-curvature="0" />
          <path
             id="path4953"
             style="font-style:normal;font-variant:normal;font-weight:normal;font-stretch:normal;font-size:21.89112663px;font-family:'Avenir Next';-inkscape-font-specification:'Avenir Next';letter-spacing:0px;fill:#6c5353"
             d="m -232.31673,1226.2575 -2.88963,0 0,5.9763 q 0,0.5692 0.10946,0.9413 0.10945,0.3722 0.30647,0.5911 0.21891,0.197 0.5035,0.2845 0.28458,0.066 0.61295,0.066 0.30647,0 0.63484,-0.088 0.35026,-0.088 0.65674,-0.2408 l 0.0657,1.2915 q -0.39404,0.1533 -0.83186,0.2189 -0.41594,0.088 -0.91943,0.088 -0.41593,0 -0.87565,-0.1094 -0.45971,-0.1095 -0.85375,-0.416 -0.39404,-0.3065 -0.65673,-0.8318 -0.24081,-0.5254 -0.24081,-1.3792 l 0,-6.3922 -2.12344,0 0,-1.2478 2.12344,0 0,-2.8896 1.4886,0 0,2.8896 2.88963,0 0,1.2478 z"
             inkscape:connector-curvature="0" />
          <path
             id="path4955"
             style="font-style:normal;font-variant:normal;font-weight:normal;font-stretch:normal;font-size:21.89112663px;font-family:'Avenir Next';-inkscape-font-specification:'Avenir Next';letter-spacing:0px;fill:#6c5353"
             d="m -228.47689,1235.2548 -1.4886,0 0,-16.5497 1.4886,0 0,16.5497 z"
             inkscape:connector-curvature="0" />
          <path
             id="path4957"
             style="font-style:normal;font-variant:normal;font-weight:normal;font-stretch:normal;font-size:21.89112663px;font-family:'Avenir Next';-inkscape-font-specification:'Avenir Next';letter-spacing:0px;fill:#6c5353"
             d="m -216.67859,1229.3442 q -0.0657,-1.4449 -0.94132,-2.3862 -0.85376,-0.9632 -2.45181,-0.9632 -0.7443,0 -1.37914,0.2846 -0.63484,0.2627 -1.11645,0.7443 -0.4816,0.4597 -0.76619,1.0727 -0.28458,0.591 -0.32836,1.2478 l 6.98327,0 z m 1.51048,0.4816 q 0,0.1532 0,0.3283 0,0.1752 -0.0219,0.3722 l -8.49376,0 q 0.0219,0.7662 0.30648,1.4448 0.28459,0.6786 0.78808,1.1821 0.5035,0.5035 1.18212,0.81 0.67863,0.2846 1.46671,0.2846 1.16023,0 1.99209,-0.5254 0.85375,-0.5473 1.29158,-1.2478 l 1.11644,0.8756 q -0.91942,1.1603 -2.03587,1.6638 -1.09456,0.5035 -2.36424,0.5035 -1.13834,0 -2.12344,-0.3941 -0.96321,-0.4159 -1.66373,-1.1383 -0.70051,-0.7224 -1.11644,-1.7075 -0.39405,-0.9851 -0.39405,-2.1454 0,-1.1602 0.39405,-2.1453 0.39404,-0.9851 1.09455,-1.7075 0.70052,-0.7224 1.64184,-1.1164 0.94131,-0.416 2.03587,-0.416 1.20401,0 2.12344,0.416 0.91943,0.394 1.53238,1.0945 0.61295,0.6786 0.91943,1.5981 0.32836,0.9194 0.32836,1.9702 z"
             inkscape:connector-curvature="0" />
          <path
             id="path4959"
             style="font-style:normal;font-variant:normal;font-weight:normal;font-stretch:normal;font-size:21.89112663px;font-family:'Avenir Next';-inkscape-font-specification:'Avenir Next';letter-spacing:0px;fill:#6c5353"
             d="m -204.96205,1240.5086 -1.4886,0 0,-15.4989 1.4886,0 0,1.7732 0.0657,0 q 0.63484,-1.007 1.68562,-1.5105 1.07266,-0.5254 2.16722,-0.5254 1.20401,0 2.16722,0.416 0.9851,0.4159 1.66372,1.1383 0.70052,0.7224 1.07267,1.7075 0.39404,0.9851 0.39404,2.1234 0,1.1384 -0.39404,2.1235 -0.37215,0.9851 -1.07267,1.7075 -0.67862,0.7224 -1.66372,1.1383 -0.96321,0.416 -2.16722,0.416 -1.09456,0 -2.16722,-0.5035 -1.05078,-0.5254 -1.68562,-1.4886 l -0.0657,0 0,6.9832 z m 7.64,-10.3764 q 0,-0.8537 -0.26269,-1.598 -0.2627,-0.7662 -0.76619,-1.3135 -0.48161,-0.5692 -1.20402,-0.8975 -0.7224,-0.3284 -1.64183,-0.3284 -0.85375,0 -1.57616,0.3284 -0.72241,0.3065 -1.2478,0.8756 -0.52538,0.5473 -0.83186,1.3135 -0.28458,0.7443 -0.28458,1.6199 0,0.8757 0.28458,1.6419 0.30648,0.7443 0.83186,1.2915 0.52539,0.5473 1.2478,0.8757 0.72241,0.3065 1.57616,0.3065 0.91943,0 1.64183,-0.3065 0.72241,-0.3284 1.20402,-0.8757 0.50349,-0.5691 0.76619,-1.3134 0.26269,-0.7662 0.26269,-1.62 z"
             inkscape:connector-curvature="0" />
          <path
             id="path4961"
             style="font-style:normal;font-variant:normal;font-weight:normal;font-stretch:normal;font-size:21.89112663px;font-family:'Avenir Next';-inkscape-font-specification:'Avenir Next';letter-spacing:0px;fill:#6c5353"
             d="m -186.09704,1228.6436 q 0,-1.3353 -0.70052,-1.9921 -0.70051,-0.6567 -2.03587,-0.6567 -0.91943,0 -1.70751,0.3284 -0.78808,0.3283 -1.33536,0.8756 l -0.83186,-0.9851 q 0.63484,-0.6348 1.66373,-1.0507 1.05077,-0.416 2.36424,-0.416 0.83186,0 1.55427,0.2408 0.7224,0.2189 1.26968,0.6786 0.54728,0.4598 0.85376,1.1603 0.30647,0.7005 0.30647,1.6418 l 0,4.4877 q 0,0.5911 0.0438,1.2259 0.0438,0.6348 0.13135,1.0727 l -1.33536,0 q -0.0657,-0.3722 -0.10945,-0.81 -0.0438,-0.4378 -0.0438,-0.8538 l -0.0438,0 q -0.70051,1.0289 -1.59805,1.4886 -0.87564,0.4379 -2.12344,0.4379 -0.59106,0 -1.2259,-0.1752 -0.61295,-0.1532 -1.13834,-0.5254 -0.5035,-0.3721 -0.85375,-0.9632 -0.32837,-0.591 -0.32837,-1.4448 0,-1.1821 0.59106,-1.8607 0.61295,-0.7005 1.61994,-1.0289 1.00699,-0.3503 2.29857,-0.4378 1.31347,-0.1095 2.7145,-0.1095 l 0,-0.3284 z m -0.43782,1.4886 q -0.91943,0 -1.86075,0.088 -0.91943,0.066 -1.68561,0.3065 -0.7443,0.2189 -1.22591,0.6567 -0.4816,0.4378 -0.4816,1.1602 0,0.5473 0.19702,0.9195 0.21891,0.3721 0.56917,0.6129 0.35025,0.2189 0.76619,0.3284 0.43782,0.088 0.87564,0.088 0.78808,0 1.40103,-0.2627 0.61295,-0.2846 1.02889,-0.7443 0.41593,-0.4816 0.63484,-1.0946 0.21891,-0.6129 0.21891,-1.2916 l 0,-0.7662 -0.43782,0 z"
             inkscape:connector-curvature="0" />
          <path
             id="path4963"
             style="font-style:normal;font-variant:normal;font-weight:normal;font-stretch:normal;font-size:21.89112663px;font-family:'Avenir Next';-inkscape-font-specification:'Avenir Next';letter-spacing:0px;fill:#6c5353"
             d="m -175.38886,1227.4396 q -0.32837,-0.6348 -1.00699,-1.0289 -0.65674,-0.4159 -1.51049,-0.4159 -0.39404,0 -0.78808,0.088 -0.39404,0.088 -0.70052,0.2846 -0.30647,0.197 -0.50349,0.5035 -0.17513,0.3064 -0.17513,0.7224 0,0.7224 0.59106,1.1164 0.59106,0.3722 1.86075,0.6349 1.81696,0.3721 2.67071,1.0945 0.87565,0.7005 0.87565,1.9045 0,0.8757 -0.35026,1.4886 -0.32837,0.5911 -0.87565,0.9851 -0.54727,0.3722 -1.24779,0.5254 -0.67862,0.1752 -1.37914,0.1752 -1.16023,0 -2.25479,-0.4817 -1.09455,-0.4816 -1.79507,-1.5104 l 1.18212,-0.8757 q 0.39404,0.6786 1.16023,1.1384 0.76619,0.4597 1.68562,0.4597 0.4816,0 0.91943,-0.088 0.43782,-0.088 0.76619,-0.3065 0.32836,-0.2189 0.52538,-0.5472 0.19702,-0.3503 0.19702,-0.8538 0,-0.81 -0.78808,-1.204 -0.76619,-0.4159 -2.23289,-0.7662 -0.45972,-0.1095 -0.9851,-0.2627 -0.5035,-0.1751 -0.94132,-0.4816 -0.43782,-0.3284 -0.72241,-0.81 -0.28458,-0.4816 -0.28458,-1.204 0,-0.7881 0.30647,-1.3353 0.30648,-0.5692 0.80997,-0.9195 0.52539,-0.3721 1.18212,-0.5473 0.65674,-0.1751 1.35725,-0.1751 1.07267,0 2.07966,0.4816 1.00699,0.4816 1.51049,1.3573 l -1.13834,0.8537 z"
             inkscape:connector-curvature="0" />
          <path
             id="path4965"
             style="font-style:normal;font-variant:normal;font-weight:normal;font-stretch:normal;font-size:21.89112663px;font-family:'Avenir Next';-inkscape-font-specification:'Avenir Next';letter-spacing:0px;fill:#6c5353"
             d="m -166.51508,1226.2575 -2.88963,0 0,5.9763 q 0,0.5692 0.10946,0.9413 0.10945,0.3722 0.30647,0.5911 0.21891,0.197 0.5035,0.2845 0.28458,0.066 0.61295,0.066 0.30648,0 0.63484,-0.088 0.35026,-0.088 0.65674,-0.2408 l 0.0657,1.2915 q -0.39404,0.1533 -0.83186,0.2189 -0.41593,0.088 -0.91943,0.088 -0.41593,0 -0.87565,-0.1094 -0.45971,-0.1095 -0.85375,-0.416 -0.39404,-0.3065 -0.65673,-0.8318 -0.24081,-0.5254 -0.24081,-1.3792 l 0,-6.3922 -2.12343,0 0,-1.2478 2.12343,0 0,-2.8896 1.4886,0 0,2.8896 2.88963,0 0,1.2478 z"
             inkscape:connector-curvature="0" />
          <path
             id="path4967"
             style="font-style:normal;font-variant:normal;font-weight:normal;font-stretch:normal;font-size:21.89112663px;font-family:'Avenir Next';-inkscape-font-specification:'Avenir Next';letter-spacing:0px;fill:#6c5353"
             d="m -156.39249,1229.3442 q -0.0657,-1.4449 -0.94132,-2.3862 -0.85375,-0.9632 -2.45181,-0.9632 -0.7443,0 -1.37914,0.2846 -0.63484,0.2627 -1.11645,0.7443 -0.4816,0.4597 -0.76618,1.0727 -0.28459,0.591 -0.32837,1.2478 l 6.98327,0 z m 1.51049,0.4816 q 0,0.1532 0,0.3283 0,0.1752 -0.0219,0.3722 l -8.49375,0 q 0.0219,0.7662 0.30647,1.4448 0.28459,0.6786 0.78808,1.1821 0.5035,0.5035 1.18212,0.81 0.67863,0.2846 1.46671,0.2846 1.16023,0 1.99209,-0.5254 0.85376,-0.5473 1.29158,-1.2478 l 1.11645,0.8756 q -0.91943,1.1603 -2.03588,1.6638 -1.09455,0.5035 -2.36424,0.5035 -1.13834,0 -2.12344,-0.3941 -0.96321,-0.4159 -1.66373,-1.1383 -0.70051,-0.7224 -1.11644,-1.7075 -0.39404,-0.9851 -0.39404,-2.1454 0,-1.1602 0.39404,-2.1453 0.39404,-0.9851 1.09455,-1.7075 0.70052,-0.7224 1.64184,-1.1164 0.94132,-0.416 2.03587,-0.416 1.20402,0 2.12344,0.416 0.91943,0.394 1.53238,1.0945 0.61295,0.6786 0.91943,1.5981 0.32837,0.9194 0.32837,1.9702 z"
             inkscape:connector-curvature="0" />
          <path
             id="path4969"
             style="font-style:normal;font-variant:normal;font-weight:normal;font-stretch:normal;font-size:21.89112663px;font-family:'Avenir Next';-inkscape-font-specification:'Avenir Next';letter-spacing:0px;fill:#6c5353"
             d="m -150.10495,1233.5254 0,1.7294 -1.4886,0 0,-16.5497 1.4886,0 0,8.0778 0.0438,0 q 0.65674,-1.007 1.70751,-1.5105 1.05078,-0.5254 2.16722,-0.5254 1.20402,0 2.16722,0.416 0.98511,0.4159 1.66373,1.1383 0.70052,0.7224 1.07267,1.7075 0.39404,0.9851 0.39404,2.1234 0,1.1384 -0.39404,2.1235 -0.37215,0.9851 -1.07267,1.7075 -0.67862,0.7224 -1.66373,1.1383 -0.9632,0.416 -2.16722,0.416 -1.11644,0 -2.16722,-0.5035 -1.05077,-0.5035 -1.70751,-1.4886 l -0.0438,0 z m 7.64,-3.3932 q 0,-0.8537 -0.26269,-1.598 -0.26269,-0.7662 -0.76619,-1.3135 -0.4816,-0.5692 -1.20401,-0.8975 -0.72241,-0.3284 -1.64183,-0.3284 -0.85376,0 -1.57617,0.3284 -0.7224,0.3065 -1.24779,0.8756 -0.52539,0.5473 -0.83186,1.3135 -0.28459,0.7443 -0.28459,1.6199 0,0.8757 0.28459,1.6419 0.30647,0.7443 0.83186,1.2915 0.52539,0.5473 1.24779,0.8757 0.72241,0.3065 1.57617,0.3065 0.91942,0 1.64183,-0.3065 0.72241,-0.3284 1.20401,-0.8757 0.5035,-0.5691 0.76619,-1.3134 0.26269,-0.7662 0.26269,-1.62 z"
             inkscape:connector-curvature="0" />
          <path
             id="path4971"
             style="font-style:normal;font-variant:normal;font-weight:normal;font-stretch:normal;font-size:21.89112663px;font-family:'Avenir Next';-inkscape-font-specification:'Avenir Next';letter-spacing:0px;fill:#6c5353"
             d="m -127.51946,1230.1322 q 0,1.1603 -0.41593,2.1454 -0.39404,0.9851 -1.11645,1.7075 -0.72241,0.7224 -1.7294,1.1383 -1.00699,0.3941 -2.211,0.3941 -1.18212,0 -2.18912,-0.3941 -1.00699,-0.4159 -1.72939,-1.1383 -0.72241,-0.7224 -1.13834,-1.7075 -0.39404,-0.9851 -0.39404,-2.1454 0,-1.1602 0.39404,-2.1453 0.41593,-0.9851 1.13834,-1.7075 0.7224,-0.7224 1.72939,-1.1164 1.007,-0.416 2.18912,-0.416 1.20401,0 2.211,0.416 1.00699,0.394 1.7294,1.1164 0.72241,0.7224 1.11645,1.7075 0.41593,0.9851 0.41593,2.1453 z m -1.57616,0 q 0,-0.8537 -0.28459,-1.598 -0.26269,-0.7662 -0.76619,-1.3135 -0.50349,-0.5692 -1.2259,-0.8975 -0.72241,-0.3284 -1.61994,-0.3284 -0.89754,0 -1.61995,0.3284 -0.70051,0.3283 -1.20401,0.8975 -0.50349,0.5473 -0.78808,1.3135 -0.26269,0.7443 -0.26269,1.598 0,0.8538 0.26269,1.62 0.28459,0.7443 0.78808,1.3134 0.5035,0.5473 1.20401,0.8757 0.72241,0.3065 1.61995,0.3065 0.89753,0 1.61994,-0.3065 0.72241,-0.3284 1.2259,-0.8757 0.5035,-0.5691 0.76619,-1.3134 0.28459,-0.7662 0.28459,-1.62 z"
             inkscape:connector-curvature="0" />
          <path
             id="path4973"
             style="font-style:normal;font-variant:normal;font-weight:normal;font-stretch:normal;font-size:21.89112663px;font-family:'Avenir Next';-inkscape-font-specification:'Avenir Next';letter-spacing:0px;fill:#6c5353"
             d="m -117.81554,1228.6436 q 0,-1.3353 -0.70051,-1.9921 -0.70052,-0.6567 -2.03588,-0.6567 -0.91943,0 -1.70751,0.3284 -0.78808,0.3283 -1.33536,0.8756 l -0.83186,-0.9851 q 0.63484,-0.6348 1.66373,-1.0507 1.05077,-0.416 2.36424,-0.416 0.83186,0 1.55427,0.2408 0.72241,0.2189 1.26968,0.6786 0.54728,0.4598 0.85376,1.1603 0.30647,0.7005 0.30647,1.6418 l 0,4.4877 q 0,0.5911 0.0438,1.2259 0.0438,0.6348 0.13134,1.0727 l -1.33536,0 q -0.0657,-0.3722 -0.10945,-0.81 -0.0438,-0.4378 -0.0438,-0.8538 l -0.0438,0 q -0.70051,1.0289 -1.59805,1.4886 -0.87564,0.4379 -2.12344,0.4379 -0.59106,0 -1.2259,-0.1752 -0.61295,-0.1532 -1.13834,-0.5254 -0.50349,-0.3721 -0.85375,-0.9632 -0.32837,-0.591 -0.32837,-1.4448 0,-1.1821 0.59106,-1.8607 0.61295,-0.7005 1.61994,-1.0289 1.007,-0.3503 2.29857,-0.4378 1.31347,-0.1095 2.7145,-0.1095 l 0,-0.3284 z m -0.43782,1.4886 q -0.91943,0 -1.86075,0.088 -0.91942,0.066 -1.68561,0.3065 -0.7443,0.2189 -1.22591,0.6567 -0.4816,0.4378 -0.4816,1.1602 0,0.5473 0.19702,0.9195 0.21891,0.3721 0.56917,0.6129 0.35026,0.2189 0.76619,0.3284 0.43782,0.088 0.87564,0.088 0.78808,0 1.40104,-0.2627 0.61295,-0.2846 1.02888,-0.7443 0.41593,-0.4816 0.63484,-1.0946 0.21891,-0.6129 0.21891,-1.2916 l 0,-0.7662 -0.43782,0 z"
             inkscape:connector-curvature="0" />
          <path
             id="path4975"
             style="font-style:normal;font-variant:normal;font-weight:normal;font-stretch:normal;font-size:21.89112663px;font-family:'Avenir Next';-inkscape-font-specification:'Avenir Next';letter-spacing:0px;fill:#6c5353"
             d="m -112.55824,1227.2645 q 0,-0.4159 -0.0219,-1.0727 -0.0219,-0.6567 -0.0657,-1.1821 l 1.42293,0 q 0.0438,0.4159 0.0657,0.9194 0.0219,0.5035 0.0219,0.8319 l 0.0438,0 q 0.43783,-0.8975 1.31347,-1.4448 0.87565,-0.5692 1.9702,-0.5692 0.28459,0 0.5035,0.022 0.2408,0.022 0.4816,0.088 l -0.19702,1.401 q -0.13134,-0.044 -0.43782,-0.088 -0.30647,-0.044 -0.61295,-0.044 -0.59106,0 -1.13834,0.2189 -0.54728,0.2189 -0.96321,0.7005 -0.39404,0.4597 -0.65673,1.204 -0.2408,0.7224 -0.2408,1.7513 l 0,5.2539 -1.4886,0 0,-7.9903 0,0 z"
             inkscape:connector-curvature="0" />
          <path
             id="path4977"
             style="font-style:normal;font-variant:normal;font-weight:normal;font-stretch:normal;font-size:21.89112663px;font-family:'Avenir Next';-inkscape-font-specification:'Avenir Next';letter-spacing:0px;fill:#6c5353"
             d="m -96.647842,1233.5254 q -0.656734,0.9851 -1.707508,1.4886 -1.050774,0.5035 -2.16722,0.5035 -1.20401,0 -2.18911,-0.416 -0.96321,-0.4159 -1.66373,-1.1383 -0.67862,-0.7224 -1.07267,-1.7075 -0.37214,-0.9851 -0.37214,-2.1235 0,-1.1383 0.37214,-2.1234 0.39405,-0.9851 1.07267,-1.7075 0.70052,-0.7224 1.66373,-1.1383 0.9851,-0.416 2.18911,-0.416 1.116446,0 2.16722,0.5254 1.050774,0.5035 1.707508,1.5105 l 0.04378,0 0,-8.0778 1.488597,0 0,16.5497 -1.488597,0 0,-1.7294 -0.04378,0 z m -7.596218,-3.3932 q 0,0.8538 0.26269,1.62 0.26269,0.7443 0.7443,1.3134 0.50349,0.5473 1.2259,0.8757 0.72241,0.3065 1.64184,0.3065 0.85375,0 1.576157,-0.3065 0.722408,-0.3284 1.247795,-0.8757 0.525387,-0.5472 0.809971,-1.2915 0.306476,-0.7662 0.306476,-1.6419 0,-0.8756 -0.306476,-1.6199 -0.284584,-0.7662 -0.809971,-1.3135 -0.525387,-0.5691 -1.247795,-0.8756 -0.722407,-0.3284 -1.576157,-0.3284 -0.91943,0 -1.64184,0.3284 -0.72241,0.3283 -1.2259,0.8975 -0.48161,0.5473 -0.7443,1.3135 -0.26269,0.7443 -0.26269,1.598 z"
             inkscape:connector-curvature="0" />
          <path
             id="path4979"
             style="font-style:normal;font-variant:normal;font-weight:normal;font-stretch:normal;font-size:21.89112663px;font-family:'Avenir Next';-inkscape-font-specification:'Avenir Next';letter-spacing:0px;fill:#6c5353"
             d="m -81.045628,1226.2575 -2.889629,0 0,5.9763 q 0,0.5692 0.109456,0.9413 0.109455,0.3722 0.306476,0.5911 0.218911,0.197 0.503496,0.2845 0.284584,0.066 0.612951,0.066 0.306476,0 0.634843,-0.088 0.350258,-0.088 0.656734,-0.2408 l 0.06567,1.2915 q -0.39404,0.1533 -0.831863,0.2189 -0.415931,0.088 -0.919427,0.088 -0.415932,0 -0.875645,-0.1094 -0.459714,-0.1095 -0.853754,-0.416 -0.39404,-0.3065 -0.656734,-0.8318 -0.240802,-0.5254 -0.240802,-1.3792 l 0,-6.3922 -2.12344,0 0,-1.2478 2.12344,0 0,-2.8896 1.488596,0 0,2.8896 2.889629,0 0,1.2478 z"
             inkscape:connector-curvature="0" />
          <path
             id="path4981"
             style="font-style:normal;font-variant:normal;font-weight:normal;font-stretch:normal;font-size:21.89112663px;font-family:'Avenir Next';-inkscape-font-specification:'Avenir Next';letter-spacing:0px;fill:#6c5353"
             d="m -77.22767,1235.2548 -1.488596,0 0,-10.2451 1.488596,0 0,10.2451 z m 0.306476,-14.1855 q 0,0.4597 -0.328367,0.7662 -0.328367,0.2846 -0.722407,0.2846 -0.39404,0 -0.722407,-0.2846 -0.328367,-0.3065 -0.328367,-0.7662 0,-0.4597 0.328367,-0.7443 0.328367,-0.3065 0.722407,-0.3065 0.39404,0 0.722407,0.3065 0.328367,0.2846 0.328367,0.7443 z"
             inkscape:connector-curvature="0" />
          <path
             id="path4983"
             style="font-style:normal;font-variant:normal;font-weight:normal;font-stretch:normal;font-size:21.89112663px;font-family:'Avenir Next';-inkscape-font-specification:'Avenir Next';letter-spacing:0px;fill:#6c5353"
             d="m -71.841429,1226.761 q 0.437823,-0.8975 1.335359,-1.4448 0.919427,-0.5692 2.035875,-0.5692 0.415931,0 0.853754,0.088 0.459713,0.088 0.875645,0.3502 0.437822,0.2408 0.78808,0.6568 0.37215,0.4159 0.634843,1.0726 0.525387,-1.0507 1.422923,-1.598 0.919428,-0.5692 2.167222,-0.5692 1.94831,0 2.91152,1.1602 0.9851,1.1603 0.9851,3.0648 l 0,6.2828 -1.488596,0 0,-5.6698 q 0,-1.62 -0.612952,-2.6051 -0.59106,-0.9851 -2.035875,-0.9851 -0.809971,0 -1.379141,0.3284 -0.547278,0.3283 -0.897536,0.8756 -0.328367,0.5254 -0.481605,1.204 -0.153237,0.6787 -0.153237,1.4011 l 0,5.4509 -1.488597,0 0,-5.9763 q 0,-0.7443 -0.109456,-1.3573 -0.109455,-0.6129 -0.39404,-1.0288 -0.262693,-0.4379 -0.744298,-0.6568 -0.481605,-0.2408 -1.225903,-0.2408 -0.525387,0 -1.072666,0.2408 -0.525387,0.2408 -0.963209,0.7443 -0.415932,0.4816 -0.678625,1.2478 -0.262694,0.7443 -0.262694,1.7732 l 0,5.2539 -1.488596,0 0,-7.9903 q 0,-0.4159 -0.02189,-1.0727 -0.02189,-0.6567 -0.06567,-1.1821 l 1.422924,0 q 0.04378,0.4159 0.06567,0.9194 0.02189,0.5035 0.02189,0.8319 l 0.04378,0 0,0 z"
             inkscape:connector-curvature="0" />
          <path
             id="path4985"
             style="font-style:normal;font-variant:normal;font-weight:normal;font-stretch:normal;font-size:21.89112663px;font-family:'Avenir Next';-inkscape-font-specification:'Avenir Next';letter-spacing:0px;fill:#6c5353"
             d="m -46.124487,1229.3442 q -0.06567,-1.4449 -0.941318,-2.3862 -0.853754,-0.9632 -2.451807,-0.9632 -0.744298,0 -1.379141,0.2846 -0.634842,0.2627 -1.116447,0.7443 -0.481605,0.4597 -0.766189,1.0727 -0.284585,0.591 -0.328367,1.2478 l 6.983269,0 z m 1.510488,0.4816 q 0,0.1532 0,0.3283 0,0.1752 -0.02189,0.3722 l -8.493757,0 q 0.02189,0.7662 0.306475,1.4448 0.284585,0.6786 0.788081,1.1821 0.503496,0.5035 1.182121,0.81 0.678625,0.2846 1.466705,0.2846 1.16023,0 1.992093,-0.5254 0.853754,-0.5473 1.291576,-1.2478 l 1.116448,0.8756 q -0.919428,1.1603 -2.035875,1.6638 -1.094556,0.5035 -2.364242,0.5035 -1.138338,0 -2.123439,-0.3941 -0.96321,-0.4159 -1.663726,-1.1383 -0.700516,-0.7224 -1.116447,-1.7075 -0.39404,-0.9851 -0.39404,-2.1454 0,-1.1602 0.39404,-2.1453 0.39404,-0.9851 1.094556,-1.7075 0.700516,-0.7224 1.641835,-1.1164 0.941318,-0.416 2.035874,-0.416 1.204012,0 2.12344,0.416 0.919427,0.394 1.532379,1.0945 0.612951,0.6786 0.919427,1.5981 0.328367,0.9194 0.328367,1.9702 z"
             inkscape:connector-curvature="0" />
          <path
             id="path4987"
             style="font-style:normal;font-variant:normal;font-weight:normal;font-stretch:normal;font-size:21.89112663px;font-family:'Avenir Next';-inkscape-font-specification:'Avenir Next';letter-spacing:0px;fill:#6c5353"
             d="m -39.902632,1226.761 q 0.437823,-0.8975 1.335359,-1.4448 0.919427,-0.5692 2.035875,-0.5692 0.415931,0 0.853754,0.088 0.459713,0.088 0.875645,0.3502 0.437822,0.2408 0.78808,0.6568 0.37215,0.4159 0.634843,1.0726 0.525387,-1.0507 1.422923,-1.598 0.919428,-0.5692 2.167222,-0.5692 1.94831,0 2.91152,1.1602 0.9851,1.1603 0.9851,3.0648 l 0,6.2828 -1.488596,0 0,-5.6698 q 0,-1.62 -0.612952,-2.6051 -0.59106,-0.9851 -2.035875,-0.9851 -0.809971,0 -1.379141,0.3284 -0.547278,0.3283 -0.897536,0.8756 -0.328367,0.5254 -0.481605,1.204 -0.153237,0.6787 -0.153237,1.4011 l 0,5.4509 -1.488597,0 0,-5.9763 q 0,-0.7443 -0.109456,-1.3573 -0.109455,-0.6129 -0.39404,-1.0288 -0.262693,-0.4379 -0.744298,-0.6568 -0.481605,-0.2408 -1.225903,-0.2408 -0.525387,0 -1.072666,0.2408 -0.525387,0.2408 -0.963209,0.7443 -0.415932,0.4816 -0.678625,1.2478 -0.262694,0.7443 -0.262694,1.7732 l 0,5.2539 -1.488596,0 0,-7.9903 q 0,-0.4159 -0.02189,-1.0727 -0.02189,-0.6567 -0.06567,-1.1821 l 1.422924,0 q 0.04378,0.4159 0.06567,0.9194 0.02189,0.5035 0.02189,0.8319 l 0.04378,0 0,0 z"
             inkscape:connector-curvature="0" />
          <path
             id="path4989"
             style="font-style:normal;font-variant:normal;font-weight:normal;font-stretch:normal;font-size:21.89112663px;font-family:'Avenir Next';-inkscape-font-specification:'Avenir Next';letter-spacing:0px;fill:#6c5353"
             d="m -15.542925,1228.6436 q 0,-1.3353 -0.700516,-1.9921 -0.700516,-0.6567 -2.035874,-0.6567 -0.919428,0 -1.707508,0.3284 -0.788081,0.3283 -1.335359,0.8756 l -0.831863,-0.9851 q 0.634843,-0.6348 1.663726,-1.0507 1.050774,-0.416 2.364242,-0.416 0.831862,0 1.55427,0.2408 0.722407,0.2189 1.269685,0.6786 0.547278,0.4598 0.853754,1.1603 0.306476,0.7005 0.306476,1.6418 l 0,4.4877 q 0,0.5911 0.04378,1.2259 0.04378,0.6348 0.131347,1.0727 l -1.335359,0 q -0.06567,-0.3722 -0.109456,-0.81 -0.04378,-0.4378 -0.04378,-0.8538 l -0.04378,0 q -0.700516,1.0289 -1.598053,1.4886 -0.875645,0.4379 -2.123439,0.4379 -0.59106,0 -1.225903,-0.1752 -0.612951,-0.1532 -1.138338,-0.5254 -0.503496,-0.3721 -0.853754,-0.9632 -0.328367,-0.591 -0.328367,-1.4448 0,-1.1821 0.59106,-1.8607 0.612952,-0.7005 1.619943,-1.0289 1.006992,-0.3503 2.298569,-0.4378 1.313467,-0.1095 2.714499,-0.1095 l 0,-0.3284 z m -0.437822,1.4886 q -0.919427,0 -1.860746,0.088 -0.919427,0.066 -1.685617,0.3065 -0.744298,0.2189 -1.225903,0.6567 -0.481604,0.4378 -0.481604,1.1602 0,0.5473 0.19702,0.9195 0.218911,0.3721 0.569169,0.6129 0.350258,0.2189 0.766189,0.3284 0.437823,0.088 0.875645,0.088 0.788081,0 1.401033,-0.2627 0.612951,-0.2846 1.028883,-0.7443 0.415931,-0.4816 0.634842,-1.0946 0.218911,-0.6129 0.218911,-1.2916 l 0,-0.7662 -0.437822,0 z"
             inkscape:connector-curvature="0" />
          <path
             id="path4991"
             style="font-style:normal;font-variant:normal;font-weight:normal;font-stretch:normal;font-size:21.89112663px;font-family:'Avenir Next';-inkscape-font-specification:'Avenir Next';letter-spacing:0px;fill:#6c5353"
             d="m -2.9083178,1227.3521 q -0.3721491,-0.5911 -1.0945563,-0.9632 -0.7005161,-0.3941 -1.5323789,-0.3941 -0.8975362,0 -1.6199434,0.3284 -0.7224071,0.3065 -1.2477942,0.8756 -0.5034959,0.5473 -0.7880805,1.3135 -0.2626935,0.7443 -0.2626935,1.6199 0,0.8757 0.2626935,1.62 0.2845846,0.7443 0.7880805,1.3134 0.5034959,0.5473 1.2259031,0.8757 0.7224072,0.3065 1.6199434,0.3065 0.9851007,0 1.6637256,-0.3722 0.6786249,-0.3721 1.1164475,-0.9632 l 1.1164474,0.8319 q -0.6567338,0.8099 -1.6199433,1.2915 -0.9413185,0.4817 -2.2766772,0.4817 -1.2477942,0 -2.2547861,-0.3941 -1.0069918,-0.4159 -1.729399,-1.1383 -0.7005158,-0.7224 -1.0945558,-1.7075 -0.394041,-0.9851 -0.394041,-2.1454 0,-1.1602 0.394041,-2.1453 0.39404,-0.9851 1.0945558,-1.7075 0.7224072,-0.7224 1.729399,-1.1164 1.0069919,-0.416 2.2547861,-0.416 1.0288829,0 2.079657,0.4597 1.0726652,0.4379 1.729399,1.3135 l -1.1602297,0.8319 z"
             inkscape:connector-curvature="0" />
          <path
             id="path4993"
             style="font-style:normal;font-variant:normal;font-weight:normal;font-stretch:normal;font-size:21.89112663px;font-family:'Avenir Next';-inkscape-font-specification:'Avenir Next';letter-spacing:0px;fill:#6c5353"
             d="m 2.2360903,1226.6953 q 0.4159314,-0.8975 1.379141,-1.4229 0.9632095,-0.5254 2.0577659,-0.5254 1.9483102,0 2.9115198,1.1602 0.9851007,1.1603 0.9851007,3.0648 l 0,6.2828 -1.4885966,0 0,-5.6698 q 0,-0.81 -0.1313468,-1.4667 -0.1313467,-0.6568 -0.4597136,-1.1165 -0.3064758,-0.4816 -0.8537539,-0.7443 -0.5253871,-0.2627 -1.3353588,-0.2627 -0.5910604,0 -1.1602297,0.2408 -0.5472782,0.2408 -0.9851007,0.7443 -0.4378225,0.4816 -0.700516,1.2478 -0.2626936,0.7443 -0.2626936,1.7732 l 0,5.2539 -1.48859657,0 0,-16.5497 1.48859657,0 0,7.9902 0.043782,0 z"
             inkscape:connector-curvature="0" />
          <path
             id="path4995"
             style="font-style:normal;font-variant:normal;font-weight:normal;font-stretch:normal;font-size:21.89112663px;font-family:'Avenir Next';-inkscape-font-specification:'Avenir Next';letter-spacing:0px;fill:#6c5353"
             d="m 14.91175,1235.2548 -1.488597,0 0,-10.2451 1.488597,0 0,10.2451 z m 0.306476,-14.1855 q 0,0.4597 -0.328367,0.7662 -0.328367,0.2846 -0.722407,0.2846 -0.394041,0 -0.722408,-0.2846 -0.328366,-0.3065 -0.328366,-0.7662 0,-0.4597 0.328366,-0.7443 0.328367,-0.3065 0.722408,-0.3065 0.39404,0 0.722407,0.3065 0.328367,0.2846 0.328367,0.7443 z"
             inkscape:connector-curvature="0" />
          <path
             id="path4997"
             style="font-style:normal;font-variant:normal;font-weight:normal;font-stretch:normal;font-size:21.89112663px;font-family:'Avenir Next';-inkscape-font-specification:'Avenir Next';letter-spacing:0px;fill:#6c5353"
             d="m 20.166644,1225.0097 q 0.04378,0.4159 0.06567,0.9194 0.02189,0.5035 0.02189,0.8319 l 0.04378,0 q 0.437822,-0.8975 1.422923,-1.4448 0.985101,-0.5692 2.079657,-0.5692 1.94831,0 2.91152,1.1602 0.985101,1.1603 0.985101,3.0648 l 0,6.2828 -1.488597,0 0,-5.6698 q 0,-0.81 -0.131347,-1.4667 -0.131346,-0.6568 -0.459713,-1.1165 -0.306476,-0.4816 -0.853754,-0.7443 -0.525387,-0.2627 -1.335359,-0.2627 -0.59106,0 -1.16023,0.2408 -0.547278,0.2408 -0.9851,0.7443 -0.437823,0.4816 -0.700516,1.2478 -0.262694,0.7443 -0.262694,1.7732 l 0,5.2539 -1.488597,0 0,-7.9903 q 0,-0.4159 -0.02189,-1.0727 -0.02189,-0.6567 -0.06567,-1.1821 l 1.422923,0 z"
             inkscape:connector-curvature="0" />
          <path
             id="path4999"
             style="font-style:normal;font-variant:normal;font-weight:normal;font-stretch:normal;font-size:21.89112663px;font-family:'Avenir Next';-inkscape-font-specification:'Avenir Next';letter-spacing:0px;fill:#6c5353"
             d="m 39.38772,1229.3442 q -0.06567,-1.4449 -0.941318,-2.3862 -0.853754,-0.9632 -2.451807,-0.9632 -0.744298,0 -1.379141,0.2846 -0.634842,0.2627 -1.116447,0.7443 -0.481605,0.4597 -0.766189,1.0727 -0.284585,0.591 -0.328367,1.2478 l 6.983269,0 z m 1.510488,0.4816 q 0,0.1532 0,0.3283 0,0.1752 -0.02189,0.3722 l -8.493757,0 q 0.02189,0.7662 0.306475,1.4448 0.284585,0.6786 0.788081,1.1821 0.503496,0.5035 1.182121,0.81 0.678625,0.2846 1.466705,0.2846 1.16023,0 1.992093,-0.5254 0.853754,-0.5473 1.291576,-1.2478 l 1.116448,0.8756 q -0.919428,1.1603 -2.035875,1.6638 -1.094556,0.5035 -2.364242,0.5035 -1.138338,0 -2.123439,-0.3941 -0.96321,-0.4159 -1.663726,-1.1383 -0.700516,-0.7224 -1.116447,-1.7075 -0.39404,-0.9851 -0.39404,-2.1454 0,-1.1602 0.39404,-2.1453 0.39404,-0.9851 1.094556,-1.7075 0.700516,-0.7224 1.641835,-1.1164 0.941318,-0.416 2.035874,-0.416 1.204012,0 2.12344,0.416 0.919427,0.394 1.532379,1.0945 0.612951,0.6786 0.919427,1.5981 0.328367,0.9194 0.328367,1.9702 z"
             inkscape:connector-curvature="0" />
        </g>
        <g
           transform="translate(-26.23132,0)"
           id="g4881">
          <rect
             style="opacity:1;fill:#ffffff;fill-opacity:1;stroke:none;stroke-width:3.9000001;stroke-linecap:round;stroke-linejoin:round;stroke-miterlimit:4;stroke-dasharray:none;stroke-opacity:1"
             id="rect4877"
             width="252.29758"
             height="98.587914"
             x="-678.66467"
             y="851.99951"
             transform="scale(-1,1)"
             rx="30.370707"
             ry="14.01718" />
          <rect
             ry="14.01718"
             rx="30.370707"
             transform="scale(-1,1)"
             y="851.99951"
             x="-52.951923"
             height="98.587914"
             width="252.29758"
             id="rect4879"
             style="opacity:1;fill:#ffffff;fill-opacity:1;stroke:none;stroke-width:3.9000001;stroke-linecap:round;stroke-linejoin:round;stroke-miterlimit:4;stroke-dasharray:none;stroke-opacity:1" />
        </g>
      </g>
    </g>
  </g>
</svg>
