<?xml version="1.0" encoding="UTF-8" standalone="no"?>
<!-- Created with Inkscape (http://www.inkscape.org/) -->

<svg
   xmlns:dc="http://purl.org/dc/elements/1.1/"
   xmlns:cc="http://creativecommons.org/ns#"
   xmlns:rdf="http://www.w3.org/1999/02/22-rdf-syntax-ns#"
   xmlns:svg="http://www.w3.org/2000/svg"
   xmlns="http://www.w3.org/2000/svg"
   xmlns:xlink="http://www.w3.org/1999/xlink"
   xmlns:sodipodi="http://sodipodi.sourceforge.net/DTD/sodipodi-0.dtd"
   xmlns:inkscape="http://www.inkscape.org/namespaces/inkscape"
   width="1608.9907"
   height="962.64148"
   viewBox="0 0 1608.9907 962.64148"
   id="svg2"
   version="1.1"
   inkscape:version="0.91 r13725"
   sodipodi:docname="dmg_background.svg"
   inkscape:export-filename="/Users/jason/workspace/CutBox/CutBox/CutBox/GraphicAssets/dmg_background.png"
   inkscape:export-xdpi="46.762234"
   inkscape:export-ydpi="46.762234">
  <defs
     id="defs4">
    <linearGradient
       inkscape:collect="always"
       id="linearGradient4843">
      <stop
         style="stop-color:#2a859b;stop-opacity:1"
         offset="0"
         id="stop4845" />
      <stop
         style="stop-color:#e5f3f6;stop-opacity:0"
         offset="1"
         id="stop4847" />
    </linearGradient>
    <marker
       inkscape:stockid="TriangleInL"
       orient="auto"
       refY="0"
       refX="0"
       id="TriangleInL"
       style="overflow:visible"
       inkscape:isstock="true">
      <path
         id="path4275"
         d="m 5.77,0 -8.65,5 0,-10 8.65,5 z"
         style="fill:#000000;fill-opacity:1;fill-rule:evenodd;stroke:#000000;stroke-width:1pt;stroke-opacity:1"
         transform="scale(-0.8,-0.8)"
         inkscape:connector-curvature="0" />
    </marker>
    <marker
       inkscape:stockid="Arrow2Lstart"
       orient="auto"
       refY="0"
       refX="0"
       id="Arrow2Lstart"
       style="overflow:visible"
       inkscape:isstock="true">
      <path
         id="path4160"
         style="fill:#000000;fill-opacity:1;fill-rule:evenodd;stroke:#000000;stroke-width:0.625;stroke-linejoin:round;stroke-opacity:1"
         d="M 8.7185878,4.0337352 -2.2072895,0.01601326 8.7185884,-4.0017078 c -1.7454984,2.3720609 -1.7354408,5.6174519 -6e-7,8.035443 z"
         transform="matrix(1.1,0,0,1.1,1.1,0)"
         inkscape:connector-curvature="0" />
    </marker>
    <linearGradient
       inkscape:collect="always"
       xlink:href="#linearGradient4843"
       id="linearGradient4849"
       x1="309.84293"
       y1="214.53616"
       x2="224.33656"
       y2="214.53616"
       gradientUnits="userSpaceOnUse"
       gradientTransform="matrix(-2.6395182,0,0,1.2101819,913.33973,578.57415)" />
    <linearGradient
       gradientTransform="matrix(0.4548137,0,0,0.45481371,-1026.0112,1140.1751)"
       inkscape:collect="always"
       xlink:href="#linearGradient4938"
       id="linearGradient4936"
       x1="110.85125"
       y1="556.36218"
       x2="692.82031"
       y2="524.36218"
       gradientUnits="userSpaceOnUse" />
    <linearGradient
       id="linearGradient4938"
       inkscape:collect="always">
      <stop
         id="stop4940"
         offset="0"
         style="stop-color:#37abc8;stop-opacity:1;" />
      <stop
         id="stop4942"
         offset="1"
         style="stop-color:#addce8;stop-opacity:1" />
    </linearGradient>
    <linearGradient
       gradientTransform="matrix(0.4548137,0,0,0.45481371,-1026.0112,1140.1751)"
       inkscape:collect="always"
       xlink:href="#linearGradient4964"
       id="linearGradient4960"
       x1="263.27173"
       y1="532.36218"
       x2="1011.5177"
       y2="564.36218"
       gradientUnits="userSpaceOnUse" />
    <linearGradient
       inkscape:collect="always"
       id="linearGradient4964">
      <stop
         style="stop-color:#0789a8;stop-opacity:1"
         offset="0"
         id="stop4966" />
      <stop
         style="stop-color:#ffffff;stop-opacity:1"
         offset="1"
         id="stop4968" />
    </linearGradient>
    <linearGradient
       gradientTransform="matrix(0.4548137,0,0,0.45481371,-1026.0112,1140.1751)"
       inkscape:collect="always"
       xlink:href="#linearGradient4954"
       id="linearGradient4952"
       x1="69.282036"
       y1="484.36215"
       x2="817.52795"
       y2="644.36218"
       gradientUnits="userSpaceOnUse" />
    <linearGradient
       id="linearGradient4954"
       inkscape:collect="always">
      <stop
         id="stop4956"
         offset="0"
         style="stop-color:#216778;stop-opacity:1;" />
      <stop
         id="stop4958"
         offset="1"
         style="stop-color:#3097b0;stop-opacity:1" />
    </linearGradient>
    <linearGradient
       inkscape:collect="always"
       xlink:href="#linearGradient4938"
       id="linearGradient4941"
       gradientUnits="userSpaceOnUse"
       gradientTransform="matrix(0.4548137,0,0,0.45481371,-1026.0112,1140.1751)"
       x1="110.85125"
       y1="556.36218"
       x2="692.82031"
       y2="524.36218" />
    <linearGradient
       inkscape:collect="always"
       xlink:href="#linearGradient4964"
       id="linearGradient4943"
       gradientUnits="userSpaceOnUse"
       gradientTransform="matrix(0.4548137,0,0,0.45481371,-1026.0112,1140.1751)"
       x1="263.27173"
       y1="532.36218"
       x2="1011.5177"
       y2="564.36218" />
    <linearGradient
       inkscape:collect="always"
       xlink:href="#linearGradient4954"
       id="linearGradient4945"
       gradientUnits="userSpaceOnUse"
       gradientTransform="matrix(0.4548137,0,0,0.45481371,-1026.0112,1140.1751)"
       x1="69.282036"
       y1="484.36215"
       x2="817.52795"
       y2="644.36218" />
    <linearGradient
       inkscape:collect="always"
       xlink:href="#linearGradient4938"
       id="linearGradient5078"
       gradientUnits="userSpaceOnUse"
       gradientTransform="matrix(0.4548137,0,0,0.45481371,-1026.0112,1140.1751)"
       x1="110.85125"
       y1="556.36218"
       x2="692.82031"
       y2="524.36218" />
    <linearGradient
       inkscape:collect="always"
       xlink:href="#linearGradient4964"
       id="linearGradient5080"
       gradientUnits="userSpaceOnUse"
       gradientTransform="matrix(0.4548137,0,0,0.45481371,-1026.0112,1140.1751)"
       x1="263.27173"
       y1="532.36218"
       x2="1011.5177"
       y2="564.36218" />
    <linearGradient
       inkscape:collect="always"
       xlink:href="#linearGradient4954"
       id="linearGradient5082"
       gradientUnits="userSpaceOnUse"
       gradientTransform="matrix(0.4548137,0,0,0.45481371,-1026.0112,1140.1751)"
       x1="69.282036"
       y1="484.36215"
       x2="817.52795"
       y2="644.36218" />
    <linearGradient
       inkscape:collect="always"
       xlink:href="#linearGradient4938"
       id="linearGradient5084"
       gradientUnits="userSpaceOnUse"
       gradientTransform="matrix(0.4548137,0,0,0.45481371,-1026.0112,1140.1751)"
       x1="110.85125"
       y1="556.36218"
       x2="692.82031"
       y2="524.36218" />
    <linearGradient
       inkscape:collect="always"
       xlink:href="#linearGradient4954"
       id="linearGradient5086"
       gradientUnits="userSpaceOnUse"
       gradientTransform="matrix(0.4548137,0,0,0.45481371,-1026.0112,1140.1751)"
       x1="69.282036"
       y1="484.36215"
       x2="817.52795"
       y2="644.36218" />
    <linearGradient
       inkscape:collect="always"
       xlink:href="#linearGradient4964"
       id="linearGradient5088"
       gradientUnits="userSpaceOnUse"
       gradientTransform="matrix(0.4548137,0,0,0.45481371,-1026.0112,1140.1751)"
       x1="263.27173"
       y1="532.36218"
       x2="1011.5177"
       y2="564.36218" />
    <linearGradient
       inkscape:collect="always"
       xlink:href="#linearGradient4938"
       id="linearGradient5104"
       gradientUnits="userSpaceOnUse"
       gradientTransform="matrix(0.4548137,0,0,0.45481371,-1026.0112,1140.1751)"
       x1="110.85125"
       y1="556.36218"
       x2="692.82031"
       y2="524.36218" />
    <linearGradient
       inkscape:collect="always"
       xlink:href="#linearGradient4964"
       id="linearGradient5106"
       gradientUnits="userSpaceOnUse"
       gradientTransform="matrix(0.4548137,0,0,0.45481371,-1026.0112,1140.1751)"
       x1="263.27173"
       y1="532.36218"
       x2="1011.5177"
       y2="564.36218" />
    <linearGradient
       inkscape:collect="always"
       xlink:href="#linearGradient4954"
       id="linearGradient5108"
       gradientUnits="userSpaceOnUse"
       gradientTransform="matrix(0.4548137,0,0,0.45481371,-1026.0112,1140.1751)"
       x1="69.282036"
       y1="484.36215"
       x2="817.52795"
       y2="644.36218" />
    <linearGradient
       inkscape:collect="always"
       xlink:href="#linearGradient4938"
       id="linearGradient5110"
       gradientUnits="userSpaceOnUse"
       gradientTransform="matrix(0.4548137,0,0,0.45481371,-1026.0112,1140.1751)"
       x1="110.85125"
       y1="556.36218"
       x2="692.82031"
       y2="524.36218" />
    <linearGradient
       inkscape:collect="always"
       xlink:href="#linearGradient4954"
       id="linearGradient5112"
       gradientUnits="userSpaceOnUse"
       gradientTransform="matrix(0.4548137,0,0,0.45481371,-1026.0112,1140.1751)"
       x1="69.282036"
       y1="484.36215"
       x2="817.52795"
       y2="644.36218" />
    <linearGradient
       inkscape:collect="always"
       xlink:href="#linearGradient4964"
       id="linearGradient5114"
       gradientUnits="userSpaceOnUse"
       gradientTransform="matrix(0.4548137,0,0,0.45481371,-1026.0112,1140.1751)"
       x1="263.27173"
       y1="532.36218"
       x2="1011.5177"
       y2="564.36218" />
    <linearGradient
       inkscape:collect="always"
       xlink:href="#linearGradient4938"
       id="linearGradient5265"
       gradientUnits="userSpaceOnUse"
       gradientTransform="matrix(0.4548137,0,0,0.45481371,-1026.0112,1140.1751)"
       x1="110.85125"
       y1="556.36218"
       x2="692.82031"
       y2="524.36218" />
    <linearGradient
       inkscape:collect="always"
       xlink:href="#linearGradient4964"
       id="linearGradient5267"
       gradientUnits="userSpaceOnUse"
       gradientTransform="matrix(0.4548137,0,0,0.45481371,-1026.0112,1140.1751)"
       x1="263.27173"
       y1="532.36218"
       x2="1011.5177"
       y2="564.36218" />
    <linearGradient
       inkscape:collect="always"
       xlink:href="#linearGradient4954"
       id="linearGradient5269"
       gradientUnits="userSpaceOnUse"
       gradientTransform="matrix(0.4548137,0,0,0.45481371,-1026.0112,1140.1751)"
       x1="69.282036"
       y1="484.36215"
       x2="817.52795"
       y2="644.36218" />
    <linearGradient
       inkscape:collect="always"
       xlink:href="#linearGradient4938"
       id="linearGradient5271"
       gradientUnits="userSpaceOnUse"
       gradientTransform="matrix(0.4548137,0,0,0.45481371,-1026.0112,1140.1751)"
       x1="110.85125"
       y1="556.36218"
       x2="692.82031"
       y2="524.36218" />
    <linearGradient
       inkscape:collect="always"
       xlink:href="#linearGradient4954"
       id="linearGradient5273"
       gradientUnits="userSpaceOnUse"
       gradientTransform="matrix(0.4548137,0,0,0.45481371,-1026.0112,1140.1751)"
       x1="69.282036"
       y1="484.36215"
       x2="817.52795"
       y2="644.36218" />
    <linearGradient
       inkscape:collect="always"
       xlink:href="#linearGradient4964"
       id="linearGradient5275"
       gradientUnits="userSpaceOnUse"
       gradientTransform="matrix(0.4548137,0,0,0.45481371,-1026.0112,1140.1751)"
       x1="263.27173"
       y1="532.36218"
       x2="1011.5177"
       y2="564.36218" />
    <linearGradient
       inkscape:collect="always"
       xlink:href="#linearGradient4938"
       id="linearGradient5277"
       gradientUnits="userSpaceOnUse"
       gradientTransform="matrix(0.4548137,0,0,0.45481371,-1026.0112,1140.1751)"
       x1="110.85125"
       y1="556.36218"
       x2="692.82031"
       y2="524.36218" />
    <linearGradient
       inkscape:collect="always"
       xlink:href="#linearGradient4964"
       id="linearGradient5279"
       gradientUnits="userSpaceOnUse"
       gradientTransform="matrix(0.4548137,0,0,0.45481371,-1026.0112,1140.1751)"
       x1="263.27173"
       y1="532.36218"
       x2="1011.5177"
       y2="564.36218" />
    <linearGradient
       inkscape:collect="always"
       xlink:href="#linearGradient4954"
       id="linearGradient5281"
       gradientUnits="userSpaceOnUse"
       gradientTransform="matrix(0.4548137,0,0,0.45481371,-1026.0112,1140.1751)"
       x1="69.282036"
       y1="484.36215"
       x2="817.52795"
       y2="644.36218" />
    <linearGradient
       inkscape:collect="always"
       xlink:href="#linearGradient4938"
       id="linearGradient5283"
       gradientUnits="userSpaceOnUse"
       gradientTransform="matrix(0.4548137,0,0,0.45481371,-1026.0112,1140.1751)"
       x1="110.85125"
       y1="556.36218"
       x2="692.82031"
       y2="524.36218" />
    <linearGradient
       inkscape:collect="always"
       xlink:href="#linearGradient4954"
       id="linearGradient5285"
       gradientUnits="userSpaceOnUse"
       gradientTransform="matrix(0.4548137,0,0,0.45481371,-1026.0112,1140.1751)"
       x1="69.282036"
       y1="484.36215"
       x2="817.52795"
       y2="644.36218" />
    <linearGradient
       inkscape:collect="always"
       xlink:href="#linearGradient4964"
       id="linearGradient5287"
       gradientUnits="userSpaceOnUse"
       gradientTransform="matrix(0.4548137,0,0,0.45481371,-1026.0112,1140.1751)"
       x1="263.27173"
       y1="532.36218"
       x2="1011.5177"
       y2="564.36218" />
    <linearGradient
       inkscape:collect="always"
       xlink:href="#linearGradient4938"
       id="linearGradient5289"
       gradientUnits="userSpaceOnUse"
       gradientTransform="matrix(0.4548137,0,0,0.45481371,-1026.0112,1140.1751)"
       x1="110.85125"
       y1="556.36218"
       x2="692.82031"
       y2="524.36218" />
    <linearGradient
       inkscape:collect="always"
       xlink:href="#linearGradient4964"
       id="linearGradient5291"
       gradientUnits="userSpaceOnUse"
       gradientTransform="matrix(0.4548137,0,0,0.45481371,-1026.0112,1140.1751)"
       x1="263.27173"
       y1="532.36218"
       x2="1011.5177"
       y2="564.36218" />
    <linearGradient
       inkscape:collect="always"
       xlink:href="#linearGradient4954"
       id="linearGradient5293"
       gradientUnits="userSpaceOnUse"
       gradientTransform="matrix(0.4548137,0,0,0.45481371,-1026.0112,1140.1751)"
       x1="69.282036"
       y1="484.36215"
       x2="817.52795"
       y2="644.36218" />
    <linearGradient
       inkscape:collect="always"
       xlink:href="#linearGradient4938"
       id="linearGradient5295"
       gradientUnits="userSpaceOnUse"
       gradientTransform="matrix(0.4548137,0,0,0.45481371,-1026.0112,1140.1751)"
       x1="110.85125"
       y1="556.36218"
       x2="692.82031"
       y2="524.36218" />
    <linearGradient
       inkscape:collect="always"
       xlink:href="#linearGradient4954"
       id="linearGradient5297"
       gradientUnits="userSpaceOnUse"
       gradientTransform="matrix(0.4548137,0,0,0.45481371,-1026.0112,1140.1751)"
       x1="69.282036"
       y1="484.36215"
       x2="817.52795"
       y2="644.36218" />
    <linearGradient
       inkscape:collect="always"
       xlink:href="#linearGradient4964"
       id="linearGradient5299"
       gradientUnits="userSpaceOnUse"
       gradientTransform="matrix(0.4548137,0,0,0.45481371,-1026.0112,1140.1751)"
       x1="263.27173"
       y1="532.36218"
       x2="1011.5177"
       y2="564.36218" />
    <mask
       maskUnits="userSpaceOnUse"
       id="mask5353">
      <g
         id="g5355"
         transform="translate(2.2693331e-5,-63.598979)"
         style="fill:#b7dde6;fill-opacity:1">
        <rect
           transform="scale(-1,1)"
           y="754.72217"
           x="-772.10028"
           height="161.10707"
           width="1120.5396"
           id="rect5357"
           style="opacity:1;fill:#b7dde6;fill-opacity:1;stroke:none;stroke-width:3.9000001;stroke-linecap:round;stroke-linejoin:round;stroke-miterlimit:4;stroke-dasharray:none;stroke-opacity:1" />
      </g>
    </mask>
  </defs>
  <sodipodi:namedview
     id="base"
     pagecolor="#ffffff"
     bordercolor="#666666"
     borderopacity="1.0"
     inkscape:pageopacity="0.0"
     inkscape:pageshadow="2"
     inkscape:zoom="0.4652977"
     inkscape:cx="530.6756"
     inkscape:cy="450.86118"
     inkscape:document-units="px"
     inkscape:current-layer="g5001"
     showgrid="false"
     units="px"
     inkscape:window-width="1680"
     inkscape:window-height="1002"
     inkscape:window-x="0"
     inkscape:window-y="0"
     inkscape:window-maximized="1"
     showguides="false"
     inkscape:guide-bbox="true"
     fit-margin-top="0"
     fit-margin-left="0"
     fit-margin-right="0"
     fit-margin-bottom="0">
    <sodipodi:guide
       position="1605,877.97537"
       orientation="1,0"
       id="guide5051"
       inkscape:label=""
       inkscape:color="rgb(0,0,255)" />
    <sodipodi:guide
       position="1531.411,960.00005"
       orientation="0,1"
       id="guide5053"
       inkscape:label=""
       inkscape:color="rgb(0,0,255)" />
  </sodipodi:namedview>
  <metadata
     id="metadata7">
    <rdf:RDF>
      <cc:Work
         rdf:about="">
        <dc:format>image/svg+xml</dc:format>
        <dc:type
           rdf:resource="http://purl.org/dc/dcmitype/StillImage" />
        <dc:title />
      </cc:Work>
    </rdf:RDF>
  </metadata>
  <g
     inkscape:label="Layer 1"
     inkscape:groupmode="layer"
     id="layer1"
     transform="translate(4.8208201e-6,-89.720716)">
    <g
       id="g4834"
       transform="matrix(-0.44748967,0,0,1.049212,345.50691,25.980847)"
       style="fill:#483737">
      <g
         id="g5001"
         transform="matrix(3.208805,0,0,3.208805,-1705.419,-2160.7417)">
        <g
           id="g5301"
           transform="translate(0,1.1881012)"
           mask="url(#mask5353)">
          <g
             transform="translate(176.61385,-7.0219091)"
             id="g5116">
            <g
               style="font-style:normal;font-variant:normal;font-weight:bold;font-stretch:normal;font-size:medium;line-height:125%;font-family:sans-serif;-inkscape-font-specification:'sans-serif, Bold';text-align:start;letter-spacing:0px;word-spacing:0px;writing-mode:lr-tb;text-anchor:start;fill:#0f1c2f;fill-opacity:1;stroke:none;stroke-width:1px;stroke-linecap:butt;stroke-linejoin:miter;stroke-opacity:1"
               transform="matrix(-1.9389325,0,0,0.82695611,-1577.7037,-167.83181)"
               id="g5090">
              <path
                 style="opacity:1;fill:url(#linearGradient5104);fill-opacity:1;fill-rule:evenodd;stroke:none;stroke-width:1px;stroke-linecap:butt;stroke-linejoin:miter;stroke-opacity:1"
                 d="m -902.3019,1385.9393 54.57765,94.5312 109.1553,0 54.57764,94.5313 -218.3106,0 -109.15529,-189.0625 z"
                 id="path5092"
                 inkscape:connector-curvature="0" />
              <path
                 style="opacity:1;fill:url(#linearGradient5106);fill-opacity:1;fill-rule:evenodd;stroke:none;stroke-width:1px;stroke-linecap:butt;stroke-linejoin:miter;stroke-opacity:1"
                 d="m -738.56895,1480.4705 54.57764,94.5313 109.15529,-189.0625 -109.15529,-189.0625 -54.57766,94.5312 54.57765,94.5313 z"
                 id="path5094"
                 inkscape:connector-curvature="0" />
              <path
                 style="opacity:1;fill:url(#linearGradient5108);fill-opacity:1;fill-rule:evenodd;stroke:none;stroke-width:1px;stroke-linecap:butt;stroke-linejoin:miter;stroke-opacity:1"
                 d="m -1011.4572,1385.9393 109.1553,0 54.57765,-94.5313 109.15528,0 54.57766,-94.5312 -218.31058,0 z"
                 id="path5096"
                 inkscape:connector-curvature="0" />
              <path
                 style="opacity:1;fill:url(#linearGradient5110);fill-opacity:1;fill-rule:evenodd;stroke:none;stroke-width:1px;stroke-linecap:butt;stroke-linejoin:miter;stroke-opacity:1"
                 d="m -793.1466,1385.9393 -54.57764,-94.5313 109.15527,0 54.57765,94.5313 z"
                 id="path5098"
                 inkscape:connector-curvature="0" />
              <path
                 style="opacity:1;fill:url(#linearGradient5112);fill-opacity:1;fill-rule:evenodd;stroke:none;stroke-width:1px;stroke-linecap:butt;stroke-linejoin:miter;stroke-opacity:1"
                 d="m -793.1466,1385.9393 109.15529,0 -54.57764,94.5312 -109.15529,0 z"
                 id="path5100"
                 inkscape:connector-curvature="0" />
              <path
                 style="opacity:1;fill:url(#linearGradient5114);fill-opacity:1;fill-rule:evenodd;stroke:none;stroke-width:1px;stroke-linecap:butt;stroke-linejoin:miter;stroke-opacity:1"
                 d="m -902.3019,1385.9393 54.57765,94.5312 54.57765,-94.5312 -54.57765,-94.5313 z"
                 id="path5102"
                 inkscape:connector-curvature="0" />
            </g>
            <g
               id="g5064"
               transform="matrix(-1.9389325,0,0,0.82695611,-1573.2136,-478.07252)"
               style="font-style:normal;font-variant:normal;font-weight:bold;font-stretch:normal;font-size:medium;line-height:125%;font-family:sans-serif;-inkscape-font-specification:'sans-serif, Bold';text-align:start;letter-spacing:0px;word-spacing:0px;writing-mode:lr-tb;text-anchor:start;fill:#0f1c2f;fill-opacity:1;stroke:none;stroke-width:1px;stroke-linecap:butt;stroke-linejoin:miter;stroke-opacity:1">
              <path
                 inkscape:connector-curvature="0"
                 id="path5066"
                 d="m -902.3019,1385.9393 54.57765,94.5312 109.1553,0 54.57764,94.5313 -218.3106,0 -109.15529,-189.0625 z"
                 style="opacity:1;fill:url(#linearGradient5078);fill-opacity:1;fill-rule:evenodd;stroke:none;stroke-width:1px;stroke-linecap:butt;stroke-linejoin:miter;stroke-opacity:1" />
              <path
                 inkscape:connector-curvature="0"
                 id="path5068"
                 d="m -738.56895,1480.4705 54.57764,94.5313 109.15529,-189.0625 -109.15529,-189.0625 -54.57766,94.5312 54.57765,94.5313 z"
                 style="opacity:1;fill:url(#linearGradient5080);fill-opacity:1;fill-rule:evenodd;stroke:none;stroke-width:1px;stroke-linecap:butt;stroke-linejoin:miter;stroke-opacity:1" />
              <path
                 inkscape:connector-curvature="0"
                 id="path5070"
                 d="m -1011.4572,1385.9393 109.1553,0 54.57765,-94.5313 109.15528,0 54.57766,-94.5312 -218.31058,0 z"
                 style="opacity:1;fill:url(#linearGradient5082);fill-opacity:1;fill-rule:evenodd;stroke:none;stroke-width:1px;stroke-linecap:butt;stroke-linejoin:miter;stroke-opacity:1" />
              <path
                 inkscape:connector-curvature="0"
                 id="path5072"
                 d="m -793.1466,1385.9393 -54.57764,-94.5313 109.15527,0 54.57765,94.5313 z"
                 style="opacity:1;fill:url(#linearGradient5084);fill-opacity:1;fill-rule:evenodd;stroke:none;stroke-width:1px;stroke-linecap:butt;stroke-linejoin:miter;stroke-opacity:1" />
              <path
                 inkscape:connector-curvature="0"
                 id="path5074"
                 d="m -793.1466,1385.9393 109.15529,0 -54.57764,94.5312 -109.15529,0 z"
                 style="opacity:1;fill:url(#linearGradient5086);fill-opacity:1;fill-rule:evenodd;stroke:none;stroke-width:1px;stroke-linecap:butt;stroke-linejoin:miter;stroke-opacity:1" />
              <path
                 inkscape:connector-curvature="0"
                 id="path5076"
                 d="m -902.3019,1385.9393 54.57765,94.5312 54.57765,-94.5312 -54.57765,-94.5313 z"
                 style="opacity:1;fill:url(#linearGradient5088);fill-opacity:1;fill-rule:evenodd;stroke:none;stroke-width:1px;stroke-linecap:butt;stroke-linejoin:miter;stroke-opacity:1" />
            </g>
            <g
               style="font-style:normal;font-variant:normal;font-weight:bold;font-stretch:normal;font-size:medium;line-height:125%;font-family:sans-serif;-inkscape-font-specification:'sans-serif, Bold';text-align:start;letter-spacing:0px;word-spacing:0px;writing-mode:lr-tb;text-anchor:start;fill:#0f1c2f;fill-opacity:1;stroke:none;stroke-width:1px;stroke-linecap:butt;stroke-linejoin:miter;stroke-opacity:1"
               transform="matrix(-1.9389325,0,0,0.82695611,-938.2894,-322.31381)"
               id="g4959">
              <path
                 style="opacity:1;fill:url(#linearGradient4941);fill-opacity:1;fill-rule:evenodd;stroke:none;stroke-width:1px;stroke-linecap:butt;stroke-linejoin:miter;stroke-opacity:1"
                 d="m -902.3019,1385.9393 54.57765,94.5312 109.1553,0 54.57764,94.5313 -218.3106,0 -109.15529,-189.0625 z"
                 id="path4202"
                 inkscape:connector-curvature="0" />
              <path
                 style="opacity:1;fill:url(#linearGradient4943);fill-opacity:1;fill-rule:evenodd;stroke:none;stroke-width:1px;stroke-linecap:butt;stroke-linejoin:miter;stroke-opacity:1"
                 d="m -738.56895,1480.4705 54.57764,94.5313 109.15529,-189.0625 -109.15529,-189.0625 -54.57766,94.5312 54.57765,94.5313 z"
                 id="path4204"
                 inkscape:connector-curvature="0" />
              <path
                 style="opacity:1;fill:url(#linearGradient4945);fill-opacity:1;fill-rule:evenodd;stroke:none;stroke-width:1px;stroke-linecap:butt;stroke-linejoin:miter;stroke-opacity:1"
                 d="m -1011.4572,1385.9393 109.1553,0 54.57765,-94.5313 109.15528,0 54.57766,-94.5312 -218.31058,0 z"
                 id="path4206"
                 inkscape:connector-curvature="0" />
              <path
                 style="opacity:1;fill:url(#linearGradient4936);fill-opacity:1;fill-rule:evenodd;stroke:none;stroke-width:1px;stroke-linecap:butt;stroke-linejoin:miter;stroke-opacity:1"
                 d="m -793.1466,1385.9393 -54.57764,-94.5313 109.15527,0 54.57765,94.5313 z"
                 id="path4208"
                 inkscape:connector-curvature="0" />
              <path
                 style="opacity:1;fill:url(#linearGradient4952);fill-opacity:1;fill-rule:evenodd;stroke:none;stroke-width:1px;stroke-linecap:butt;stroke-linejoin:miter;stroke-opacity:1"
                 d="m -793.1466,1385.9393 109.15529,0 -54.57764,94.5312 -109.15529,0 z"
                 id="path4210"
                 inkscape:connector-curvature="0" />
              <path
                 style="opacity:1;fill:url(#linearGradient4960);fill-opacity:1;fill-rule:evenodd;stroke:none;stroke-width:1px;stroke-linecap:butt;stroke-linejoin:miter;stroke-opacity:1"
                 d="m -902.3019,1385.9393 54.57765,94.5312 54.57765,-94.5312 -54.57765,-94.5313 z"
                 id="path4212"
                 inkscape:connector-curvature="0" />
            </g>
          </g>
          <g
             id="g5221"
             transform="translate(-1092.6112,-5.106843)">
            <g
               id="g5223"
               transform="matrix(-1.9389325,0,0,0.82695611,-1577.7037,-167.83181)"
               style="font-style:normal;font-variant:normal;font-weight:bold;font-stretch:normal;font-size:medium;line-height:125%;font-family:sans-serif;-inkscape-font-specification:'sans-serif, Bold';text-align:start;letter-spacing:0px;word-spacing:0px;writing-mode:lr-tb;text-anchor:start;fill:#0f1c2f;fill-opacity:1;stroke:none;stroke-width:1px;stroke-linecap:butt;stroke-linejoin:miter;stroke-opacity:1">
              <path
                 inkscape:connector-curvature="0"
                 id="path5225"
                 d="m -902.3019,1385.9393 54.57765,94.5312 109.1553,0 54.57764,94.5313 -218.3106,0 -109.15529,-189.0625 z"
                 style="opacity:1;fill:url(#linearGradient5265);fill-opacity:1;fill-rule:evenodd;stroke:none;stroke-width:1px;stroke-linecap:butt;stroke-linejoin:miter;stroke-opacity:1" />
              <path
                 inkscape:connector-curvature="0"
                 id="path5227"
                 d="m -738.56895,1480.4705 54.57764,94.5313 109.15529,-189.0625 -109.15529,-189.0625 -54.57766,94.5312 54.57765,94.5313 z"
                 style="opacity:1;fill:url(#linearGradient5267);fill-opacity:1;fill-rule:evenodd;stroke:none;stroke-width:1px;stroke-linecap:butt;stroke-linejoin:miter;stroke-opacity:1" />
              <path
                 inkscape:connector-curvature="0"
                 id="path5229"
                 d="m -1011.4572,1385.9393 109.1553,0 54.57765,-94.5313 109.15528,0 54.57766,-94.5312 -218.31058,0 z"
                 style="opacity:1;fill:url(#linearGradient5269);fill-opacity:1;fill-rule:evenodd;stroke:none;stroke-width:1px;stroke-linecap:butt;stroke-linejoin:miter;stroke-opacity:1" />
              <path
                 inkscape:connector-curvature="0"
                 id="path5231"
                 d="m -793.1466,1385.9393 -54.57764,-94.5313 109.15527,0 54.57765,94.5313 z"
                 style="opacity:1;fill:url(#linearGradient5271);fill-opacity:1;fill-rule:evenodd;stroke:none;stroke-width:1px;stroke-linecap:butt;stroke-linejoin:miter;stroke-opacity:1" />
              <path
                 inkscape:connector-curvature="0"
                 id="path5233"
                 d="m -793.1466,1385.9393 109.15529,0 -54.57764,94.5312 -109.15529,0 z"
                 style="opacity:1;fill:url(#linearGradient5273);fill-opacity:1;fill-rule:evenodd;stroke:none;stroke-width:1px;stroke-linecap:butt;stroke-linejoin:miter;stroke-opacity:1" />
              <path
                 inkscape:connector-curvature="0"
                 id="path5235"
                 d="m -902.3019,1385.9393 54.57765,94.5312 54.57765,-94.5312 -54.57765,-94.5313 z"
                 style="opacity:1;fill:url(#linearGradient5275);fill-opacity:1;fill-rule:evenodd;stroke:none;stroke-width:1px;stroke-linecap:butt;stroke-linejoin:miter;stroke-opacity:1" />
            </g>
            <g
               style="font-style:normal;font-variant:normal;font-weight:bold;font-stretch:normal;font-size:medium;line-height:125%;font-family:sans-serif;-inkscape-font-specification:'sans-serif, Bold';text-align:start;letter-spacing:0px;word-spacing:0px;writing-mode:lr-tb;text-anchor:start;fill:#0f1c2f;fill-opacity:1;stroke:none;stroke-width:1px;stroke-linecap:butt;stroke-linejoin:miter;stroke-opacity:1"
               transform="matrix(-1.9389325,0,0,0.82695611,-1573.2136,-478.07252)"
               id="g5237">
              <path
                 style="opacity:1;fill:url(#linearGradient5277);fill-opacity:1;fill-rule:evenodd;stroke:none;stroke-width:1px;stroke-linecap:butt;stroke-linejoin:miter;stroke-opacity:1"
                 d="m -902.3019,1385.9393 54.57765,94.5312 109.1553,0 54.57764,94.5313 -218.3106,0 -109.15529,-189.0625 z"
                 id="path5239"
                 inkscape:connector-curvature="0" />
              <path
                 style="opacity:1;fill:url(#linearGradient5279);fill-opacity:1;fill-rule:evenodd;stroke:none;stroke-width:1px;stroke-linecap:butt;stroke-linejoin:miter;stroke-opacity:1"
                 d="m -738.56895,1480.4705 54.57764,94.5313 109.15529,-189.0625 -109.15529,-189.0625 -54.57766,94.5312 54.57765,94.5313 z"
                 id="path5241"
                 inkscape:connector-curvature="0" />
              <path
                 style="opacity:1;fill:url(#linearGradient5281);fill-opacity:1;fill-rule:evenodd;stroke:none;stroke-width:1px;stroke-linecap:butt;stroke-linejoin:miter;stroke-opacity:1"
                 d="m -1011.4572,1385.9393 109.1553,0 54.57765,-94.5313 109.15528,0 54.57766,-94.5312 -218.31058,0 z"
                 id="path5243"
                 inkscape:connector-curvature="0" />
              <path
                 style="opacity:1;fill:url(#linearGradient5283);fill-opacity:1;fill-rule:evenodd;stroke:none;stroke-width:1px;stroke-linecap:butt;stroke-linejoin:miter;stroke-opacity:1"
                 d="m -793.1466,1385.9393 -54.57764,-94.5313 109.15527,0 54.57765,94.5313 z"
                 id="path5245"
                 inkscape:connector-curvature="0" />
              <path
                 style="opacity:1;fill:url(#linearGradient5285);fill-opacity:1;fill-rule:evenodd;stroke:none;stroke-width:1px;stroke-linecap:butt;stroke-linejoin:miter;stroke-opacity:1"
                 d="m -793.1466,1385.9393 109.15529,0 -54.57764,94.5312 -109.15529,0 z"
                 id="path5247"
                 inkscape:connector-curvature="0" />
              <path
                 style="opacity:1;fill:url(#linearGradient5287);fill-opacity:1;fill-rule:evenodd;stroke:none;stroke-width:1px;stroke-linecap:butt;stroke-linejoin:miter;stroke-opacity:1"
                 d="m -902.3019,1385.9393 54.57765,94.5312 54.57765,-94.5312 -54.57765,-94.5313 z"
                 id="path5249"
                 inkscape:connector-curvature="0" />
            </g>
            <g
               id="g5251"
               transform="matrix(-1.9389325,0,0,0.82695611,-938.2894,-322.31381)"
               style="font-style:normal;font-variant:normal;font-weight:bold;font-stretch:normal;font-size:medium;line-height:125%;font-family:sans-serif;-inkscape-font-specification:'sans-serif, Bold';text-align:start;letter-spacing:0px;word-spacing:0px;writing-mode:lr-tb;text-anchor:start;fill:#0f1c2f;fill-opacity:1;stroke:none;stroke-width:1px;stroke-linecap:butt;stroke-linejoin:miter;stroke-opacity:1">
              <path
                 inkscape:connector-curvature="0"
                 id="path5253"
                 d="m -902.3019,1385.9393 54.57765,94.5312 109.1553,0 54.57764,94.5313 -218.3106,0 -109.15529,-189.0625 z"
                 style="opacity:1;fill:url(#linearGradient5289);fill-opacity:1;fill-rule:evenodd;stroke:none;stroke-width:1px;stroke-linecap:butt;stroke-linejoin:miter;stroke-opacity:1" />
              <path
                 inkscape:connector-curvature="0"
                 id="path5255"
                 d="m -738.56895,1480.4705 54.57764,94.5313 109.15529,-189.0625 -109.15529,-189.0625 -54.57766,94.5312 54.57765,94.5313 z"
                 style="opacity:1;fill:url(#linearGradient5291);fill-opacity:1;fill-rule:evenodd;stroke:none;stroke-width:1px;stroke-linecap:butt;stroke-linejoin:miter;stroke-opacity:1" />
              <path
                 inkscape:connector-curvature="0"
                 id="path5257"
                 d="m -1011.4572,1385.9393 109.1553,0 54.57765,-94.5313 109.15528,0 54.57766,-94.5312 -218.31058,0 z"
                 style="opacity:1;fill:url(#linearGradient5293);fill-opacity:1;fill-rule:evenodd;stroke:none;stroke-width:1px;stroke-linecap:butt;stroke-linejoin:miter;stroke-opacity:1" />
              <path
                 inkscape:connector-curvature="0"
                 id="path5259"
                 d="m -793.1466,1385.9393 -54.57764,-94.5313 109.15527,0 54.57765,94.5313 z"
                 style="opacity:1;fill:url(#linearGradient5295);fill-opacity:1;fill-rule:evenodd;stroke:none;stroke-width:1px;stroke-linecap:butt;stroke-linejoin:miter;stroke-opacity:1" />
              <path
                 inkscape:connector-curvature="0"
                 id="path5261"
                 d="m -793.1466,1385.9393 109.15529,0 -54.57764,94.5312 -109.15529,0 z"
                 style="opacity:1;fill:url(#linearGradient5297);fill-opacity:1;fill-rule:evenodd;stroke:none;stroke-width:1px;stroke-linecap:butt;stroke-linejoin:miter;stroke-opacity:1" />
              <path
                 inkscape:connector-curvature="0"
                 id="path5263"
                 d="m -902.3019,1385.9393 54.57765,94.5312 54.57765,-94.5312 -54.57765,-94.5313 z"
                 style="opacity:1;fill:url(#linearGradient5299);fill-opacity:1;fill-rule:evenodd;stroke:none;stroke-width:1px;stroke-linecap:butt;stroke-linejoin:miter;stroke-opacity:1" />
            </g>
          </g>
        </g>
        <g
           transform="translate(2.2693331e-5,62.410919)"
           id="g4853">
          <rect
             style="opacity:1;fill:#d7ecf1;fill-opacity:1;stroke:none;stroke-width:3.9000001;stroke-linecap:round;stroke-linejoin:round;stroke-miterlimit:4;stroke-dasharray:none;stroke-opacity:1"
             id="rect4851"
             width="1120.5396"
             height="161.10707"
             x="-772.10028"
             y="754.72217"
             transform="scale(-1,1)" />
          <path
             style="color:#000000;font-style:normal;font-variant:normal;font-weight:normal;font-stretch:normal;font-size:medium;line-height:normal;font-family:sans-serif;text-indent:0;text-align:start;text-decoration:none;text-decoration-line:none;text-decoration-style:solid;text-decoration-color:#000000;letter-spacing:normal;word-spacing:normal;text-transform:none;direction:ltr;block-progression:tb;writing-mode:lr-tb;baseline-shift:baseline;text-anchor:start;white-space:normal;clip-rule:nonzero;display:inline;overflow:visible;visibility:visible;opacity:1;isolation:auto;mix-blend-mode:normal;color-interpolation:sRGB;color-interpolation-filters:linearRGB;solid-color:#000000;solid-opacity:1;fill:url(#linearGradient4849);fill-opacity:1;fill-rule:evenodd;stroke:none;stroke-width:3.9000001;stroke-linecap:butt;stroke-linejoin:miter;stroke-miterlimit:4;stroke-dasharray:none;stroke-dashoffset:0;stroke-opacity:1;color-rendering:auto;image-rendering:auto;shape-rendering:auto;text-rendering:auto;enable-background:accumulate;marker-start:"
             d="m 133.14044,815.46727 0,6.00836 192.45079,0 0,27.60018 -192.45079,0 0,6.00837 -9.67138,-6.00837 -0.93827,0 0,-0.58381 -21.26565,-13.2151 21.26565,-13.21509 0,-0.58618 0.94344,0 z"
             id="path4136"
             inkscape:connector-curvature="0"
             sodipodi:nodetypes="cccccccccccccc" />
        </g>
        <g
           id="text4857"
           style="font-style:normal;font-variant:normal;font-weight:900;font-stretch:normal;font-size:131.34677124px;line-height:125%;font-family:'Avenir Next';-inkscape-font-specification:'Avenir Next, Heavy';text-align:start;letter-spacing:0px;word-spacing:0px;writing-mode:lr-tb;text-anchor:start;fill:#257588;fill-opacity:1;stroke:none;stroke-width:1px;stroke-linecap:butt;stroke-linejoin:miter;stroke-opacity:1"
           transform="matrix(-1.5312289,0,0,0.65307022,-19.407464,0)">
          <path
             inkscape:connector-curvature="0"
             id="path4905"
             d="m -382.14203,1140.4204 q 0,-11.1645 3.9404,-20.2274 3.9404,-9.063 10.77043,-15.499 6.83004,-6.436 16.02431,-9.851 9.32562,-3.5463 19.83336,-3.5463 10.77044,0 20.35875,3.5463 9.58832,3.415 16.02431,9.3256 l -19.17663,23.1171 q -2.62694,-3.415 -6.56734,-5.1225 -3.9404,-1.8389 -8.80023,-1.8389 -3.94041,0 -7.35542,1.4448 -3.41502,1.3135 -6.04195,3.9404 -2.49559,2.627 -3.94041,6.436 -1.44481,3.6777 -1.44481,8.2749 0,4.5971 1.44481,8.2748 1.57616,3.5464 4.07175,6.1733 2.62694,2.6269 6.04195,4.0718 3.41502,1.3134 7.22408,1.3134 5.38521,0 9.19427,-2.2329 3.9404,-2.2329 6.1733,-5.2538 l 19.17663,22.9856 q -6.30465,6.3047 -15.49892,10.1137 -9.19428,3.6777 -20.88414,3.6777 -10.50774,0 -19.83336,-3.5463 -9.19427,-3.5464 -16.02431,-9.9824 -6.83003,-6.5673 -10.77043,-15.4989 -3.9404,-9.0629 -3.9404,-20.096 z"
             style="fill:#257588;fill-opacity:1" />
          <path
             inkscape:connector-curvature="0"
             id="path4907"
             d="m -221.76004,1186.9171 -29.55302,0 0,-7.6181 -0.26269,0 q -2.62694,3.8091 -7.88081,6.6987 -5.12252,2.7583 -11.82121,2.7583 -7.35542,0 -12.0839,-2.4956 -4.72848,-2.627 -7.61811,-6.6987 -2.75829,-4.2031 -3.94041,-9.3256 -1.05077,-5.2539 -1.05077,-10.3764 l 0,-42.031 30.47245,0 0,36.5144 q 0,5.2539 1.57616,7.3554 1.70751,2.1016 4.99118,2.1016 3.02097,0 4.85983,-2.3643 1.9702,-2.4955 1.9702,-7.0927 l 0,-36.5144 30.3411,0 0,69.0884 z"
             style="fill:#257588;fill-opacity:1" />
          <path
             inkscape:connector-curvature="0"
             id="path4909"
             d="m -180.79468,1188.756 q -13.92275,0 -20.62144,-5.9106 -6.69869,-6.042 -6.69869,-18.6513 l 0,-24.6932 -9.71966,0 0,-21.6722 9.58832,0 0,-15.4989 29.42167,0 0,15.4989 14.97354,0 0,21.6722 -14.97354,0 0,18.3886 q 0,4.9912 2.10155,6.83 2.2329,1.7075 6.04195,1.7075 1.44482,0 3.02098,-0.2627 1.57616,-0.2627 2.49559,-0.5254 l 0,20.7528 q -2.36424,1.0508 -6.69869,1.7075 -4.20309,0.6568 -8.93158,0.6568 z"
             style="fill:#257588;fill-opacity:1" />
          <path
             inkscape:connector-curvature="0"
             id="path4911"
             d="m -130.68884,1118.2228 0,11.4271 8.40619,0 q 3.28367,0 5.38522,-1.4448 2.10155,-1.5762 2.10155,-4.7285 0,-2.6269 -2.2329,-3.9404 -2.23289,-1.3134 -5.9106,-1.3134 l -7.74946,0 z m 0,31.5232 0,12.6093 9.32562,0 q 3.67771,0 5.9106,-1.5762 2.36425,-1.7075 2.36425,-4.8598 0,-1.8389 -1.05078,-3.021 -0.91942,-1.1821 -2.36424,-1.8389 -1.44481,-0.788 -3.15232,-1.0507 -1.57616,-0.2627 -3.02098,-0.2627 l -8.01215,0 z m 31.654587,-11.1645 q 3.283666,0.7881 6.435988,2.6269 3.152323,1.7075 5.647911,4.4658 2.495589,2.627 3.940403,6.1733 1.444815,3.5464 1.444815,7.8808 0,7.6181 -3.152323,12.872 -3.020975,5.1225 -8.143499,8.4062 -4.991175,3.1523 -11.558522,4.5971 -6.43599,1.3135 -13.26603,1.3135 l -42.16231,0 0,-92.9935 38.22191,0 q 5.64791,0 11.95256,0.9194 6.43599,0.7881 11.821217,3.415 5.385215,2.4956 8.931578,7.4868 3.546363,4.8598 3.546363,12.872 0,7.4868 -3.809057,12.3466 -3.677709,4.8598 -9.851004,7.2241 l 0,0.394 z"
             style="fill:#257588;fill-opacity:1" />
          <path
             inkscape:connector-curvature="0"
             id="path4913"
             d="m -0.272647,1152.1102 q 0,8.9316 -3.283669,15.893 -3.152323,6.9614 -8.668887,11.8212 -5.385218,4.7285 -12.60929,7.2241 -7.092726,2.4955 -14.973532,2.4955 -7.74946,0 -14.973532,-2.4955 -7.092726,-2.4956 -12.477943,-7.2241 -5.385218,-4.8598 -8.668887,-11.8212 -3.152323,-6.9614 -3.152323,-15.893 0,-8.8002 3.152323,-15.6302 3.283669,-6.9614 8.668887,-11.6899 5.385217,-4.7285 12.477943,-7.0927 7.224072,-2.4956 14.973532,-2.4956 7.880806,0 14.973532,2.4956 7.224072,2.3642 12.60929,7.0927 5.516564,4.7285 8.668887,11.6899 3.283669,6.83 3.283669,15.6302 z m -39.535378,-11.4271 q -4.991178,0 -8.1435,3.415 -3.020976,3.415 -3.020976,8.0121 0,4.8599 3.152323,8.2749 3.152322,3.415 8.1435,3.415 4.991177,0 8.143499,-3.415 3.152323,-3.415 3.152323,-8.2749 0,-4.5971 -3.283669,-8.0121 -3.152323,-3.415 -8.1435,-3.415 z"
             style="fill:#257588;fill-opacity:1" />
          <path
             inkscape:connector-curvature="0"
             id="path4915"
             d="m 32.711334,1171.2868 -11.295822,15.6303 -34.150161,0 26.663395,-35.4636 -24.82454,-33.6248 34.412854,0 9.982356,14.4482 9.85101,-14.4482 33.36207,0 -24.82453,33.6248 26.138,35.4636 -34.67554,0 -10.639092,-15.6303 z"
             style="fill:#257588;fill-opacity:1" />
        </g>
        <g
           id="g5006"
           style="fill:#257487;fill-opacity:1">
          <path
             id="path4937"
             style="font-style:normal;font-variant:normal;font-weight:normal;font-stretch:normal;font-size:21.89112663px;line-height:125%;font-family:'Avenir Next';-inkscape-font-specification:'Avenir Next';text-align:start;letter-spacing:0px;word-spacing:0px;writing-mode:lr-tb;text-anchor:start;fill:#257487;fill-opacity:1;stroke:none;stroke-width:1px;stroke-linecap:butt;stroke-linejoin:miter;stroke-opacity:1"
             d="m 478.41919,802.39055 q 0,-0.87205 1.07266,-1.30099 1.07264,-0.42887 3.11738,-0.42887 1.40786,0 2.61459,0.21447 1.20673,0.2144 2.04474,0.57183 l 1.27377,-0.64334 q -0.97208,-0.41457 -2.54753,-0.68618 -1.60899,-0.27168 -3.62021,-0.27168 -1.27377,0 -2.37995,0.15726 -1.10615,0.14296 -1.94417,0.44318 -0.83801,0.30028 -1.30728,0.75775 -0.46929,0.45748 -0.46929,1.07221 l 0,2.93079 q 0,0.38603 -0.0671,0.8006 -0.0671,0.41456 -0.20113,0.70054 l 2.04474,0 q 0.10061,-0.24307 0.1676,-0.52898 0.0671,-0.28592 0.0671,-0.55759 l 0.0671,0 q 1.07266,0.67194 2.44698,0.97216 1.34082,0.28598 3.25148,0.28598 0.90504,0 1.87713,-0.11442 0.93858,-0.10005 1.74306,-0.34313 0.77097,-0.243 1.3073,-0.62903 0.50279,-0.38597 0.50279,-0.94356 0,-0.77199 -0.90504,-1.21517 -0.93857,-0.45747 -2.4805,-0.67194 -1.54194,-0.22877 -3.51964,-0.28591 -2.01122,-0.0715 -4.15652,-0.0715 l 0,-0.21446 z m 0.67041,0.97216 q 1.40785,0 2.84923,0.0575 1.40786,0.0431 2.58107,0.20016 1.13968,0.14296 1.87713,0.42887 0.73744,0.28592 0.73744,0.7577 0,0.35742 -0.30168,0.60049 -0.3352,0.24301 -0.87151,0.40027 -0.53633,0.14296 -1.17321,0.21447 -0.67042,0.0575 -1.34083,0.0575 -1.20673,0 -2.14529,-0.17156 -0.93857,-0.18587 -1.57545,-0.48608 -0.6369,-0.31452 -0.9721,-0.71485 -0.33521,-0.40027 -0.33521,-0.84351 l 0,-0.50038 0.67041,0 z"
             inkscape:connector-curvature="0" />
          <path
             id="path4939"
             style="font-style:normal;font-variant:normal;font-weight:normal;font-stretch:normal;font-size:21.89112663px;line-height:125%;font-family:'Avenir Next';-inkscape-font-specification:'Avenir Next';text-align:start;letter-spacing:0px;word-spacing:0px;writing-mode:lr-tb;text-anchor:start;fill:#257487;fill-opacity:1;stroke:none;stroke-width:1px;stroke-linecap:butt;stroke-linejoin:miter;stroke-opacity:1"
             d="m 459.94426,800.01735 q -0.0671,0.27162 -0.1006,0.60044 -0.0335,0.32882 -0.0335,0.54329 l -0.0671,0 q -0.67041,-0.58613 -2.17882,-0.94356 -1.50841,-0.37173 -3.18444,-0.37173 -2.9833,0 -4.4582,0.75769 -1.50841,0.75776 -1.50841,2.00153 l 0,4.10311 2.27938,0 0,-3.70277 q 0,-0.52899 0.20113,-0.95786 0.20111,-0.42894 0.70392,-0.72915 0.46929,-0.31452 1.30729,-0.48608 0.80449,-0.17157 2.04474,-0.17157 0.90505,0 1.77658,0.15726 0.83801,0.15726 1.50841,0.48608 0.67042,0.31452 1.07266,0.8149 0.40224,0.48608 0.40224,1.15803 l 0,3.43116 2.27938,0 0,-5.21822 q 0,-0.27161 0.0335,-0.70055 0.0335,-0.42887 0.1006,-0.772 l -2.17882,0 z"
             inkscape:connector-curvature="0" />
          <path
             id="path4941"
             style="font-style:normal;font-variant:normal;font-weight:normal;font-stretch:normal;font-size:21.89112663px;line-height:125%;font-family:'Avenir Next';-inkscape-font-specification:'Avenir Next';text-align:start;letter-spacing:0px;word-spacing:0px;writing-mode:lr-tb;text-anchor:start;fill:#257487;fill-opacity:1;stroke:none;stroke-width:1px;stroke-linecap:butt;stroke-linejoin:miter;stroke-opacity:1"
             d="m 440.16622,806.70812 2.27938,0 0,-6.69077 -2.27938,0 0,6.69077 z m -0.46928,-9.26412 q 0,0.30021 0.5028,0.50038 0.50281,0.18586 1.10617,0.18586 0.60337,0 1.10618,-0.18586 0.50279,-0.20017 0.50279,-0.50038 0,-0.30022 -0.50279,-0.48608 -0.50281,-0.20017 -1.10618,-0.20017 -0.60336,0 -1.10617,0.20017 -0.5028,0.18586 -0.5028,0.48608 z"
             inkscape:connector-curvature="0" />
          <path
             id="path4943"
             style="font-style:normal;font-variant:normal;font-weight:normal;font-stretch:normal;font-size:21.89112663px;line-height:125%;font-family:'Avenir Next';-inkscape-font-specification:'Avenir Next';text-align:start;letter-spacing:0px;word-spacing:0px;writing-mode:lr-tb;text-anchor:start;fill:#257487;fill-opacity:1;stroke:none;stroke-width:1px;stroke-linecap:butt;stroke-linejoin:miter;stroke-opacity:1"
             d="m 422.86817,801.54711 q 0.56983,-0.38603 1.67601,-0.62904 1.07265,-0.25738 2.34642,-0.25738 1.37434,0 2.4805,0.21447 1.10617,0.20017 1.91067,0.57183 0.77096,0.35743 1.20673,0.85781 0.40224,0.48608 0.40224,1.05791 0,0.57189 -0.40224,1.05797 -0.43577,0.48608 -1.20673,0.85774 -0.77098,0.35743 -1.87714,0.5719 -1.10617,0.20016 -2.48051,0.20016 -1.50841,0 -2.54754,-0.24307 -1.03913,-0.24301 -1.70954,-0.62904 l -1.70954,0.54329 q 1.00562,0.52892 2.4805,0.84344 1.44138,0.31459 3.48612,0.31459 1.91067,0 3.4526,-0.25738 1.54193,-0.27161 2.64811,-0.74339 1.07264,-0.47178 1.676,-1.11512 0.60337,-0.64334 0.60337,-1.40109 0,-0.7577 -0.60337,-1.40104 -0.60336,-0.64333 -1.676,-1.11511 -1.10618,-0.47178 -2.64811,-0.72909 -1.54193,-0.27168 -3.4526,-0.27168 -1.57545,0 -3.18444,0.30022 -1.64248,0.28598 -2.64809,0.85781 l 1.77658,0.54329 z"
             inkscape:connector-curvature="0" />
          <path
             id="path4945"
             style="font-style:normal;font-variant:normal;font-weight:normal;font-stretch:normal;font-size:21.89112663px;line-height:125%;font-family:'Avenir Next';-inkscape-font-specification:'Avenir Next';text-align:start;letter-spacing:0px;word-spacing:0px;writing-mode:lr-tb;text-anchor:start;fill:#257487;fill-opacity:1;stroke:none;stroke-width:1px;stroke-linecap:butt;stroke-linejoin:miter;stroke-opacity:1"
             d="m 405.43759,802.84809 q 0.10061,-0.94362 1.44138,-1.55836 1.30729,-0.62904 3.75427,-0.62904 1.13969,0 2.11178,0.18587 0.9721,0.17156 1.70954,0.48608 0.73745,0.30021 1.17321,0.70055 0.43577,0.38596 0.50281,0.8149 l -10.69299,0 z m -2.3129,0.31452 q 0,0.10005 0,0.2144 0,0.11442 0.0335,0.24307 l 13.00589,0 q -0.0335,0.50038 -0.46929,0.94356 -0.43576,0.44317 -1.20673,0.77199 -0.77096,0.32882 -1.8101,0.52899 -1.03912,0.18586 -2.24585,0.18586 -1.77658,0 -3.05036,-0.34312 -1.30729,-0.35743 -1.97769,-0.8149 l -1.70954,0.57183 q 1.40786,0.75775 3.11738,1.08657 1.67602,0.32883 3.62021,0.32883 1.74306,0 3.25147,-0.25738 1.4749,-0.27161 2.54754,-0.74339 1.07266,-0.47178 1.70954,-1.11512 0.60337,-0.64334 0.60337,-1.40109 0,-0.7577 -0.60337,-1.40104 -0.60337,-0.64333 -1.67602,-1.11511 -1.07264,-0.47178 -2.51402,-0.72909 -1.44138,-0.27168 -3.1174,-0.27168 -1.84361,0 -3.25147,0.27168 -1.40784,0.25731 -2.34641,0.71479 -0.93858,0.44317 -1.40786,1.04367 -0.50281,0.60043 -0.50281,1.28668 z"
             inkscape:connector-curvature="0" />
          <path
             id="path4947"
             style="font-style:normal;font-variant:normal;font-weight:normal;font-stretch:normal;font-size:21.89112663px;line-height:125%;font-family:'Avenir Next';-inkscape-font-specification:'Avenir Next';text-align:start;letter-spacing:0px;word-spacing:0px;writing-mode:lr-tb;text-anchor:start;fill:#257487;fill-opacity:1;stroke:none;stroke-width:1px;stroke-linecap:butt;stroke-linejoin:miter;stroke-opacity:1"
             d="m 387.42985,806.70812 2.27937,0 0,-10.80811 -2.27937,0 0,10.80811 z"
             inkscape:connector-curvature="0" />
          <path
             id="path4949"
             style="font-style:normal;font-variant:normal;font-weight:normal;font-stretch:normal;font-size:21.89112663px;line-height:125%;font-family:'Avenir Next';-inkscape-font-specification:'Avenir Next';text-align:start;letter-spacing:0px;word-spacing:0px;writing-mode:lr-tb;text-anchor:start;fill:#257487;fill-opacity:1;stroke:none;stroke-width:1px;stroke-linecap:butt;stroke-linejoin:miter;stroke-opacity:1"
             d="m 379.01782,806.70812 2.27937,0 0,-6.69077 -2.27937,0 0,6.69077 z m -0.46929,-9.26412 q 0,0.30021 0.5028,0.50038 0.5028,0.18586 1.10616,0.18586 0.60339,0 1.10618,-0.18586 0.50281,-0.20017 0.50281,-0.50038 0,-0.30022 -0.50281,-0.48608 -0.50279,-0.20017 -1.10618,-0.20017 -0.60336,0 -1.10616,0.20017 -0.5028,0.18586 -0.5028,0.48608 z"
             inkscape:connector-curvature="0" />
          <path
             id="path4951"
             style="font-style:normal;font-variant:normal;font-weight:normal;font-stretch:normal;font-size:21.89112663px;line-height:125%;font-family:'Avenir Next';-inkscape-font-specification:'Avenir Next';text-align:start;letter-spacing:0px;word-spacing:0px;writing-mode:lr-tb;text-anchor:start;fill:#257487;fill-opacity:1;stroke:none;stroke-width:1px;stroke-linecap:butt;stroke-linejoin:miter;stroke-opacity:1"
             d="m 365.94331,800.83226 4.42469,0 0,3.90294 q 0,0.37173 -0.1676,0.61473 -0.16761,0.24308 -0.46929,0.38603 -0.3352,0.12866 -0.77097,0.1858 -0.43576,0.0431 -0.93857,0.0431 -0.46927,0 -0.97208,-0.0575 -0.53633,-0.0575 -1.00561,-0.15725 l -0.1006,0.84344 q 0.60337,0.10011 1.27378,0.14295 0.63689,0.0575 1.40785,0.0575 0.63688,0 1.34082,-0.0714 0.70392,-0.0715 1.30728,-0.27168 0.60337,-0.20017 1.00562,-0.54322 0.36872,-0.34313 0.36872,-0.90072 l 0,-4.17455 3.25148,0 0,-0.81491 -3.25148,0 0,-1.88711 -2.27938,0 0,1.88711 -4.42469,0 0,0.81491 z"
             inkscape:connector-curvature="0" />
          <path
             id="path4953"
             style="font-style:normal;font-variant:normal;font-weight:normal;font-stretch:normal;font-size:21.89112663px;line-height:125%;font-family:'Avenir Next';-inkscape-font-specification:'Avenir Next';text-align:start;letter-spacing:0px;word-spacing:0px;writing-mode:lr-tb;text-anchor:start;fill:#257487;fill-opacity:1;stroke:none;stroke-width:1px;stroke-linecap:butt;stroke-linejoin:miter;stroke-opacity:1"
             d="m 355.73009,800.83226 4.42469,0 0,3.90294 q 0,0.37173 -0.16761,0.61473 -0.1676,0.24308 -0.46928,0.38603 -0.3352,0.12866 -0.77097,0.1858 -0.43576,0.0431 -0.93857,0.0431 -0.46927,0 -0.97208,-0.0575 -0.53633,-0.0575 -1.00562,-0.15725 l -0.10061,0.84344 q 0.60337,0.10011 1.27377,0.14295 0.6369,0.0575 1.40786,0.0575 0.63688,0 1.34082,-0.0714 0.70392,-0.0715 1.30729,-0.27168 0.60336,-0.20017 1.0056,-0.54322 0.36874,-0.34313 0.36874,-0.90072 l 0,-4.17455 3.25147,0 0,-0.81491 -3.25147,0 0,-1.88711 -2.27939,0 0,1.88711 -4.42469,0 0,0.81491 z"
             inkscape:connector-curvature="0" />
          <path
             id="path4955"
             style="font-style:normal;font-variant:normal;font-weight:normal;font-stretch:normal;font-size:21.89112663px;line-height:125%;font-family:'Avenir Next';-inkscape-font-specification:'Avenir Next';text-align:start;letter-spacing:0px;word-spacing:0px;writing-mode:lr-tb;text-anchor:start;fill:#257487;fill-opacity:1;stroke:none;stroke-width:1px;stroke-linecap:butt;stroke-linejoin:miter;stroke-opacity:1"
             d="m 349.85042,806.70812 2.27938,0 0,-10.80811 -2.27938,0 0,10.80811 z"
             inkscape:connector-curvature="0" />
          <path
             id="path4957"
             style="font-style:normal;font-variant:normal;font-weight:normal;font-stretch:normal;font-size:21.89112663px;line-height:125%;font-family:'Avenir Next';-inkscape-font-specification:'Avenir Next';text-align:start;letter-spacing:0px;word-spacing:0px;writing-mode:lr-tb;text-anchor:start;fill:#257487;fill-opacity:1;stroke:none;stroke-width:1px;stroke-linecap:butt;stroke-linejoin:miter;stroke-opacity:1"
             d="m 331.78452,802.84809 q 0.1006,-0.94362 1.44138,-1.55836 1.3073,-0.62904 3.75428,-0.62904 1.13969,0 2.11178,0.18587 0.97208,0.17156 1.70954,0.48608 0.73744,0.30021 1.17321,0.70055 0.43576,0.38596 0.50279,0.8149 l -10.69298,0 z m -2.31289,0.31452 q 0,0.10005 0,0.2144 0,0.11442 0.0335,0.24307 l 13.00589,0 q -0.0335,0.50038 -0.46929,0.94356 -0.43577,0.44317 -1.20673,0.77199 -0.77097,0.32882 -1.8101,0.52899 -1.03913,0.18586 -2.24586,0.18586 -1.77658,0 -3.05035,-0.34312 -1.30729,-0.35743 -1.9777,-0.8149 l -1.70953,0.57183 q 1.40784,0.75775 3.11738,1.08657 1.67603,0.32883 3.6202,0.32883 1.74306,0 3.25147,-0.25738 1.47489,-0.27161 2.54755,-0.74339 1.07264,-0.47178 1.70953,-1.11512 0.60338,-0.64334 0.60338,-1.40109 0,-0.7577 -0.60338,-1.40104 -0.60337,-0.64333 -1.67601,-1.11511 -1.07266,-0.47178 -2.51403,-0.72909 -1.44137,-0.27168 -3.11739,-0.27168 -1.84361,0 -3.25147,0.27168 -1.40786,0.25731 -2.34642,0.71479 -0.93857,0.44317 -1.40786,1.04367 -0.5028,0.60043 -0.5028,1.28668 z"
             inkscape:connector-curvature="0" />
          <path
             id="path4959"
             style="font-style:normal;font-variant:normal;font-weight:normal;font-stretch:normal;font-size:21.89112663px;line-height:125%;font-family:'Avenir Next';-inkscape-font-specification:'Avenir Next';text-align:start;letter-spacing:0px;word-spacing:0px;writing-mode:lr-tb;text-anchor:start;fill:#257487;fill-opacity:1;stroke:none;stroke-width:1px;stroke-linecap:butt;stroke-linejoin:miter;stroke-opacity:1"
             d="m 313.84381,810.13922 2.27939,0 0,-10.12187 -2.27939,0 0,1.15803 -0.1006,0 q -0.97208,-0.65764 -2.58107,-0.98646 -1.64249,-0.34313 -3.31851,-0.34313 -1.84361,0 -3.31851,0.27168 -1.50841,0.27161 -2.54753,0.74339 -1.07266,0.47178 -1.64251,1.11512 -0.60336,0.64334 -0.60336,1.38673 0,0.74345 0.60336,1.38679 0.56985,0.64334 1.64251,1.11512 1.03912,0.47178 2.54753,0.74339 1.4749,0.27168 3.31851,0.27168 1.67602,0 3.31851,-0.32883 1.60899,-0.34312 2.58107,-0.97216 l 0.1006,0 0,4.56052 z m -11.69858,-6.77651 q 0,-0.55753 0.40223,-1.04361 0.40226,-0.50038 1.17322,-0.85781 0.73745,-0.37173 1.84363,-0.58613 1.10616,-0.21447 2.51401,-0.21447 1.30729,0 2.41347,0.21447 1.10617,0.20017 1.91066,0.57183 0.80448,0.35743 1.27377,0.85781 0.43576,0.48608 0.43576,1.05791 0,0.57189 -0.43576,1.07227 -0.46929,0.48608 -1.27377,0.84344 -0.80449,0.35743 -1.91066,0.5719 -1.10618,0.20016 -2.41347,0.20016 -1.40785,0 -2.51401,-0.20016 -1.10618,-0.21447 -1.84363,-0.5719 -0.77096,-0.37166 -1.17322,-0.85774 -0.40223,-0.50038 -0.40223,-1.05797 z"
             inkscape:connector-curvature="0" />
          <path
             id="path4961"
             style="font-style:normal;font-variant:normal;font-weight:normal;font-stretch:normal;font-size:21.89112663px;line-height:125%;font-family:'Avenir Next';-inkscape-font-specification:'Avenir Next';text-align:start;letter-spacing:0px;word-spacing:0px;writing-mode:lr-tb;text-anchor:start;fill:#257487;fill-opacity:1;stroke:none;stroke-width:1px;stroke-linecap:butt;stroke-linejoin:miter;stroke-opacity:1"
             d="m 284.95717,802.39055 q 0,-0.87205 1.07265,-1.30099 1.07264,-0.42887 3.11739,-0.42887 1.40785,0 2.61458,0.21447 1.20673,0.2144 2.04475,0.57183 l 1.27376,-0.64334 q -0.97208,-0.41457 -2.54755,-0.68618 -1.60897,-0.27168 -3.62019,-0.27168 -1.27377,0 -2.37994,0.15726 -1.10616,0.14296 -1.94417,0.44318 -0.83802,0.30028 -1.30731,0.75775 -0.46927,0.45748 -0.46927,1.07221 l 0,2.93079 q 0,0.38603 -0.0671,0.8006 -0.0671,0.41456 -0.20113,0.70054 l 2.04475,0 q 0.1006,-0.24307 0.16759,-0.52898 0.0671,-0.28592 0.0671,-0.55759 l 0.0671,0 q 1.07265,0.67194 2.44698,0.97216 1.34081,0.28598 3.25148,0.28598 0.90505,0 1.87713,-0.11442 0.93857,-0.10005 1.74306,-0.34313 0.77097,-0.243 1.30729,-0.62903 0.50281,-0.38597 0.50281,-0.94356 0,-0.77199 -0.90505,-1.21517 -0.93857,-0.45747 -2.4805,-0.67194 -1.54193,-0.22877 -3.51964,-0.28591 -2.01122,-0.0715 -4.15652,-0.0715 l 0,-0.21446 z m 0.6704,0.97216 q 1.40786,0 2.84923,0.0575 1.40786,0.0431 2.58106,0.20016 1.13969,0.14296 1.87715,0.42887 0.73744,0.28592 0.73744,0.7577 0,0.35742 -0.30169,0.60049 -0.3352,0.24301 -0.87153,0.40027 -0.53631,0.14296 -1.17321,0.21447 -0.6704,0.0575 -1.3408,0.0575 -1.20673,0 -2.1453,-0.17156 -0.93857,-0.18587 -1.57547,-0.48608 -0.63688,-0.31452 -0.97208,-0.71485 -0.3352,-0.40027 -0.3352,-0.84351 l 0,-0.50038 0.6704,0 z"
             inkscape:connector-curvature="0" />
          <path
             id="path4963"
             style="font-style:normal;font-variant:normal;font-weight:normal;font-stretch:normal;font-size:21.89112663px;line-height:125%;font-family:'Avenir Next';-inkscape-font-specification:'Avenir Next';text-align:start;letter-spacing:0px;word-spacing:0px;writing-mode:lr-tb;text-anchor:start;fill:#257487;fill-opacity:1;stroke:none;stroke-width:1px;stroke-linecap:butt;stroke-linejoin:miter;stroke-opacity:1"
             d="m 268.56049,801.60425 q 0.50281,-0.41457 1.54193,-0.67194 1.00562,-0.27162 2.31291,-0.27162 0.60336,0 1.20673,0.0575 0.60337,0.0575 1.07266,0.18587 0.46927,0.12865 0.77096,0.32882 0.26816,0.2001 0.26816,0.47178 0,0.47177 -0.90505,0.72908 -0.90505,0.24308 -2.84923,0.41464 -2.78218,0.24301 -4.08947,0.71478 -1.34082,0.45748 -1.34082,1.24378 0,0.57189 0.53633,0.97216 0.50281,0.38603 1.34082,0.64334 0.83799,0.24307 1.91065,0.34312 1.03912,0.11442 2.11178,0.11442 1.77658,0 3.4526,-0.31459 1.676,-0.31452 2.74866,-0.98639 l -1.8101,-0.5719 q -0.60336,0.44318 -1.77657,0.74346 -1.17322,0.30021 -2.58107,0.30021 -0.73744,0 -1.40786,-0.0575 -0.6704,-0.0575 -1.17321,-0.20016 -0.5028,-0.14296 -0.80448,-0.35736 -0.30168,-0.22877 -0.30168,-0.55759 0,-0.52899 1.20673,-0.7863 1.17321,-0.27161 3.41906,-0.50038 0.70394,-0.0715 1.50842,-0.17156 0.77097,-0.11436 1.44137,-0.31452 0.67041,-0.21447 1.10618,-0.52899 0.43576,-0.31452 0.43576,-0.7863 0,-0.51468 -0.46928,-0.87204 -0.46929,-0.37173 -1.24025,-0.6005 -0.80449,-0.24301 -1.8101,-0.35742 -1.00562,-0.11436 -2.07826,-0.11436 -1.6425,0 -3.18443,0.31452 -1.54193,0.31452 -2.31291,0.88641 l 1.74306,0.55753 z"
             inkscape:connector-curvature="0" />
          <path
             id="path4965"
             style="font-style:normal;font-variant:normal;font-weight:normal;font-stretch:normal;font-size:21.89112663px;line-height:125%;font-family:'Avenir Next';-inkscape-font-specification:'Avenir Next';text-align:start;letter-spacing:0px;word-spacing:0px;writing-mode:lr-tb;text-anchor:start;fill:#257487;fill-opacity:1;stroke:none;stroke-width:1px;stroke-linecap:butt;stroke-linejoin:miter;stroke-opacity:1"
             d="m 254.9727,800.83226 4.42469,0 0,3.90294 q 0,0.37173 -0.16761,0.61473 -0.16759,0.24308 -0.46928,0.38603 -0.3352,0.12866 -0.77097,0.1858 -0.43576,0.0431 -0.93857,0.0431 -0.46929,0 -0.97208,-0.0575 -0.53633,-0.0575 -1.00562,-0.15725 l -0.1006,0.84344 q 0.60336,0.10011 1.27376,0.14295 0.63689,0.0575 1.40786,0.0575 0.63689,0 1.34082,-0.0714 0.70392,-0.0715 1.30729,-0.27168 0.60337,-0.20017 1.0056,-0.54322 0.36874,-0.34313 0.36874,-0.90072 l 0,-4.17455 3.25146,0 0,-0.81491 -3.25146,0 0,-1.88711 -2.27939,0 0,1.88711 -4.42468,0 0,0.81491 z"
             inkscape:connector-curvature="0" />
          <path
             id="path4967"
             style="font-style:normal;font-variant:normal;font-weight:normal;font-stretch:normal;font-size:21.89112663px;line-height:125%;font-family:'Avenir Next';-inkscape-font-specification:'Avenir Next';text-align:start;letter-spacing:0px;word-spacing:0px;writing-mode:lr-tb;text-anchor:start;fill:#257487;fill-opacity:1;stroke:none;stroke-width:1px;stroke-linecap:butt;stroke-linejoin:miter;stroke-opacity:1"
             d="m 239.4727,802.84809 q 0.1006,-0.94362 1.44138,-1.55836 1.30728,-0.62904 3.75428,-0.62904 1.13969,0 2.11178,0.18587 0.97208,0.17156 1.70954,0.48608 0.73744,0.30021 1.1732,0.70055 0.43577,0.38596 0.50281,0.8149 l -10.69299,0 z m -2.31291,0.31452 q 0,0.10005 0,0.2144 0,0.11442 0.0335,0.24307 l 13.00587,0 q -0.0335,0.50038 -0.46927,0.94356 -0.43577,0.44317 -1.20673,0.77199 -0.77098,0.32882 -1.8101,0.52899 -1.03914,0.18586 -2.24587,0.18586 -1.77658,0 -3.05034,-0.34312 -1.30731,-0.35743 -1.97771,-0.8149 l -1.70954,0.57183 q 1.40786,0.75775 3.1174,1.08657 1.67601,0.32883 3.62019,0.32883 1.74306,0 3.25147,-0.25738 1.4749,-0.27161 2.54756,-0.74339 1.07264,-0.47178 1.70952,-1.11512 0.60337,-0.64334 0.60337,-1.40109 0,-0.7577 -0.60337,-1.40104 -0.60336,-0.64333 -1.67601,-1.11511 -1.07265,-0.47178 -2.51403,-0.72909 -1.44137,-0.27168 -3.11738,-0.27168 -1.84363,0 -3.25147,0.27168 -1.40786,0.25731 -2.34643,0.71479 -0.93856,0.44317 -1.40786,1.04367 -0.50281,0.60043 -0.50281,1.28668 z"
             inkscape:connector-curvature="0" />
          <path
             id="path4969"
             style="font-style:normal;font-variant:normal;font-weight:normal;font-stretch:normal;font-size:21.89112663px;line-height:125%;font-family:'Avenir Next';-inkscape-font-specification:'Avenir Next';text-align:start;letter-spacing:0px;word-spacing:0px;writing-mode:lr-tb;text-anchor:start;fill:#257487;fill-opacity:1;stroke:none;stroke-width:1px;stroke-linecap:butt;stroke-linejoin:miter;stroke-opacity:1"
             d="m 229.84504,805.5787 0,1.12942 2.27938,0 0,-10.80811 -2.27938,0 0,5.27537 -0.0671,0 q -1.00562,-0.65764 -2.61459,-0.98646 -1.60898,-0.34313 -3.31851,-0.34313 -1.84363,0 -3.31851,0.27168 -1.50843,0.27161 -2.54755,0.74339 -1.07266,0.47178 -1.6425,1.11512 -0.60337,0.64334 -0.60337,1.38673 0,0.74345 0.60337,1.38679 0.56984,0.64334 1.6425,1.11512 1.03912,0.47178 2.54755,0.74339 1.47488,0.27168 3.31851,0.27168 1.70953,0 3.31851,-0.32883 1.60897,-0.32882 2.61459,-0.97216 l 0.0671,0 z m -11.69859,-2.21599 q 0,-0.55753 0.40224,-1.04361 0.40224,-0.50038 1.17321,-0.85781 0.73744,-0.37173 1.84361,-0.58613 1.10618,-0.21447 2.51402,-0.21447 1.3073,0 2.41348,0.21447 1.10616,0.20017 1.91065,0.57183 0.80449,0.35743 1.27377,0.85781 0.43577,0.48608 0.43577,1.05791 0,0.57189 -0.43577,1.07227 -0.46928,0.48608 -1.27377,0.84344 -0.80449,0.35743 -1.91065,0.5719 -1.10618,0.20016 -2.41348,0.20016 -1.40784,0 -2.51402,-0.20016 -1.10617,-0.21447 -1.84361,-0.5719 -0.77097,-0.37166 -1.17321,-0.85774 -0.40224,-0.50038 -0.40224,-1.05797 z"
             inkscape:connector-curvature="0" />
          <path
             id="path4971"
             style="font-style:normal;font-variant:normal;font-weight:normal;font-stretch:normal;font-size:21.89112663px;line-height:125%;font-family:'Avenir Next';-inkscape-font-specification:'Avenir Next';text-align:start;letter-spacing:0px;word-spacing:0px;writing-mode:lr-tb;text-anchor:start;fill:#257487;fill-opacity:1;stroke:none;stroke-width:1px;stroke-linecap:butt;stroke-linejoin:miter;stroke-opacity:1"
             d="m 195.26148,803.36271 q 0,0.75775 0.63689,1.40109 0.60336,0.64334 1.70954,1.11512 1.10617,0.47178 2.6481,0.74339 1.54194,0.25738 3.38555,0.25738 1.8101,0 3.35205,-0.25738 1.54193,-0.27161 2.64809,-0.74339 1.10617,-0.47178 1.74306,-1.11512 0.60336,-0.64334 0.60336,-1.40109 0,-0.7577 -0.60336,-1.40104 -0.63689,-0.64333 -1.74306,-1.11511 -1.10616,-0.47178 -2.64809,-0.72909 -1.54195,-0.27168 -3.35205,-0.27168 -1.84361,0 -3.38555,0.27168 -1.54193,0.25731 -2.6481,0.72909 -1.10618,0.47178 -1.70954,1.11511 -0.63689,0.64334 -0.63689,1.40104 z m 2.41346,0 q 0,-0.55753 0.43578,-1.04361 0.40224,-0.50038 1.17321,-0.85781 0.77096,-0.37173 1.87713,-0.58613 1.10618,-0.21447 2.4805,-0.21447 1.37434,0 2.48052,0.21447 1.07264,0.2144 1.84361,0.58613 0.77096,0.35743 1.20673,0.85781 0.40224,0.48608 0.40224,1.04361 0,0.55759 -0.40224,1.05797 -0.43577,0.48608 -1.20673,0.85774 -0.77097,0.35743 -1.84361,0.5719 -1.10618,0.20016 -2.48052,0.20016 -1.37432,0 -2.4805,-0.20016 -1.10617,-0.21447 -1.87713,-0.5719 -0.77097,-0.37166 -1.17321,-0.85774 -0.43578,-0.50038 -0.43578,-1.05797 z"
             inkscape:connector-curvature="0" />
          <path
             id="path4973"
             style="font-style:normal;font-variant:normal;font-weight:normal;font-stretch:normal;font-size:21.89112663px;line-height:125%;font-family:'Avenir Next';-inkscape-font-specification:'Avenir Next';text-align:start;letter-spacing:0px;word-spacing:0px;writing-mode:lr-tb;text-anchor:start;fill:#257487;fill-opacity:1;stroke:none;stroke-width:1px;stroke-linecap:butt;stroke-linejoin:miter;stroke-opacity:1"
             d="m 180.40256,802.39055 q 0,-0.87205 1.07264,-1.30099 1.07266,-0.42887 3.1174,-0.42887 1.40786,0 2.61459,0.21447 1.20673,0.2144 2.04474,0.57183 l 1.27377,-0.64334 q -0.97209,-0.41457 -2.54755,-0.68618 -1.60897,-0.27168 -3.6202,-0.27168 -1.27376,0 -2.37994,0.15726 -1.10617,0.14296 -1.94417,0.44318 -0.83801,0.30028 -1.3073,0.75775 -0.46928,0.45748 -0.46928,1.07221 l 0,2.93079 q 0,0.38603 -0.0671,0.8006 -0.0671,0.41456 -0.20111,0.70054 l 2.04474,0 q 0.10061,-0.24307 0.1676,-0.52898 0.0671,-0.28592 0.0671,-0.55759 l 0.0671,0 q 1.07264,0.67194 2.44698,0.97216 1.34081,0.28598 3.25148,0.28598 0.90504,0 1.87713,-0.11442 0.93857,-0.10005 1.74306,-0.34313 0.77096,-0.243 1.30729,-0.62903 0.50281,-0.38597 0.50281,-0.94356 0,-0.77199 -0.90505,-1.21517 -0.93857,-0.45747 -2.4805,-0.67194 -1.54195,-0.22877 -3.51964,-0.28591 -2.01122,-0.0715 -4.15652,-0.0715 l 0,-0.21446 z m 0.6704,0.97216 q 1.40786,0 2.84924,0.0575 1.40784,0.0431 2.58105,0.20016 1.13969,0.14296 1.87715,0.42887 0.73744,0.28592 0.73744,0.7577 0,0.35742 -0.30168,0.60049 -0.3352,0.24301 -0.87153,0.40027 -0.53633,0.14296 -1.17321,0.21447 -0.67041,0.0575 -1.34081,0.0575 -1.20673,0 -2.14531,-0.17156 -0.93857,-0.18587 -1.57545,-0.48608 -0.63689,-0.31452 -0.97209,-0.71485 -0.3352,-0.40027 -0.3352,-0.84351 l 0,-0.50038 0.6704,0 z"
             inkscape:connector-curvature="0" />
          <path
             id="path4975"
             style="font-style:normal;font-variant:normal;font-weight:normal;font-stretch:normal;font-size:21.89112663px;line-height:125%;font-family:'Avenir Next';-inkscape-font-specification:'Avenir Next';text-align:start;letter-spacing:0px;word-spacing:0px;writing-mode:lr-tb;text-anchor:start;fill:#257487;fill-opacity:1;stroke:none;stroke-width:1px;stroke-linecap:butt;stroke-linejoin:miter;stroke-opacity:1"
             d="m 172.35243,801.4899 q 0,-0.27161 0.0335,-0.70055 0.0335,-0.42887 0.10061,-0.772 l -2.17884,0 q -0.0671,0.27162 -0.1006,0.60044 -0.0335,0.32882 -0.0335,0.54329 l -0.0671,0 q -0.67042,-0.58613 -2.01122,-0.94356 -1.34082,-0.37173 -3.01683,-0.37173 -0.43577,0 -0.77097,0.0144 -0.36872,0.0144 -0.73744,0.0575 l 0.30168,0.91495 q 0.20111,-0.0287 0.6704,-0.0575 0.46928,-0.0287 0.93857,-0.0287 0.90505,0 1.74306,0.14295 0.83801,0.14296 1.47489,0.45748 0.60337,0.30022 1.00561,0.7863 0.36872,0.47177 0.36872,1.14372 l 0,3.43116 2.27938,0 0,-5.21822 0,0 z"
             inkscape:connector-curvature="0" />
          <path
             id="path4977"
             style="font-style:normal;font-variant:normal;font-weight:normal;font-stretch:normal;font-size:21.89112663px;line-height:125%;font-family:'Avenir Next';-inkscape-font-specification:'Avenir Next';text-align:start;letter-spacing:0px;word-spacing:0px;writing-mode:lr-tb;text-anchor:start;fill:#257487;fill-opacity:1;stroke:none;stroke-width:1px;stroke-linecap:butt;stroke-linejoin:miter;stroke-opacity:1"
             d="m 147.98997,805.5787 q 1.00561,0.64334 2.61458,0.97216 1.60898,0.32883 3.31851,0.32883 1.84362,0 3.35203,-0.27168 1.4749,-0.27161 2.54755,-0.74339 1.03913,-0.47178 1.64251,-1.11512 0.56983,-0.64334 0.56983,-1.38679 0,-0.74339 -0.56983,-1.38673 -0.60338,-0.64334 -1.64251,-1.11512 -1.07265,-0.47178 -2.54755,-0.74339 -1.50841,-0.27168 -3.35203,-0.27168 -1.70953,0 -3.31851,0.34313 -1.60897,0.32882 -2.61458,0.98646 l -0.067,0 0,-5.27537 -2.27938,0 0,10.80811 2.27938,0 0,-1.12942 0.067,0 z m 11.63155,-2.21599 q 0,0.55759 -0.40224,1.05797 -0.40224,0.48608 -1.13969,0.85774 -0.77096,0.35743 -1.87714,0.5719 -1.10617,0.20016 -2.51403,0.20016 -1.30729,0 -2.41346,-0.20016 -1.10617,-0.21447 -1.91066,-0.5719 -0.80449,-0.35736 -1.24025,-0.84344 -0.46928,-0.50038 -0.46928,-1.07227 0,-0.57183 0.46928,-1.05791 0.43576,-0.50038 1.24025,-0.85781 0.80449,-0.37166 1.91066,-0.57183 1.10617,-0.21447 2.41346,-0.21447 1.40786,0 2.51403,0.21447 1.10618,0.2144 1.87714,0.58613 0.73745,0.35743 1.13969,0.85781 0.40224,0.48608 0.40224,1.04361 z"
             inkscape:connector-curvature="0" />
          <path
             id="path4979"
             style="font-style:normal;font-variant:normal;font-weight:normal;font-stretch:normal;font-size:21.89112663px;line-height:125%;font-family:'Avenir Next';-inkscape-font-specification:'Avenir Next';text-align:start;letter-spacing:0px;word-spacing:0px;writing-mode:lr-tb;text-anchor:start;fill:#257487;fill-opacity:1;stroke:none;stroke-width:1px;stroke-linecap:butt;stroke-linejoin:miter;stroke-opacity:1"
             d="m 124.09941,800.83226 4.42468,0 0,3.90294 q 0,0.37173 -0.1676,0.61473 -0.1676,0.24308 -0.46929,0.38603 -0.3352,0.12866 -0.77096,0.1858 -0.43577,0.0431 -0.93857,0.0431 -0.46929,0 -0.97209,-0.0575 -0.53633,-0.0575 -1.00561,-0.15725 l -0.10056,0.84344 q 0.60337,0.10011 1.27378,0.14295 0.63688,0.0575 1.40785,0.0575 0.63689,0 1.34081,-0.0714 0.70393,-0.0715 1.30729,-0.27168 0.60337,-0.20017 1.00561,-0.54322 0.36873,-0.34313 0.36873,-0.90072 l 0,-4.17455 3.25147,0 0,-0.81491 -3.25147,0 0,-1.88711 -2.27938,0 0,1.88711 -4.42469,0 0,0.81491 z"
             inkscape:connector-curvature="0" />
          <path
             id="path4981"
             style="font-style:normal;font-variant:normal;font-weight:normal;font-stretch:normal;font-size:21.89112663px;line-height:125%;font-family:'Avenir Next';-inkscape-font-specification:'Avenir Next';text-align:start;letter-spacing:0px;word-spacing:0px;writing-mode:lr-tb;text-anchor:start;fill:#257487;fill-opacity:1;stroke:none;stroke-width:1px;stroke-linecap:butt;stroke-linejoin:miter;stroke-opacity:1"
             d="m 118.25324,806.70812 2.27938,0 0,-6.69077 -2.27938,0 0,6.69077 z m -0.46928,-9.26412 q 0,0.30021 0.5028,0.50038 0.50281,0.18586 1.10617,0.18586 0.60337,0 1.10617,-0.18586 0.50281,-0.20017 0.50281,-0.50038 0,-0.30022 -0.50281,-0.48608 -0.5028,-0.20017 -1.10617,-0.20017 -0.60336,0 -1.10617,0.20017 -0.5028,0.18586 -0.5028,0.48608 z"
             inkscape:connector-curvature="0" />
          <path
             id="path4983"
             style="font-style:normal;font-variant:normal;font-weight:normal;font-stretch:normal;font-size:21.89112663px;line-height:125%;font-family:'Avenir Next';-inkscape-font-specification:'Avenir Next';text-align:start;letter-spacing:0px;word-spacing:0px;writing-mode:lr-tb;text-anchor:start;fill:#257487;fill-opacity:1;stroke:none;stroke-width:1px;stroke-linecap:butt;stroke-linejoin:miter;stroke-opacity:1"
             d="m 110.00567,801.16108 q -0.6704,-0.58613 -2.04474,-0.94356 -1.40785,-0.37173 -3.11739,-0.37173 -0.63688,0 -1.30729,0.0575 -0.70393,0.0575 -1.34081,0.22871 -0.67041,0.15726 -1.20674,0.42893 -0.56984,0.27162 -0.97209,0.70049 -0.804483,-0.68618 -2.178816,-1.04361 -1.407855,-0.37173 -3.318513,-0.37173 -2.983309,0 -4.458204,0.7577 -1.508413,0.75775 -1.508413,2.00153 l 0,4.10311 2.279381,0 0,-3.70278 q 0,-1.05798 0.93857,-1.70132 0.905048,-0.64334 3.117391,-0.64334 1.240251,0 2.11178,0.21447 0.838008,0.21441 1.374333,0.57183 0.502805,0.34312 0.737448,0.7863 0.234641,0.44324 0.234641,0.91501 l 0,3.55983 2.279382,0 0,-3.90295 q 0,-0.48608 0.1676,-0.88641 0.1676,-0.40027 0.60337,-0.67188 0.40224,-0.28598 1.13969,-0.42894 0.73745,-0.15726 1.87714,-0.15726 0.80448,0 1.64249,0.15726 0.80449,0.15726 1.4749,0.48608 0.63688,0.31452 1.03913,0.81491 0.40224,0.48608 0.40224,1.15802 l 0,3.43117 2.27938,0 0,-5.21823 q 0,-0.27161 0.0335,-0.70055 0.0335,-0.42887 0.10056,-0.77199 l -2.17882,0 q -0.067,0.27161 -0.10056,0.60043 -0.0335,0.32882 -0.0335,0.54329 l -0.067,0 0,0 z"
             inkscape:connector-curvature="0" />
          <path
             id="path4985"
             style="font-style:normal;font-variant:normal;font-weight:normal;font-stretch:normal;font-size:21.89112663px;line-height:125%;font-family:'Avenir Next';-inkscape-font-specification:'Avenir Next';text-align:start;letter-spacing:0px;word-spacing:0px;writing-mode:lr-tb;text-anchor:start;fill:#257487;fill-opacity:1;stroke:none;stroke-width:1px;stroke-linecap:butt;stroke-linejoin:miter;stroke-opacity:1"
             d="m 70.627147,802.84809 q 0.100556,-0.94362 1.441374,-1.55836 1.307293,-0.62904 3.754278,-0.62904 1.13969,0 2.11178,0.18587 0.972089,0.17156 1.709536,0.48608 0.737448,0.30021 1.173211,0.70055 0.435765,0.38596 0.502805,0.8149 l -10.692984,0 z m -2.312902,0.31452 q 0,0.10005 0,0.2144 0,0.11442 0.03352,0.24307 l 13.005886,0 q -0.03352,0.50038 -0.469283,0.94356 -0.435765,0.44317 -1.206732,0.77199 -0.770968,0.32882 -1.810098,0.52899 -1.03913,0.18586 -2.245861,0.18586 -1.776578,0 -3.050351,-0.34312 -1.307292,-0.35743 -1.977698,-0.8149 l -1.709538,0.57183 q 1.407855,0.75775 3.117391,1.08657 1.676016,0.32883 3.620196,0.32883 1.743056,0 3.251471,-0.25738 1.474895,-0.27161 2.547545,-0.74339 1.072651,-0.47178 1.709536,-1.11512 0.603366,-0.64334 0.603366,-1.40109 0,-0.7577 -0.603366,-1.40104 -0.603365,-0.64333 -1.676016,-1.11511 -1.07265,-0.47178 -2.514025,-0.72909 -1.441373,-0.27168 -3.117389,-0.27168 -1.843618,0 -3.251473,0.27168 -1.407853,0.25731 -2.346423,0.71479 -0.938568,0.44317 -1.407853,1.04367 -0.502805,0.60043 -0.502805,1.28668 z"
             inkscape:connector-curvature="0" />
          <path
             id="path4987"
             style="font-style:normal;font-variant:normal;font-weight:normal;font-stretch:normal;font-size:21.89112663px;line-height:125%;font-family:'Avenir Next';-inkscape-font-specification:'Avenir Next';text-align:start;letter-spacing:0px;word-spacing:0px;writing-mode:lr-tb;text-anchor:start;fill:#257487;fill-opacity:1;stroke:none;stroke-width:1px;stroke-linecap:butt;stroke-linejoin:miter;stroke-opacity:1"
             d="m 61.100063,801.16108 q -0.670407,-0.58613 -2.04474,-0.94356 -1.407853,-0.37173 -3.117391,-0.37173 -0.636885,0 -1.307292,0.0575 -0.703926,0.0575 -1.340813,0.22871 -0.670406,0.15726 -1.206731,0.42893 -0.569847,0.27162 -0.97209,0.70049 -0.804488,-0.68618 -2.178821,-1.04361 -1.407855,-0.37173 -3.318513,-0.37173 -2.983309,0 -4.458204,0.7577 -1.508413,0.75775 -1.508413,2.00153 l 0,4.10311 2.279381,0 0,-3.70278 q 0,-1.05798 0.93857,-1.70132 0.905048,-0.64334 3.117391,-0.64334 1.240251,0 2.11178,0.21447 0.838008,0.21441 1.374333,0.57183 0.502805,0.34312 0.737448,0.7863 0.234641,0.44324 0.234641,0.91501 l 0,3.55983 2.279382,0 0,-3.90295 q 0,-0.48608 0.167603,-0.88641 0.1676,-0.40027 0.603365,-0.67188 0.402243,-0.28598 1.139691,-0.42894 0.737447,-0.15726 1.877138,-0.15726 0.804487,0 1.642497,0.15726 0.804488,0.15726 1.474893,0.48608 0.636887,0.31452 1.039131,0.81491 0.402244,0.48608 0.402244,1.15802 l 0,3.43117 2.279381,0 0,-5.21823 q 0,-0.27161 0.03352,-0.70055 0.03352,-0.42887 0.100556,-0.77199 l -2.178823,0 q -0.06704,0.27161 -0.100555,0.60043 -0.03352,0.32882 -0.03352,0.54329 l -0.06704,0 0,0 z"
             inkscape:connector-curvature="0" />
          <path
             id="path4989"
             style="font-style:normal;font-variant:normal;font-weight:normal;font-stretch:normal;font-size:21.89112663px;line-height:125%;font-family:'Avenir Next';-inkscape-font-specification:'Avenir Next';text-align:start;letter-spacing:0px;word-spacing:0px;writing-mode:lr-tb;text-anchor:start;fill:#257487;fill-opacity:1;stroke:none;stroke-width:1px;stroke-linecap:butt;stroke-linejoin:miter;stroke-opacity:1"
             d="m 23.799776,802.39055 q 0,-0.87205 1.07265,-1.30099 1.072651,-0.42887 3.117389,-0.42887 1.407855,0 2.614586,0.21447 1.206732,0.2144 2.04474,0.57183 l 1.273773,-0.64334 q -0.97209,-0.41457 -2.547545,-0.68618 -1.608976,-0.27168 -3.620196,-0.27168 -1.273771,0 -2.379943,0.15726 -1.106171,0.14296 -1.944179,0.44318 -0.838007,0.30028 -1.307292,0.75775 -0.469285,0.45748 -0.469285,1.07221 l 0,2.93079 q 0,0.38603 -0.06704,0.8006 -0.06704,0.41456 -0.201123,0.70054 l 2.044741,0 q 0.100555,-0.24307 0.167602,-0.52898 0.06704,-0.28592 0.06704,-0.55759 l 0.06704,0 q 1.07265,0.67194 2.446985,0.97216 1.340813,0.28598 3.251471,0.28598 0.905048,0 1.877138,-0.11442 0.938569,-0.10005 1.743056,-0.34313 0.770968,-0.243 1.307293,-0.62903 0.502805,-0.38597 0.502805,-0.94356 0,-0.77199 -0.905048,-1.21517 -0.93857,-0.45747 -2.480504,-0.67194 -1.541935,-0.22877 -3.519635,-0.28591 -2.011218,-0.0715 -4.156519,-0.0715 l 0,-0.21446 z m 0.670406,0.97216 q 1.407853,0 2.849228,0.0575 1.407853,0.0431 2.581065,0.20016 1.139691,0.14296 1.877138,0.42887 0.737446,0.28592 0.737446,0.7577 0,0.35742 -0.301682,0.60049 -0.335203,0.24301 -0.871529,0.40027 -0.536325,0.14296 -1.17321,0.21447 -0.670407,0.0575 -1.340813,0.0575 -1.206733,0 -2.145302,-0.17156 -0.938569,-0.18587 -1.575456,-0.48608 -0.636885,-0.31452 -0.972088,-0.71485 -0.335203,-0.40027 -0.335203,-0.84351 l 0,-0.50038 0.670406,0 z"
             inkscape:connector-curvature="0" />
          <path
             id="path4991"
             style="font-style:normal;font-variant:normal;font-weight:normal;font-stretch:normal;font-size:21.89112663px;line-height:125%;font-family:'Avenir Next';-inkscape-font-specification:'Avenir Next';text-align:start;letter-spacing:0px;word-spacing:0px;writing-mode:lr-tb;text-anchor:start;fill:#257487;fill-opacity:1;stroke:none;stroke-width:1px;stroke-linecap:butt;stroke-linejoin:miter;stroke-opacity:1"
             d="m 4.4533003,801.54711 q 0.5698454,-0.38603 1.6760162,-0.62904 1.0726505,-0.25738 2.3464229,-0.25738 1.3743333,0 2.4805046,0.21447 1.10617,0.20017 1.910658,0.57183 0.770968,0.35743 1.206732,0.85781 0.402244,0.48608 0.402244,1.05791 0,0.57189 -0.402244,1.05797 -0.435764,0.48608 -1.206732,0.85774 -0.770967,0.35743 -1.877138,0.5719 -1.106171,0.20016 -2.4805044,0.20016 -1.5084146,0 -2.5475447,-0.24307 -1.03913,-0.24301 -1.7095367,-0.62904 l -1.7095365,0.54329 q 1.0056098,0.52892 2.480504,0.84344 1.4413741,0.31459 3.4861139,0.31459 1.9106584,0 3.4525934,-0.25738 1.541935,-0.27161 2.648106,-0.74339 1.07265,-0.47178 1.676015,-1.11512 0.603367,-0.64334 0.603367,-1.40109 0,-0.7577 -0.603367,-1.40104 -0.603365,-0.64333 -1.676015,-1.11511 -1.106171,-0.47178 -2.648106,-0.72909 -1.541935,-0.27168 -3.4525934,-0.27168 -1.5754552,0 -3.1844309,0.30022 -1.6424959,0.28598 -2.6481057,0.85781 l 1.7765773,0.54329 z"
             inkscape:connector-curvature="0" />
          <path
             id="path4993"
             style="font-style:normal;font-variant:normal;font-weight:normal;font-stretch:normal;font-size:21.89112663px;line-height:125%;font-family:'Avenir Next';-inkscape-font-specification:'Avenir Next';text-align:start;letter-spacing:0px;word-spacing:0px;writing-mode:lr-tb;text-anchor:start;fill:#257487;fill-opacity:1;stroke:none;stroke-width:1px;stroke-linecap:butt;stroke-linejoin:miter;stroke-opacity:1"
             d="m -3.4239661,801.11817 q -0.6368862,-0.58613 -2.1117805,-0.92925 -1.4748943,-0.34313 -3.1509107,-0.34313 -2.9833087,0 -4.4582037,0.75769 -1.508414,0.75776 -1.508414,2.00153 l 0,4.10311 2.279382,0 0,-3.70277 q 0,-0.52899 0.201122,-0.95786 0.201122,-0.42894 0.703927,-0.72915 0.469284,-0.31452 1.307292,-0.48608 0.8044883,-0.17157 2.0447403,-0.17157 0.9050488,0 1.7765773,0.15726 0.8380082,0.15726 1.5084147,0.48608 0.6704064,0.31452 1.0726503,0.8149 0.402244,0.48608 0.402244,1.15803 l 0,3.43116 2.2793821,0 0,-10.80811 -2.2793821,0 0,5.21816 -0.06704,0 z"
             inkscape:connector-curvature="0" />
          <path
             id="path4995"
             style="font-style:normal;font-variant:normal;font-weight:normal;font-stretch:normal;font-size:21.89112663px;line-height:125%;font-family:'Avenir Next';-inkscape-font-specification:'Avenir Next';text-align:start;letter-spacing:0px;word-spacing:0px;writing-mode:lr-tb;text-anchor:start;fill:#257487;fill-opacity:1;stroke:none;stroke-width:1px;stroke-linecap:butt;stroke-linejoin:miter;stroke-opacity:1"
             d="m -22.833303,806.70812 2.279383,0 0,-6.69077 -2.279383,0 0,6.69077 z m -0.469284,-9.26412 q 0,0.30021 0.502805,0.50038 0.502805,0.18586 1.10617,0.18586 0.603367,0 1.106172,-0.18586 0.502804,-0.20017 0.502804,-0.50038 0,-0.30022 -0.502804,-0.48608 -0.502805,-0.20017 -1.106172,-0.20017 -0.603365,0 -1.10617,0.20017 -0.502805,0.18586 -0.502805,0.48608 z"
             inkscape:connector-curvature="0" />
          <path
             id="path4997"
             style="font-style:normal;font-variant:normal;font-weight:normal;font-stretch:normal;font-size:21.89112663px;line-height:125%;font-family:'Avenir Next';-inkscape-font-specification:'Avenir Next';text-align:start;letter-spacing:0px;word-spacing:0px;writing-mode:lr-tb;text-anchor:start;fill:#257487;fill-opacity:1;stroke:none;stroke-width:1px;stroke-linecap:butt;stroke-linejoin:miter;stroke-opacity:1"
             d="m -30.879748,800.01735 q -0.06704,0.27162 -0.100556,0.60044 -0.03352,0.32882 -0.03352,0.54329 l -0.06704,0 q -0.670405,-0.58613 -2.178821,-0.94356 -1.508415,-0.37173 -3.18443,-0.37173 -2.983309,0 -4.458204,0.75769 -1.508415,0.75776 -1.508415,2.00153 l 0,4.10311 2.279383,0 0,-3.70277 q 0,-0.52899 0.201122,-0.95786 0.201121,-0.42894 0.703926,-0.72915 0.469285,-0.31452 1.307293,-0.48608 0.804487,-0.17157 2.04474,-0.17157 0.905048,0 1.776578,0.15726 0.838007,0.15726 1.508413,0.48608 0.670407,0.31452 1.072651,0.8149 0.402244,0.48608 0.402244,1.15803 l 0,3.43116 2.279383,0 0,-5.21822 q 0,-0.27161 0.03352,-0.70055 0.03352,-0.42887 0.100555,-0.772 l -2.178821,0 z"
             inkscape:connector-curvature="0" />
          <path
             id="path4999"
             style="font-style:normal;font-variant:normal;font-weight:normal;font-stretch:normal;font-size:21.89112663px;line-height:125%;font-family:'Avenir Next';-inkscape-font-specification:'Avenir Next';text-align:start;letter-spacing:0px;word-spacing:0px;writing-mode:lr-tb;text-anchor:start;fill:#257487;fill-opacity:1;stroke:none;stroke-width:1px;stroke-linecap:butt;stroke-linejoin:miter;stroke-opacity:1"
             d="m -60.311615,802.84809 q 0.100556,-0.94362 1.441373,-1.55836 1.307293,-0.62904 3.754278,-0.62904 1.139691,0 2.11178,0.18587 0.972089,0.17156 1.709536,0.48608 0.737448,0.30021 1.173211,0.70055 0.435765,0.38596 0.502805,0.8149 l -10.692983,0 z m -2.312903,0.31452 q 0,0.10005 0,0.2144 0,0.11442 0.03352,0.24307 l 13.005886,0 q -0.03352,0.50038 -0.469284,0.94356 -0.435764,0.44317 -1.206732,0.77199 -0.770968,0.32882 -1.810098,0.52899 -1.03913,0.18586 -2.245861,0.18586 -1.776578,0 -3.05035,-0.34312 -1.307293,-0.35743 -1.977699,-0.8149 l -1.709537,0.57183 q 1.407854,0.75775 3.11739,1.08657 1.676016,0.32883 3.620196,0.32883 1.743056,0 3.251471,-0.25738 1.474895,-0.27161 2.547546,-0.74339 1.07265,-0.47178 1.709535,-1.11512 0.603366,-0.64334 0.603366,-1.40109 0,-0.7577 -0.603366,-1.40104 -0.603365,-0.64333 -1.676015,-1.11511 -1.072651,-0.47178 -2.514026,-0.72909 -1.441373,-0.27168 -3.117389,-0.27168 -1.843618,0 -3.251472,0.27168 -1.407854,0.25731 -2.346423,0.71479 -0.938569,0.44317 -1.407854,1.04367 -0.502805,0.60043 -0.502805,1.28668 z"
             inkscape:connector-curvature="0" />
        </g>
        <g
           transform="translate(-26.23132,0)"
           id="g4881">
          <rect
             style="opacity:1;fill:#ffffff;fill-opacity:1;stroke:none;stroke-width:3.9000001;stroke-linecap:round;stroke-linejoin:round;stroke-miterlimit:4;stroke-dasharray:none;stroke-opacity:1"
             id="rect4877"
             width="252.29758"
             height="98.587914"
             x="-678.66467"
             y="851.99951"
             transform="scale(-1,1)"
             rx="30.370707"
             ry="14.01718" />
          <rect
             ry="14.01718"
             rx="30.370707"
             transform="scale(-1,1)"
             y="851.99951"
             x="-52.951923"
             height="98.587914"
             width="252.29758"
             id="rect4879"
             style="opacity:1;fill:#ffffff;fill-opacity:1;stroke:none;stroke-width:3.9000001;stroke-linecap:round;stroke-linejoin:round;stroke-miterlimit:4;stroke-dasharray:none;stroke-opacity:1" />
        </g>
      </g>
    </g>
  </g>
</svg>
