<?xml version="1.0" encoding="UTF-8" standalone="no"?>
<!-- Created with Inkscape (http://www.inkscape.org/) -->

<svg
   width="210mm"
   height="210mm"
   viewBox="0 0 210 210"
   version="1.1"
   id="svg1"
   sodipodi:docname="history-clock-face-white.svg"
   inkscape:version="1.3 (0e150ed, 2023-07-21)"
   xmlns:inkscape="http://www.inkscape.org/namespaces/inkscape"
   xmlns:sodipodi="http://sodipodi.sourceforge.net/DTD/sodipodi-0.dtd"
   xmlns="http://www.w3.org/2000/svg"
   xmlns:svg="http://www.w3.org/2000/svg">
  <sodipodi:namedview
     id="namedview1"
     pagecolor="#d1d1d1"
     bordercolor="#cccccc"
     borderopacity="1"
     inkscape:showpageshadow="0"
     inkscape:pageopacity="1"
     inkscape:pagecheckerboard="0"
     inkscape:deskcolor="#d1d1d1"
     inkscape:document-units="mm"
     showguides="true"
     inkscape:zoom="0.79768097"
     inkscape:cx="425.60875"
     inkscape:cy="599.86388"
     inkscape:window-width="1392"
     inkscape:window-height="1052"
     inkscape:window-x="0"
     inkscape:window-y="0"
     inkscape:window-maximized="0"
     inkscape:current-layer="layer1"
     showgrid="false" />
  <defs
     id="defs1" />
  <g
     inkscape:label="Layer 1"
     inkscape:groupmode="layer"
     id="layer1">
    <circle
       style="display:none;fill:none;fill-opacity:0.42487;stroke:#000000;stroke-width:0.186278;stroke-dasharray:13.0395;stroke-dashoffset:7.17171"
       id="path1"
       cx="108.26998"
       cy="103.56628"
       r="73.994438"
       transform="rotate(0.7224257)"
       inkscape:label="centering ring"
       sodipodi:insensitive="true" />
    <g
       id="circle1"
       transform="matrix(1.4111143,0.01537503,-0.01537503,1.4111143,-39.722285,-44.594612)"
       style="display:inline;fill:#f9f9f9">
      <path
         id="path8"
         style="color:#000000;fill:#f9f9f9;-inkscape-stroke:none"
         d="m 104.99976,48.066099 c -31.390287,0 -56.933579,25.543117 -56.933579,56.933411 l 8.999986,1.3e-4 c 0,-26.526342 21.407644,-47.933561 47.933983,-47.933561 26.52634,-1e-6 47.93355,21.40712 47.93355,47.933461 1e-5,26.52635 -21.40712,47.93357 -47.93346,47.93356 -6.733874,0 -13.390146,-1.42458 -19.537375,-4.16851 -9.11e-4,-4.1e-4 -0.0017,-0.001 -0.0026,-0.002 a 4.5,4.5 0 0 0 -2.126985,-0.5086 4.5,4.5 0 0 0 -4.450689,4.54874 4.5,4.5 0 0 0 2.61967,4.03502 l -0.0076,0.0171 c 7.384254,3.34732 15.397907,5.07774 23.505419,5.07774 31.3903,1e-5 56.93359,-25.54312 56.93358,-56.93342 0,-31.390293 -25.54363,-56.933573 -56.93393,-56.933571 z" />
      <g
         id="g5"
         inkscape:label="arrowhead"
         style="fill:#f9f9f9">
        <g
           id="path5"
           transform="rotate(-5.7343451,37.25386,97.731266)"
           style="fill:#f9f9f9">
          <path
             style="color:#000000;fill:#f9f9f9;fill-rule:evenodd;-inkscape-stroke:none"
             d="m 52.566223,117.9825 -11.25,-19.4625 h 22.5 z"
             id="path6" />
          <path
             style="color:#000000;fill:#f9f9f9;fill-rule:evenodd;-inkscape-stroke:none"
             d="m 38.716797,97.019531 13.849609,23.960939 1.298828,-2.24805 12.550782,-21.712889 z"
             id="path7"
             sodipodi:nodetypes="ccccc" />
        </g>
      </g>
    </g>
    <ellipse
       style="fill:#f9f9f9;fill-opacity:1;stroke:#000000;stroke-width:0.0277051;stroke-dasharray:none;stroke-dashoffset:8.10001"
       id="ellipse9"
       cx="-41.928501"
       cy="140.83374"
       transform="matrix(-0.99999916,0.00129513,0.00129513,0.99999916,0,0)"
       rx="6.3365383"
       ry="6.3365393"
       inkscape:label="pip" />
    <circle
       style="fill:#f9f9f9;fill-opacity:1;stroke:#000000;stroke-width:0.0277051;stroke-dasharray:none;stroke-dashoffset:8.10001"
       id="ellipse10"
       cx="-62.227142"
       cy="156.85262"
       transform="matrix(-0.99933892,-0.03635545,-0.03635545,0.99933892,0,0)"
       r="6.3365383"
       inkscape:label="pip" />
    <path
       id="circle10"
       style="display:inline;fill:#f9f9f9;stroke:none;stroke-width:10.9009;stroke-dasharray:490.544"
       d="M 107.6002,61.275882 C 94.316263,61.08993 81.112324,66.951206 72.384185,78.28773 c -14.700024,19.0931 -11.138244,46.48803 7.954856,61.18805 19.093097,14.70004 46.487439,11.13824 61.187449,-7.95485 14.70003,-19.0931 11.13884,-46.487431 -7.95425,-61.187454 -7.75657,-5.971887 -16.88302,-8.930361 -25.97204,-9.057594 z m -0.63194,13.170308 c 2.8854,-0.0037 5.2282,2.332458 5.23169,5.217857 l 0.0115,23.461713 11.92507,9.14659 c 0.22673,0.14794 0.44167,0.31207 0.64216,0.49244 l 0.003,0.003 c 1.05933,0.95471 1.72574,2.33684 1.72806,3.87521 0.004,2.88539 -2.33245,5.22759 -5.21785,5.23108 -1.04803,0.002 -2.02355,-0.30676 -2.84222,-0.83697 l -6.1e-4,6e-4 -0.0139,-0.0102 c -0.20965,-0.13677 -0.40853,-0.28814 -0.59586,-0.45275 l -13.99466,-10.63174 c -1.27892,-0.95076 -2.10825,-2.47233 -2.11046,-4.18847 l 0.0157,-26.077258 c -0.004,-2.885389 2.33247,-5.22736 5.21786,-5.231083 z"
       inkscape:label="clock face" />
  </g>
</svg>
