<?xml version="1.0" encoding="UTF-8" standalone="no"?>
<!-- Created with Inkscape (http://www.inkscape.org/) -->

<svg
   width="210mm"
   height="210mm"
   viewBox="0 0 210 210"
   version="1.1"
   id="svg1"
   sodipodi:docname="history-clock-face-white.svg"
   inkscape:version="1.3 (0e150ed, 2023-07-21)"
   xmlns:inkscape="http://www.inkscape.org/namespaces/inkscape"
   xmlns:sodipodi="http://sodipodi.sourceforge.net/DTD/sodipodi-0.dtd"
   xmlns="http://www.w3.org/2000/svg"
   xmlns:svg="http://www.w3.org/2000/svg">
  <sodipodi:namedview
     id="namedview1"
     pagecolor="#d1d1d1"
     bordercolor="#cccccc"
     borderopacity="1"
     inkscape:showpageshadow="0"
     inkscape:pageopacity="1"
     inkscape:pagecheckerboard="0"
     inkscape:deskcolor="#d1d1d1"
     inkscape:document-units="mm"
     showguides="true"
     inkscape:zoom="0.56404562"
     inkscape:cx="435.24848"
     inkscape:cy="647.99723"
     inkscape:window-width="1392"
     inkscape:window-height="1052"
     inkscape:window-x="0"
     inkscape:window-y="0"
     inkscape:window-maximized="0"
     inkscape:current-layer="layer1" />
  <defs
     id="defs1" />
  <g
     inkscape:label="Layer 1"
     inkscape:groupmode="layer"
     id="layer1">
    <circle
       style="display:none;fill:none;fill-opacity:0.42487;stroke:#000000;stroke-width:0.186278;stroke-dasharray:13.0395;stroke-dashoffset:7.17171"
       id="path1"
       cx="108.26998"
       cy="103.56628"
       r="73.994438"
       transform="rotate(0.7224257)"
       inkscape:label="centering ring"
       sodipodi:insensitive="true" />
    <g
       id="circle1"
       transform="matrix(1.4111143,0.01537503,-0.01537503,1.4111143,-39.722285,-44.594612)"
       style="display:inline;fill:#f9f9f9">
      <path
         id="path8"
         style="color:#000000;fill:#f9f9f9;-inkscape-stroke:none"
         d="m 104.99976,48.066099 c -31.390287,0 -56.933579,25.543117 -56.933579,56.933411 l 8.999986,1.3e-4 c 0,-26.526342 21.407644,-47.933561 47.933983,-47.933561 26.52634,-1e-6 47.93355,21.40712 47.93355,47.933461 1e-5,26.52635 -21.40712,47.93357 -47.93346,47.93356 -6.733874,0 -13.390146,-1.42458 -19.537375,-4.16851 -9.11e-4,-4.1e-4 -0.0017,-0.001 -0.0026,-0.002 a 4.5,4.5 0 0 0 -2.126985,-0.5086 4.5,4.5 0 0 0 -4.450689,4.54874 4.5,4.5 0 0 0 2.61967,4.03502 l -0.0076,0.0171 c 7.384254,3.34732 15.397907,5.07774 23.505419,5.07774 31.3903,1e-5 56.93359,-25.54312 56.93358,-56.93342 0,-31.390293 -25.54363,-56.933573 -56.93393,-56.933571 z" />
      <g
         id="g5"
         inkscape:label="arrowhead"
         style="fill:#f9f9f9">
        <g
           id="path5"
           transform="rotate(-5.7343451,37.25386,97.731266)"
           style="fill:#f9f9f9">
          <path
             style="color:#000000;fill:#f9f9f9;fill-rule:evenodd;-inkscape-stroke:none"
             d="m 52.566223,117.9825 -11.25,-19.4625 h 22.5 z"
             id="path6" />
          <path
             style="color:#000000;fill:#f9f9f9;fill-rule:evenodd;-inkscape-stroke:none"
             d="m 38.716797,97.019531 13.849609,23.960939 1.298828,-2.24805 12.550782,-21.712889 z"
             id="path7"
             sodipodi:nodetypes="ccccc" />
        </g>
      </g>
    </g>
    <ellipse
       style="fill:#f9f9f9;fill-opacity:1;stroke:#000000;stroke-width:0.0277051;stroke-dasharray:none;stroke-dashoffset:8.10001"
       id="ellipse9"
       cx="-41.928501"
       cy="140.83374"
       transform="matrix(-0.99999916,0.00129513,0.00129513,0.99999916,0,0)"
       rx="6.3365383"
       ry="6.3365393"
       inkscape:label="pip" />
    <circle
       style="fill:#f9f9f9;fill-opacity:1;stroke:#000000;stroke-width:0.0277051;stroke-dasharray:none;stroke-dashoffset:8.10001"
       id="ellipse10"
       cx="-62.227142"
       cy="156.85262"
       transform="matrix(-0.99933892,-0.03635545,-0.03635545,0.99933892,0,0)"
       r="6.3365383"
       inkscape:label="pip" />
    <path
       id="circle10"
       style="display:inline;stroke:none;stroke-width:13.2212;stroke-dasharray:594.957;fill:#f9f9f9"
       d="m 107.73744,51.989457 c -16.11146,-0.225533 -32.125891,6.88333 -42.711837,20.632863 -17.828961,23.157114 -13.509048,56.38313 9.648068,74.21208 23.157111,17.82898 56.382409,13.50905 74.211349,-9.64806 17.82897,-23.15711 13.50978,-56.382397 -9.64733,-74.211358 -9.40758,-7.243018 -20.47661,-10.831211 -31.50025,-10.985525 z m -0.76645,15.973641 c 3.49956,-0.0045 6.34103,2.828928 6.34527,6.328491 l 0.0139,28.455601 14.46335,11.09346 c 0.27499,0.17943 0.53568,0.3785 0.77884,0.59726 l 0.004,0.004 c 1.28482,1.15793 2.09307,2.83424 2.09589,4.70006 0.005,3.49955 -2.82892,6.3403 -6.32849,6.34453 -1.2711,0.002 -2.45427,-0.37205 -3.44719,-1.01512 l -7.4e-4,7.2e-4 -0.0168,-0.0124 c -0.25427,-0.16588 -0.49548,-0.34947 -0.72269,-0.54912 l -16.97346,-12.89473 c -1.55114,-1.15314 -2.55699,-2.99858 -2.55968,-5.08 l 0.019,-31.627869 c -0.005,-3.499552 2.82894,-6.340017 6.32849,-6.344533 z"
       inkscape:label="clock face" />
  </g>
</svg>
