<?xml version="1.0" encoding="UTF-8" standalone="no"?>
<!-- Created with Inkscape (http://www.inkscape.org/) -->

<svg
   width="600"
   height="600"
   viewBox="0 0 158.75 158.75"
   version="1.1"
   id="svg1"
   inkscape:export-filename="pre-release-stamp.png"
   inkscape:export-xdpi="160"
   inkscape:export-ydpi="160"
   xml:space="preserve"
   inkscape:version="1.3 (0e150ed, 2023-07-21)"
   sodipodi:docname="pre-release-stamp.svg"
   xmlns:inkscape="http://www.inkscape.org/namespaces/inkscape"
   xmlns:sodipodi="http://sodipodi.sourceforge.net/DTD/sodipodi-0.dtd"
   xmlns="http://www.w3.org/2000/svg"
   xmlns:svg="http://www.w3.org/2000/svg"><sodipodi:namedview
     id="namedview1"
     pagecolor="#ffffff"
     bordercolor="#cccccc"
     borderopacity="1"
     inkscape:showpageshadow="0"
     inkscape:pageopacity="1"
     inkscape:pagecheckerboard="0"
     inkscape:deskcolor="#d1d1d1"
     inkscape:document-units="mm"
     inkscape:zoom="0.41195387"
     inkscape:cx="245.17308"
     inkscape:cy="353.19489"
     inkscape:window-width="1392"
     inkscape:window-height="1052"
     inkscape:window-x="0"
     inkscape:window-y="0"
     inkscape:window-maximized="0"
     inkscape:current-layer="layer4"
     inkscape:export-bgcolor="#ffffff00" /><defs
     id="defs1" /><g
     inkscape:groupmode="layer"
     id="layer4"
     inkscape:label="Layer 2"
     style="mix-blend-mode:normal;opacity:1"
     transform="translate(11.56076,-5.138111)"><g
       id="g20"
       transform="translate(-11.857739,7.8533162)"><path
         id="path14"
         style="font-weight:800;font-size:7.05556px;font-family:Avenir;-inkscape-font-specification:'Avenir, Ultra-Bold';opacity:0.9;stroke-width:0.674;stroke-linecap:round;stroke-linejoin:round;stroke-dashoffset:0.213418"
         d="m 83.606784,47.878731 c -0.182168,0.01095 -0.358375,0.03814 -0.52865,0.08113 -0.340551,0.08599 -0.642491,0.230364 -0.905888,0.433566 -0.262889,0.198523 -0.479914,0.451734 -0.650607,0.759643 -0.166015,0.308416 -0.270457,0.661378 -0.313675,1.05885 -0.04322,0.397472 -0.01678,0.764851 0.07906,1.101742 0.100507,0.337408 0.257204,0.633772 0.470773,0.888834 0.214077,0.250386 0.47809,0.454161 0.792199,0.611333 0.31411,0.157172 0.665563,0.256487 1.053683,0.298689 0.341358,0.03712 0.680635,0.0034 1.018542,-0.101802 0.337906,-0.105204 0.628289,-0.293625 0.870748,-0.565341 l -0.83767,-0.779795 c -0.130532,0.156139 -0.287586,0.271524 -0.470773,0.346232 -0.183187,0.07471 -0.386877,0.09985 -0.611332,0.07545 -0.196398,-0.02136 -0.376679,-0.08101 -0.541052,-0.179317 -0.159697,-0.0978 -0.295174,-0.223743 -0.406177,-0.377755 -0.110494,-0.158688 -0.193043,-0.338094 -0.247013,-0.537951 -0.04879,-0.204026 -0.06005,-0.423001 -0.03462,-0.656809 0.02491,-0.22913 0.08317,-0.438064 0.174666,-0.626834 0.09617,-0.188266 0.214539,-0.34577 0.356051,-0.472323 0.146697,-0.13072 0.311333,-0.22612 0.492993,-0.286804 0.186337,-0.06017 0.382328,-0.07922 0.588078,-0.05684 0.205751,0.02237 0.381964,0.07689 0.52865,0.163814 0.151364,0.08743 0.273591,0.202571 0.366903,0.345198 l 0.916223,-0.595829 c -0.09281,-0.147302 -0.201673,-0.275171 -0.327112,-0.383438 -0.125439,-0.108269 -0.260059,-0.1984 -0.403593,-0.270785 -0.138859,-0.07188 -0.283861,-0.127789 -0.435632,-0.167949 -0.146586,-0.04433 -0.290181,-0.07415 -0.430465,-0.0894 -0.19406,-0.0211 -0.382139,-0.02645 -0.564306,-0.0155 z m -5.695777,1.537891 -1.16427,0.183968 -0.432531,1.011308 -0.745175,-0.824756 -1.233516,0.19482 1.37821,1.396297 -1.051615,2.023649 1.219564,-0.192753 0.615983,-1.254703 0.917257,1.01234 1.233515,-0.195336 -1.589566,-1.605587 z m 8.93899,0.63407 -0.54157,1.811775 c -0.066,0.22083 -0.113612,0.429988 -0.143143,0.627352 -0.02502,0.19871 -0.01596,0.380401 0.02791,0.545703 0.04838,0.166646 0.139362,0.314085 0.272852,0.442351 0.139344,0.125104 0.337395,0.226048 0.594279,0.302824 0.121681,0.03637 0.239349,0.05431 0.352433,0.05374 0.113083,-5.67e-4 0.217222,-0.01343 0.313159,-0.03876 0.09594,-0.02533 0.180794,-0.06159 0.253731,-0.108519 0.07744,-0.04558 0.143528,-0.09444 0.198438,-0.146762 l 0.01343,0.0041 -0.133324,0.445967 0.973583,0.290938 0.981848,-3.285068 -1.013887,-0.303343 -0.489376,1.636075 c -0.03233,0.108161 -0.07002,0.209783 -0.113171,0.304892 -0.04315,0.09511 -0.09915,0.176263 -0.168466,0.243912 -0.06346,0.0645 -0.143324,0.109547 -0.239261,0.134876 -0.09459,0.02082 -0.207269,0.01167 -0.337964,-0.02739 -0.130694,-0.03906 -0.223624,-0.09645 -0.279569,-0.172083 -0.05144,-0.07428 -0.08256,-0.159394 -0.09302,-0.255797 -0.006,-0.09506 0.0011,-0.193747 0.0217,-0.29559 0.02647,-0.105002 0.05388,-0.204565 0.08217,-0.299207 l 0.481108,-1.609203 z m -14.566036,0.571541 c -0.245454,-0.0065 -0.493014,0.03256 -0.74259,0.116789 -0.249577,0.08423 -0.471898,0.204242 -0.667661,0.359668 -0.191304,0.153923 -0.344094,0.334387 -0.457852,0.541569 -0.110807,0.20122 -0.177607,0.421956 -0.200505,0.663008 -0.0229,0.241055 0.0094,0.490819 0.09663,0.749309 0.08724,0.258488 0.212954,0.476861 0.377239,0.65474 0.164285,0.17788 0.352207,0.315514 0.56379,0.412895 0.214535,0.09142 0.444426,0.140242 0.68988,0.14676 0.24991,0.005 0.499732,-0.03462 0.749309,-0.118855 0.249576,-0.08423 0.470152,-0.203162 0.661457,-0.357084 0.195762,-0.155428 0.349115,-0.333631 0.459921,-0.534851 0.113758,-0.207182 0.181741,-0.431258 0.204638,-0.67231 0.0229,-0.241055 -0.0089,-0.49082 -0.09612,-0.749309 -0.08724,-0.258489 -0.213471,-0.47686 -0.377755,-0.65474 -0.164286,-0.177879 -0.353389,-0.312174 -0.567925,-0.403593 -0.211582,-0.09738 -0.442553,-0.148981 -0.692463,-0.153996 z m 19.612752,0.07338 -0.425813,0.922424 -0.614946,-0.283705 -0.354505,0.76843 0.614951,0.28422 -0.682641,1.479494 c -0.07883,0.17084 -0.118166,0.329184 -0.117825,0.474391 0.0046,0.147178 0.04046,0.282518 0.107487,0.406693 0.069,0.119905 0.163834,0.228846 0.284737,0.326079 0.120904,0.09723 0.262485,0.182976 0.424783,0.257863 0.111041,0.05124 0.227076,0.09706 0.348301,0.137459 0.121225,0.0404 0.243943,0.06617 0.368447,0.077 l 0.370008,-0.800988 c -0.06045,0.01873 -0.13656,0.01472 -0.227893,-0.01188 -0.08511,-0.0289 -0.15341,-0.05489 -0.204639,-0.07855 -0.102488,-0.04731 -0.179771,-0.09882 -0.232026,-0.153997 -0.046,-0.05749 -0.07233,-0.118394 -0.07855,-0.183448 -0.0062,-0.06505 0.0023,-0.13392 0.02532,-0.206189 0.02496,-0.07655 0.05722,-0.157461 0.09664,-0.242882 l 0.47904,-1.037662 0.845428,0.390156 0.3545,-0.768945 -0.845428,-0.390157 0.425813,-0.922423 z m -24.440365,0.358633 c -0.19782,0.0024 -0.39975,0.04487 -0.606681,0.12764 -0.205114,0.07635 -0.402601,0.167172 -0.591695,0.272335 l -1.627807,0.905372 2.427758,4.365625 1.788004,-0.994254 c 0.193213,-0.107437 0.37483,-0.235417 0.545187,-0.383957 0.174468,-0.150829 0.313903,-0.316748 0.417546,-0.498161 0.103642,-0.181413 0.162129,-0.375946 0.176216,-0.58291 0.01181,-0.211082 -0.04613,-0.431768 -0.174149,-0.661975 -0.07771,-0.139774 -0.173525,-0.258384 -0.287322,-0.356567 -0.113794,-0.09819 -0.239069,-0.168918 -0.375687,-0.211357 -0.134792,-0.04883 -0.277695,-0.06868 -0.428914,-0.05994 -0.149394,0.0023 -0.301508,0.03305 -0.456821,0.0925 l -0.0072,-0.0124 c 0.187243,-0.195605 0.304368,-0.411231 0.350883,-0.646989 0.04832,-0.242141 0.0038,-0.486618 -0.133325,-0.733288 -0.132578,-0.238436 -0.285882,-0.403235 -0.460437,-0.494544 -0.174555,-0.09131 -0.359987,-0.133592 -0.555522,-0.127124 z m 4.739763,0.510046 c 0.110832,0.0048 0.213858,0.03333 0.308508,0.08578 0.193755,0.103396 0.331717,0.277846 0.414445,0.522965 0.08273,0.24512 0.07855,0.467481 -0.01292,0.667142 -0.08702,0.198159 -0.257561,0.340081 -0.511596,0.425814 -0.254033,0.08574 -0.478038,0.07704 -0.671794,-0.02635 -0.189298,-0.104902 -0.325515,-0.279914 -0.408243,-0.525033 -0.08273,-0.245121 -0.0803,-0.466919 0.0067,-0.665076 0.09147,-0.199663 0.264279,-0.342664 0.518315,-0.428398 0.127016,-0.04287 0.245734,-0.06164 0.356567,-0.05684 z m 23.012033,0.131258 -2.757976,4.165122 1.705844,1.129645 c 0.18432,0.122062 0.381917,0.22463 0.592214,0.307474 0.21421,0.08544 0.425308,0.13259 0.634065,0.141079 0.208758,0.0085 0.408207,-0.02885 0.598411,-0.11162 0.192813,-0.0867 0.362034,-0.239789 0.507465,-0.459405 0.0883,-0.133339 0.149717,-0.273395 0.184487,-0.419614 0.03475,-0.146209 0.03967,-0.289635 0.01447,-0.430465 -0.01895,-0.142008 -0.06706,-0.277885 -0.144184,-0.408241 -0.07086,-0.131539 -0.1682,-0.252785 -0.292487,-0.363285 l 0.0078,-0.01189 c 0.259836,0.07617 0.505159,0.08068 0.735868,0.01344 0.23722,-0.06857 0.433809,-0.220483 0.589629,-0.455786 0.150629,-0.227463 0.226165,-0.439662 0.226859,-0.636654 7.31e-4,-0.197011 -0.04683,-0.380802 -0.142626,-0.551388 C 97.574773,53.42944 97.443942,53.26948 97.2752,53.123889 97.11298,52.976972 96.941421,52.843895 96.761023,52.724428 Z m -28.020513,0.4284 c 0.07995,-0.0014 0.155571,0.01886 0.226859,0.05994 0.07311,0.03469 0.134711,0.09714 0.185001,0.187585 0.048,0.08633 0.07092,0.170463 0.06821,0.252698 0.0014,0.07995 -0.01677,0.15424 -0.05374,0.223242 -0.03698,0.069 -0.08759,0.132583 -0.152445,0.19017 -0.06073,0.05532 -0.128048,0.103568 -0.202055,0.144694 l -0.697115,0.387573 -0.517798,-0.931209 0.653707,-0.363803 c 0.07399,-0.04115 0.154593,-0.07482 0.241846,-0.101803 0.08496,-0.0311 0.167579,-0.04769 0.24753,-0.04909 z m 28.424105,0.956014 0.623221,0.412893 c 0.07058,0.04675 0.137901,0.102416 0.202052,0.167433 0.0667,0.06112 0.119047,0.127075 0.157091,0.197407 0.03808,0.07031 0.05537,0.14671 0.05168,0.228925 0.0029,0.08087 -0.024,0.164351 -0.08113,0.250631 -0.05453,0.08238 -0.119008,0.141304 -0.19327,0.176733 -0.07033,0.03805 -0.144449,0.05636 -0.222725,0.05529 -0.07828,-0.0011 -0.158277,-0.017 -0.239257,-0.04806 -0.07707,-0.02846 -0.150591,-0.0659 -0.221181,-0.112652 L 95.023145,53.96828 Z m -27.315646,0.70435 c 0.0964,-0.01054 0.187982,0.003 0.273885,0.04134 0.08771,0.03196 0.159877,0.09981 0.217042,0.202571 0.05257,0.09455 0.07688,0.185769 0.07235,0.274402 -4.25e-4,0.08635 -0.02011,0.167484 -0.05891,0.242879 -0.03881,0.0754 -0.09278,0.142701 -0.161748,0.202573 -0.06484,0.05761 -0.134249,0.107186 -0.208256,0.148311 l -0.863513,0.480074 -0.551905,-0.992704 0.727604,-0.404627 c 0.07811,-0.04343 0.165735,-0.084 0.263033,-0.121956 0.0973,-0.03796 0.194026,-0.06232 0.290422,-0.07286 z m -5.242574,0.405143 -0.836124,0.649056 0.623217,0.802535 -0.535368,0.415478 0.519348,0.668693 0.534852,-0.414961 0.999422,1.287259 c 0.115366,0.148628 0.237842,0.256433 0.366903,0.322979 0.132777,0.06366 0.269737,0.09432 0.410827,0.09198 0.138207,-0.0061 0.278152,-0.04079 0.42013,-0.103353 0.141976,-0.06256 0.283582,-0.148267 0.42478,-0.257865 0.09661,-0.07498 0.191,-0.156957 0.282669,-0.24598 0.09167,-0.08902 0.170779,-0.186424 0.237713,-0.291972 l -0.541052,-0.696597 c -0.0112,0.06228 -0.04958,0.12754 -0.115239,0.19637 -0.06483,0.06222 -0.119228,0.110598 -0.163814,0.145211 -0.08917,0.06924 -0.170357,0.114421 -0.243396,0.135392 -0.07221,0.01437 -0.13885,0.0094 -0.199471,-0.01499 -0.06062,-0.0244 -0.117473,-0.06362 -0.17105,-0.117305 -0.05647,-0.0574 -0.113366,-0.123089 -0.171049,-0.197404 l -0.701248,-0.902787 0.735872,-0.571025 -0.519349,-0.669209 -0.735355,0.571024 z m 31.455443,0.555522 0.694534,0.459403 c 0.07449,0.04936 0.150935,0.108361 0.229444,0.177249 0.07845,0.06892 0.144162,0.144087 0.197915,0.224796 0.05375,0.08071 0.08338,0.168085 0.08889,0.261997 0.01203,0.09259 -0.01413,0.187726 -0.07907,0.285771 -0.05972,0.09023 -0.13006,0.153421 -0.210837,0.190169 -0.07685,0.03937 -0.157569,0.05917 -0.242366,0.05943 -0.08482,2.71e-4 -0.169877,-0.01595 -0.254761,-0.04961 -0.08099,-0.03106 -0.156795,-0.07003 -0.227376,-0.116788 l -0.82321,-0.545702 z m 4.000792,1.755448 c -0.229648,-0.0057 -0.456575,0.03647 -0.6811,0.127126 -0.224527,0.09065 -0.431326,0.234527 -0.62063,0.430979 -0.189304,0.196454 -0.325452,0.408402 -0.40773,0.636139 -0.08227,0.227733 -0.117929,0.458252 -0.106966,0.690912 0.0176,0.232542 0.08035,0.459175 0.187583,0.680063 0.110609,0.224156 0.260428,0.427524 0.450099,0.6103 0.189681,0.182772 0.396961,0.323749 0.621666,0.422713 0.22811,0.102221 0.457146,0.156022 0.686784,0.161746 0.236293,0.0056 0.466896,-0.03699 0.691433,-0.127642 0.224518,-0.09065 0.43133,-0.234013 0.620635,-0.430465 0.189295,-0.196449 0.324935,-0.408918 0.407205,-0.636651 0.0823,-0.227737 0.11477,-0.457865 0.0971,-0.690398 -0.011,-0.23265 -0.0718,-0.461064 -0.18241,-0.68523 -0.10722,-0.220897 -0.25578,-0.422356 -0.445453,-0.605132 -0.18968,-0.182772 -0.398729,-0.32566 -0.626838,-0.42788 -0.224714,-0.09896 -0.455142,-0.150978 -0.691428,-0.15658 z m -36.892323,0.148312 -0.735872,0.760677 1.227315,1.187524 c 0.08114,0.07849 0.154027,0.158722 0.218591,0.240812 0.06459,0.08208 0.110865,0.169323 0.13901,0.261999 0.02804,0.08602 0.03098,0.177575 0.0093,0.274403 -0.02506,0.09356 -0.08499,0.189284 -0.179834,0.287321 -0.09484,0.09804 -0.188743,0.15465 -0.281637,0.169499 -0.08962,0.01146 -0.179353,-5.65e-4 -0.269751,-0.03566 -0.08713,-0.03847 -0.171267,-0.09036 -0.252181,-0.155545 -0.08102,-0.07184 -0.156897,-0.142162 -0.227893,-0.21084 l -1.207161,-1.167372 -0.735873,0.760678 1.35909,1.314649 c 0.165653,0.160252 0.329316,0.29892 0.490926,0.415995 0.164882,0.113694 0.330705,0.189191 0.497645,0.226343 0.17021,0.03377 0.342985,0.02068 0.518314,-0.03876 0.175208,-0.06611 0.356186,-0.195392 0.542603,-0.38809 0.0883,-0.09128 0.158249,-0.18719 0.209806,-0.287838 0.05155,-0.100647 0.08839,-0.199278 0.11007,-0.296106 0.02168,-0.09683 0.02824,-0.188565 0.02016,-0.274919 -0.0048,-0.08974 -0.01759,-0.171081 -0.03876,-0.243912 l 0.0098,-0.0098 0.334347,0.323494 0.706417,-0.730188 z m 36.945545,0.843877 c 0.219359,-0.01072 0.426027,0.07648 0.619084,0.262516 0.193065,0.186037 0.286579,0.387239 0.280606,0.60358 -0.0026,0.2196 -0.09386,0.422975 -0.273365,0.609263 -0.179504,0.186289 -0.379059,0.284355 -0.598418,0.295076 -0.215966,0.01398 -0.42034,-0.07183 -0.613396,-0.257868 -0.193092,-0.186022 -0.288352,-0.388629 -0.285773,-0.60823 0.006,-0.216341 0.09851,-0.417808 0.278024,-0.6041 l 5.12e-4,2e-6 c 0.179514,-0.186293 0.376761,-0.286257 0.592726,-0.300239 z m 3.223057,1.72341 -0.60512,1.866548 -2.28049,-0.0021 0.732776,0.993736 1.397324,-0.03049 -0.47645,1.280025 0.34624,0.469735 0.5674,4e-6 0.52142,-1.614892 1.94458,-0.04909 -0.69919,-0.948261 -1.09708,0.08113 0.38963,-1.04128 z m -44.067589,0.193267 c -0.17349,0.01457 -0.337066,0.05269 -0.490926,0.114205 -0.153858,0.06152 -0.295995,0.13948 -0.426331,0.233578 -0.12773,0.09018 -0.244326,0.193302 -0.349849,0.309542 -0.106834,0.109719 -0.19938,0.223034 -0.277503,0.340548 -0.216141,0.325116 -0.364489,0.659071 -0.444933,1.000972 -0.08044,0.341901 -0.09117,0.676184 -0.03204,1.003556 0.05521,0.324769 0.180411,0.633797 0.375171,0.927075 0.111399,0.163326 0.250031,0.313095 0.404627,0.454753 h 3.677811 c 0.13993,-0.143253 0.271436,-0.300717 0.390674,-0.480074 0.1901,-0.285946 0.316618,-0.602962 0.378789,-0.951364 0.06217,-0.3484 0.0283,-0.692684 -0.101286,-1.033012 l -1.077971,0.38499 c 0.07852,0.187758 0.108962,0.380212 0.09095,0.577226 -0.01801,0.197013 -0.08946,0.389207 -0.214458,0.577226 -0.109372,0.164517 -0.245301,0.297246 -0.408243,0.397908 -0.160336,0.09675 -0.334625,0.158918 -0.522449,0.186552 -0.191741,0.02503 -0.388913,0.01567 -0.591178,-0.02842 -0.203579,-0.05062 -0.403076,-0.141095 -0.59893,-0.271301 -0.191936,-0.127601 -0.350485,-0.275772 -0.47594,-0.443901 -0.12285,-0.172047 -0.208079,-0.349933 -0.255282,-0.533817 -0.04852,-0.190405 -0.05767,-0.380272 -0.02791,-0.569474 0.03237,-0.193118 0.10556,-0.37542 0.220142,-0.547771 0.114579,-0.172353 0.244431,-0.304091 0.389123,-0.394291 0.147296,-0.09412 0.305335,-0.149736 0.474906,-0.166914 z m -2.199866,30.134079 0.22531,0.412378 1.098124,0.0677 -0.526583,0.979267 0.598413,1.096058 0.851628,-1.767851 2.259294,0.310059 -0.591696,-1.083655 -0.122472,-0.01395 z m 46.047835,-1e-6 -0.10283,0.208773 1.24333,-0.208772 z m 2.2164,0 0.84801,1.538408 0.52038,-1.057299 -0.29662,-0.481108 z m -43.960621,1.925982 c -0.117021,0.0055 -0.234045,0.02295 -0.3514,0.05271 -0.234713,0.05951 -0.459254,0.174036 -0.673344,0.343132 -0.214091,0.169094 -0.377112,0.361135 -0.489376,0.575675 -0.112263,0.21454 -0.175712,0.437976 -0.189652,0.67076 -0.02055,0.23201 0.009,0.466278 0.08837,0.703317 0.07641,0.233349 0.196403,0.453718 0.359669,0.660424 0.163263,0.206709 0.35106,0.375892 0.563272,0.507982 0.209298,0.12839 0.43067,0.21163 0.664042,0.24908 0.226767,0.0367 0.457238,0.0249 0.691948,-0.0346 0.234713,-0.0595 0.459254,-0.17352 0.673344,-0.34262 0.214091,-0.169092 0.377113,-0.361132 0.489376,-0.575672 0.112263,-0.214541 0.178924,-0.437718 0.199471,-0.669727 0.01394,-0.232786 -0.01763,-0.465836 -0.09405,-0.699183 -0.07931,-0.237046 -0.200536,-0.458885 -0.363802,-0.665592 -0.163264,-0.206708 -0.349324,-0.374419 -0.558622,-0.502811 -0.212213,-0.132084 -0.431593,-0.21654 -0.658359,-0.253215 -0.116686,-0.01873 -0.233861,-0.02515 -0.350882,-0.01964 z m 0.264066,1.014407 c 0.215879,0.0153 0.406911,0.128083 0.573092,0.338481 0.166179,0.2104 0.233229,0.424061 0.201021,0.641305 -0.03512,0.213554 -0.154583,0.40086 -0.357601,0.561206 -0.203017,0.160349 -0.411989,0.232861 -0.627868,0.217558 -0.218794,-0.019 -0.411561,-0.133767 -0.577743,-0.344165 -0.166178,-0.2104 -0.231493,-0.422585 -0.19637,-0.636137 0.03221,-0.217247 0.149415,-0.406029 0.352433,-0.566374 0.203017,-0.160348 0.414242,-0.230867 0.633036,-0.211874 z m 40.051815,0.138493 c -0.327982,0.03078 -0.646607,0.129344 -0.95601,0.29559 -0.309403,0.166246 -0.593063,0.39588 -0.851111,0.688846 -0.226957,0.257669 -0.394699,0.554598 -0.503329,0.891419 -0.108628,0.336815 -0.121741,0.682955 -0.03927,1.037665 l 1.119828,-0.23616 c -0.05245,-0.19664 -0.05684,-0.39117 -0.0124,-0.58395 0.04444,-0.192777 0.141706,-0.374207 0.290938,-0.543633 0.130578,-0.14825 0.283331,-0.261253 0.45837,-0.338998 0.171929,-0.07422 0.352767,-0.112172 0.542594,-0.114205 0.19337,0.0011 0.38742,0.03701 0.58188,0.108004 0.19488,0.07763 0.38059,0.194399 0.55707,0.349849 0.17295,0.152348 0.31024,0.320328 0.41186,0.503846 0.0985,0.187057 0.1584,0.374697 0.18035,0.563267 0.0224,0.19522 0.006,0.38448 -0.0491,0.56793 -0.0581,0.18698 -0.15517,0.35836 -0.29197,0.51366 -0.1368,0.15531 -0.28319,0.26761 -0.43873,0.33745 -0.15866,0.0734 -0.32317,0.10715 -0.49351,0.10129 l -0.0408,1.09244 c 0.17387,0.009 0.34103,-0.007 0.50178,-0.047 0.16076,-0.0402 0.3124,-0.098 0.45424,-0.17364 0.13873,-0.0721 0.26836,-0.15848 0.3886,-0.25941 0.12067,-0.0943 0.22764,-0.19435 0.32091,-0.30024 0.25805,-0.29297 0.44982,-0.6033 0.57568,-0.93121 0.12586,-0.32792 0.18131,-0.65828 0.16691,-0.99064 -0.0109,-0.32925 -0.0926,-0.652049 -0.24598,-0.968933 -0.1565,-0.313353 -0.38468,-0.602349 -0.68471,-0.866613 -0.30002,-0.264266 -0.61559,-0.454303 -0.94619,-0.569992 -0.33372,-0.112159 -0.66636,-0.154281 -0.99788,-0.126607 z M 62.712969,94.70533 c -0.101338,0.0049 -0.201451,0.02144 -0.301274,0.04961 -0.202749,0.0599 -0.391073,0.18856 -0.564823,0.38654 -0.105492,0.1202 -0.185586,0.25048 -0.239779,0.39067 -0.05419,0.14019 -0.07833,0.28185 -0.07235,0.42478 -6.56e-4,0.14337 0.02876,0.28479 0.08785,0.42426 0.05245,0.13991 0.132592,0.27319 0.240813,0.39946 l -0.0093,0.0103 c -0.247185,-0.11055 -0.489418,-0.14814 -0.727087,-0.11265 -0.244308,0.0359 -0.459794,0.15995 -0.645956,0.37207 -0.179956,0.20504 -0.283293,0.40538 -0.310575,0.60048 -0.02728,0.1951 -0.0052,0.38337 0.06666,0.56534 0.06875,0.1855 0.176984,0.36161 0.324529,0.52865 0.140903,0.16747 0.292646,0.32288 0.455269,0.4656 l 1.399914,1.22835 3.29489,-3.75429 -1.537374,-1.34979 c -0.166158,-0.14583 -0.348002,-0.274 -0.545187,-0.38447 -0.200719,-0.11358 -0.404079,-0.1882 -0.609781,-0.22479 -0.102851,-0.01829 -0.205105,-0.02509 -0.306441,-0.02015 z m 33.936429,1.012343 c -0.08646,-0.005 -0.175264,9.8e-4 -0.266133,0.0186 -0.182531,0.0418 -0.378907,0.14532 -0.589628,0.31109 -0.09982,0.0785 -0.182344,0.16458 -0.247014,0.25735 -0.06467,0.0928 -0.114276,0.18552 -0.148828,0.27854 -0.03455,0.093 -0.05372,0.18258 -0.05736,0.26923 -0.0073,0.0896 -0.0055,0.17199 0.0057,0.24701 l -0.01085,0.009 -0.287837,-0.36587 -0.798917,0.62787 2.120284,2.695447 0.83199,-0.654747 -1.05575,-1.34203 c -0.06981,-0.0887 -0.131081,-0.17763 -0.183968,-0.26769 -0.05289,-0.0901 -0.08694,-0.18291 -0.102319,-0.27853 -0.01617,-0.089 -0.0072,-0.18036 0.02739,-0.27337 0.03746,-0.0893 0.109831,-0.17611 0.217042,-0.26045 0.107206,-0.0843 0.207741,-0.12754 0.30179,-0.12971 0.09035,7.4e-4 0.178201,0.0243 0.263033,0.0713 0.08114,0.0499 0.157037,0.11259 0.228409,0.1881 0.07059,0.0821 0.136334,0.16215 0.197404,0.23978 l 1.038697,1.31982 0.831473,-0.65422 -1.16892,-1.48622 c -0.142527,-0.18115 -0.286156,-0.34071 -0.430486,-0.47853 -0.148026,-0.13491 -0.302107,-0.23211 -0.462504,-0.29146 -0.08205,-0.0282 -0.16624,-0.0448 -0.252698,-0.0501 z m -33.576245,0.0589 c 0.08406,0.0112 0.165882,0.0394 0.245463,0.0842 0.07604,0.0417 0.145653,0.0904 0.20929,0.14624 l 0.74259,0.65164 -0.749308,0.8537 -0.625802,-0.54932 c -0.06717,-0.0589 -0.135137,-0.12784 -0.203605,-0.20671 -0.06847,-0.0789 -0.123531,-0.16185 -0.165881,-0.24908 -0.04235,-0.0872 -0.05993,-0.1775 -0.05271,-0.2713 5.83e-4,-0.0934 0.03922,-0.18447 0.116789,-0.27285 0.07136,-0.0813 0.149615,-0.13466 0.23461,-0.1602 0.08146,-0.0286 0.164509,-0.0375 0.248564,-0.0263 z m 3.19102,1.30121 -0.473873,0.74363 c 0.06242,-0.0104 0.136853,0.004 0.223759,0.0424 0.08041,0.0401 0.144131,0.0751 0.19172,0.10541 0.09518,0.0607 0.164975,0.12224 0.209289,0.18397 0.03782,0.0632 0.05582,0.12746 0.05323,0.19276 -0.0026,0.0653 -0.02017,0.13199 -0.05271,0.2005 -0.03507,0.0725 -0.07809,0.14858 -0.128674,0.22789 l -0.614433,0.96325 -0.785482,-0.50074 -0.45527,0.71417 0.785482,0.500737 -0.54622,0.85628 0.891935,0.56947 0.546737,-0.85679 0.571025,0.36432 0.455269,-0.71417 -0.571541,-0.3638 0.876432,-1.374597 c 0.101169,-0.15863 0.161605,-0.30979 0.180868,-0.45372 0.0153,-0.14645 -0.002,-0.28546 -0.05168,-0.41754 -0.05218,-0.12812 -0.131552,-0.24856 -0.238228,-0.36122 -0.106673,-0.11266 -0.235321,-0.21705 -0.386024,-0.31316 -0.103111,-0.0658 -0.211929,-0.12706 -0.326594,-0.18345 -0.114665,-0.0564 -0.233109,-0.098 -0.355017,-0.12557 z m -4.390947,0.38706 c 0.07742,0.0116 0.153916,0.0384 0.229961,0.0801 0.07251,0.0386 0.140485,0.0858 0.204121,0.14159 l 0.599447,0.52555 -0.702799,0.80098 -0.56224,-0.49351 c -0.06364,-0.0558 -0.122491,-0.12017 -0.17725,-0.19327 -0.05786,-0.0695 -0.100987,-0.1417 -0.129191,-0.21652 -0.02821,-0.0748 -0.03488,-0.15262 -0.02015,-0.23358 0.0081,-0.0805 0.04595,-0.15993 0.114205,-0.23771 0.06515,-0.0742 0.137132,-0.12372 0.215491,-0.14883 0.07482,-0.0282 0.150991,-0.0364 0.228409,-0.0248 z m 31.192928,0.77463 c -0.13776,-0.0127 -0.281343,0.003 -0.430464,0.0455 -0.149134,0.0428 -0.301101,0.10888 -0.455786,0.19844 -0.105845,0.0613 -0.209793,0.12984 -0.312643,0.20567 -0.102849,0.0758 -0.194868,0.16128 -0.275435,0.25683 l 0.441834,0.76378 c 0.0195,-0.0602 0.06673,-0.11998 0.141076,-0.17932 0.07262,-0.0529 0.133033,-0.0937 0.181901,-0.12196 0.0977,-0.0566 0.184214,-0.0904 0.259415,-0.10128 0.07349,-0.004 0.138568,0.01 0.195338,0.0419 0.05677,0.0324 0.108153,0.0786 0.153996,0.13901 0.04822,0.0645 0.09604,0.13767 0.143143,0.2191 l 0.572575,0.989087 -0.806152,0.46664 0.424263,0.73277 0.805636,-0.46664 0.509014,0.87954 0.916221,-0.53021 -0.509012,-0.87953 0.586011,-0.339 -0.423747,-0.732767 -0.586527,0.338997 -0.816489,-1.410247 c -0.09425,-0.16284 -0.200463,-0.28613 -0.319359,-0.36948 -0.122969,-0.081 -0.254692,-0.13004 -0.394809,-0.14677 z m -24.179919,0.47129 -1.416452,3.122807 0.963767,0.43718 0.705383,-1.55494 c 0.04663,-0.10281 0.09737,-0.1984 0.152962,-0.28681 0.0556,-0.0884 0.122697,-0.16143 0.200505,-0.21911 0.07158,-0.0553 0.156287,-0.0891 0.254764,-0.10128 0.09654,-0.008 0.20702,0.0165 0.331246,0.0729 0.124227,0.0564 0.209025,0.12577 0.254248,0.20826 0.04094,0.0806 0.06001,0.1692 0.05736,0.26613 -0.0069,0.095 -0.02732,0.19126 -0.06149,0.28939 -0.0404,0.10047 -0.08115,0.19582 -0.121956,0.28577 l -0.693498,1.52911 0.963766,0.43718 0.780831,-1.72186 c 0.0952,-0.2099 0.170958,-0.41046 0.226859,-0.60203 0.05162,-0.19352 0.06664,-0.37548 0.04547,-0.54519 -0.02544,-0.17165 -0.09537,-0.329797 -0.210323,-0.474907 -0.121182,-0.14277 -0.304118,-0.26959 -0.548286,-0.38034 -0.115659,-0.0525 -0.229456,-0.0861 -0.341582,-0.10077 -0.112125,-0.0147 -0.217265,-0.0158 -0.315743,-0.004 -0.09847,0.0122 -0.187003,0.0362 -0.265617,0.0729 -0.08289,0.0347 -0.155054,0.0744 -0.216524,0.11886 l -0.01292,-0.006 0.192237,-0.42426 z m 22.102527,0.54467 -1.905827,0.74414 c -0.20595,0.0804 -0.403366,0.182247 -0.592212,0.306437 -0.193229,0.1259 -0.35341,0.27194 -0.48059,0.4377 -0.127181,0.16576 -0.211837,0.35029 -0.253732,0.55346 -0.04019,0.20755 -0.01256,0.43416 0.0832,0.67954 0.05814,0.14898 0.137176,0.27958 0.236678,0.39223 0.0995,0.11264 0.21401,0.19944 0.343648,0.25993 0.126968,0.0666 0.266015,0.10555 0.41703,0.1173 0.14834,0.0179 0.303171,0.008 0.465087,-0.03 l 0.0052,0.0129 c -0.211933,0.16854 -0.356687,0.36644 -0.434599,0.59376 -0.08059,0.23342 -0.06953,0.48175 0.03307,0.74466 0.09918,0.25415 0.229007,0.43838 0.389641,0.55242 0.160633,0.11404 0.338165,0.18104 0.532782,0.20102 0.196348,0.0244 0.402893,0.009 0.619086,-0.045 0.213527,-0.048 0.420609,-0.111 0.622181,-0.18965 l 1.735298,-0.67748 z m -0.68678,1.267617 0.412894,1.05834 -0.775662,0.30282 c -0.08326,0.0325 -0.175455,0.0608 -0.276986,0.0853 -0.10153,0.0245 -0.200719,0.0356 -0.297656,0.0331 -0.09694,-0.003 -0.18516,-0.0284 -0.265101,-0.078 -0.08261,-0.0435 -0.145352,-0.12042 -0.188102,-0.22996 -0.03933,-0.10079 -0.05108,-0.19443 -0.03462,-0.28164 0.01208,-0.0855 0.04232,-0.16308 0.09095,-0.23254 0.04863,-0.0695 0.111171,-0.1293 0.187585,-0.17932 0.07202,-0.0483 0.147471,-0.0881 0.226343,-0.11886 z m -16.700789,0.007 c -0.17056,-0.006 -0.343291,0.006 -0.517799,0.0351 -0.349015,0.0586 -0.662044,0.20636 -0.93896,0.44287 l 0.72502,0.88521 c 0.150402,-0.13711 0.321555,-0.23027 0.513147,-0.27957 0.191595,-0.0493 0.396878,-0.0467 0.615983,0.008 0.191718,0.0477 0.362514,0.13156 0.512114,0.25115 0.145057,0.11845 0.262223,0.26132 0.3514,0.42892 0.08806,0.17215 0.145065,0.36106 0.171566,0.56637 0.0208,0.20874 0.003,0.42702 -0.05374,0.65526 -0.05561,0.22367 -0.141725,0.42268 -0.257866,0.59738 -0.120704,0.17355 -0.259732,0.31383 -0.417028,0.42013 -0.162997,0.10972 -0.338393,0.18195 -0.526583,0.21755 -0.192754,0.0345 -0.389814,0.0272 -0.590661,-0.0227 -0.200848,-0.0499 -0.367652,-0.12817 -0.501262,-0.2341 -0.138179,-0.10706 -0.244085,-0.23727 -0.317293,-0.39119 l -0.98857,0.46664 c 0.07207,0.15848 0.163174,0.29954 0.272851,0.42375 0.109677,0.12421 0.230834,0.23188 0.363285,0.32297 0.127886,0.09 0.264317,0.16503 0.409278,0.22531 0.13926,0.0637 0.276987,0.11271 0.413928,0.14676 0.378871,0.0942 0.742883,0.12192 1.091923,0.0827 0.34904,-0.0392 0.667599,-0.14169 0.956013,-0.30748 0.287281,-0.16122 0.536551,-0.38302 0.747242,-0.66507 0.206126,-0.28319 0.357245,-0.61866 0.453719,-1.00666 0.09647,-0.388 0.120294,-0.75551 0.0708,-1.10226 -0.05406,-0.34788 -0.170082,-0.66257 -0.347265,-0.94413 -0.178321,-0.27699 -0.412264,-0.51448 -0.702283,-0.71262 -0.290021,-0.19813 -0.624686,-0.34452 -1.003557,-0.43873 -0.166612,-0.0414 -0.334835,-0.0653 -0.505395,-0.0713 z m 11.840621,0.47645 c -0.126402,0.003 -0.254625,0.0165 -0.383956,0.0414 -0.258661,0.0498 -0.492985,0.13841 -0.703317,0.2651 -0.21495,0.12758 -0.390663,0.28325 -0.527615,0.46767 -0.140684,0.18993 -0.238815,0.40296 -0.29404,0.63872 -0.05523,0.23575 -0.05724,0.48761 -0.0057,0.75551 0.05155,0.2679 0.146998,0.50075 0.28577,0.69918 0.138773,0.19843 0.308265,0.35743 0.508497,0.47697 0.196501,0.12505 0.418129,0.20728 0.665075,0.24598 0.242328,0.0396 0.492713,0.0343 0.751376,-0.0155 0.258662,-0.0498 0.495601,-0.13855 0.71055,-0.26613 0.210331,-0.1267 0.385901,-0.28498 0.526583,-0.47491 0.136953,-0.18442 0.23313,-0.39418 0.288355,-0.62994 0.05523,-0.23575 0.05672,-0.48761 0.0052,-0.7555 -0.05155,-0.26791 -0.14648,-0.50128 -0.285253,-0.6997 -0.138772,-0.19843 -0.30631,-0.3602 -0.502812,-0.48525 -0.200232,-0.11954 -0.421715,-0.19915 -0.664042,-0.23874 -0.123474,-0.0194 -0.248252,-0.0276 -0.374654,-0.0248 z m -2.436544,0.51522 -1.23455,0.0264 -0.779281,1.16014 -0.772562,-1.12655 -1.248503,0.0264 1.358573,1.80609 -1.080554,1.61799 1.178223,-0.0253 0.56534,-0.94361 0.626835,0.91829 1.248503,-0.0269 -1.17719,-1.56993 z m 2.591572,0.43201 c 0.110327,0.0195 0.210194,0.0613 0.299208,0.12558 0.173407,0.12949 0.28443,0.32163 0.333312,0.57567 0.04888,0.25405 0.01685,0.47325 -0.09612,0.65784 -0.117588,0.18549 -0.307743,0.30333 -0.571025,0.35399 -0.263281,0.0507 -0.481849,0.0117 -0.655256,-0.11782 -0.178026,-0.12861 -0.291665,-0.32009 -0.340548,-0.57413 -0.04889,-0.25404 -0.01423,-0.47391 0.103353,-0.65939 0.112968,-0.1846 0.301025,-0.30229 0.564307,-0.35295 0.13164,-0.0253 0.252441,-0.0283 0.362767,-0.009 z m 5.456516,0.49506 0.387572,0.99271 -0.696597,0.27182 c -0.07887,0.0308 -0.163635,0.0538 -0.253732,0.0687 -0.08839,0.0193 -0.172256,0.0239 -0.251664,0.0145 -0.07941,-0.009 -0.151437,-0.0391 -0.216524,-0.0894 -0.06776,-0.0442 -0.120509,-0.11445 -0.15813,-0.21085 -0.03591,-0.092 -0.04686,-0.17881 -0.03307,-0.25993 0.0094,-0.0794 0.03673,-0.15056 0.08268,-0.21394 0.04596,-0.0634 0.105217,-0.11912 0.17725,-0.16743 0.06766,-0.0466 0.140753,-0.0855 0.219625,-0.11627 z" /><g
         id="g19"
         transform="translate(21.979717,74.727593)"><g
           id="g16"
           transform="translate(16.87519,30.671984)"><path
             id="path15"
             style="opacity:0.9;stroke-width:0.674;stroke-linecap:round;stroke-linejoin:round;stroke-dashoffset:0.213418"
             inkscape:transform-center-x="-0.80639411"
             inkscape:transform-center-y="3.987898"
             d="m 42.126111,-78.435006 c -3.746098,-0.07456 -2.14701,7.81599 -5.868376,8.25221 -3.721367,0.43622 -3.990828,-7.610826 -7.618139,-6.671944 -3.627302,0.938884 0.0416,8.106112 -3.424081,9.530167 -3.465665,1.424061 -5.896399,-6.251947 -9.135876,-4.369242 -3.239488,1.882702 2.226897,7.794398 -0.726054,10.100675 -2.952941,2.306281 -7.3642042,-4.4289 -9.9756187,-1.742012 -2.611405,2.686891 4.2474498,6.903904 2.0262329,9.921358 -2.2212262,3.017449 -8.28621599,-2.277912 -10.0758707,1.013892 -1.7896642,3.2918 5.9518642,5.502884 4.6271077,9.007719 -0.2480857,0.656346 -0.7045971,1.067964 -1.28829346,1.328084 1.90908036,-0.002 3.81821226,4.39e-4 5.72729896,-10e-4 7.1049023,-18.31961 27.1814243,-28.009895 45.9444823,-22.175907 10.843513,3.407732 19.547128,11.56459 23.650236,22.164539 1.611275,-1.93e-4 3.222542,-1.27e-4 4.833814,-5.17e-4 -0.732532,-3.389355 6.64655,-5.283195 5.030184,-8.560718 -1.657238,-3.360413 -7.927918,1.689584 -10.027295,-1.413867 -2.099385,-3.103455 4.92138,-7.044313 2.418973,-9.832992 -2.502425,-2.788684 -7.178278,3.765549 -10.037113,1.343588 -2.858835,-2.421963 2.838517,-8.111222 -0.323494,-10.121347 -3.162,-2.010131 -5.896538,5.562667 -9.302792,4.001823 -3.406262,-1.560847 0.544887,-8.575888 -3.042191,-9.658325 -3.587059,-1.082536 -4.1765,6.946886 -7.877556,6.362919 -3.701055,-0.583966 -1.789472,-8.404501 -5.535579,-8.479069 z m -46.5206748,62.356401 c -1.2835663,0.889861 -2.2408614,1.861092 -1.7766357,3.254582 1.1842353,3.5547777 8.0837601,-0.594693 9.7410074,2.765722 1.6572475,3.3604153 -5.8350749,6.3088918 -3.73568925,9.4123456 C 1.9334945,2.4574964 7.4587237,-3.3995007 9.9611491,-0.61081543 12.463556,2.1778638 6.0444972,7.0384413 8.9033325,9.4604045 c 2.8588355,2.4219625 6.5991605,-4.70867 9.7611615,-2.6985433 3.162001,2.0101277 -1.708175,8.4225248 1.698087,9.9833698 3.406254,1.560845 5.083725,-6.31369 8.670789,-5.231205 3.587073,1.082488 0.62787,8.57051 4.328935,9.15448 3.701046,0.583963 3.19197,-7.451381 6.938077,-7.376811 3.746107,0.07457 2.917505,8.083299 6.638872,7.647079 3.721366,-0.436221 1.062841,-8.036282 4.690153,-8.975163 3.627301,-0.938886 4.989632,6.996328 8.455298,5.57227 3.465675,-1.424058 -1.144526,-8.0247041 2.094962,-9.9074061 3.239489,-1.8827038 6.692445,5.3908411 9.645406,3.0845661 C 74.778024,8.4067637 68.557894,3.2946062 71.169299,0.60771484 73.780714,-2.0791736 79.067878,3.9925875 81.289095,0.97513428 83.510312,-2.0423181 76.141506,-5.2864845 77.93116,-8.5782878 c 1.789665,-3.2918012 8.519088,1.1287527 9.843844,-2.3760822 0.708462,-1.874337 -1.234773,-3.074169 -3.074748,-4.34082 -0.05654,0.0029 -0.112321,0.01108 -0.168982,0.01292 -2.861791,0.0031 -5.723716,-4.99e-4 -8.585522,0.0015 C 68.908034,3.1451344 48.763636,12.930823 29.929439,7.0729533 19.058052,3.6202941 10.358343,-4.6076534 6.3055583,-15.269869 c -2.0033137,3.03e-4 -4.0066597,4.06e-4 -6.00996911,10e-4 -1.60220099,0.0951 -3.21004949,-0.204332 -4.69015299,-0.80977 z"
             sodipodi:nodetypes="sssssssssscccccsssssscsscssccsssssssssssssssccccccc" /><path
             id="path16"
             style="color:#000000;opacity:0.9;fill:#000000;stroke-linecap:round;stroke-linejoin:round;stroke-dashoffset:0.213418;-inkscape-stroke:none"
             d="m 41.225907,-63.36099 c -1.140089,-0.0032 -2.273778,0.04962 -3.397725,0.157613 -12.478264,1.198969 -23.723012,9.141806 -28.7558675,21.199739 h 1.0407635 c 4.970306,-11.525895 15.793672,-19.102923 27.802954,-20.254061 4.372908,-0.419161 8.899452,0.01161 13.355257,1.411801 9.756329,3.065806 17.130505,10.143715 20.896399,18.84226 H 73.19915 C 69.377289,-51.120481 61.721677,-58.559585 51.556543,-61.753853 48.122641,-62.832916 44.646175,-63.351351 41.225907,-63.36099 Z M 9.0552612,-15.195455 C 12.872712,-6.0643883 20.534067,1.3878566 30.710787,4.5857666 48.009842,10.021784 66.38238,1.2299326 73.21672,-15.195455 H 72.191976 C 65.426217,0.55596701 47.704406,8.9282123 30.996041,3.6778117 21.228081,0.60835007 13.847954,-6.4826655 10.086206,-15.195455 Z" /></g><g
           id="g18"
           transform="translate(-20.72058,-58.40377)"><path
             id="path17"
             style="opacity:0.9;fill:none;stroke:#000000;stroke-width:1.6;stroke-linecap:round;stroke-linejoin:round;stroke-dashoffset:0.213418"
             d="m 36.201834,47.460934 h 84.422016 c 5.54,0 10,4.46 10,10 v 5.750076 c 0,5.54 -4.46,10 -10,10 H 36.201834 c -5.54,0 -10,-4.46 -10,-10 v -5.750076 c 0,-5.54 4.46,-10 10,-10 z"
             sodipodi:nodetypes="sssssssss" /><path
             id="path18"
             style="opacity:0.9;fill:none;stroke:#000000;stroke-width:0.674;stroke-linecap:round;stroke-linejoin:round;stroke-dashoffset:0.213418"
             d="m 35.88353,50.095249 h 85.05864 c 3.878,0 7,3.122 7,7 v 6.481445 c 0,3.878 -3.122,7 -7,7 H 35.88353 c -3.878,0 -7,-3.122 -7,-7 v -6.481445 c 0,-3.878 3.122,-7 7,-7 z"
             sodipodi:nodetypes="sssssssss" /><text
             xml:space="preserve"
             style="font-style:normal;font-variant:normal;font-weight:800;font-stretch:normal;font-size:13.4518px;font-family:Avenir;-inkscape-font-specification:'Avenir, Ultra-Bold';font-variant-ligatures:normal;font-variant-caps:normal;font-variant-numeric:normal;font-variant-east-asian:normal;opacity:0.9;fill:#000000;stroke:none;stroke-width:0.356951;stroke-linecap:round;stroke-linejoin:round;stroke-dasharray:none;stroke-dashoffset:0.213418"
             x="33.612564"
             y="65.334335"
             id="text18"><tspan
               sodipodi:role="line"
               id="tspan18"
               style="font-style:normal;font-variant:normal;font-weight:800;font-stretch:normal;font-size:13.4518px;font-family:Avenir;-inkscape-font-specification:'Avenir, Ultra-Bold';font-variant-ligatures:normal;font-variant-caps:normal;font-variant-numeric:normal;font-variant-east-asian:normal;fill:#000000;stroke:none;stroke-width:0.356951"
               x="33.612564"
               y="65.334335"
               dx="0 0 0 0 -5.0680362e-09">PRE-RELEASE</tspan></text></g></g><path
         id="path19"
         style="display:inline;opacity:0.9;fill:none;stroke:none;stroke-width:0.677237;stroke-linecap:round;stroke-linejoin:round;stroke-dashoffset:0.213418"
         d="M 66.841231,56.593501 A 24.391717,24.391717 0 0 1 100.67024,63.339607 24.391717,24.391717 0 0 1 93.924135,97.168613 24.391717,24.391717 0 0 1 60.095126,90.422508 24.391717,24.391717 0 0 1 66.841231,56.593501 Z" /></g></g><g
     inkscape:label="Layer 1"
     inkscape:groupmode="layer"
     id="layer1"
     style="display:inline" /><g
     inkscape:groupmode="layer"
     id="layer2"
     inkscape:label="Work layer"
     style="display:none"
     sodipodi:insensitive="true"><g
       id="g11"
       transform="translate(65.863597,-150.25399)"><path
         id="path5"
         style="opacity:0.9;stroke-width:0.674;stroke-linecap:round;stroke-linejoin:round;stroke-dashoffset:0.213418"
         inkscape:transform-center-x="-0.80639411"
         inkscape:transform-center-y="3.987898"
         d="m -30.617905,35.67617 c -0.969756,3.61918 6.953705,5.04933 5.500169,8.50275 -1.453536,3.45342 -8.014842,-1.21303 -9.925081,2.0103 -1.910239,3.22334 5.333551,6.73817 3.002194,9.67137 -2.331357,2.9332 -7.390358,-3.33043 -10.099405,-0.742 -2.709047,2.58843 3.317833,7.92727 0.28156,10.12271 -3.036272,2.19544 -6.217765,-5.20082 -9.524703,-3.43927 -3.306938,1.76155 1.056046,8.52845 -2.459955,9.8233 -3.516001,1.29485 -4.584029,-6.6855 -8.243597,-5.88147 -3.659568,0.80403 -1.284063,8.49711 -5.019027,8.79533 -3.734964,0.29823 -2.610316,-7.67433 -6.351101,-7.88746 -3.740785,-0.21313 -3.528939,7.83558 -7.205861,7.11506 -3.676922,-0.72051 -0.443008,-8.094 -3.987573,-9.30848 -3.544565,-1.21447 -5.51209,6.59292 -8.858269,4.9071 -3.34618,-1.68582 1.757156,-7.91338 -1.328305,-10.03913 -3.085461,-2.12575 -7.086431,4.86129 -9.853701,2.3352 -2.76727,-2.52609 3.827,-7.14586 1.42948,-10.02523 -2.39752,-2.87937 -8.13521,2.76912 -10.11833,-0.40989 -1.98312,-3.17902 5.61301,-5.84836 4.08124,-9.2678 -1.53177,-3.41944 -8.58063,0.47159 -9.63252,-3.12458 -1.05189,-3.59617 6.98273,-4.11711 6.43032,-7.82302 -0.55241,-3.7059 -8.38967,-1.86093 -8.43232,-5.60754 -0.0427,-3.74661 7.83458,-2.08051 8.30249,-5.79803 0.46791,-3.71752 -7.57649,-4.05543 -6.60673,-7.67461 0.96975,-3.6191895 8.10537,0.11037 9.5589,-3.3430495 1.45354,-3.45342 -6.20139,-5.94915 -4.29115,-9.17249004 1.91024,-3.22332996 7.77502,2.29309004 10.10638,-0.64010996 2.33135,-2.9332 -4.36636,-7.40166 -1.65732,-9.9900905 2.70905,-2.58843 6.868034,4.3057305 9.904307,2.1102905 3.036272,-2.1954405 -2.207501,-8.3052105 1.099437,-10.0667605 3.306938,-1.76155 5.451674,5.99903 8.967676,4.70418 3.516001,-1.29485 0.11508,-8.59281 3.774648,-9.39684 3.659568,-0.80402 3.630992,7.24742 7.365956,6.94919 3.734964,-0.29823 2.429126,-8.24312 6.169911,-8.02999 3.740785,0.21313 1.541015,7.95829 5.217937,8.67881 3.676922,0.72051 4.563015,-7.28207 8.10758,-6.06759 3.544565,1.21447 -0.663252,8.07893 2.682927,9.76475 3.34618,1.68581 6.358485,-5.78095 9.443946,-3.6552 3.085461,2.12576 -2.818328,7.6004105 -0.05106,10.1265005 2.767266,2.52609 7.682376,-3.85107 10.079898,-0.9717 2.397522,2.87937 -4.764382,6.55818996 -2.781264,9.7372 1.983117,3.17902 8.4365,-1.63558 9.96827,1.78386 1.53177,3.41944 -6.357083,5.02957 -5.305194,8.6257395 1.051889,3.59617 8.564927,0.70121 9.117341,4.40711 0.552414,3.70591 -7.478309,3.12795 -7.435661,6.87456 0.04265,3.74661 8.058134,2.98599 7.590221,6.70351 -0.467912,3.71752 -8.044902,0.99433 -9.014659,4.61351 z" /><path
         id="path6"
         style="opacity:0.9;fill:#f9f9f9;stroke-width:1.03775;stroke-linecap:round;stroke-linejoin:round;stroke-dashoffset:0.213418"
         d="m -33.698261,24.83588 a 37.376148,37.376148 0 0 1 -37.376152,37.37615 37.376148,37.376148 0 0 1 -37.376147,-37.37615 37.376148,37.376148 0 0 1 37.376147,-37.37615 37.376148,37.376148 0 0 1 37.376152,37.37615 z" /><path
         id="path7"
         style="opacity:0.9;fill:none;stroke:#000000;stroke-width:0.952162;stroke-linecap:round;stroke-linejoin:round;stroke-dashoffset:0.213418"
         d="M -36.78083,24.83588 A 34.293579,34.293579 0 0 1 -71.074413,59.12946 34.293579,34.293579 0 0 1 -105.36799,24.83588 34.293579,34.293579 0 0 1 -71.074413,-9.4576995 34.293579,34.293579 0 0 1 -36.78083,24.83588 Z" /></g><g
       id="g10"
       transform="translate(-83.308403,-101.38518)"><path
         id="path9"
         style="opacity:0.9;fill:none;stroke:#000000;stroke-width:1.6;stroke-linecap:round;stroke-linejoin:round;stroke-dashoffset:0.213418"
         d="m 36.201834,47.460934 h 84.422016 c 5.54,0 10,4.46 10,10 v 5.750076 c 0,5.54 -4.46,10 -10,10 H 36.201834 c -5.54,0 -10,-4.46 -10,-10 v -5.750076 c 0,-5.54 4.46,-10 10,-10 z"
         sodipodi:nodetypes="sssssssss" /><path
         id="path10"
         style="opacity:0.9;fill:none;stroke:#000000;stroke-width:0.674;stroke-linecap:round;stroke-linejoin:round;stroke-dashoffset:0.213418"
         d="m 35.88353,50.095249 h 85.05864 c 3.878,0 7,3.122 7,7 v 6.481445 c 0,3.878 -3.122,7 -7,7 H 35.88353 c -3.878,0 -7,-3.122 -7,-7 v -6.481445 c 0,-3.878 3.122,-7 7,-7 z"
         sodipodi:nodetypes="sssssssss" /><text
         xml:space="preserve"
         style="font-style:normal;font-variant:normal;font-weight:800;font-stretch:normal;font-size:13.4518px;font-family:Avenir;-inkscape-font-specification:'Avenir, Ultra-Bold';font-variant-ligatures:normal;font-variant-caps:normal;font-variant-numeric:normal;font-variant-east-asian:normal;opacity:0.9;fill:#000000;stroke:none;stroke-width:0.356951;stroke-linecap:round;stroke-linejoin:round;stroke-dasharray:none;stroke-dashoffset:0.213418"
         x="33.612564"
         y="65.334335"
         id="text10"><tspan
           sodipodi:role="line"
           id="tspan10"
           style="font-style:normal;font-variant:normal;font-weight:800;font-stretch:normal;font-size:13.4518px;font-family:Avenir;-inkscape-font-specification:'Avenir, Ultra-Bold';font-variant-ligatures:normal;font-variant-caps:normal;font-variant-numeric:normal;font-variant-east-asian:normal;fill:#000000;stroke:none;stroke-width:0.356951"
           x="33.612564"
           y="65.334335"
           dx="0 0 0 0 -5.0680362e-09">PRE-RELEASE</tspan></text></g></g></svg>
