<?xml version="1.0" encoding="UTF-8" standalone="no"?>
<svg
   xmlns:dc="http://purl.org/dc/elements/1.1/"
   xmlns:cc="http://creativecommons.org/ns#"
   xmlns:rdf="http://www.w3.org/1999/02/22-rdf-syntax-ns#"
   xmlns:svg="http://www.w3.org/2000/svg"
   xmlns="http://www.w3.org/2000/svg"
   xmlns:sodipodi="http://sodipodi.sourceforge.net/DTD/sodipodi-0.dtd"
   xmlns:inkscape="http://www.inkscape.org/namespaces/inkscape"
   version="1.2"
   x="0mm"
   y="0mm"
   width="200"
   height="200"
   viewBox="0 0 56.444443 56.444443"
   id="svg7895"
   inkscape:version="0.91 r13725"
   sodipodi:docname="star2.svg"
   inkscape:export-filename="/Users/jason/workspace/CutBox/CutBox/CutBox/GraphicAssets/star.png"
   inkscape:export-xdpi="90"
   inkscape:export-ydpi="90">
  <metadata
     id="metadata7969">
    <rdf:RDF>
      <cc:Work
         rdf:about="">
        <dc:format>image/svg+xml</dc:format>
        <dc:type
           rdf:resource="http://purl.org/dc/dcmitype/StillImage" />
        <dc:title></dc:title>
      </cc:Work>
    </rdf:RDF>
  </metadata>
  <defs
     id="defs7967" />
  <sodipodi:namedview
     pagecolor="#ffffff"
     bordercolor="#666666"
     borderopacity="1"
     objecttolerance="10"
     gridtolerance="10"
     guidetolerance="10"
     inkscape:pageopacity="0"
     inkscape:pageshadow="2"
     inkscape:window-width="1359"
     inkscape:window-height="988"
     id="namedview7965"
     showgrid="false"
     units="px"
     inkscape:zoom="0.9899495"
     inkscape:cx="303.04637"
     inkscape:cy="311.37788"
     inkscape:window-x="0"
     inkscape:window-y="862"
     inkscape:window-maximized="0"
     inkscape:current-layer="svg7895" />
  <style
     type="text/css"
     id="style7897"><![CDATA[
text { font:12px Dialog; }
]]></style>
  <path
     style="fill:#000000;stroke:none;stroke-width:0.2466598;stroke-linecap:round"
     d="m 44.233201,35.526513 8.931373,-6.489022 c 2.389456,-1.736045 3.389304,-4.813252 2.476609,-7.622226 -0.912689,-2.808975 -3.530319,-4.710793 -6.483846,-4.710793 l -11.039787,0 L 34.706068,6.2050136 C 33.793376,3.39604 31.175748,1.4942212 28.222219,1.4942212 c -2.953529,0 -5.571158,1.9018188 -6.483849,4.7107924 l -1.458436,4.4885984 3.714915,5.113142 2.606409,-8.0216926 c 0.228173,-0.702243 0.882578,-1.1776982 1.620961,-1.1776982 0.738382,0 1.392791,0.4754552 1.620964,1.1776982 l 4.559451,14.0325536 14.754703,0 c 0.738376,0 1.392787,0.475454 1.620962,1.177698 0.228174,0.702244 -0.02179,1.471546 -0.619156,1.905555 l -11.9368,8.672594 4.559452,14.032552 c 0.228173,0.702246 -0.0218,1.471545 -0.619152,1.905555 -0.597364,0.43401 -1.406256,0.43401 -2.00362,3e-6 L 28.222219,40.838973 16.285417,49.511572 c -0.597364,0.434007 -1.406256,0.434007 -2.003621,-3e-6 -0.597362,-0.43401 -0.847324,-1.203309 -0.619152,-1.905555 L 18.222098,33.573462 6.2852957,24.900868 C 5.6879317,24.466859 5.43797,23.697557 5.6661429,22.995313 5.8943149,22.293069 6.5487226,21.817615 7.2871047,21.817615 l 14.7546973,0 -3.714915,-5.113143 -11.0397823,0 c -2.9535292,0 -5.5711583,1.901818 -6.48384909,4.710793 -0.91269088,2.808974 0.0871571,5.886181 2.47661089,7.622226 l 8.9313705,6.489022 -3.4114801,10.499452 c -0.9126904,2.808978 0.087157,5.886183 2.4766101,7.622225 2.389456,1.73604 5.625023,1.73604 8.014479,0 l 8.931373,-6.489022 8.931372,6.489022 c 2.389456,1.73604 5.625023,1.73604 8.01448,0 2.389457,-1.736042 3.389305,-4.813247 2.476609,-7.622225 z"
     id="line8145"
     inkscape:connector-curvature="0"
     sodipodi:nodetypes="ccscccsccccscccscccscccscccsccccscccscccscc" />
</svg>
