<?xml version="1.0" encoding="UTF-8" standalone="no"?>
<svg
   xmlns:dc="http://purl.org/dc/elements/1.1/"
   xmlns:cc="http://creativecommons.org/ns#"
   xmlns:rdf="http://www.w3.org/1999/02/22-rdf-syntax-ns#"
   xmlns:svg="http://www.w3.org/2000/svg"
   xmlns="http://www.w3.org/2000/svg"
   xmlns:sodipodi="http://sodipodi.sourceforge.net/DTD/sodipodi-0.dtd"
   xmlns:inkscape="http://www.inkscape.org/namespaces/inkscape"
   version="1.2"
   x="0mm"
   y="0mm"
   width="202mm"
   height="183mm"
   viewBox="0 0 202 183"
   id="svg4326"
   inkscape:version="0.91 r13725"
   sodipodi:docname="star-7.svg">
  <metadata
     id="metadata4400">
    <rdf:RDF>
      <cc:Work
         rdf:about="">
        <dc:format>image/svg+xml</dc:format>
        <dc:type
           rdf:resource="http://purl.org/dc/dcmitype/StillImage" />
      </cc:Work>
    </rdf:RDF>
  </metadata>
  <defs
     id="defs4398" />
  <sodipodi:namedview
     pagecolor="#ffffff"
     bordercolor="#666666"
     borderopacity="1"
     objecttolerance="10"
     gridtolerance="10"
     guidetolerance="10"
     inkscape:pageopacity="0"
     inkscape:pageshadow="2"
     inkscape:window-width="1489"
     inkscape:window-height="779"
     id="namedview4396"
     showgrid="false"
     inkscape:zoom="0.64001214"
     inkscape:cx="357.87402"
     inkscape:cy="324.2126"
     inkscape:window-x="0"
     inkscape:window-y="862"
     inkscape:window-maximized="0"
     inkscape:current-layer="svg4326" />
  <style
     type="text/css"
     id="style4328"><![CDATA[
text { font:12px Dialog; }
]]></style>
  <path
     d="m 86.034658,147.75573 c -6.24836,4.5397 -14.70928,4.5397 -20.95764,-1e-5 L 38.787398,128.6552 12.497776,147.75572 c -6.2483595,4.53971 -14.7092755,4.53971 -20.9576355,1e-5 -6.2483605,-4.5397 -8.8629285,-12.58651 -6.4762675,-19.93191 L -4.8943835,96.918527 -31.184005,77.817997 c -6.24836,-4.5397 -8.862927,-12.58651 -6.476266,-19.931897 2.386661,-7.345388 9.231686,-12.31859 16.955083,-12.318591 l 32.49576,0 10.041741,-30.905302 C 24.218974,7.3168187 31.063999,2.3436167 38.787397,2.3436167 c 7.723398,0 14.568421,4.973202 16.955091,12.3185903 l 7.14546,21.991488 -9.37254,0 -6.25047,-19.236967 c -1.193329,-3.672694 -4.615842,-6.159295 -8.477541,-6.159295 -3.861699,0 -7.284212,2.486601 -8.477544,6.159295 l -12.043016,37.0646 -38.972025,-10e-7 c -3.861698,-2e-6 -7.284211,2.486599 -8.477541,6.159293 -1.193331,3.672694 0.113953,7.696099 3.238133,9.96595 L 5.5844335,93.513757 -6.4585845,130.57835 c -1.19333,3.67269 0.113954,7.6961 3.238134,9.96595 3.12418,2.26985 7.354638,2.26985 10.478819,0 l 31.5290295,-22.90718 31.52903,22.90718 c 3.12418,2.26985 7.35464,2.26985 10.47882,0 3.12418,-2.26985 4.43146,-6.29326 3.23814,-9.96595 L 71.990368,93.513757 103.51939,70.60657 c 3.12418,-2.269851 4.43147,-6.293256 3.23814,-9.96595 -1.19334,-3.672694 -4.61585,-6.159295 -8.477552,-6.159293 l -38.97202,10e-7 -2.89628,-8.913819 9.37255,0 32.49575,0 c 7.723402,10e-7 14.568432,4.973203 16.955092,12.318591 2.38666,7.345387 -0.22791,15.392197 -6.47626,19.931897 l -26.289632,19.10053 10.04175,30.905293 c 2.38665,7.3454 -0.22791,15.39221 -6.47627,19.93191 z"
     style="fill:#000000;stroke:none;stroke-width:0.2076053;stroke-linecap:round"
     id="path4336"
     inkscape:connector-curvature="0"
     sodipodi:nodetypes="scccscccscccsccccscccscccscccscccscccccscccs" />
  <path
     style="fill:#000000;stroke:none;stroke-width:6.13438272;stroke-linecap:round;stroke-miterlimit:4;stroke-dasharray:none"
     d="m 237.76202,106.80849 c 4.72226,0 8.90746,3.04073 10.36671,7.53186 1.45926,4.49113 -0.13934,9.41113 -3.95973,12.1868 l -22.80479,16.56865 8.71066,26.80864 c 1.45925,4.49113 -0.13935,9.41112 -3.95973,12.1868 -3.82039,2.77567 -8.99358,2.77567 -12.81396,0 l -22.80479,-16.56865 -22.80479,16.56865 c -3.82039,2.77567 -8.99358,2.77567 -12.81396,0 -3.82038,-2.77568 -5.41899,-7.69567 -3.95973,-12.1868 l 8.71065,-26.80864 -22.80479,-16.56865 c -3.82038,-2.77567 -5.41898,-7.69567 -3.95973,-12.1868 1.45926,-4.49113 5.64446,-7.53186 10.36671,-7.53186 l 28.18828,10e-6 8.71064,-26.808643 c 1.45926,-4.49113 5.64446,-7.53186 10.36672,-7.53186 4.72225,0 8.90745,3.04073 10.3667,7.53186 l 1.62728,5.00823 11.46115,0 -2.72171,-8.37658 c -2.91851,-8.982264 -11.28892,-15.063713 -20.73342,-15.063713 -9.44451,0 -17.81491,6.081449 -20.73342,15.063713 l -6.26341,19.27678 -20.26881,0 c -9.44451,0 -17.8149,6.081453 -20.73341,15.063713 -2.91852,8.98226 0.27869,18.82225 7.91945,24.3736 l 16.39782,11.91371 -6.26341,19.27678 c -2.91852,8.98226 0.27869,18.82225 7.91946,24.3736 7.64077,5.55134 17.98715,5.55134 25.62792,0 l 16.39781,-11.91371 16.39781,11.91371 c 7.64077,5.55134 17.98715,5.55134 25.62792,0 7.64076,-5.55135 10.83797,-15.39134 7.91946,-24.3736 l -6.26341,-19.27678 16.39781,-11.91371 c 7.64077,-5.55135 10.83798,-15.39134 7.91946,-24.3736 -2.91851,-8.98226 -11.28891,-15.063713 -20.73342,-15.063713 l -20.2688,0 -11.46115,0 3.54168,10.900213 z"
     id="line4456"
     inkscape:connector-curvature="0"
     sodipodi:nodetypes="cscccscccscccscccsccccscccscccscccscccsccccc" />
</svg>
