<?xml version="1.0" encoding="UTF-8"?>
<!DOCTYPE svg PUBLIC "-//W3C//DTD SVG 1.1//EN" "http://www.w3.org/Graphics/SVG/1.1/DTD/svg11.dtd">
<svg version="1.2" xmlns="http://www.w3.org/2000/svg" xmlns:xlink="http://www.w3.org/1999/xlink" x="0mm" y="0mm" width="202mm" height="183mm" viewBox="0 0 202 183">
<style type="text/css"><![CDATA[
text { font:12px Dialog; }
]]></style>
<path d="M108.4678089,36.8738609 C105.5492951,27.8915989 97.1788982,21.8101496 87.7343891,21.8101496 C78.2898799,21.8101496 69.9194831,27.8915989 67.0009692,36.8738609" style="fill:none;stroke:rgb(0,124,124);stroke-width:0.2076053;stroke-linecap:round" />
<path d="M147.8139809,95.5879507 C155.4547493,90.0366075 158.6519564,80.1966158 155.7334426,71.2143539 C152.8149288,62.2320919 144.4445319,56.1506426 135.0000228,56.1506426" style="fill:none;stroke:rgb(0,124,124);stroke-width:0.2076053;stroke-linecap:round" />
<path d="M104.1321991,151.1520356 C111.7729675,156.7033787 122.119347,156.7033787 129.7601154,151.1520356 C137.4008838,145.6006924 140.5980909,135.7607007 137.679577,126.7784388" style="fill:none;stroke:rgb(0,124,124);stroke-width:0.2076053;stroke-linecap:round" />
<path d="M37.7892011,126.7784388 C34.8706873,135.7607007 38.0678944,145.6006924 45.7086628,151.1520356 C53.3494312,156.7033787 63.6958107,156.7033787 71.3365791,151.1520356" style="fill:none;stroke:rgb(0,124,124);stroke-width:0.2076053;stroke-linecap:round" />
<path d="M40.4687553,56.1506426 C31.0242462,56.1506426 22.6538493,62.2320919 19.7353355,71.2143539 C16.8168217,80.1966158 20.0140288,90.0366075 27.6547972,95.5879507" style="fill:none;stroke:rgb(0,124,124);stroke-width:0.2076053;stroke-linecap:round" />
<line x1="67.0009692" y1="36.8738609" x2="60.7375632" y2="56.1506426" style="fill:none;stroke:rgb(0,124,124);stroke-width:0.2076053;stroke-linecap:round" />
<line x1="40.4687553" y1="56.1506426" x2="60.7375632" y2="56.1506426" style="fill:none;stroke:rgb(0,124,124);stroke-width:0.2076053;stroke-linecap:round" />
<line x1="27.6547972" y1="95.5879507" x2="44.0526072" y2="107.501657" style="fill:none;stroke:rgb(0,124,124);stroke-width:0.2076053;stroke-linecap:round" />
<line x1="37.7892011" y1="126.7784388" x2="44.0526072" y2="107.501657" style="fill:none;stroke:rgb(0,124,124);stroke-width:0.2076053;stroke-linecap:round" />
<line x1="71.3365791" y1="151.1520356" x2="87.7343891" y2="139.2383292" style="fill:none;stroke:rgb(0,124,124);stroke-width:0.2076053;stroke-linecap:round" />
<line x1="87.7343891" y1="139.2383292" x2="104.1321991" y2="151.1520356" style="fill:none;stroke:rgb(0,124,124);stroke-width:0.2076053;stroke-linecap:round" />
<line x1="131.416171" y1="107.501657" x2="137.679577" y2="126.7784388" style="fill:none;stroke:rgb(0,124,124);stroke-width:0.2076053;stroke-linecap:round" />
<line x1="131.416171" y1="107.501657" x2="147.8139809" y2="95.5879507" style="fill:none;stroke:rgb(0,124,124);stroke-width:0.2076053;stroke-linecap:round" />
<path d="M98.101099,40.2422091 C96.6418421,35.7510781 92.4566436,32.7103535 87.7343891,32.7103535 C83.0121345,32.7103535 78.8269361,35.7510781 77.3676792,40.2422091" style="fill:none;stroke:rgb(0,124,124);stroke-width:0.2076053;stroke-linecap:round" />
<path d="M141.4070019,86.7695005 C145.2273861,83.9938289 146.8259896,79.0738331 145.3667327,74.5827021 C143.9074758,70.0915711 139.7222774,67.0508465 135.0000228,67.0508465" style="fill:none;stroke:rgb(0,124,124);stroke-width:0.2076053;stroke-linecap:round" />
<path d="M110.5391781,142.3335854 C114.3595623,145.109257 119.5327521,145.109257 123.3531363,142.3335854 C127.1735205,139.5579138 128.772124,134.637918 127.3128671,130.146787" style="fill:none;stroke:rgb(0,124,124);stroke-width:0.2076053;stroke-linecap:round" />
<path d="M48.155911,130.146787 C46.6966541,134.637918 48.2952576,139.5579138 52.1156418,142.3335854 C55.936026,145.109257 61.1092158,145.109257 64.9296,142.3335854" style="fill:none;stroke:rgb(0,124,124);stroke-width:0.2076053;stroke-linecap:round" />
<path d="M40.4687553,67.0508465 C35.7465008,67.0508465 31.5613023,70.0915711 30.1020454,74.5827021 C28.6427885,79.0738331 30.2413921,83.9938289 34.0617763,86.7695005" style="fill:none;stroke:rgb(0,124,124);stroke-width:0.2076053;stroke-linecap:round" />
<line x1="34.0617763" y1="86.7695005" x2="56.8665653" y2="103.3381496" style="fill:none;stroke:rgb(0,124,124);stroke-width:0.2076053;stroke-linecap:round" />
<line x1="56.8665653" y1="103.3381496" x2="48.155911" y2="130.146787" style="fill:none;stroke:rgb(0,124,124);stroke-width:0.2076053;stroke-linecap:round" />
<line x1="64.9296" y1="142.3335854" x2="87.7343891" y2="125.7649363" style="fill:none;stroke:rgb(0,124,124);stroke-width:0.2076053;stroke-linecap:round" />
<line x1="87.7343891" y1="125.7649363" x2="110.5391781" y2="142.3335854" style="fill:none;stroke:rgb(0,124,124);stroke-width:0.2076053;stroke-linecap:round" />
<line x1="40.4687553" y1="67.0508465" x2="68.6570248" y2="67.0508465" style="fill:none;stroke:rgb(0,124,124);stroke-width:0.2076053;stroke-linecap:round" />
<line x1="68.6570248" y1="67.0508465" x2="77.3676792" y2="40.2422091" style="fill:none;stroke:rgb(0,124,124);stroke-width:0.2076053;stroke-linecap:round" />
<line x1="114.731215" y1="56.1506426" x2="135.0000228" y2="56.1506426" style="fill:none;stroke:rgb(0,124,124);stroke-width:0.2076053;stroke-linecap:round" />
<line x1="135.0000228" y1="67.0508465" x2="106.8117533" y2="67.0508465" style="fill:none;stroke:rgb(0,124,124);stroke-width:0.2076053;stroke-linecap:round" />
<line x1="108.4678089" y1="36.8738609" x2="111.189524" y2="45.2504388" style="fill:none;stroke:rgb(0,124,124);stroke-width:0.2076053;stroke-linecap:round" />
<line x1="98.101099" y1="40.2422091" x2="99.7283714" y2="45.2504388" style="fill:none;stroke:rgb(0,124,124);stroke-width:0.2076053;stroke-linecap:round" />
<line x1="99.7283714" y1="45.2504388" x2="111.189524" y2="45.2504388" style="fill:none;stroke:rgb(0,124,124);stroke-width:0.2076053;stroke-linecap:round" />
<line x1="103.2700624" y1="56.1506426" x2="106.8117533" y2="67.0508465" style="fill:none;stroke:rgb(0,124,124);stroke-width:0.2076053;stroke-linecap:round" />
<line x1="103.2700624" y1="56.1506426" x2="114.731215" y2="56.1506426" style="fill:none;stroke:rgb(0,124,124);stroke-width:0.2076053;stroke-linecap:round" />
<line x1="141.4070019" y1="86.7695005" x2="118.6022128" y2="103.3381496" style="fill:none;stroke:rgb(0,124,124);stroke-width:0.2076053;stroke-linecap:round" />
<line x1="118.6022128" y1="103.3381496" x2="127.3128671" y2="130.146787" style="fill:none;stroke:rgb(0,124,124);stroke-width:0.2076053;stroke-linecap:round" />
</svg>
