<?xml version="1.0" encoding="UTF-8"?>
<!DOCTYPE svg PUBLIC "-//W3C//DTD SVG 1.1//EN" "http://www.w3.org/Graphics/SVG/1.1/DTD/svg11.dtd">
<svg version="1.2" xmlns="http://www.w3.org/2000/svg" xmlns:xlink="http://www.w3.org/1999/xlink" x="0mm" y="0mm" width="202mm" height="183mm" viewBox="0 0 202 183">
<style type="text/css"><![CDATA[
text { font:12px Dialog; }
]]></style>
<path d="M106.543157,30.9503916 C103.8955644,22.8019393 96.3021788,17.2850217 87.7343891,17.2850217 C79.1665993,17.2850217 71.5732137,22.8019393 68.9256211,30.9503916" style="fill:none;stroke:rgb(0,124,124);stroke-width:0.2076053;stroke-linecap:round" />
<path d="M152.8527849,91.9270453 C159.7842724,86.8910249 162.6846876,77.9644647 160.037095,69.8160125 C157.3895023,61.6675602 149.7961167,56.1506426 141.228327,56.1506426" style="fill:none;stroke:rgb(0,124,124);stroke-width:0.2076053;stroke-linecap:round" />
<path d="M109.171003,154.8129409 C116.1024905,159.8489613 125.4884313,159.8489613 132.4199188,154.8129409 C139.3514063,149.7769205 142.2518215,140.8503603 139.6042289,132.701908" style="fill:none;stroke:rgb(0,124,124);stroke-width:0.2076053;stroke-linecap:round" />
<path d="M35.8645493,132.701908 C33.2169566,140.8503603 36.1173719,149.7769205 43.0488593,154.8129409 C49.9803468,159.8489613 59.3662877,159.8489613 66.2977751,154.8129409" style="fill:none;stroke:rgb(0,124,124);stroke-width:0.2076053;stroke-linecap:round" />
<path d="M34.2404512,56.1506426 C25.6726614,56.1506426 18.0792758,61.6675602 15.4316832,69.8160125 C12.7840906,77.9644647 15.6845058,86.8910249 22.6159933,91.9270453" style="fill:none;stroke:rgb(0,124,124);stroke-width:0.2076053;stroke-linecap:round" />
<line x1="68.9256211" y1="30.9503916" x2="60.7375632" y2="56.1506426" style="fill:none;stroke:rgb(0,124,124);stroke-width:0.2076053;stroke-linecap:round" />
<line x1="34.2404512" y1="56.1506426" x2="60.7375632" y2="56.1506426" style="fill:none;stroke:rgb(0,124,124);stroke-width:0.2076053;stroke-linecap:round" />
<line x1="22.6159933" y1="91.9270453" x2="44.0526072" y2="107.501657" style="fill:none;stroke:rgb(0,124,124);stroke-width:0.2076053;stroke-linecap:round" />
<line x1="35.8645493" y1="132.701908" x2="44.0526072" y2="107.501657" style="fill:none;stroke:rgb(0,124,124);stroke-width:0.2076053;stroke-linecap:round" />
<line x1="66.2977751" y1="154.8129409" x2="87.7343891" y2="139.2383292" style="fill:none;stroke:rgb(0,124,124);stroke-width:0.2076053;stroke-linecap:round" />
<line x1="87.7343891" y1="139.2383292" x2="109.171003" y2="154.8129409" style="fill:none;stroke:rgb(0,124,124);stroke-width:0.2076053;stroke-linecap:round" />
<line x1="131.416171" y1="107.501657" x2="139.6042289" y2="132.701908" style="fill:none;stroke:rgb(0,124,124);stroke-width:0.2076053;stroke-linecap:round" />
<line x1="131.416171" y1="107.501657" x2="152.8527849" y2="91.9270453" style="fill:none;stroke:rgb(0,124,124);stroke-width:0.2076053;stroke-linecap:round" />
<path d="M97.1387731,34.0060612 C95.8149767,29.931835 92.0182839,27.1733763 87.7343891,27.1733763 C83.4504942,27.1733763 79.6538014,29.931835 78.3300051,34.0060612" style="fill:none;stroke:rgb(0,124,124);stroke-width:0.2076053;stroke-linecap:round" />
<path d="M147.0405559,83.9271985 C150.5062997,81.4091883 151.9565073,76.9459082 150.632711,72.871682 C149.3089146,68.7974559 145.5122218,66.0389971 141.228327,66.0389971" style="fill:none;stroke:rgb(0,124,124);stroke-width:0.2076053;stroke-linecap:round" />
<path d="M114.9832319,146.8130941 C118.4489757,149.3311043 123.1419461,149.3311043 126.6076898,146.8130941 C130.0734336,144.2950838 131.5236412,139.8318037 130.1998449,135.7575776" style="fill:none;stroke:rgb(0,124,124);stroke-width:0.2076053;stroke-linecap:round" />
<path d="M45.2689333,135.7575776 C43.9451369,139.8318037 45.3953446,144.2950838 48.8610883,146.8130941 C52.326832,149.3311043 57.0198025,149.3311043 60.4855462,146.8130941" style="fill:none;stroke:rgb(0,124,124);stroke-width:0.2076053;stroke-linecap:round" />
<path d="M34.2404512,66.0389971 C29.9565563,66.0389971 26.1598635,68.7974559 24.8360672,72.871682 C23.5122709,76.9459082 24.9624785,81.4091883 28.4282222,83.9271985" style="fill:none;stroke:rgb(0,124,124);stroke-width:0.2076053;stroke-linecap:round" />
<line x1="28.4282222" y1="83.9271985" x2="55.6770651" y2="103.7246417" style="fill:none;stroke:rgb(0,124,124);stroke-width:0.2076053;stroke-linecap:round" />
<line x1="55.6770651" y1="103.7246417" x2="45.2689333" y2="135.7575776" style="fill:none;stroke:rgb(0,124,124);stroke-width:0.2076053;stroke-linecap:round" />
<line x1="60.4855462" y1="146.8130941" x2="87.7343891" y2="127.0156509" style="fill:none;stroke:rgb(0,124,124);stroke-width:0.2076053;stroke-linecap:round" />
<line x1="87.7343891" y1="127.0156509" x2="114.9832319" y2="146.8130941" style="fill:none;stroke:rgb(0,124,124);stroke-width:0.2076053;stroke-linecap:round" />
<line x1="34.2404512" y1="66.0389971" x2="67.9218733" y2="66.0389971" style="fill:none;stroke:rgb(0,124,124);stroke-width:0.2076053;stroke-linecap:round" />
<line x1="67.9218733" y1="66.0389971" x2="78.3300051" y2="34.0060612" style="fill:none;stroke:rgb(0,124,124);stroke-width:0.2076053;stroke-linecap:round" />
<line x1="114.731215" y1="56.1506426" x2="141.228327" y2="56.1506426" style="fill:none;stroke:rgb(0,124,124);stroke-width:0.2076053;stroke-linecap:round" />
<line x1="141.228327" y1="66.0389971" x2="107.5469049" y2="66.0389971" style="fill:none;stroke:rgb(0,124,124);stroke-width:0.2076053;stroke-linecap:round" />
<line x1="106.543157" y1="30.9503916" x2="111.5182938" y2="46.2622881" style="fill:none;stroke:rgb(0,124,124);stroke-width:0.2076053;stroke-linecap:round" />
<line x1="97.1387731" y1="34.0060612" x2="101.1210626" y2="46.2622881" style="fill:none;stroke:rgb(0,124,124);stroke-width:0.2076053;stroke-linecap:round" />
<line x1="101.1210626" y1="46.2622881" x2="111.5182938" y2="46.2622881" style="fill:none;stroke:rgb(0,124,124);stroke-width:0.2076053;stroke-linecap:round" />
<line x1="104.3339837" y1="56.1506426" x2="107.5469049" y2="66.0389971" style="fill:none;stroke:rgb(0,124,124);stroke-width:0.2076053;stroke-linecap:round" />
<line x1="104.3339837" y1="56.1506426" x2="114.731215" y2="56.1506426" style="fill:none;stroke:rgb(0,124,124);stroke-width:0.2076053;stroke-linecap:round" />
<line x1="147.0405559" y1="83.9271985" x2="119.7917131" y2="103.7246417" style="fill:none;stroke:rgb(0,124,124);stroke-width:0.2076053;stroke-linecap:round" />
<line x1="119.7917131" y1="103.7246417" x2="130.1998449" y2="135.7575776" style="fill:none;stroke:rgb(0,124,124);stroke-width:0.2076053;stroke-linecap:round" />
</svg>
