<?xml version="1.0" encoding="UTF-8" standalone="no"?>
<!-- Generator: Adobe Illustrator 19.0.0, SVG Export Plug-In . SVG Version: 6.00 Build 0)  -->

<svg
   xmlns:dc="http://purl.org/dc/elements/1.1/"
   xmlns:cc="http://creativecommons.org/ns#"
   xmlns:rdf="http://www.w3.org/1999/02/22-rdf-syntax-ns#"
   xmlns:svg="http://www.w3.org/2000/svg"
   xmlns="http://www.w3.org/2000/svg"
   xmlns:sodipodi="http://sodipodi.sourceforge.net/DTD/sodipodi-0.dtd"
   xmlns:inkscape="http://www.inkscape.org/namespaces/inkscape"
   version="1.1"
   id="Layer_1"
   x="0px"
   y="0px"
   viewBox="0 0 504.149 504.149"
   style="enable-background:new 0 0 504.149 504.149;"
   xml:space="preserve"
   inkscape:version="0.91 r13725"
   sodipodi:docname="cutbox.svg"><metadata
     id="metadata49"><rdf:RDF><cc:Work
         rdf:about=""><dc:format>image/svg+xml</dc:format><dc:type
           rdf:resource="http://purl.org/dc/dcmitype/StillImage" /><dc:title></dc:title></cc:Work></rdf:RDF></metadata><defs
     id="defs47" /><sodipodi:namedview
     pagecolor="#ffffff"
     bordercolor="#666666"
     borderopacity="1"
     objecttolerance="10"
     gridtolerance="10"
     guidetolerance="10"
     inkscape:pageopacity="0"
     inkscape:pageshadow="2"
     inkscape:window-width="1312"
     inkscape:window-height="825"
     id="namedview45"
     showgrid="false"
     showguides="true"
     inkscape:guide-bbox="true"
     inkscape:zoom="1"
     inkscape:cx="252.07449"
     inkscape:cy="252.07449"
     inkscape:window-x="0"
     inkscape:window-y="0"
     inkscape:window-maximized="0"
     inkscape:current-layer="Layer_1"><sodipodi:guide
       position="-460.00001,165"
       orientation="0,1"
       id="guide4186" /><sodipodi:guide
       position="-477.00001,311.00001"
       orientation="1,0"
       id="guide4188" /></sodipodi:namedview><polygon
     style="fill:#6c5353"
     points="433.488,189.915 433.488,399.409 252.074,504.149 70.661,399.409 70.661,189.915 252.074,85.175 "
     id="polygon3"
     transform="translate(0,-32)" /><polyline
     style="fill:#483737"
     points="252.074,85.175 433.488,189.915 433.488,399.409 252.074,504.149 "
     id="polyline5"
     transform="translate(0,-32)" /><polygon
     style="fill:#483737"
     points="252.074,85.175 70.661,189.915 70.661,190.041 252.074,294.78 433.488,190.041 433.488,189.915 "
     id="polygon7"
     transform="translate(0,-32)" /><polyline
     style="fill:#6c5353"
     points="252.074,294.78 433.488,190.041 433.488,189.915 252.074,85.175 "
     id="polyline9"
     transform="translate(0,-32)" /><g
     id="g15"
     transform="translate(0,-32)" /><g
     id="g17"
     transform="translate(0,-32)" /><g
     id="g19"
     transform="translate(0,-32)" /><g
     id="g21"
     transform="translate(0,-32)" /><g
     id="g23"
     transform="translate(0,-32)" /><g
     id="g25"
     transform="translate(0,-32)" /><g
     id="g27"
     transform="translate(0,-32)" /><g
     id="g29"
     transform="translate(0,-32)" /><g
     id="g31"
     transform="translate(0,-32)" /><g
     id="g33"
     transform="translate(0,-32)" /><g
     id="g35"
     transform="translate(0,-32)" /><g
     id="g37"
     transform="translate(0,-32)" /><g
     id="g39"
     transform="translate(0,-32)" /><g
     id="g41"
     transform="translate(0,-32)" /><g
     id="g43"
     transform="translate(0,-32)" /><g
     id="g4196"
     style="fill:#ffffff"
     transform="matrix(1.2740911,0,0,1.2740911,696.31558,3.7189177)"><path
       inkscape:connector-curvature="0"
       id="path4177"
       d="m -348.14844,113.21094 a 9.8009802,9.8009802 0 0 0 -9.65234,9.9375 l 0,92.39062 40.27734,35.92383 a 9.8009802,9.8009802 0 1 0 13.04688,-14.62695 l -33.72266,-30.07813 0,-83.60937 a 9.8009802,9.8009802 0 0 0 -9.94922,-9.9375 z"
       style="color:#000000;font-style:normal;font-variant:normal;font-weight:normal;font-stretch:normal;font-size:medium;line-height:normal;font-family:sans-serif;text-indent:0;text-align:start;text-decoration:none;text-decoration-line:none;text-decoration-style:solid;text-decoration-color:#000000;letter-spacing:normal;word-spacing:normal;text-transform:none;direction:ltr;block-progression:tb;writing-mode:lr-tb;baseline-shift:baseline;text-anchor:start;white-space:normal;clip-rule:nonzero;display:inline;overflow:visible;visibility:visible;opacity:1;isolation:auto;mix-blend-mode:normal;color-interpolation:sRGB;color-interpolation-filters:linearRGB;solid-color:#000000;solid-opacity:1;fill:#ffffff;fill-opacity:1;fill-rule:evenodd;stroke:none;stroke-width:19.60000038;stroke-linecap:round;stroke-linejoin:miter;stroke-miterlimit:4;stroke-dasharray:none;stroke-dashoffset:0;stroke-opacity:1;color-rendering:auto;image-rendering:auto;shape-rendering:auto;text-rendering:auto;enable-background:accumulate" /><path
       inkscape:connector-curvature="0"
       id="path4181"
       d="m -344.10938,88.130859 c -60.5997,0 -109.9082,49.308491 -109.9082,109.908201 a 8.5629328,8.5629328 0 1 0 17.12305,0 c 0,-51.34513 41.44004,-92.7832 92.78515,-92.7832 51.34514,0 92.78516,41.43807 92.78516,92.7832 0,51.34512 -41.44002,92.78516 -92.78516,92.78516 a 8.5629328,8.5629328 0 1 0 0,17.125 c 60.59971,0 109.91016,-49.31046 109.91016,-109.91016 0,-60.59971 -49.31045,-109.908201 -109.91016,-109.908201 z"
       style="color:#000000;font-style:normal;font-variant:normal;font-weight:normal;font-stretch:normal;font-size:medium;line-height:normal;font-family:sans-serif;text-indent:0;text-align:start;text-decoration:none;text-decoration-line:none;text-decoration-style:solid;text-decoration-color:#000000;letter-spacing:normal;word-spacing:normal;text-transform:none;direction:ltr;block-progression:tb;writing-mode:lr-tb;baseline-shift:baseline;text-anchor:start;white-space:normal;clip-rule:nonzero;display:inline;overflow:visible;visibility:visible;opacity:1;isolation:auto;mix-blend-mode:normal;color-interpolation:sRGB;color-interpolation-filters:linearRGB;solid-color:#000000;solid-opacity:1;fill:#ffffff;fill-opacity:1;fill-rule:nonzero;stroke:none;stroke-width:17.12415314;stroke-linecap:round;stroke-linejoin:round;stroke-miterlimit:4;stroke-dasharray:none;stroke-dashoffset:0;stroke-opacity:1;color-rendering:auto;image-rendering:auto;shape-rendering:auto;text-rendering:auto;enable-background:accumulate" /><path
       inkscape:connector-curvature="0"
       id="path4190"
       d="m -474.63477,176.17969 a 8.5629328,8.5629328 0 0 0 -5.96484,14.70312 l 35.14258,35.14258 35.14453,-35.14258 a 8.5629328,8.5629328 0 1 0 -12.10938,-12.10937 l -23.03515,23.03515 -23.0332,-23.03515 a 8.5629328,8.5629328 0 0 0 -6.14454,-2.59375 z"
       style="color:#000000;font-style:normal;font-variant:normal;font-weight:normal;font-stretch:normal;font-size:medium;line-height:normal;font-family:sans-serif;text-indent:0;text-align:start;text-decoration:none;text-decoration-line:none;text-decoration-style:solid;text-decoration-color:#000000;letter-spacing:normal;word-spacing:normal;text-transform:none;direction:ltr;block-progression:tb;writing-mode:lr-tb;baseline-shift:baseline;text-anchor:start;white-space:normal;clip-rule:nonzero;display:inline;overflow:visible;visibility:visible;opacity:1;isolation:auto;mix-blend-mode:normal;color-interpolation:sRGB;color-interpolation-filters:linearRGB;solid-color:#000000;solid-opacity:1;fill:#ffffff;fill-opacity:1;fill-rule:evenodd;stroke:none;stroke-width:17.12415314;stroke-linecap:round;stroke-linejoin:miter;stroke-miterlimit:4;stroke-dasharray:none;stroke-dashoffset:0;stroke-opacity:1;color-rendering:auto;image-rendering:auto;shape-rendering:auto;text-rendering:auto;enable-background:accumulate" /></g></svg>